<?xml version="1.0" encoding="UTF-8"?><svg xmlns="http://www.w3.org/2000/svg" xmlns:xlink="http://www.w3.org/1999/xlink" viewBox="0 0 1700.79 1133.86"><defs><style>.g{fill:#f7a94a;}.h,.i,.j{fill:#fff;}.k{fill:#e8988c;}.l{fill:#6c9fe0;}.m{fill:#82b5e0;}.n{fill:#f6f6f6;}.o{fill:#367ad1;}.p{fill:#3c5685;}.q{fill:#2a3d5e;}.r{fill:#f23e6e;}.s{fill:#fec1b5;}.i{opacity:.5;}.t{fill:#ffc291;}.u{fill:url(#f);}.v{fill:#2f3b7a;}.w{fill:#37bae6;opacity:.4;}.x{fill:#29235c;}.y{fill:#dadada;}.j{opacity:.75;}.a`{fill:#232e4d;}.aa{fill:#2f54a4;}.ab{fill:#fad189;}.ac{fill:#878787;}.ad{fill:#bf2251;}.ae{fill:url(#d);}.af{fill:#fa6496;}.ag{fill:url(#e);}.ah{fill:#8db5e8;}.ai{fill:#f0996e;}.aj{fill:#ffda99;}.ak{fill:#1e2859;}.al{fill:#b3cdee;}.am{fill:#c6c6c6;}.an{fill:#2060b3;}</style><linearGradient id="d" x1="1030.71" y1="847.86" x2="1237.32" y2="847.86" gradientTransform="matrix(1, 0, 0, 1, 0, 0)" gradientUnits="userSpaceOnUse"><stop offset="0" stop-color="#2060b3"/><stop offset="1" stop-color="#367ad1"/></linearGradient><linearGradient id="e" x1="665.16" y1="944.09" x2="665.16" y2="670.04" xlink:href="#d"/><linearGradient id="f" x1="9346.19" y1="617.11" x2="9327.97" y2="543.13" gradientTransform="translate(10204.63) rotate(-180) scale(1 -1)" gradientUnits="userSpaceOnUse"><stop offset="0" stop-color="#2f3b7a"/><stop offset="1" stop-color="#4d5aa1"/></linearGradient></defs><g id="a"/><g id="b"><g id="c"><g><rect class="h" width="1700.79" height="1133.86"/><ellipse class="ah" cx="655.78" cy="944.09" rx="159.96" ry="24.73"/><ellipse class="ah" cx="554.23" cy="944.09" rx="194.52" ry="12.13"/><path class="l" d="M608.54,641.48c42.41,2.81,94.06,45.92,127.35,110.88,33.29,64.96,38.14,132.06,15.65,168.13-42.41-2.81-94.06-45.92-127.35-110.88-33.29-64.96-38.14-132.06-15.65-168.13Z"/><g><g><path class="t" d="M382.08,564.8c1.64,102.18,39.53,183.9,86.05,183.9s84.41-81.72,86.05-183.9h-172.09Z"/><path class="t" d="M519.95,831.38c-26.44-5.05-41.75-39.26-41.75-80.72,0-2.54,.07-5.05,.21-7.52h-20.56c.14,2.48,.21,4.99,.21,7.52,0,41.46-15.32,75.67-41.75,80.72h103.65Z"/><rect class="ai" x="416.3" y="831.38" width="103.65" height="19.28"/><path class="t" d="M524.29,850.66h-112.32c-11.83,0-21.42,9.59-21.42,21.42h155.16c0-11.83-9.59-21.42-21.42-21.42Z"/><path class="ai" d="M528.73,564.8c-9.91,81.14-43.37,140.83-83.12,140.83-16.14,0-31.24-9.85-44.15-26.97,15.79,42.76,39.79,70.05,66.67,70.05,46.51,0,84.41-81.72,86.05-183.9h-25.44Z"/><path class="t" d="M411.65,701.92c-42.64-15.39-75.77-74.18-82.4-147.69h29.7c5.74,19.06,14.56,36.22,25.7,50.53-.89-7.81-1.56-15.82-2-23.98-6.62-11.37-11.85-24.11-15.33-37.82h-50.62c4.61,90.66,48.28,163.35,103.63,173.65-3.03-4.49-5.93-9.4-8.67-14.69Z"/><path class="ai" d="M524.61,701.92c42.64-15.39,75.76-74.18,82.4-147.69h-29.7c-5.74,19.06-14.56,36.22-25.7,50.53,.89-7.81,1.56-15.82,2-23.98,6.62-11.37,11.85-24.11,15.33-37.82h50.62c-4.61,90.66-48.28,163.35-103.63,173.65,3.03-4.49,5.93-9.4,8.67-14.69Z"/><rect class="ai" x="380.92" y="872.07" width="174.42" height="72.02"/></g><circle class="i" cx="468.13" cy="640.12" r="39.85" transform="translate(-263.68 945.66) rotate(-76.48)"/><path class="t" d="M453.23,623.43v-11.81h21.9v45.11h8.63v11.89h-31.27v-11.89h8.47v-33.3h-7.73Z"/></g><path class="ah" d="M549.14,944.09c-45.15-40.91-69.35-91.36-64.08-130.64,41.26-19.27,108.23-5.84,167.06,37.37,36.92,27.11,63.6,60.79,76.86,93.28h-179.83Z"/><path class="n" d="M499.86,831l58.4,42.49-42.02,5.21c-.77,.1-1.46,.48-1.93,1.1-.48,.61-.69,1.37-.59,2.14,.18,1.45,1.42,2.54,2.88,2.54,.12,0,.24,0,.36-.02,0,0,48.17-5.97,48.18-5.97l90.18,65.61h9.86l-161.9-117.79c-.5-.36-1.09-.56-1.71-.56-.93,0-1.8,.45-2.35,1.2-.46,.63-.64,1.39-.52,2.16,.12,.77,.53,1.44,1.16,1.89Z"/><path class="l" d="M1165.34,631.09c27.04,40.06,24.08,109.28-11.43,173.06-35.51,63.77-92.79,102.75-141.09,100.87-27.04-40.06-24.08-109.28,11.43-173.06,35.51-63.77,92.79-102.75,141.09-100.87Z"/><path class="al" d="M997.32,950.49c-.54,0-1.08-.13-1.56-.39-.78-.42-1.36-1.11-1.62-1.96-.26-.85-.17-1.75,.24-2.53l141.09-265.37-10.02-28.17c-.3-.84-.25-1.74,.13-2.54,.38-.8,1.05-1.41,1.89-1.71,.36-.13,.73-.19,1.11-.19,1.4,0,2.66,.89,3.13,2.21l7.98,22.44,16.65-31.32c.58-1.09,1.7-1.77,2.94-1.77,.54,0,1.08,.14,1.56,.39,.78,.42,1.36,1.11,1.62,1.96,.26,.85,.17,1.75-.24,2.53l-47.26,88.9,46.99-11.32c.26-.06,.52-.09,.78-.09,1.54,0,2.87,1.05,3.23,2.55,.43,1.78-.67,3.58-2.45,4.01l-52.72,12.7-110.53,207.9c-.58,1.09-1.7,1.76-2.94,1.76Z"/><ellipse class="ah" cx="990.89" cy="944.09" rx="272.41" ry="36.15"/><path class="ae" d="M1237.32,944.1c-.6-29.67-24.08-51.15-25.84-70.84-2.64-29.48,15.27-51.22,19.1-77.83,3.37-23.43-12.9-47.9-44.81-43.22-32.4,4.75-23.77,40.97-50.02,62.83-20.22,16.84-64.09,14.93-85.07,56.12-11.11,21.83-10.28,49.3-19.96,72.94h206.6Z"/><path class="l" d="M823.45,548.74c36.17,20.51,63.02,79.95,64.21,150.51,1.2,70.57-23.62,130.88-59.07,152.6-36.17-20.51-63.02-79.95-64.21-150.51-1.2-70.57,23.62-130.88,59.07-152.6Z"/><path class="al" d="M697.57,504.94c51.13,15.54,100.56,81.51,120.42,168.07,19.86,86.56,4.12,167.48-35.12,203.75-51.13-15.54-100.56-81.51-120.42-168.07-19.86-86.56-4.12-167.48,35.12-203.75Z"/><path class="n" d="M777.57,857.16c-1.56,0-2.89-1.06-3.24-2.58l-51.25-223.43-55.31-30.18c-.78-.43-1.35-1.13-1.6-1.98-.25-.85-.15-1.75,.27-2.53,.58-1.07,1.7-1.73,2.92-1.73,.55,0,1.1,.14,1.59,.41l50.14,27.36-10.59-46.18c-.63-.79-.87-1.83-.64-2.81l-12.66-55.2c-.41-1.79,.71-3.58,2.5-3.99,.24-.06,.5-.08,.75-.08,1.56,0,2.89,1.06,3.24,2.58l11.23,48.95,13.28-19.21c.62-.9,1.64-1.44,2.74-1.44,.68,0,1.33,.2,1.89,.59,1.51,1.04,1.89,3.12,.84,4.63l-16.74,24.22,11.98,52.23c1.37,.96,1.83,2.82,1.01,4.32l-.02,.03,50.92,221.98c.41,1.79-.71,3.57-2.5,3.98-.25,.06-.5,.08-.74,.08Z"/><path class="ag" d="M529.99,698.55c-2.94-14.87,8.2-26.13,22.28-28.11,15.55-2.19,31.7,5.01,41.58,16.97,10.78,13.04,17.94,39.9,29.63,51.99,28.74,29.73,54,12.91,81.95,33.96,24,18.08,13.99,44.67,30.96,70.36,13.43,20.33,51.81,33.81,61.32,65.84,3.81,12.85,3.86,24.38,1.44,34.55h-225.7c-1.05-4.92-1.57-10.16-1.5-15.72,.35-28.44,27.15-50.79,3.37-78.33-7.08-8.19-31.39-20.32-38-36.22-11.18-26.89,15.93-54.4,13.32-73.07-2.25-16.1-17.53-26.42-20.65-42.21Z"/><path class="r" d="M1093.79,804.86h-403.7v5.7h2.75c5.93,0,7.11,12.88,7.11,28.25,0,14.53-1.4,28.25-7.57,28.25h-2.28v5.7h402.98c7.89,0,9.91-14.21,9.91-31.86,0-18.53-1.07-36.04-9.2-36.04Z"/><path class="ad" d="M921.63,804.86h-231.54v5.7h2.75c5.93,0,7.11,12.88,7.11,28.25,0,14.53-1.4,28.25-7.57,28.25h-2.28v5.7h230.82c7.29,0,9.69-12.65,9.69-33.09s-1.67-34.81-8.97-34.81Z"/><path class="y" d="M916.97,810.56h-224.14c5.93,0,7.11,12.88,7.11,28.25,0,14.36-1.37,27.9-7.35,28.23,54.84,0,208.74,.02,223.92,.02,6.18,0,7.57-13.71,7.57-28.25,0-15.37-1.18-28.25-7.11-28.25Z"/><path class="p" d="M1066.94,798.58c-3.63,0-5.88-9.22-5.88-22.08,0-11.7,2.32-19.54,5.88-19.54h4.71v-6.28h-398.03c-4.19,0-8.74,7.94-8.74,27.09s5.06,27.09,9.33,27.09h397.44v-6.28h-4.71Z"/><path class="a`" d="M1066.94,798.58c-3.63,0-5.88-9.22-5.88-22.08,0-11.7,2.32-19.54,5.88-19.54h4.71v-6.28h-216.84v54.17h216.84v-6.28h-4.71Z"/><path class="h" d="M1061.05,776.5c0-11.7,2.32-19.54,5.88-19.54h-389.94c-3.56,0-5.88,7.84-5.88,19.54,0,12.86,2.26,22.08,5.88,22.08h389.94c-3.63,0-5.88-9.22-5.88-22.08Z"/><path class="y" d="M1061.05,776.5c0-11.7,2.32-19.54,5.88-19.54h-216.84c-3.56,0-5.88,7.84-5.88,19.54,0,12.86,2.26,22.08,5.88,22.08h216.84c-3.63,0-5.88-9.22-5.88-22.08Z"/><path class="h" d="M902.07,867.06c-44.89,0-163.39-.01-209.48-.02,5.99-.33,7.35-13.88,7.35-28.23,0-4.72-.11-9.21-.44-13.15,57.86-7.01,136.48-6.43,176.19,10.92,16.82,7.35,28.88,18.92,26.38,30.48Z"/><g><path class="ac" d="M922.27,859.86c-.1,.36-.19,.72-.3,1.06h-224.15c.11-.34,.21-.69,.3-1.06h224.15Z"/><path class="ac" d="M923.48,852.67c-.04,.36-.08,.71-.12,1.06h-224.14c.04-.35,.08-.7,.12-1.06h224.14Z"/><path class="ac" d="M923.97,845.47c-.01,.36-.02,.71-.04,1.06h-224.14c.02-.35,.03-.71,.05-1.06h224.13Z"/><rect class="ac" x="699.94" y="838.28" width="224.14" height="1.06"/></g><path class="p" d="M1087.77,682.94h-391.13v7.48h2.42c6.33,0,7.47,15.53,7.47,26.4,0,10.86-1.11,26.4-7.47,26.4h-2.42v7.48h391.13c8.16,0,8.66-19.93,8.66-33.87,0-13.94-.5-33.87-8.66-33.87Z"/><path class="q" d="M952.4,682.94h-255.76v7.48h2.42c6.33,0,7.47,15.53,7.47,26.4,0,10.86-1.11,26.4-7.47,26.4h-2.42v7.48h255.76c8.16,0,10.61-19.93,10.61-33.87,0-13.94-2.45-33.87-10.61-33.87Z"/><path class="y" d="M948.2,690.42h-249.14c6.33,0,7.47,15.53,7.47,26.4,0,10.86-1.11,26.4-7.47,26.4h249.14c6.36,0,7.46-15.53,7.47-26.4,0-10.86-1.13-26.4-7.47-26.4Z"/><path class="r" d="M682.72,622.67h384.22v6.65h-2.37c-6.22,0-7.33,13.82-7.33,23.48,0,9.67,1.09,23.48,7.33,23.48h2.37v6.65h-384.22c-8.02,0-8.5-17.73-8.5-30.13,0-12.4,.49-30.13,8.5-30.13Z"/><path class="ad" d="M829.22,622.67h237.72v6.65h-2.37c-6.22,0-7.33,13.82-7.33,23.48,0,9.67,1.09,23.48,7.33,23.48h2.37v6.65h-237.72c-8.02,0-10.42-17.73-10.42-30.13,0-12.4,2.4-30.13,10.42-30.13Z"/><path class="y" d="M833.35,629.32h231.21c-6.22,0-7.33,13.82-7.33,23.48,0,9.67,1.09,23.48,7.33,23.48h-231.21c-6.25,0-7.33-13.82-7.33-23.48,0-9.67,1.11-23.48,7.33-23.48Z"/><path class="ab" d="M1077.26,804.86h-30.41c8.13,0,9.2,17.51,9.2,36.04s-2.02,31.86-9.91,31.86h30.41c7.89,0,9.91-14.21,9.91-31.86,0-18.53-1.07-36.04-9.2-36.04Z"/><path class="h" d="M932.05,743.21v.02c-47.6,0-166.71-.02-227.31-.02h-5.68c6.36,0,7.47-15.53,7.47-26.4,0-3.58-.12-7.67-.52-11.53,65.96-5.5,151.45-4.42,195.52,10.55,19.45,6.61,33.38,17,30.51,27.38Z"/><path class="al" d="M1193.13,944.1h-133.19c5.7-33.82,44.41-72.47,99.41-95.24,55.33-22.9,110.36-22.79,138.14-2.54-5.34,33.96-44.19,72.93-99.52,95.83-1.61,.67-3.23,1.31-4.84,1.94Z"/><path class="n" d="M1085.13,945.3l-.51-2.29,80.33-37.7,8.9-63.2,.7-.24c1.2-.41,2.42-.8,3.62-1.19l1.82-.58-8.77,62.26,14.59-6.85,6.89-48.6c.2-1.42,1.43-2.5,2.87-2.5,.14,0,.28,.01,.42,.03,1.57,.23,2.68,1.7,2.46,3.27l-6.35,44.85,95.18-44.67c.39-.18,.8-.28,1.23-.28,1.12,0,2.15,.66,2.63,1.67,.68,1.45,.05,3.18-1.39,3.86l-51.65,24.24,23.42,7.59c.74,.24,1.34,.75,1.69,1.45,.35,.69,.41,1.47,.17,2.21-.38,1.2-1.49,2.01-2.76,2.01-.27,0-.55-.04-.85-.13l-29.36-9.52-137.03,64.3h-8.26Z"/><g><path class="q" d="M1122.74,937.53c-7.27,0-8.02-16.53-8.02-29.1,0-15.96,.78-29.1,8.02-29.1h2.18v-6.57h-463.51c-5.4,0-9.97,12.94-9.97,35.67,0,19.19,2.69,35.67,9.97,35.67h463.51v-6.57h-2.18Z"/><path class="a`" d="M1122.74,937.53c-7.27,0-8.02-16.53-8.02-29.1,0-15.96,.78-29.1,8.02-29.1h2.18v-6.57h-308.47c-5.4,0-9.97,12.94-9.97,35.67,0,19.19,2.69,35.67,9.97,35.67h308.47v-6.57h-2.18Z"/><path class="y" d="M1114.72,908.43c0-15.96,.78-29.1,8.02-29.1h-299.54c-7.24,0-9.15,13.14-9.15,29.1,0,12.57,1.88,29.1,9.15,29.1h299.54c-7.27,0-8.02-16.53-8.02-29.1Z"/><path class="h" d="M1122.75,937.53h-254.81c-3.97-5.06-.46-17.81,14.43-22.38,61.82-18.99,161.28-24.04,232.38-9.18-.01,.81-.01,1.63-.01,2.45,0,12.57,.75,29.1,8.02,29.1Z"/><path class="ac" d="M1116.86,931.18h-260.55c-.08-.35-.14-.7-.19-1.06h260.44c.09,.36,.2,.71,.31,1.06Z"/><path class="ac" d="M1115.42,923.77h-259.49c.04-.35,.08-.71,.14-1.06h259.23c.04,.35,.07,.71,.12,1.06Z"/></g><ellipse class="ah" cx="1035.35" cy="1015.56" rx="191.99" ry="6.47"/><path class="ah" d="M1449.31,990.19c0,3.76-74.42,6.81-166.23,6.81s-166.23-3.05-166.23-6.81,74.42-6.81,166.23-6.81,166.23,3.05,166.23,6.81Z"/><g><rect class="g" x="1221.74" y="846" width="64.16" height="225.2" transform="translate(295.22 2212.41) rotate(-90)"/><polygon class="aj" points="1432.29 958.6 1366.41 990.67 1366.41 926.52 1432.29 958.6"/><polygon class="q" points="1411.18 948.31 1432.29 958.6 1411.18 968.88 1411.18 948.31"/><rect class="h" x="1252.75" y="862.44" width="2.13" height="225.2" transform="translate(278.77 2228.86) rotate(-90)"/><rect class="h" x="1252.75" y="829.55" width="2.13" height="225.2" transform="translate(311.67 2195.96) rotate(-90)"/></g><g><path class="p" d="M1016.29,938.6c0,42.76,34.66,77.42,77.42,77.42h15.84c42.76,0,77.42-34.66,77.42-77.42s-34.66-77.42-77.42-77.42h-15.84c-42.76,0-77.42,34.66-77.42,77.42Zm25.67,0c0-34.65,26.07-63.2,59.67-67.12,33.6,3.92,59.67,32.48,59.67,67.12s-26.07,63.2-59.67,67.12c-33.6-3.92-59.67-32.48-59.67-67.12Z"/><circle class="w" cx="1101.63" cy="938.6" r="67.59" transform="translate(-341.03 1053.88) rotate(-45)"/><path class="q" d="M1032.13,938.6c0,42.76,34.66,77.42,77.42,77.42s77.42-34.66,77.42-77.42-34.66-77.42-77.42-77.42-77.42,34.66-77.42,77.42Zm9.83,0c0-37.33,30.26-67.59,67.59-67.59s67.59,30.26,67.59,67.59-30.26,67.59-67.59,67.59-67.59-30.26-67.59-67.59Z"/><g><polygon class="an" points="858.56 1014.79 1030.23 966.78 1025.71 949.9 853.04 994.19 858.56 1014.79"/><path class="an" d="M1023.02,959.67c1.26,4.69,4.5,7.87,7.22,7.11,2.7-.76,3.87-5.12,2.63-9.75s-4.44-7.83-7.16-7.13c-2.74,.7-3.95,5.08-2.69,9.77Z"/><path class="o" d="M848.41,1006.47c1.54,5.73,6.1,9.45,10.15,8.32,4.02-1.12,6.03-6.61,4.52-12.25-1.51-5.65-5.99-9.39-10.04-8.35-4.08,1.05-6.17,6.55-4.63,12.28Z"/></g><path class="j" d="M1108,883.08c4.41,6.83-5.17,16.62-19.01,25.57s-26.7,13.67-31.12,6.84c-4.41-6.83,1.48-22.32,15.32-31.27,13.84-8.95,30.39-7.96,34.81-1.14Z"/></g><path class="l" d="M541.58,696.86c8.88,5.6,25.42,16.03,26.17,41.43,.26,8.77-.84,16.82-1.9,24.61-2.4,17.68-4.66,34.38,8.59,54.57,7.25,11.04,18.21,18.97,28.8,26.64,13.98,10.13,27.19,19.7,31.04,35.31,3.3,13.39,.28,28.79-2.66,43.76-1.42,7.28-2.77,14.26-3.41,20.91h9.11c.63-6.03,1.88-12.5,3.2-19.24,3.11-15.87,6.32-32.28,2.55-47.6-4.64-18.82-19.82-29.82-34.53-40.48-9.93-7.2-20.21-14.64-26.54-24.27-11.39-17.34-9.44-31.72-7.18-48.37v-.09c1.12-8.15,2.26-16.58,1.98-26.01-.79-26.57-15.08-39.17-30.41-48.83-.73-.46-1.56-.7-2.42-.7-1.56,0-2.99,.79-3.84,2.12-1.32,2.11-.68,4.91,1.44,6.25Z"/><path class="ab" d="M687.71,872.76h31.95c-8.54,0-9.66,18.4-9.66,37.87s2.12,33.47,10.42,33.47h-31.95c-8.29,0-10.42-14.93-10.42-33.47,0-19.47,1.12-37.87,9.66-37.87Z"/><circle class="h" cx="629.24" cy="676.07" r="7.45" transform="translate(-172.96 1133.75) rotate(-76.76)"/><path class="h" d="M681.64,570.84c0,3.33-2.7,6.03-6.03,6.03s-6.03-2.7-6.03-6.03,2.7-6.03,6.03-6.03,6.03,2.7,6.03,6.03Z"/><g><polygon class="t" points="322.48 477.31 330.59 484.6 341.19 482.05 336.76 492.01 342.46 501.31 331.62 500.18 324.54 508.48 322.26 497.81 312.18 493.64 321.62 488.18 322.48 477.31"/><polygon class="t" points="478.13 420.19 484.11 433 498.06 435.33 487.73 444.98 489.82 458.96 477.45 452.11 464.8 458.42 467.48 444.54 457.57 434.46 471.6 432.73 478.13 420.19"/><polygon class="t" points="586.47 494.85 577.88 502.57 566.66 499.87 571.35 510.42 565.31 520.26 576.79 519.06 584.29 527.84 586.69 516.55 597.36 512.14 587.37 506.36 586.47 494.85"/><circle class="t" cx="410.08" cy="527.84" r="12.29" transform="translate(-169.76 195.32) rotate(-22.32)"/><circle class="t" cx="385.05" cy="425.6" r="8.28"/><circle class="t" cx="280.71" cy="579.55" r="8.28"/><circle class="y" cx="546.35" cy="470.38" r="8.28"/><circle class="y" cx="494.55" cy="529.43" r="10.69"/><circle class="y" cx="312.18" cy="639.21" r="6.5"/><circle class="y" cx="426.81" cy="479.43" r="6.5"/><circle class="y" cx="435.36" cy="319.68" r="6.5"/></g><circle class="al" cx="571" cy="923.77" r="7.04"/><circle class="h" cx="669.83" cy="735.22" r="4.67"/><path class="al" d="M657.07,849.4c0,2.84-2.3,5.15-5.15,5.15s-5.15-2.3-5.15-5.15,2.3-5.15,5.15-5.15,5.15,2.3,5.15,5.15Z"/><circle class="n" cx="549.56" cy="827.77" r="4.67"/><circle class="n" cx="1207.47" cy="818.38" r="5.27"/><path class="h" d="M1064.56,676.29h-220.12c-3.46-4.83-.4-17.02,12.6-21.4,53.26-17.92,138.52-22.86,200.43-9.32-.18,2.49-.24,4.98-.24,7.24,0,9.66,1.09,23.48,7.33,23.48Z"/><g><path class="ac" d="M1059.07,670.15h-222.66c-.02-.35-.03-.7,0-1.06h222.37c.09,.37,.2,.72,.3,1.06Z"/><path class="ac" d="M1057.72,662.96h-220.17c.12-.36,.25-.71,.41-1.06h219.65c.03,.36,.07,.71,.11,1.06Z"/><path class="ac" d="M1057.26,655.76h-215.6c.29-.36,.59-.7,.91-1.05h214.68c0,.35,0,.7,.02,1.05Z"/></g><g><rect class="ak" x="636.85" y="227.45" width="495.76" height="314.42" rx="5.35" ry="5.35"/><g><rect class="v" x="643.75" y="227.45" width="495.76" height="314.42" rx="5.35" ry="5.35"/><rect class="h" x="650.65" y="234.35" width="481.97" height="300.62" rx="2.27" ry="2.27"/><rect class="w" x="671.09" y="272.7" width="352.65" height="197.86"/><rect class="am" x="671.09" y="482.99" width="288.99" height="7.1"/><rect class="am" x="671.09" y="495.18" width="65.32" height="7.1"/><rect class="am" x="973.8" y="495.18" width="49.95" height="7.1"/><g><rect class="w" x="1044.18" y="272.7" width="67.99" height="38.15"/><path class="h" d="M1077.04,293.52v-3.49l3.02,1.74-3.02,1.74Zm5.95-4.85h-9.63c-.38,0-.69,.31-.69,.69v4.84c0,.38,.31,.69,.69,.69h9.63c.38,0,.69-.31,.69-.69v-4.84c0-.38-.31-.69-.69-.69Z"/></g><g><rect class="w" x="1044.18" y="325.94" width="67.99" height="38.15"/><path class="h" d="M1077.04,346.76v-3.49l3.02,1.74-3.02,1.74Zm5.95-4.85h-9.63c-.38,0-.69,.31-.69,.69v4.84c0,.38,.31,.69,.69,.69h9.63c.38,0,.69-.31,.69-.69v-4.84c0-.38-.31-.69-.69-.69Z"/></g><g><rect class="w" x="1044.18" y="379.18" width="67.99" height="38.15"/><path class="h" d="M1077.04,400v-3.49l3.02,1.74-3.02,1.74Zm5.95-4.85h-9.63c-.38,0-.69,.31-.69,.69v4.84c0,.38,.31,.69,.69,.69h9.63c.38,0,.69-.31,.69-.69v-4.84c0-.38-.31-.69-.69-.69Z"/></g><g><rect class="w" x="1044.18" y="432.42" width="67.99" height="38.15"/><path class="h" d="M1077.04,453.24v-3.49l3.02,1.74-3.02,1.74Zm5.95-4.85h-9.63c-.38,0-.69,.31-.69,.69v4.84c0,.38,.31,.69,.69,.69h9.63c.38,0,.69-.31,.69-.69v-4.84c0-.38-.31-.69-.69-.69Z"/></g><g><rect class="w" x="1044.18" y="485.66" width="67.99" height="35.15"/><path class="h" d="M1077.04,506.47v-3.49l3.02,1.74-3.02,1.74Zm5.95-4.85h-9.63c-.38,0-.69,.31-.69,.69v4.84c0,.38,.31,.69,.69,.69h9.63c.38,0,.69-.31,.69-.69v-4.84c0-.38-.31-.69-.69-.69Z"/></g><path class="ak" d="M650.65,520.81h481.97v11.93c0,1.23-1,2.23-2.23,2.23h-477.48c-1.24,0-2.25-1.01-2.25-2.25v-11.91h0Z"/><rect class="am" x="671.09" y="253.18" width="65.32" height="7.1"/><path class="m" d="M652.9,234.35h477.49c1.23,0,2.23,1,2.23,2.23v8.28h-481.97v-8.26c0-1.24,1.01-2.25,2.25-2.25Z"/><rect class="am" x="916.95" y="495.18" width="49.95" height="7.1"/><rect class="am" x="847.42" y="495.18" width="28.17" height="7.1"/><rect class="am" x="879.58" y="495.18" width="28.17" height="7.1"/></g><g><polygon class="ak" points="819.52 541.87 907.74 541.87 905.42 622.67 794.07 622.67 819.52 541.87"/><rect class="v" x="836.02" y="615.77" width="183.41" height="6.9" transform="translate(1855.45 1238.45) rotate(180)"/><polygon class="u" points="804.08 615.77 827.35 541.87 915.58 541.87 913.45 615.77 804.08 615.77"/></g></g><g><path class="aa" d="M904.7,268.6c-27.01-10.83-71.58-11.39-105.91-2.76-29.59,7.44-29.15,28.83-28.63,36.96,2.54,39.92,12.17,167.77,12.17,167.77h137.29s18.16-117.18,15.02-168.74c-.89-14.53,4.38-19.46-29.94-33.23Z"/><path class="aa" d="M1001.86,430.91l-128.63-129.05,18.57-15.53c17.35-12.75,38.63-7.24,57.88,9.44,16.14,13.98,32.82,39.25,38.58,47.33,14.11,19.81,54.14,74.48,54.14,74.48l-13.96,12.46c-8.07,7.2-19.71,7.59-26.57,.88Z"/><path class="aa" d="M697.35,443.02c1.51-33.95,17.68-96.93,37.29-130.7,19.17-33.01,56.95-49.63,65.3-41.55,4.68,4.52,3.84,12.29,.83,22.76-8.49,29.54-47.86,127.9-64.06,148.59-9.06,11.58-18.24,31.57-30.66,22.5-5.23-3.82-9.27-8.86-8.71-21.6Z"/><polygon class="h" points="954.84 381.28 879.17 381.28 855.17 470.57 930.84 470.57 954.84 381.28"/><path class="s" d="M878.02,261.43h-3.33c-2.7,0-5-1.98-5.38-4.65-.81-5.66-1.58-13.79-1.58-24.08,0-21.51,3.34-38.3,3.34-38.3h-47.94v59.2c0,4.33-3.51,7.84-7.84,7.84h-1.14c0,16.87,24.72,26.71,42.93,26.71s28.38-14.49,20.95-26.71Z"/><path class="h" d="M749.05,445.24c-7.36,6.66-48.06,18.61-55.76,5.95-4.95-8.15-3.21-26.66,.78-32.28,8.58-12.09,47.73-7.28,58.84,2.53,5.17,4.56,2.09,18.42-3.86,23.8Z"/><path class="h" d="M1033.01,391.98c1.03,10.5-27.58,41.94-41.19,36.07-7.31-3.15-20.94-13.83-21.16-20.72-.46-14.81,30.5-35.28,45.32-37.17,6.84-.87,16.35,14.96,17.02,21.82Z"/><path class="s" d="M1173.52,314.82c-1.09-2.73-12.81,8.05-19.48,12.56-2.99,2.02-6,2.04-9.37,1.93-4.05-.13-8.38-.47-11.34-.71-2.15-.18-3.6-.68-3.44-1.52,.26-1.38,.28-2.03,2.74-3.19,2.9-1.36,10.43-2.72,12.44-4.31,2.18-1.71,1.78-2.37-.56-2.08-3.7,.47-12.34,1.25-18.43,3.21-3.91,1.26-6.79,3.64-8.31,4.8-3.92,2.99-5.89,5.88-8.61,8.57l-114.12,73.45c-4.55,2.93-5.55,9.15-2.15,13.36l6.39,7.91c7.85,9.62,22.3,10.41,31.26,1.71,0,0,63.35-62.8,85.39-82.94,2.11-1.93,4.9-2.42,6.83-2.88,10.9-2.64,23.8-1.58,29.25-4.77,6.04-3.54,22.6-22.3,21.48-25.09Z"/><path class="s" d="M885.45,198.31c0,8.88-2.05,13.16-5.18,19.95-5.07,10.97-10.24,18.05-19.82,18.05-15.51,0-32.3-18.83-32.3-42.07s12.66-42.07,32.3-42.07c17.31,0,21.63,8.04,22.56,26.65,.3,6.05,2.44,12.57,2.44,19.49Z"/><path class="ak" d="M809.68,155.18c1.43-10.89,8.2-19.25,17.53-16.31,2.51-6.98,8.06-11.05,13.97-13.11,8.84-3.08,25.19-3.31,40.4,1.39,8.69,2.68,12.57,8.04,1.85,6.81,4.52,1.65,9.94,5.86,12.75,9.15,2.61,3.05,6.79,12.4-2.77,12.14,3.34,8.97-3.08,16.23-8.09,19.65-1.78,1.21-2.73,1.12-2.85-1.29-.44-8.56-1.89-13.08-8.95-16.09-6.66-2.85-21.87-2.56-32.11,3.88-10.58,6.66-10.5,25.78-9.67,31.87,.28,2.06,7.26,11.31,16.62,11.31,4.28,0,11.67-3.21,17.28-3.21,5.16,0,7.42,2.54,11.42,2.54,5.99,0,5.92-8.7,7.13-9.18,2.6-1.04,8.36,10.52,8.36,28.19,0,15.02-10.98,29.09-24.76,29.09-15.96,0-25.87-6.02-33.15-14.99-8.78-10.83-10.09-25.91-8.43-39.65-4.17-3.38-8.17-7.99-9.55-10.43-5.13-9.03-8.33-21.47-6.98-31.77Z"/><path class="k" d="M812.49,197.52c1.1,8.06,7.58,15.98,11.54,14.73,3.21-1.01,3.37-6.6,3.18-14.73-.17-7.68-1.2-14.73-6.01-14.73s-10.04,5.04-8.71,14.73Z"/><path class="h" d="M855.06,213.19c0,.66,4.27,2.32,9.54,2.32s9.54-1.88,9.54-2.8c0-.61-4.27-.17-9.54-.17s-9.54-.12-9.54,.65Z"/><path class="x" d="M865.04,202.21l-.04-.82c.33-.02,.68-.03,1.03-.04,2.22-.08,4.73-.18,6.06-1.43,.76-.71,.75-2.02-.03-3.99l-.18-.45c-1.18-2.98-3.69-9.21-2.74-13.16,.45-1.88,1.84-3.26,3.21-3.69,3.68-1.16,7.66-.04,11.37,1.72l-.35,.74c-3.57-1.7-9.01-2.38-11.95-.58-.59,.36-1.29,1.16-1.48,1.99-.84,3.71,1.55,9.76,2.7,12.67l.18,.45c.91,2.32,.85,3.92-.17,4.89-1.56,1.46-4.23,1.57-6.6,1.65-.35,.01-.69,.03-1.02,.04Z"/><path class="x" d="M840.49,181.03l-.28-.88c3.94-1.25,9.33-1.91,11.71-1.92h.05c4.34,0,6.7,.95,8.99,1.87l.15,.06-.34,.86-.15-.06c-2.31-.93-4.49-1.8-8.65-1.8h-.05c-2.26,0-7.63,.67-11.43,1.87Z"/><path class="ak" d="M855.06,186.66c0,1.43-.86,2.6-1.93,2.6s-1.93-1.16-1.93-2.6,.86-2.6,1.93-2.6,1.93,1.16,1.93,2.6Z"/><ellipse class="ak" cx="878.58" cy="186.66" rx="1.93" ry="2.6"/><path class="x" d="M840.52,181.02l-.35-.86c3.93-1.62,7.55-2.35,11.75-2.35s6.88,.74,9.29,2.39l-.53,.76c-2.24-1.54-4.94-2.23-8.76-2.23-4.12,0-7.53,.68-11.39,2.28Z"/><path class="h" d="M852.48,184.93c.41,.5,.51,1.09,.22,1.33-.29,.24-.86,.03-1.27-.47-.41-.5-.51-1.09-.22-1.33,.29-.24,.86-.03,1.27,.47Z"/><path class="h" d="M877.92,184.93c.41,.5,.51,1.09,.22,1.33-.29,.24-.86,.03-1.27-.47-.41-.5-.51-1.09-.22-1.33,.29-.24,.86-.03,1.27,.47Z"/><path class="x" d="M847.18,186.89l-.58-.64c4.84-4.43,8.46-2.33,9.79-1.22l-.55,.66c-1.44-1.2-4.47-2.63-8.66,1.2Z"/><path class="x" d="M875.4,186.7l-.76-.47c1.47-2.39,3.07-2.78,4.16-2.7,1.77,.14,3.09,1.57,3.31,2.11l-.82,.34c-.12-.29-1.2-1.45-2.56-1.56-1.22-.1-2.34,.67-3.33,2.28Z"/><path class="s" d="M884.42,432.45c-1.32,.33-2.7,.34-4.04,.04-8.19-1.84-16.12-3.04-16.12-3.04,0,0,.98-.53,2.32-1.32l1.9-7.09c-4.72-.22-9.61-.15-13.45,1.42-2.84,1.17-7.32,3.75-11.79,5.72-1.82,.8-3.77,1.24-5.76,1.32l-127.45,4.99c-8.15,.36-14.23,7.64-13.12,15.72,1.83,13.35,14.73,22.24,27.85,19.19,0,0,82.41-19.6,107.43-24.94,4.07-.87,9.84-.88,13.32-.15,9.76,2.06,24.42,6.58,29.97,5.72,5.33-.82,14.95-5.05,19.69-7.96,3.91-2.1,9.56-4.61,10.2-7.59,.26-1.21,.9-3.33,.35-5.15-.56-1.9-13.45,1.17-21.31,3.12Z"/><path class="h" d="M884.74,264.51c-1.91-3.52-6.11-5.69-9.77-5.69s.16,.74,1.44,6.24c1.85,7.9-5.67,16.17-18.5,21.35-10.03-1.32-29.76-16.32-40.07-28.22-.7-.8-6.54-2.76-8.6,2.84-5.01,18.62,24.43,36.91,37.88,45.83l11.51-18.05,17.05,13.21c5.45-5.96,10.39-15.61,11.25-23.63,.45-4.2-.09-10-2.19-13.88Z"/><path class="k" d="M870.98,259.97c-19.77,7-34.08-8-40.06-17.87-4.37-7.2-7.16-13.68-7.79-21.11-.33-3.83-.26-7.7,0-11.52,.2-3.05,.53-6.06,.89-9-.29-.24-.59-.47-.89-.7v-5.15c.99,.96,2.03,1.89,3.08,2.75-1.66,13.75-.36,28.82,8.43,39.65,7.27,8.97,17.19,14.99,33.15,14.99,.31,0,.62,0,.92-.02,.19,1.75,.39,3.34,.6,4.78,.19,1.27,.79,2.39,1.68,3.19Z"/></g><g><rect class="i" x="680.9" y="449.97" width="333.05" height="4.29"/><rect class="y" x="680.9" y="449.97" width="182.26" height="4.29"/><rect class="af" x="680.9" y="449.97" width="138.99" height="4.29"/><path class="h" d="M704.17,462.88l-6.36,3.67c-.38,.22-.85-.05-.85-.49v-7.35c0-.44,.47-.71,.85-.49l6.36,3.67c.38,.22,.38,.76,0,.98Z"/><rect class="h" x="680.9" y="457.85" width="2.5" height="9.09" rx=".57" ry=".57"/><rect class="h" x="685.09" y="457.85" width="2.5" height="9.09" rx=".57" ry=".57"/><rect class="h" x="713.04" y="457.85" width="9.09" height="9.09" rx=".57" ry=".57"/></g></g></g></g></svg>