<svg width="2340" height="1560" viewBox="0 0 2340 1560" fill="none" xmlns="http://www.w3.org/2000/svg">
<rect width="2340" height="1560" fill="#D6EEFA"/>
<path d="M2050.73 477.788C2294.07 806.676 2152.12 1118.93 2050.73 1233.95L1973.26 1326.15H366.836L229.958 1192.6C22.7393 954.011 126.349 664.095 254.197 601.834C382.045 539.573 395.828 525.79 537.459 304.789C679.091 83.7868 917.677 80.4599 1187.16 197.852C1456.64 315.245 1746.55 66.677 2050.73 477.788Z" fill="#F5FAFE"/>
<path fill-rule="evenodd" clip-rule="evenodd" d="M2036.27 458.727C2025.81 462.751 2014.73 470.261 2005.06 482.85C1987.41 505.819 1974.13 546.098 1978.49 613.742C1983.93 698.038 2021.91 783.481 2076.41 846.893C2107.14 882.656 2142.95 911.222 2180.93 928.692C2180.6 931.473 2180.25 934.243 2179.88 937.001C2139.73 919.022 2102.19 889.164 2070.34 852.107C2014.84 787.519 1976.07 700.462 1970.51 614.258C1966.07 545.502 1979.46 503.031 1998.72 477.975C2008.63 465.072 2020.03 456.895 2031.13 452.178C2032.84 454.341 2034.56 456.524 2036.27 458.727ZM1974.44 387.605C1915.74 389.172 1847.92 380.299 1770.32 356.322C1673.71 326.471 1596.45 334.554 1527.91 362.945C1459.15 391.424 1399 440.39 1336.7 492.811C1332.86 496.039 1329.02 499.28 1325.17 502.529C1204.08 604.607 1073.17 714.961 856.779 702.994C680.827 693.263 517.974 766.119 385.69 861.519C290.631 930.073 211.555 1010.13 155 1079.13C153.724 1076.44 152.479 1073.76 151.265 1071.07C208.052 1002.26 286.716 923.033 381.01 855.031C514.126 759.031 678.773 685.137 857.221 695.006C1070.4 706.796 1199.11 598.315 1320.4 496.082L1320.55 495.952C1324.22 492.858 1327.89 489.769 1331.55 486.689C1393.75 434.36 1454.78 384.576 1524.84 355.554C1595.11 326.446 1674.29 318.279 1772.68 348.678C1846.13 371.372 1910.57 380.369 1966.62 379.76C1969.23 382.333 1971.83 384.948 1974.44 387.605ZM1360.95 232.934C1270.45 342.078 1080.71 490.193 794.255 508.492C579.959 522.181 439.047 598.923 335.23 674.546C302.815 698.158 274.208 721.503 247.996 742.893C232.03 755.923 216.952 768.227 202.444 779.424C171.912 802.99 144.001 821.564 116.535 830.354C116.974 827.367 117.445 824.395 117.945 821.441C142.676 812.683 168.483 795.53 197.556 773.091C211.7 762.175 226.644 749.983 242.556 737.002L242.566 736.994C268.962 715.459 298.024 691.75 330.52 668.079C435.203 591.827 577.541 514.319 793.745 500.508C1073.62 482.63 1260.08 339.694 1350.83 232.559C1354.2 232.707 1357.57 232.832 1360.95 232.934ZM1186.69 197.65C1186.85 197.717 1187 197.785 1187.16 197.852C1189.65 198.938 1192.14 199.993 1194.64 201.017C1142.95 253.535 1072.62 279.505 999.109 290.828C902.765 305.67 800.279 295.472 725.522 286.471C666.647 279.383 602.815 294.309 546.722 316.079C539.084 319.043 531.597 322.132 524.294 325.305C526.804 321.398 529.358 317.422 531.955 313.374C535.869 311.759 539.828 310.173 543.828 308.621C600.502 286.625 665.754 271.217 726.478 278.529C801.221 287.528 902.735 297.58 997.891 282.922C1069.34 271.915 1136.81 247.048 1186.69 197.65Z" fill="#E0F1FB"/>
<path d="M1831.45 1042.83C1767.68 1196.16 1807.8 1303.44 1835.83 1337.92C1954.79 1274.66 1997.48 1196.56 2003.96 1165.41L1956.51 1167.49L2014.06 1144.45L2057.06 1040.48L1993.69 1056.26L2056.1 1018.5C2089.27 943.778 2089.5 855.05 2085.46 820.026C1996.98 847.515 1936.4 898.108 1917.17 919.969L1921.73 1024.37L1902.81 935.11L1844.52 1021.24L1860.44 1133.65L1831.45 1042.83Z" fill="#B4DEF6"/>
<path d="M1834.97 1340.96C1843.06 1313.82 1854.22 1279.39 1867.86 1240.93M2070.58 840C2039.72 872.732 2021.99 900.954 1993.65 952.338M1867.86 1240.93L1815.92 1145.6M1867.86 1240.93C1871.15 1231.65 1874.58 1222.15 1878.15 1212.45M1909.53 1131.5L2024.1 1087.96M1909.53 1131.5C1898.2 1159.25 1887.69 1186.52 1878.15 1212.45M1909.53 1131.5C1914.85 1118.49 1920.34 1105.38 1925.99 1092.25M1993.65 952.338L1982.21 885.096M1993.65 952.338C1986.61 965.105 1979.69 978.23 1972.9 991.604M1878.15 1212.45L1978.67 1182.03M1925.99 1092.25L1887.67 1000.83M1925.99 1092.25C1940.63 1058.26 1956.36 1024.19 1972.9 991.604M1972.9 991.604L2070.58 948.976" stroke="#86C0FF" stroke-width="8" stroke-linecap="round"/>
<path d="M2060.96 1073.33C2064.67 1049.71 2071.21 1013.85 2079.78 975.777M2126.32 828.585C2118.3 843.825 2110.62 863.879 2103.5 886.215M2103.5 886.215L2135.27 866.642M2103.5 886.215C2098.45 902.049 2093.68 919.03 2089.26 936.255M2089.26 936.255L2080.91 898.27M2089.26 936.255C2085.89 949.421 2082.71 962.729 2079.78 975.777M2079.78 975.777L2111.62 950.052" stroke="#2B76C9" stroke-width="4.8941" stroke-linecap="round"/>
<circle r="14.6823" transform="matrix(-0.992758 -0.120129 -0.120129 0.992758 2129.77 820.376)" fill="#1A5089"/>
<circle r="14.6823" transform="matrix(-0.992758 -0.120129 -0.120129 0.992758 2140.9 871.021)" fill="#1A5089"/>
<circle r="14.6823" transform="matrix(-0.992758 -0.120129 -0.120129 0.992758 2079.95 885.829)" fill="#1A5089"/>
<circle r="14.6823" transform="matrix(-0.992758 -0.120129 -0.120129 0.992758 2114.78 944.272)" fill="#1A5089"/>
<path d="M1994 1352.7C2057.28 1286.96 2195.3 1174.15 2241.13 1248.82C2263.67 1285.56 2221.87 1325.45 2169.68 1355H1997.74L1994 1352.7Z" fill="#1A5089"/>
<path d="M2064.51 1396L2065.69 1396.72C2066.72 1396.49 2067.76 1396.25 2068.82 1396H2064.51Z" fill="#1A5089"/>
<path d="M2176.97 1287.41C2178.1 1286.78 2179.53 1287.18 2180.16 1288.32C2180.79 1289.45 2180.38 1290.88 2179.25 1291.51L2150.47 1307.52C2156.3 1310.63 2166.23 1314.64 2176.27 1314.87C2177.56 1314.9 2178.59 1315.97 2178.56 1317.27C2178.53 1318.57 2177.46 1319.59 2176.16 1319.56C2163.52 1319.28 2151.32 1313.62 2145.67 1310.19L2091.96 1340.08C2098.94 1344.36 2112.45 1350.03 2127.74 1348.61C2129.03 1348.49 2130.18 1349.43 2130.3 1350.73C2130.42 1352.02 2129.47 1353.16 2128.18 1353.28C2109.96 1354.98 2094.2 1347.46 2087.33 1342.66L2065.14 1355H2055.49L2056.76 1354.29C2058.88 1343.11 2065.6 1318.86 2077.44 1303.14C2078.22 1302.1 2079.7 1301.9 2080.73 1302.68C2081.77 1303.46 2081.97 1304.93 2081.19 1305.96C2071.18 1319.25 2064.89 1339.36 2062.19 1351.27L2111.23 1323.98C2112.03 1318.54 2113.65 1310.46 2116.15 1302.46C2118.8 1293.96 2122.54 1285.17 2127.58 1279.89C2128.47 1278.95 2129.96 1278.92 2130.89 1279.81C2131.83 1280.71 2131.87 1282.19 2130.97 1283.13C2126.73 1287.58 2123.25 1295.46 2120.63 1303.86C2118.72 1309.98 2117.34 1316.17 2116.46 1321.07L2176.97 1287.41Z" fill="#CBEAFF"/>
<path fill-rule="evenodd" clip-rule="evenodd" d="M1839.76 1355C1906.99 1172.83 2070.89 852.963 2219.75 954.597C2332.13 1031.32 2171.61 1246.75 2050.95 1355H1839.76Z" fill="#86C0FF"/>
<path d="M2130.08 1083.45C2131.71 1081.28 2134.79 1080.83 2136.97 1082.46C2139.15 1084.08 2139.59 1087.17 2137.97 1089.35L2096.64 1144.67C2110.46 1145.62 2132.9 1144.78 2152.3 1136.6C2154.8 1135.55 2157.69 1136.72 2158.74 1139.23C2159.8 1141.73 2158.62 1144.62 2156.12 1145.68C2131.7 1155.97 2103.5 1155.61 2089.74 1153.89L2012.6 1257.14C2029.63 1259.35 2060.34 1258.62 2088.39 1242.77C2090.75 1241.43 2093.76 1242.27 2095.09 1244.64C2096.43 1247 2095.59 1250.01 2093.23 1251.34C2059.82 1270.21 2023.22 1269.34 2005.95 1266.05L1939.5 1355H1927.21L1957.44 1314.53C1951.92 1291.32 1943.97 1239.16 1953.15 1198.91C1953.75 1196.26 1956.39 1194.6 1959.04 1195.21C1961.69 1195.81 1963.35 1198.45 1962.75 1201.1C1954.99 1235.12 1960.2 1278.99 1965.24 1304.1L2035.67 1209.83C2032.53 1198.72 2028.71 1181.87 2026.62 1164.43C2024.4 1145.89 2024.02 1125.86 2029.13 1111.43C2030.04 1108.87 2032.85 1107.53 2035.41 1108.44C2037.98 1109.34 2039.32 1112.16 2038.41 1114.72C2034.11 1126.86 2034.2 1144.95 2036.4 1163.26C2038 1176.6 2040.65 1189.63 2043.18 1199.77L2130.08 1083.45Z" fill="#2B76C9"/>
<path d="M1993.54 1355C1998.53 1352.7 2003.65 1350.06 2008.85 1347.06C2011.21 1345.7 2012.01 1342.69 2010.66 1340.34C2009.3 1337.98 2006.29 1337.18 2003.93 1338.54C1990.08 1346.53 1976.91 1351.72 1965.37 1355H1993.54Z" fill="#2B76C9"/>
<path d="M493.384 1042.83C557.15 1196.16 517.028 1303.44 488.996 1337.92C370.045 1274.66 327.347 1196.56 320.867 1165.41L368.322 1167.49L310.773 1144.45L267.771 1040.48L331.143 1056.26L268.732 1018.5C235.562 943.778 235.336 855.05 239.368 820.026C327.853 847.515 388.435 898.108 407.666 919.969L403.103 1024.37L422.018 935.11L480.314 1021.24L464.391 1133.65L493.384 1042.83Z" fill="#B4DEF6"/>
<path d="M489.864 1340.96C481.771 1313.82 470.612 1279.39 456.972 1240.93M254.253 840C285.109 872.732 302.843 900.954 331.18 952.338M456.972 1240.93L508.911 1145.6M456.972 1240.93C453.684 1231.65 450.251 1222.15 446.683 1212.45M415.298 1131.5L300.729 1087.96M415.298 1131.5C426.626 1159.25 437.141 1186.52 446.683 1212.45M415.298 1131.5C409.985 1118.49 404.493 1105.38 398.838 1092.25M331.18 952.338L342.626 885.096M331.18 952.338C338.22 965.105 345.144 978.23 351.931 991.604M446.683 1212.45L346.166 1182.03M398.838 1092.25L437.163 1000.83M398.838 1092.25C384.2 1058.26 368.47 1024.19 351.931 991.604M351.931 991.604L254.253 948.976" stroke="#86C0FF" stroke-width="8" stroke-linecap="round"/>
<path d="M263.872 1073.33C260.166 1049.71 253.622 1013.85 245.056 975.777M198.515 828.585C206.534 843.825 214.208 863.879 221.328 886.215M221.328 886.215L189.563 866.642M221.328 886.215C226.377 902.049 231.147 919.03 235.568 936.255M235.568 936.255L243.921 898.27M235.568 936.255C238.946 949.421 242.12 962.729 245.056 975.777M245.056 975.777L213.213 950.052" stroke="#2B76C9" stroke-width="4.8941" stroke-linecap="round"/>
<circle cx="195.057" cy="820.376" r="14.6823" transform="rotate(-6.89957 195.057 820.376)" fill="#1A5089"/>
<circle cx="183.931" cy="871.021" r="14.6823" transform="rotate(-6.89957 183.931 871.021)" fill="#1A5089"/>
<circle cx="244.881" cy="885.829" r="14.6823" transform="rotate(-6.89957 244.881 885.829)" fill="#1A5089"/>
<circle cx="210.049" cy="944.272" r="14.6823" transform="rotate(-6.89957 210.049 944.272)" fill="#1A5089"/>
<path d="M330.831 1352.7C267.548 1286.96 129.526 1174.15 83.7059 1248.82C61.1607 1285.56 102.96 1325.45 155.149 1355H327.093L330.831 1352.7Z" fill="#1A5089"/>
<path d="M260.317 1396L259.137 1396.72C258.11 1396.49 257.067 1396.25 256.008 1396H260.317Z" fill="#1A5089"/>
<path d="M147.866 1287.41C146.733 1286.78 145.303 1287.18 144.673 1288.32C144.043 1289.45 144.45 1290.88 145.583 1291.51L174.361 1307.52C168.532 1310.63 158.604 1314.64 148.566 1314.87C147.27 1314.9 146.243 1315.97 146.272 1317.27C146.301 1318.57 147.376 1319.59 148.672 1319.56C161.307 1319.28 173.509 1313.62 179.161 1310.19L232.873 1340.08C225.893 1344.36 212.385 1350.03 197.089 1348.61C195.799 1348.49 194.655 1349.43 194.535 1350.73C194.414 1352.02 195.363 1353.16 196.654 1353.28C214.872 1354.98 230.632 1347.46 237.506 1342.66L259.691 1355H269.346L268.075 1354.29C265.949 1343.11 259.234 1318.86 247.388 1303.14C246.608 1302.1 245.136 1301.9 244.101 1302.68C243.065 1303.46 242.858 1304.93 243.638 1305.96C253.649 1319.25 259.941 1339.36 262.645 1351.27L213.605 1323.98C212.803 1318.54 211.177 1310.46 208.685 1302.46C206.036 1293.96 202.294 1285.17 197.256 1279.89C196.362 1278.95 194.876 1278.92 193.938 1279.81C192.999 1280.71 192.964 1282.19 193.859 1283.13C198.1 1287.58 201.586 1295.46 204.203 1303.86C206.111 1309.98 207.495 1316.17 208.372 1321.07L147.866 1287.41Z" fill="#CBEAFF"/>
<path fill-rule="evenodd" clip-rule="evenodd" d="M485.072 1355C417.841 1172.83 253.945 852.963 105.081 954.597C-7.29788 1031.32 153.222 1246.75 273.878 1355H485.072Z" fill="#86C0FF"/>
<path d="M194.75 1083.45C193.123 1081.28 190.038 1080.83 187.861 1082.46C185.683 1084.08 185.237 1087.17 186.864 1089.35L228.193 1144.67C214.373 1145.62 191.936 1144.78 172.534 1136.6C170.029 1135.55 167.143 1136.72 166.087 1139.23C165.032 1141.73 166.207 1144.62 168.712 1145.68C193.133 1155.97 221.332 1155.61 235.087 1153.89L312.227 1257.14C295.201 1259.35 264.491 1258.62 236.445 1242.77C234.078 1241.43 231.076 1242.27 229.739 1244.64C228.402 1247 229.236 1250.01 231.603 1251.34C265.006 1270.21 301.611 1269.34 318.881 1266.05L385.335 1355H397.623L367.391 1314.53C372.915 1291.32 380.862 1239.16 371.683 1198.91C371.079 1196.26 368.44 1194.6 365.79 1195.21C363.139 1195.81 361.481 1198.45 362.085 1201.1C369.842 1235.12 364.633 1278.99 359.593 1304.1L289.163 1209.83C292.298 1198.72 296.117 1181.87 298.207 1164.43C300.429 1145.89 300.809 1125.86 295.7 1111.43C294.793 1108.87 291.98 1107.53 289.417 1108.44C286.855 1109.34 285.513 1112.16 286.421 1114.72C290.722 1126.86 290.628 1144.95 288.433 1163.26C286.834 1176.6 284.179 1189.63 281.647 1199.77L194.75 1083.45Z" fill="#2B76C9"/>
<path d="M331.295 1355C326.297 1352.7 321.176 1350.06 315.977 1347.06C313.623 1345.7 312.816 1342.69 314.175 1340.34C315.535 1337.98 318.545 1337.18 320.899 1338.54C334.753 1346.53 347.925 1351.72 359.462 1355H331.295Z" fill="#2B76C9"/>
<path d="M120.5 1354H2196" stroke="white" stroke-width="10" stroke-linecap="round"/>
<path d="M377.614 1302.87C377.614 1300.05 379.9 1297.76 382.719 1297.76H1914.23C1917.05 1297.76 1919.33 1300.05 1919.33 1302.87V1323.7C1919.33 1343.43 1903.33 1359.43 1883.6 1359.43H413.349C393.613 1359.43 377.614 1343.43 377.614 1323.7V1302.87Z" fill="#6786C4"/>
<path d="M471.351 518.889C471.351 468.14 512.491 427 563.24 427H1731.24C1781.99 427 1823.13 468.14 1823.13 518.889V1317.5H471.351V518.889Z" fill="#162F62"/>
<path d="M513.285 519.984C513.285 491.79 536.141 468.935 564.335 468.935H1730.15C1758.34 468.935 1781.2 491.79 1781.2 519.984V1282.96H513.285V519.984Z" fill="#C4E3F7"/>
<path d="M491.222 707.293H476.394C443.525 707.293 417.082 687.968 417.082 664.129V606.156H550.287V664.129C550.287 687.968 523.843 707.293 491.222 707.293Z" fill="#1A5089"/>
<path d="M624.179 707.293H609.351C576.73 707.293 550.287 687.968 550.287 664.129V606.156H683.491V664.129C683.244 687.968 656.801 707.293 624.179 707.293Z" fill="#63A3ED"/>
<path d="M757.11 707.293H742.337C709.837 707.293 683.491 687.968 683.491 664.129V606.156H816.203V664.129C815.956 687.968 789.611 707.293 757.11 707.293Z" fill="#1A5089"/>
<path d="M889.958 707.293H875.158C842.597 707.293 816.202 687.968 816.202 664.129V606.156H949.16V664.129C948.914 687.968 922.519 707.293 889.958 707.293Z" fill="#63A3ED"/>
<path d="M1022.92 707.293H1008.12C975.555 707.293 949.16 687.968 949.16 664.129V606.156H1082.12V664.129C1081.87 687.968 1055.48 707.293 1022.92 707.293Z" fill="#1A5089"/>
<path d="M1155.87 707.293H1141.07C1108.51 707.293 1082.12 687.968 1082.12 664.129V606.156H1215.08V664.129C1215.08 687.968 1188.44 707.293 1155.87 707.293Z" fill="#63A3ED"/>
<path d="M1288.83 707.293H1274.03C1241.47 707.293 1215.08 687.968 1215.08 664.129V606.156H1348.03V664.129C1348.03 687.968 1321.39 707.293 1288.83 707.293Z" fill="#1A5089"/>
<path d="M1421.79 707.293H1406.99C1374.43 707.293 1348.03 687.968 1348.03 664.129V606.156H1480.99V664.129C1480.99 687.968 1454.6 707.293 1421.79 707.293Z" fill="#63A3ED"/>
<path d="M1554.75 707.293H1539.95C1507.39 707.293 1480.99 687.968 1480.99 664.129V606.156H1613.95V664.129C1613.95 687.968 1587.56 707.293 1554.75 707.293Z" fill="#1A5089"/>
<path d="M1687.95 707.293H1673.15C1640.59 707.293 1614.2 687.968 1614.2 664.129V606.156H1747.15V664.129C1746.91 687.968 1720.51 707.293 1687.95 707.293Z" fill="#63A3ED"/>
<path d="M1820.91 707.293H1806.11C1773.55 707.293 1747.15 687.968 1747.15 664.129V606.156H1879.87V664.129C1879.87 687.968 1853.47 707.293 1820.91 707.293Z" fill="#1A5089"/>
<path d="M550.04 606.156H417.082L518.591 478.414C523.811 471.846 531.742 468.018 540.132 468.018H639.83L550.04 606.156Z" fill="#2B76C9"/>
<path d="M682.998 606.156H550.04L639.83 468.018H752.807L682.998 606.156Z" fill="#86C0FF"/>
<path d="M815.956 606.156H682.998L752.807 468.018H865.784L815.956 606.156Z" fill="#2B76C9"/>
<path d="M948.914 606.156H815.956L865.784 468.018H979.008L948.914 606.156Z" fill="#86C0FF"/>
<path d="M1081.87 606.156H948.914L979.008 468.018H1091.99L1081.87 606.156Z" fill="#2B76C9"/>
<path d="M1215.08 606.156H1081.87L1091.99 468.018H1204.96L1215.08 606.156Z" fill="#86C0FF"/>
<path d="M1348.03 606.156H1215.08L1204.96 468.018H1317.94L1348.03 606.156Z" fill="#2B76C9"/>
<path d="M1480.99 606.156H1348.03L1317.94 468.018H1431.16L1480.99 606.156Z" fill="#86C0FF"/>
<path d="M1613.95 606.156H1480.99L1431.16 468.018H1544.14L1613.95 606.156Z" fill="#2B76C9"/>
<path d="M1746.91 606.156H1613.95L1544.14 468.018H1657.12L1746.91 606.156Z" fill="#86C0FF"/>
<path d="M1879.87 606.156H1746.91L1657.12 468.018H1756.82C1765.21 468.018 1773.14 471.846 1778.36 478.414L1879.87 606.156Z" fill="#2B76C9"/>
<path d="M377.614 1302.87C377.614 1300.05 379.9 1297.76 382.719 1297.76H1914.23C1917.05 1297.76 1919.33 1300.05 1919.33 1302.87V1327.36H377.614V1302.87Z" fill="#9BB6EE"/>
<path fill-rule="evenodd" clip-rule="evenodd" d="M1290.88 1297.76L1286.9 1302.94C1282.23 1309.01 1275.01 1312.56 1267.35 1312.56H1030.17C1022.51 1312.56 1015.28 1309.01 1010.62 1302.94L1006.64 1297.76H1290.88Z" fill="#D5DFF5"/>
<rect x="1257.16" y="939.073" width="471.412" height="315.498" rx="22.0115" fill="white"/>
<path d="M1300.26 1130.76C1300.26 1127.72 1302.73 1125.25 1305.76 1125.25H1330.53C1333.57 1125.25 1336.03 1127.72 1336.03 1130.76V1254.57H1300.26V1130.76Z" fill="#88BFFF"/>
<path d="M1416.74 1167.44C1416.74 1164.4 1419.2 1161.94 1422.24 1161.94H1447C1450.04 1161.94 1452.51 1164.4 1452.51 1167.44V1254.57H1416.74V1167.44Z" fill="#88BFFF"/>
<path d="M1533.22 1087.65C1533.22 1084.61 1535.68 1082.15 1538.72 1082.15H1563.48C1566.52 1082.15 1568.98 1084.61 1568.98 1087.65V1254.57H1533.22V1087.65Z" fill="#88BFFF"/>
<path d="M1649.69 1024.37C1649.69 1021.33 1652.16 1018.86 1655.2 1018.86H1679.96C1683 1018.86 1685.46 1021.33 1685.46 1024.37V1254.57H1649.69V1024.37Z" fill="#88BFFF"/>
<path fill-rule="evenodd" clip-rule="evenodd" d="M1257.16 1174.29V1169.27C1260.23 1166.42 1263.18 1163.76 1266.03 1161.29C1278.51 1150.44 1289.18 1143.06 1299.78 1139.17C1321.2 1131.31 1341.71 1137.93 1374.99 1156.67C1410.67 1176.77 1444.57 1175.3 1474.24 1162.32C1503.99 1149.31 1529.55 1124.71 1548.23 1098.51C1567.13 1072 1583.3 1057.62 1601.25 1049.52C1619.14 1041.45 1638.61 1039.73 1663.79 1038.13C1693.43 1036.24 1714.04 1021.45 1728.57 1005.73V1011.05C1713.76 1026.15 1693.07 1039.94 1664.03 1041.79C1638.76 1043.4 1619.95 1045.11 1602.76 1052.87C1585.62 1060.59 1569.92 1074.41 1551.22 1100.64C1532.29 1127.18 1506.26 1152.33 1475.71 1165.68C1445.08 1179.08 1409.96 1180.58 1373.19 1159.87C1339.93 1141.13 1320.77 1135.37 1301.05 1142.61C1291.08 1146.27 1280.81 1153.31 1268.43 1164.06C1264.85 1167.17 1261.11 1170.58 1257.16 1174.29Z" fill="#1A5089"/>
<circle cx="1290.17" cy="973.925" r="9.17144" fill="#FBBB25"/>
<circle cx="1321.36" cy="973.925" r="9.17144" fill="#FBBB25"/>
<circle cx="1352.54" cy="973.925" r="9.17144" fill="#FBBB25"/>
<rect x="1257.16" y="939.073" width="471.412" height="315.498" rx="22.0115" fill="white"/>
<path d="M1257 961.011C1257 948.855 1266.85 939 1279.01 939H1706.99C1719.15 939 1729 948.855 1729 961.011V992H1257V961.011Z" fill="#2B76C9"/>
<path d="M1300 1121.5C1300 1118.46 1302.46 1116 1305.5 1116H1330.5C1333.54 1116 1336 1118.46 1336 1121.5V1255H1300V1121.5Z" fill="#88BFFF"/>
<path d="M1417 1155.5C1417 1152.46 1419.46 1150 1422.5 1150H1447.5C1450.54 1150 1453 1152.46 1453 1155.5V1255H1417V1155.5Z" fill="#88BFFF"/>
<path d="M1533 1081.5C1533 1078.46 1535.46 1076 1538.5 1076H1563.5C1566.54 1076 1569 1078.46 1569 1081.5V1255H1533V1081.5Z" fill="#88BFFF"/>
<path d="M1649.69 1024.37C1649.69 1021.33 1652.16 1018.86 1655.2 1018.86H1679.96C1683 1018.86 1685.46 1021.33 1685.46 1024.37V1254.57H1649.69V1024.37Z" fill="#88BFFF"/>
<path fill-rule="evenodd" clip-rule="evenodd" d="M1257.16 1174.29V1169.27C1260.23 1166.42 1263.18 1163.76 1266.03 1161.29C1278.51 1150.44 1289.18 1143.06 1299.78 1139.17C1321.2 1131.31 1341.71 1137.93 1374.99 1156.67C1410.67 1176.77 1444.57 1175.3 1474.24 1162.32C1503.99 1149.31 1529.55 1124.71 1548.23 1098.51C1567.13 1072 1583.3 1057.62 1601.25 1049.52C1619.14 1041.45 1638.61 1039.73 1663.79 1038.13C1693.43 1036.24 1714.04 1021.45 1728.57 1005.73V1011.05C1713.76 1026.15 1693.07 1039.94 1664.03 1041.79C1638.76 1043.4 1619.95 1045.11 1602.76 1052.87C1585.62 1060.59 1569.92 1074.41 1551.22 1100.64C1532.29 1127.18 1506.26 1152.33 1475.71 1165.68C1445.08 1179.08 1409.96 1180.58 1373.19 1159.87C1339.93 1141.13 1320.77 1135.37 1301.05 1142.61C1291.08 1146.27 1280.81 1153.31 1268.43 1164.06C1264.85 1167.17 1261.11 1170.58 1257.16 1174.29Z" fill="#FDE29C"/>
<circle cx="1290.17" cy="967.925" r="9.17144" fill="white"/>
<circle cx="1321.36" cy="967.925" r="9.17144" fill="white"/>
<circle cx="1352.54" cy="967.925" r="9.17144" fill="white"/>
<circle cx="1668" cy="1040" r="10" fill="#FDE29C"/>
<circle cx="1551" cy="1097" r="10" fill="#FDE29C"/>
<circle cx="1435" cy="1174" r="10" fill="#FDE29C"/>
<circle cx="1318" cy="1137" r="10" fill="#FDE29C"/>
<rect x="1257.16" y="740.97" width="471.412" height="158.666" rx="22.0115" fill="white"/>
<path d="M1394.73 819.845C1394.73 850.743 1369.68 875.79 1338.78 875.79C1307.88 875.79 1282.84 850.743 1282.84 819.845C1282.84 788.947 1307.88 763.899 1338.78 763.899C1369.68 763.899 1394.73 788.947 1394.73 819.845ZM1300.64 819.845C1300.64 840.908 1317.72 857.984 1338.78 857.984C1359.85 857.984 1376.92 840.908 1376.92 819.845C1376.92 798.781 1359.85 781.705 1338.78 781.705C1317.72 781.705 1300.64 798.781 1300.64 819.845Z" fill="#2B76C9"/>
<path d="M1394.73 819.845C1394.73 808.779 1391.45 797.963 1385.3 788.763C1379.15 779.562 1370.41 772.392 1360.19 768.157C1349.97 763.923 1338.72 762.815 1327.87 764.974C1317.01 767.132 1307.05 772.461 1299.22 780.285L1311.81 792.876C1317.15 787.542 1323.94 783.909 1331.34 782.438C1338.74 780.966 1346.41 781.721 1353.38 784.608C1360.35 787.495 1366.3 792.383 1370.49 798.655C1374.68 804.927 1376.92 812.301 1376.92 819.845H1394.73Z" fill="#86C0FF"/>
<path d="M1299.22 780.285C1291.4 788.109 1286.07 798.078 1283.91 808.93C1281.75 819.782 1282.86 831.031 1287.09 841.254C1291.33 851.477 1298.5 860.214 1307.7 866.362C1316.9 872.509 1327.72 875.79 1338.78 875.79L1338.78 857.984C1331.24 857.984 1323.86 855.747 1317.59 851.557C1311.32 847.366 1306.43 841.409 1303.54 834.44C1300.66 827.471 1299.9 819.802 1301.37 812.404C1302.85 805.005 1306.48 798.21 1311.81 792.876L1299.22 780.285Z" fill="#FBBB25"/>
<rect x="1428.66" y="771.236" width="263.22" height="17.4257" rx="8.71287" fill="#86C0FF"/>
<rect x="1428.66" y="815.259" width="199.02" height="17.4257" rx="8.71287" fill="#86C0FF"/>
<rect x="1428.66" y="858.365" width="121.063" height="17.4257" rx="8.71287" fill="#86C0FF"/>
<rect x="568.38" y="740.97" width="601.647" height="513.601" rx="22.0115" fill="white"/>
<circle cx="870.121" cy="877.625" r="84.3773" fill="#88BFFF"/>
<path d="M900.205 881.621C900.205 881.621 902.269 871.508 901.444 854.791C899.586 818.055 884.107 819.086 876.058 818.261C860.167 816.403 853.15 825.072 853.15 825.072C840.148 828.58 839.941 881.414 839.941 881.414C847.165 883.684 857.897 886.161 870.899 885.955C883.075 885.955 893.188 883.684 900.205 881.621Z" fill="#091434"/>
<path fill-rule="evenodd" clip-rule="evenodd" d="M816.837 943.052L821.365 911.546C822.603 902.465 828.175 895.448 835.399 893.797L850.671 890.289L858.926 888.431L867.594 886.574L879.152 889.463L885.137 890.908L905.982 896.274C912.792 898.131 918.365 904.942 919.603 913.816L923.731 941.678C914.444 949.521 903.712 955.3 891.741 958.808C887.61 960.036 883.298 960.962 878.87 961.554C875.994 961.85 873.075 962.002 870.121 962.002C849.913 962.002 831.365 954.898 816.837 943.052Z" fill="#985455"/>
<path opacity="0.3" d="M923.526 939.201C922.081 937.963 920.636 936.725 919.398 935.074C914.445 928.882 912.175 920.214 913 911.34C915.064 911.133 917.128 910.927 918.985 910.927C918.779 910.308 918.573 909.482 918.366 908.863C916.715 908.863 915.064 909.069 913.207 909.276V909.069C913.619 906.799 914.032 904.735 914.651 902.465C914.239 901.846 913.619 901.227 913 900.608C912.175 903.291 911.349 905.974 910.936 908.657C910.936 908.863 910.936 909.276 910.73 909.482C906.19 910.308 901.649 911.752 897.109 913.816C887.409 918.15 879.153 924.961 872.755 933.423C872.343 933.01 871.724 932.803 871.104 932.597C857.07 924.755 839.115 925.167 825.287 933.423C822.192 935.28 819.302 937.757 816.619 940.233L816 943.948C818.889 940.646 822.398 937.55 826.319 935.28C839.528 927.231 856.658 927.025 870.073 934.455C870.485 934.661 870.898 934.867 871.311 935.28C865.532 943.329 861.404 952.616 859.753 962.11C860.372 962.11 861.198 962.316 861.817 962.316C863.675 953.029 867.596 944.155 873.168 936.312C881.217 941.678 887.409 949.933 890.298 959.221C890.711 959.221 890.917 959.014 891.33 959.014C891.743 959.014 891.949 958.808 892.362 958.808C889.266 949.108 882.868 940.44 874.407 934.867C880.598 926.818 888.647 920.214 897.728 916.086C901.856 914.229 906.19 912.784 910.317 911.959C909.492 921.246 911.968 929.914 917.128 936.518C918.779 938.789 920.843 940.646 923.113 942.091C923.113 942.091 923.113 942.091 923.319 942.091L923.526 939.201Z" fill="white"/>
<path opacity="0.3" d="M829.001 915.674C826.318 917.944 823.223 920.008 819.92 921.659L819.508 924.135C823.429 922.278 826.937 920.008 830.24 917.118C832.923 914.848 835.193 912.372 836.844 909.689C838.701 910.514 840.765 911.133 842.623 911.546C860.165 915.467 879.359 909.482 891.329 896.274C892.155 895.242 893.187 894.21 893.806 893.178L891.535 892.559C890.916 893.384 890.297 894.003 889.678 894.829C878.121 907.625 859.752 913.403 842.829 909.482C841.178 909.069 839.32 908.45 837.669 907.831C838.289 906.799 838.701 905.767 839.114 904.529C840.559 900.401 840.559 896.274 839.527 892.559L837.463 892.972C838.495 896.274 838.495 899.989 837.257 903.703C836.844 904.735 836.431 905.767 835.812 906.799C831.891 904.735 828.589 901.846 826.937 898.337C826.318 898.957 825.906 899.576 825.493 900.195C827.557 903.703 830.859 906.593 834.78 908.45C833.542 911.34 831.478 913.61 829.001 915.674Z" fill="white"/>
<path d="M859.546 864.904L857.689 892.353C857.482 894.416 858.927 896.274 860.784 896.893C863.261 897.512 866.563 898.131 870.278 897.925C872.961 897.719 875.438 897.306 877.295 896.893C879.359 896.274 880.597 894.416 880.597 892.353L878.74 864.904H859.546Z" fill="#FCD8CA"/>
<path d="M859.547 864.903L858.309 881.208C862.643 883.272 871.105 885.955 879.566 879.557L878.741 867.174C877.296 866.348 875.852 865.523 874.201 864.697H859.547V864.903Z" fill="#F1B3A6"/>
<path d="M851.293 837.454C851.293 837.454 847.166 856.029 852.944 868.618C858.517 880.795 868.836 880.589 871.932 880.176C875.027 879.969 894.015 877.906 888.236 838.28C888.236 838.486 859.549 839.106 851.293 837.454Z" fill="#FCD8CA"/>
<path d="M850.259 848.599C850.259 848.599 856.657 844.265 859.752 839.106C859.752 839.106 868.214 848.393 889.265 849.218C889.265 849.218 889.472 841.169 888.233 836.423C886.995 831.676 850.878 834.978 850.878 834.978C850.878 834.978 847.576 845.297 850.259 848.599Z" fill="#091434"/>
<path d="M852.17 859.186C854.679 857.835 855.311 854.136 853.581 850.925C851.851 847.714 848.415 846.206 845.907 847.557C843.398 848.909 842.766 852.607 844.496 855.818C846.226 859.03 849.661 860.537 852.17 859.186Z" fill="#FCD8CA"/>
<path d="M895.881 855.735C897.61 852.524 896.979 848.825 894.47 847.474C891.961 846.123 888.525 847.63 886.796 850.842C885.066 854.053 885.698 857.751 888.206 859.103C890.715 860.454 894.151 858.946 895.881 855.735Z" fill="#FCD8CA"/>
<path d="M848.194 861.189C849.106 861.189 849.845 860.449 849.845 859.538C849.845 858.626 849.106 857.887 848.194 857.887C847.282 857.887 846.543 858.626 846.543 859.538C846.543 860.449 847.282 861.189 848.194 861.189Z" fill="white"/>
<path d="M890.918 861.189C891.83 861.189 892.569 860.449 892.569 859.538C892.569 858.626 891.83 857.887 890.918 857.887C890.006 857.887 889.267 858.626 889.267 859.538C889.267 860.449 890.006 861.189 890.918 861.189Z" fill="white"/>
<path opacity="0.3" fill-rule="evenodd" clip-rule="evenodd" d="M839.706 956.354C837.138 955.361 834.631 954.246 832.191 953.017L838.909 915.674L839.706 956.354ZM904.95 954.061L904.331 915.88L912.38 949.933C910.432 951.35 908.18 952.463 906.015 953.533L906.014 953.533C905.656 953.71 905.301 953.885 904.95 954.061Z" fill="#4A1300"/>
<path d="M668.349 1017.03L681.74 1040.79L708.473 1046.18L690.016 1066.26L693.147 1093.35L668.349 1082L643.551 1093.35L646.682 1066.26L628.225 1046.18L654.958 1040.79L668.349 1017.03Z" fill="#FBBB25"/>
<path d="M769.235 1017.03L782.626 1040.79L809.358 1046.18L790.902 1066.26L794.033 1093.35L769.235 1082L744.437 1093.35L747.568 1066.26L729.111 1046.18L755.844 1040.79L769.235 1017.03Z" fill="#FBBB25"/>
<path d="M870.121 1017.03L883.511 1040.79L910.244 1046.18L891.787 1066.26L894.918 1093.35L870.121 1082L845.323 1093.35L848.454 1066.26L829.997 1046.18L856.73 1040.79L870.121 1017.03Z" fill="#FBBB25"/>
<path d="M971.006 1017.03L984.397 1040.79L1011.13 1046.18L992.673 1066.26L995.804 1093.35L971.006 1082L946.209 1093.35L949.34 1066.26L930.883 1046.18L957.616 1040.79L971.006 1017.03Z" fill="#FBBB25"/>
<path d="M1071.89 1017.03L1085.28 1040.79L1112.02 1046.18L1093.56 1066.26L1096.69 1093.35L1071.89 1082L1047.09 1093.35L1050.23 1066.26L1031.77 1046.18L1058.5 1040.79L1071.89 1017.03Z" fill="#FBBB25"/>
<rect x="627.077" y="1150.02" width="487.004" height="55.0287" rx="12.84" fill="#88BFFF"/>
<ellipse cx="1599.5" cy="1439" rx="121.5" ry="23" fill="#A5CFE4"/>
<path d="M1653.54 1403.05L1652.31 1363.88L1617.44 1361.77L1618.77 1404.13L1608.96 1410.44L1608.3 1414.86L1615.87 1426.63L1638.53 1421.92L1653.54 1403.05Z" fill="#F1B3A6"/>
<path d="M1659.46 1413.26C1659.17 1403.99 1655.33 1400.72 1653.45 1400.25C1631.87 1426.52 1614.81 1418.26 1608.98 1410.84L1574.28 1422.91C1571.61 1423.83 1569.86 1426.39 1569.95 1429.21C1570.06 1432.77 1573.04 1435.57 1576.6 1435.45L1626.74 1433.89C1628.15 1433.84 1629.53 1433.42 1630.73 1432.67L1641.7 1425.8C1644.38 1424.13 1647.85 1425.99 1647.95 1429.14C1648.02 1431.39 1649.91 1433.16 1652.16 1433.09L1654.08 1433.03C1657.39 1432.93 1659.99 1430.16 1659.88 1426.85L1659.46 1413.26Z" fill="#0F047A"/>
<path d="M1618.49 1408.14L1617.27 1368.98L1582.4 1366.87L1583.72 1409.23L1573.92 1415.54L1573.26 1419.96L1580.83 1431.72L1603.48 1427.01L1618.49 1408.14Z" fill="#FCD8CA"/>
<path d="M1624.41 1418.36C1624.12 1409.09 1620.29 1405.82 1618.41 1405.34C1596.83 1431.62 1579.77 1423.35 1573.93 1415.94L1539.23 1428C1536.57 1428.93 1534.82 1431.48 1534.9 1434.3C1535.02 1437.86 1537.99 1440.66 1541.56 1440.55L1591.69 1438.98C1593.11 1438.94 1594.49 1438.52 1595.69 1437.77L1606.66 1430.9C1609.33 1429.23 1612.81 1431.08 1612.91 1434.23C1612.98 1436.49 1614.86 1438.26 1617.12 1438.19L1619.03 1438.13C1622.34 1438.02 1624.94 1435.26 1624.84 1431.95L1624.41 1418.36Z" fill="#1E1193"/>
<path d="M1689.27 1087.5C1691.62 1075.26 1690.92 1062.49 1689.83 1054.41C1689.4 1051.21 1686.34 1049.17 1683.17 1049.75L1635.5 1058.46C1632.75 1058.97 1630.7 1061.31 1630.59 1064.11L1617.3 1380.54C1617.16 1384.03 1620 1386.9 1623.49 1386.79L1649.44 1385.98C1652.41 1385.89 1654.86 1383.66 1655.2 1380.71C1661.04 1330 1671.38 1217.15 1672.1 1190.84C1673.04 1156.81 1685.49 1107.22 1689.27 1087.5Z" fill="#0836D5"/>
<path d="M1665.29 1012.26C1715.01 1003.72 1719.38 947.652 1715.35 920.689L1683.05 923.114L1570.54 989.302C1565.88 987.781 1554.67 985.121 1547.08 986.653L1552 998.714L1567.61 1030.42L1665.29 1012.26Z" fill="#F1B3A6"/>
<path d="M1542.41 975.588C1541.71 974.067 1540.14 973.14 1538.47 973.266L1505.51 975.74C1502.74 975.949 1501.02 978.863 1502.18 981.395L1527.4 1036.44C1528.09 1037.96 1529.66 1038.88 1531.33 1038.76L1564.29 1036.28C1567.07 1036.07 1568.79 1033.16 1567.63 1030.63L1542.41 975.588Z" fill="#63A3ED"/>
<path d="M1509.87 997.875L1509.83 997.87L1506.07 990.534C1495.31 991.343 1517.68 1032.97 1520.1 1033.19C1522.53 1033.41 1533.17 1031 1536.98 1028.31C1540.79 1025.62 1528.79 1010.08 1526.35 1004.25C1524.4 999.594 1515.4 998.529 1509.87 997.875Z" fill="#FCD8CA"/>
<path d="M1646.5 1139.64C1652.75 1111.19 1654.02 1076.33 1653.87 1057.79C1653.84 1054.48 1651.07 1051.89 1647.76 1051.99L1564.88 1054.58C1561.47 1054.69 1558.84 1057.61 1559.12 1061C1559.88 1070.29 1561.32 1086.08 1563.39 1104.24C1565.97 1126.96 1574.79 1303.62 1578.89 1385.95C1579.05 1389.21 1581.8 1391.7 1585.07 1391.59L1617.14 1390.59C1620.13 1390.5 1622.59 1388.24 1622.88 1385.27C1625.56 1358.18 1629.8 1296.13 1630.58 1282.95C1631.63 1265.32 1637.75 1179.52 1646.5 1139.64Z" fill="#0178EF"/>
<path d="M1601.33 1065C1612.49 1066.5 1633.63 1075.4 1628.83 1099C1624.25 1121.48 1614.48 1294.92 1609.53 1390.83L1617.14 1390.59C1620.13 1390.5 1622.59 1388.24 1622.88 1385.27C1625.56 1358.18 1629.8 1296.13 1630.58 1282.95C1631.63 1265.32 1637.75 1179.52 1646.5 1139.64C1652.75 1111.19 1654.02 1076.33 1653.87 1057.79C1653.84 1054.48 1651.07 1051.89 1647.76 1051.99L1633.39 1052.44L1601.33 1065Z" fill="#036ED9"/>
<path d="M1606.25 817.73C1605.44 806.921 1598.84 804.478 1595.65 804.607L1603.67 783.459L1612.79 785.756L1616.55 835.845L1607.88 839.479L1606.25 817.73Z" fill="#F1B3A6"/>
<path d="M1580.29 836.202C1590.07 829.694 1607.44 824.005 1614.91 821.974C1627.94 820.996 1660.16 823.308 1684.86 840.379C1708.05 856.411 1721.11 899.82 1725.53 923.204C1725.97 925.505 1724.28 927.637 1721.94 927.812L1697.97 929.612C1695.47 933.676 1689.41 947.978 1685.17 972.675C1681.02 996.844 1687.1 1034.22 1690.88 1050.95C1691.03 1051.63 1690.84 1052.32 1690.34 1052.79C1664.19 1077.41 1594.03 1069.72 1560.17 1062.39C1559.13 1062.17 1558.49 1061.17 1558.66 1060.13L1572.33 976.5L1534.42 922.551C1533.73 921.569 1533.5 920.344 1533.85 919.196C1541.34 894.671 1568.37 844.137 1580.29 836.202Z" fill="#FE7167"/>
<path d="M1570.5 973.894L1568.83 970L1586.33 935H1589.33C1591.99 923 1597.33 895.1 1597.33 879.5C1600.16 901.667 1599.33 951.9 1573.33 975.5L1572.33 976.5L1570.5 973.894Z" fill="#DF5F59"/>
<path fill-rule="evenodd" clip-rule="evenodd" d="M1657.03 1067.12C1675.05 1058.23 1672.18 1037.03 1668.25 1007.99C1664.8 982.516 1660.53 951.015 1668.83 916.5C1681.93 861.98 1663.87 834.773 1649.61 825.31C1661.27 828.067 1673.82 832.749 1684.86 840.379C1708.05 856.411 1721.11 899.82 1725.53 923.204C1725.97 925.505 1724.28 927.637 1721.94 927.812L1697.97 929.612C1695.47 933.676 1689.41 947.978 1685.17 972.675C1681.02 996.844 1687.1 1034.22 1690.88 1050.95C1691.03 1051.63 1690.84 1052.32 1690.34 1052.79C1682.48 1060.19 1670.65 1064.67 1657.03 1067.12Z" fill="#DF5F59"/>
<path d="M1545.95 977.387C1577.33 986.3 1587.61 948.373 1588.48 935.689C1588.55 934.746 1587.85 933.978 1586.91 933.873C1536.55 928.201 1454.38 893.46 1451.31 891.5C1448.21 889.519 1449.51 872.446 1445.33 870.914C1441.99 869.689 1440.67 875.939 1440.86 880.107C1440.26 883.596 1438.7 888.214 1426.91 881.154C1413.78 873.284 1394.4 865.882 1396.2 870.175C1397.64 873.61 1416.39 886.742 1425.12 891.622L1424.92 891.522C1409.64 883.898 1379.44 868.821 1384.92 877.295C1387.34 881.028 1409.97 896.62 1420.58 900.035C1406.95 896.001 1382.03 886.246 1384.19 892.111C1386.42 898.144 1411.72 906.527 1422.38 909.172C1413.57 908.234 1394.03 902.296 1396.78 907.403C1399.53 912.511 1424.09 918.884 1436.44 919.555C1455.17 933.033 1513.07 968.047 1545.95 977.387Z" fill="#FCD8CA"/>
<path d="M1588.48 935.689C1587.61 948.373 1577.33 986.3 1545.95 977.387C1541.01 975.983 1535.51 974 1529.65 971.597L1526.88 969.48C1564.61 984.205 1577.87 951.58 1581.64 933.127C1586.25 933.975 1582.69 933.397 1586.91 933.873C1587.85 933.978 1588.55 934.746 1588.48 935.689Z" fill="#F1B3A6"/>
<path d="M1698.38 929.783C1700.35 918.27 1703.49 890.992 1700.2 873.99M1579.8 933.172L1588.96 934.991C1591.93 923.403 1597.54 895.738 1596.2 877.789" stroke="#091434" stroke-linecap="round"/>
<path d="M1587.74 725.668C1567.14 735.274 1574.65 757.66 1581.31 768.256C1581.56 768.659 1581.95 768.944 1582.41 769.078L1606.7 776.202C1607.38 776.4 1607.9 776.918 1608.04 777.608C1611.32 793.381 1608.66 846.79 1606.76 873.824C1606.68 874.883 1607.44 875.803 1608.5 875.886C1618.52 876.673 1634.43 874.579 1642.85 873.143C1643.81 872.978 1644.51 872.131 1644.49 871.152L1644.35 862.648C1644.34 862.03 1645.34 861.931 1645.46 862.537C1646.15 865.939 1646.94 869.372 1647.61 871.028C1647.85 871.621 1648.47 871.872 1649.11 871.789C1668.53 869.255 1682.54 862.68 1688.9 858.596C1690.01 857.881 1690.02 856.308 1689.1 855.357C1674.14 839.909 1665.23 780.446 1658.41 748.861C1651.29 715.925 1613.99 713.424 1587.74 725.668Z" fill="#091434"/>
<path d="M1573.95 780.757C1580.71 773.599 1581.82 764.054 1581.38 758.262C1581.34 757.712 1582.19 757.397 1582.51 757.847C1589.74 768.015 1596.93 770.434 1601.53 770.223C1603.81 770.119 1605.45 768.307 1606.58 766.331C1610.17 760.096 1615.67 753.913 1617.8 764.172C1620.29 776.179 1613.42 782.395 1609.68 784.002C1607.9 799.71 1598.11 807.089 1589.85 810.001C1585.77 811.443 1582 808.135 1581.67 803.813L1580.87 793.181C1580.65 790.222 1579.13 787.514 1576.71 785.79L1574.19 783.989C1573.13 783.238 1573.07 781.698 1573.95 780.757Z" fill="#FCD8CA"/>
<path d="M1611.49 765.695C1614.12 765.23 1618.19 766.394 1613.37 774.776" stroke="#091434" stroke-linecap="round"/>
<path d="M1531.93 987.791C1531.81 986.196 1543.84 986.228 1549.87 986.443C1556.42 989.962 1566.16 997.17 1552.74 997.857C1535.96 998.715 1532.08 989.784 1531.93 987.791Z" fill="#F1B3A6"/>
<circle r="2" transform="matrix(-1 0 0 1 1584.33 772)" fill="#091434"/>
<path d="M1581.09 796.007C1581.19 795.982 1581.3 795.956 1581.4 795.929C1583.54 795.371 1585.63 794.369 1586.93 792.693C1587.1 792.475 1587.42 792.436 1587.63 792.605C1587.85 792.775 1587.89 793.089 1587.72 793.307C1586.23 795.231 1583.89 796.312 1581.65 796.896C1581.49 796.939 1581.33 796.979 1581.16 797.017L1581.09 796.007Z" fill="#091434"/>
<path d="M1587.23 763.462C1586.8 763.043 1586.38 762.601 1585.95 762.133C1585.72 762.098 1585.5 762.075 1585.29 762.063C1584.17 761.997 1583.37 762.249 1582.97 762.646C1582.78 762.842 1582.78 763.158 1582.97 763.354C1583.17 763.549 1583.49 763.549 1583.68 763.354C1583.78 763.251 1584.23 763.003 1585.23 763.062C1585.76 763.093 1586.42 763.208 1587.23 763.462Z" fill="#091434"/>
<ellipse cx="688" cy="1440" rx="144" ry="23" fill="#A5CFE4"/>
<path d="M725.534 1413.43L723.457 1389.38L686.418 1387.85L688.495 1407.32L701.096 1421.83L725.534 1413.43Z" fill="#FED4C7"/>
<path d="M694.223 1406.72C713.57 1419.4 719.999 1412.55 724.2 1408.32C725.24 1407.28 726.757 1406.96 728.176 1407.36L765.976 1418.08C772.547 1419.94 777.083 1425.94 777.083 1432.77V1434.59C777.083 1438.81 773.663 1442.23 769.446 1442.23H688.452C684.728 1442.23 681.536 1439.55 681.254 1435.84C680.149 1421.24 681.949 1398.68 694.223 1406.72Z" fill="#141C3E"/>
<path d="M775.249 1439.56H756.081C756.969 1426.6 760.907 1420.41 765.05 1417.82L765.976 1418.08C772.547 1419.94 777.083 1425.94 777.083 1432.77V1434.59C777.083 1436.49 776.392 1438.22 775.249 1439.56Z" fill="white"/>
<path d="M681.979 1438.41H776.061C774.74 1440.69 772.272 1442.23 769.446 1442.23H688.452C685.663 1442.23 683.173 1440.73 681.979 1438.41Z" fill="white"/>
<path d="M647.791 1413.43V1389.38L610.752 1387.85V1407.32L623.353 1421.83L647.791 1413.43Z" fill="#FED4C7"/>
<path d="M616.48 1406.72C635.828 1419.4 642.256 1412.55 646.457 1408.32C647.497 1407.28 649.014 1406.96 650.433 1407.36L688.233 1418.08C694.805 1419.94 699.34 1425.94 699.34 1432.77V1434.59C699.34 1438.81 695.921 1442.23 691.703 1442.23H610.709C606.985 1442.23 603.793 1439.55 603.512 1435.84C602.406 1421.24 604.207 1398.68 616.48 1406.72Z" fill="#2C365C"/>
<path d="M697.507 1439.56H678.339C679.226 1426.6 683.164 1420.41 687.307 1417.82L688.233 1418.08C694.805 1419.94 699.34 1425.94 699.34 1432.77V1434.59C699.34 1436.49 698.65 1438.22 697.507 1439.56Z" fill="white"/>
<path d="M603.953 1417.68C608.565 1420.7 614.848 1427.96 616.098 1441.47C615.562 1441.65 611.775 1441.66 607.706 1441.61C605.4 1440.62 603.713 1438.49 603.512 1435.84C603.087 1430.23 603.091 1423.45 603.953 1417.68Z" fill="white"/>
<path d="M604.237 1438.41H698.318C696.998 1440.69 694.53 1442.23 691.703 1442.23H610.709C607.921 1442.23 605.43 1440.73 604.237 1438.41Z" fill="white"/>
<path d="M730.646 1393.55L719.254 1025.66C719.221 1024.59 718.382 1023.72 717.315 1023.65L593.536 1015.5C592.471 1015.43 591.522 1016.17 591.414 1017.24C589.429 1036.75 601.588 1082.34 601.588 1121.14V1393.66C601.588 1394.81 602.518 1395.69 603.665 1395.69H653.186C654.245 1395.69 655.134 1394.89 655.25 1393.84L669.741 1262.48C669.769 1262.23 670.136 1262.24 670.155 1262.49L679.726 1393.76C679.805 1394.85 680.709 1395.69 681.797 1395.69H728.57C729.742 1395.69 730.682 1394.72 730.646 1393.55Z" fill="#985455"/>
<path fill-rule="evenodd" clip-rule="evenodd" d="M669.99 1262.3C670.073 1262.32 670.147 1262.38 670.155 1262.49L679.726 1393.76C679.805 1394.85 680.709 1395.69 681.797 1395.69H711.868C691.819 1364.04 686.605 1185.68 686.605 1093.56L679.336 1165.21L669.99 1258.15V1262.3Z" fill="#7B4749"/>
<path d="M646.433 1043.21L636.433 1030.71L611.12 1039.77C615.183 1043.83 623.745 1053.02 625.495 1057.27C627.245 1061.52 633.516 1070.29 636.433 1074.14C652.183 1069.14 660.704 1057.27 662.995 1051.96L646.433 1043.21Z" fill="#FED4C7"/>
<path d="M717.683 822.579C707.183 814.329 687.683 805.6 679.245 802.266H657.37C647.37 804.141 621.995 810.829 600.495 822.579C573.62 837.267 554.245 906.33 550.182 924.142C546.982 938.173 586.742 1010.31 607.952 1046.24C608.511 1047.18 609.695 1047.5 610.672 1047L641.12 1031.33H719.479C720.698 1031.33 721.654 1030.29 721.559 1029.07C719.572 1003.75 720.835 973.357 721.746 961.017C743.246 966.017 755.704 933.726 759.246 916.955C749.767 888.934 728.183 830.829 717.683 822.579Z" fill="#669CFF"/>
<path fill-rule="evenodd" clip-rule="evenodd" d="M692.372 1031.33H719.479C720.698 1031.33 721.654 1030.29 721.559 1029.07C719.572 1003.75 720.835 973.357 721.746 961.017C743.09 965.981 755.523 934.191 759.168 917.321C750.665 925.409 738.113 933.876 732.298 925.324C725.236 914.94 723.125 858.343 722.952 831.343L715.913 821.244C714.465 820.193 712.889 819.138 711.227 818.094C714.49 878.788 714.188 990.596 692.372 1031.33ZM641.031 1031.38L641.12 1031.33H644.959C634.039 997.972 615.333 940.485 613.393 933.113C611.316 925.22 622.22 882.747 627.932 862.497C620.039 890.328 608.374 917.016 603.528 926.882L640.913 1031.25L641.031 1031.38Z" fill="#4983FE"/>
<path d="M716.183 713.939C727.31 733.966 713.233 747.234 704.804 751.364L658.528 791.318C634.455 782.821 633.831 750.521 636.528 735.433C633.325 733.916 627.678 730.173 630.712 727.341C633.747 724.509 637.203 727.847 638.551 729.87C644.115 712.169 654.735 711.157 668.39 713.939C682.046 716.72 709.356 701.548 716.183 713.939Z" fill="#091434"/>
<path d="M680.808 802.266V778.829L656.12 749.141L653.893 802.785L653.972 802.854C660.766 808.812 673.976 820.396 685.183 821.642C696.433 822.892 686.954 809.246 680.808 802.266Z" fill="#FED4C7"/>
<path d="M655.698 759.32L655.361 767.423C656.992 785.301 671.763 795.601 680.808 798.902V785.199L678.307 775.822L661.118 755.151L655.698 759.32Z" fill="#F2B3A4"/>
<path d="M680.276 791.065C704.147 792.886 707.923 759.119 706.827 742.008C699.545 750.302 675.471 743.609 664.345 739.226L662.827 752.123C661.731 748.077 658.073 741.401 652.207 747.065C649.678 749.507 652.965 759.54 657.011 762.238C657.517 771.088 662.878 789.244 680.276 791.065Z" fill="#FED4C7"/>
<path d="M658.781 750.605C658.276 749.257 656.859 746.964 655.241 748.582C653.218 750.605 655.241 754.904 657.011 757.939" stroke="#091434" stroke-width="1.03847" stroke-linecap="round"/>
<path d="M767.371 807.579H741.746L737.371 819.454H762.996L767.371 807.579Z" fill="#1A5089"/>
<path d="M627.683 862.267C624.141 874.663 614.37 905.017 603.62 927.267L641.12 1031.33M721.746 960.705L725.496 906.33" stroke="#091434" stroke-width="1.03847" stroke-linecap="round"/>
<path d="M790.981 815.149C791.363 813.867 790.402 812.579 789.064 812.579H710.737C709.852 812.579 709.073 813.16 708.82 814.008L678.76 915.009C678.379 916.291 679.339 917.58 680.677 917.58H759.004C759.889 917.58 760.669 916.998 760.921 916.15L790.981 815.149Z" fill="#FFCC53"/>
<path d="M790.813 815.714L760.921 916.15C760.669 916.998 759.889 917.58 759.004 917.58H680.677C680.265 917.58 679.888 917.457 679.576 917.25C736.185 885.988 773.138 843.222 790.813 815.714Z" fill="#FBBB25"/>
<path d="M786.746 868.517C788.746 860.017 783.829 851.225 781.121 847.892L777.371 857.579C753.933 841.329 747.058 861.642 747.058 868.517C747.058 875.392 761.121 890.392 771.746 891.954C782.371 893.517 784.246 879.142 786.746 868.517Z" fill="#FED4C7"/>
<path fill-rule="evenodd" clip-rule="evenodd" d="M747.068 868.062C747.061 868.219 747.058 868.371 747.058 868.517C747.058 868.767 747.077 869.027 747.113 869.298L764.918 879.901C765.164 880.047 765.483 879.966 765.63 879.72C765.776 879.474 765.695 879.155 765.449 879.008L747.068 868.062ZM748.87 860.719C748.729 861.042 748.597 861.365 748.474 861.687L769.93 873.658C770.181 873.797 770.497 873.708 770.637 873.457C770.777 873.207 770.687 872.891 770.436 872.751L748.87 860.719ZM754.003 853.918C753.703 854.142 753.415 854.379 753.137 854.626L773.995 866.159C774.246 866.297 774.562 866.207 774.7 865.956C774.839 865.705 774.748 865.389 774.497 865.25L754.003 853.918Z" fill="#091434"/>
<path d="M665.495 1047.89C662.995 1054.77 652.87 1069.96 632.37 1075.71" stroke="#091434" stroke-width="1.03847" stroke-linecap="round"/>
<path d="M686.086 1092.52L669.99 1260.23" stroke="#091434" stroke-width="1.03847" stroke-linecap="round"/>
<circle r="2" transform="matrix(-1 0 0 1 700 758.473)" fill="#091434"/>
<circle r="2" transform="matrix(-1 0 0 1 683 758.473)" fill="#091434"/>
<path d="M691 766.473L692.047 771.008C692.296 772.09 691.616 773.169 690.532 773.41L688 773.973M690.5 782.473C689.333 783.473 686.2 784.573 683 780.973M687 751.473C685.667 750.306 681.9 748.673 677.5 751.473M696.5 752.473C698 750.973 701.8 748.873 705 752.473" stroke="#091434" stroke-linecap="round"/>
</svg>
