<?xml version="1.0" encoding="UTF-8" standalone="no"?>
<svg
   xmlns:dc="http://purl.org/dc/elements/1.1/"
   xmlns:cc="http://creativecommons.org/ns#"
   xmlns:rdf="http://www.w3.org/1999/02/22-rdf-syntax-ns#"
   xmlns:svg="http://www.w3.org/2000/svg"
   xmlns="http://www.w3.org/2000/svg"
   xmlns:sodipodi="http://sodipodi.sourceforge.net/DTD/sodipodi-0.dtd"
   xmlns:inkscape="http://www.inkscape.org/namespaces/inkscape"
   width="1024"
   height="1024"
   viewBox="0 0 270.93333 270.93334"
   version="1.1"
   id="svg8"
   inkscape:version="1.0.2-2 (e86c870879, 2021-01-15)"
   sodipodi:docname="FinanceBoxLogo.svg">
  <defs
     id="defs2" />
  <sodipodi:namedview
     id="base"
     pagecolor="#ffffff"
     bordercolor="#666666"
     borderopacity="1.0"
     inkscape:pageopacity="0.0"
     inkscape:pageshadow="2"
     inkscape:zoom="0.35"
     inkscape:cx="484.18726"
     inkscape:cy="589.15932"
     inkscape:document-units="mm"
     inkscape:current-layer="layer1"
     inkscape:document-rotation="0"
     showgrid="false"
     inkscape:window-width="1920"
     inkscape:window-height="1027"
     inkscape:window-x="-8"
     inkscape:window-y="22"
     inkscape:window-maximized="1"
     units="px" />
  <metadata
     id="metadata5">
    <rdf:RDF>
      <cc:Work
         rdf:about="">
        <dc:format>image/svg+xml</dc:format>
        <dc:type
           rdf:resource="http://purl.org/dc/dcmitype/StillImage" />
        <dc:title></dc:title>
      </cc:Work>
    </rdf:RDF>
  </metadata>
  <g
     inkscape:label="Layer 1"
     inkscape:groupmode="layer"
     id="layer1">
    <path
       style="fill:#0fa4ff;fill-opacity:1;stroke:none;stroke-width:0.124932"
       d="m 132.51055,20.327908 c -3.03185,0.398057 -6.00674,0.633427 -8.99512,1.380654 -7.27429,1.819134 -14.18276,5.555602 -19.73926,10.581134 -4.464192,4.037546 -8.327718,8.998592 -10.87871,14.470867 -9.871917,21.176513 -3.169544,47.175516 16.75053,60.005927 4.60661,2.96703 9.66486,5.08499 14.99183,6.34755 5.4183,1.2843 11.10648,1.51006 16.61597,0.82444 21.95187,-2.73126 39.9983,-21.694479 40.97277,-43.940521 0.27235,-6.210612 -0.48971,-12.492089 -2.57985,-18.365031 -5.4183,-15.223351 -18.49245,-26.801559 -34.27013,-30.28656 -4.05781,-0.896395 -8.71278,-1.563899 -12.86803,-1.01846 m 21.11354,24.308806 v 5.372092 h -11.74363 l 2.33125,3.997851 0.86202,2.673155 2.30376,0.2003 h 6.2466 v 3.747971 c 0,0.390024 0.13122,1.096663 -0.12857,1.423854 -0.32855,0.414648 -1.52169,0.2003 -1.99518,0.2003 h -4.74742 c -0.48849,0 -1.41671,-0.174519 -1.79904,0.200301 -0.37478,0.36778 -0.39227,1.305293 -0.53969,1.798641 -0.36606,1.229833 -0.87953,2.409327 -1.5629,3.49809 -2.67481,4.261084 -7.60462,6.36282 -12.46449,6.746333 l 10.92158,12.243368 6.06921,7.495941 h -8.4954 c -1.08817,0 -2.72478,0.306401 -3.74797,-0.07536 -0.76332,-0.284916 -1.31676,-1.313292 -1.80525,-1.923581 -1.15315,-1.440215 -2.37498,-2.831082 -3.55682,-4.247697 -2.43868,-2.922804 -4.94019,-5.818736 -7.51667,-8.620335 -1.03046,-1.120494 -2.97503,-2.572476 -3.51961,-3.997821 -0.39326,-1.029697 -0.0929,-2.652199 -0.0929,-3.74797 0,-0.981209 -0.35905,-2.825331 0.0754,-3.70824 0.21682,-0.440629 1.02546,-0.289544 1.42385,-0.289544 h 4.2477 c 3.84167,-0.0015 8.14933,-1.42111 9.49485,-5.372092 h -11.36882 c -0.72475,0 -3.27598,0.391281 -3.74447,-0.2003 -0.25913,-0.327224 -0.12857,-1.033929 -0.12857,-1.423854 v -3.74797 h 14.8669 c -0.63713,-1.737064 -2.43616,-2.926176 -4.12275,-3.497595 -3.39454,-1.149878 -7.21572,-0.750103 -10.74415,-0.750103 v -7.995667 h 34.98103 M 82.787397,79.867664 C 66.713,89.707586 50.132133,98.733683 33.93891,108.37733 c -3.521095,2.09684 -7.098148,4.09952 -10.619243,6.19636 -2.83095,1.68596 -5.217536,2.86797 -6.193259,6.27173 -0.942405,3.2882 -0.382786,7.84574 1.986679,10.48307 1.680444,1.87023 4.82738,3.05835 6.955096,4.39012 5.410301,3.3869 10.892723,6.67887 16.366122,9.96334 1.753788,1.05191 3.514451,2.10259 5.247152,3.18825 0.596308,0.37357 1.622998,0.7546 1.995405,1.37553 0.426911,0.71084 0.128576,2.26875 0.128576,3.08205 v 7.74579 16.99079 c 0,4.46634 -0.264424,8.53288 1.449602,12.74309 1.388851,3.41189 3.583532,7.18485 6.421125,9.59355 1.326546,1.12562 3.123171,1.89522 4.622485,2.77598 3.160785,1.85649 6.324445,3.70923 9.494849,5.54823 13.850861,8.0394 27.702349,16.09251 41.477471,24.25933 3.3202,1.96893 6.65613,3.9129 9.99458,5.84934 1.54218,0.89577 3.17777,2.20255 4.87236,2.76223 2.66856,0.88328 5.73313,0.8608 8.49539,0.67217 1.85897,-0.12759 4.22645,-0.28855 5.99673,-0.81958 1.71657,-0.5147 3.44064,-1.92269 4.99731,-2.81095 3.7592,-2.14636 7.48966,-4.34141 11.24387,-6.49649 14.05113,-8.06561 28.08977,-16.15749 42.10216,-24.29056 7.25729,-4.21147 15.56402,-7.97567 18.93347,-16.29367 1.35299,-3.34192 0.68086,-7.10863 0.68086,-10.61921 v -20.98861 c 0,-2.50614 0.12494,-4.99231 0.12494,-7.49594 0,-0.81082 -0.29979,-2.37495 0.12857,-3.08209 0.38606,-0.63716 1.50295,-1.03568 2.12012,-1.42173 1.73405,-1.08566 3.4931,-2.13883 5.24715,-3.19199 6.14417,-3.68676 12.22211,-7.48219 18.36503,-11.16895 4.13776,-2.4824 8.74151,-6.27784 7.19235,-11.74364 -1.03571,-3.65274 -4.3614,-5.76112 -7.44223,-7.54889 -3.04583,-1.76817 -6.09542,-3.53921 -9.12003,-5.34423 -10.82037,-6.45738 -21.70949,-12.817287 -32.6073,-19.14246 -5.60697,-3.253862 -11.12149,-7.198101 -16.99079,-9.941626 -1.62786,3.673403 -3.09207,8.078498 -3.99782,11.993485 l 9.7447,5.971404 7.371,4.647837 -4.99727,2.83835 -10.74419,6.22872 -32.73221,18.9702 -12.86803,7.47846 -3.37315,1.9452 -1.44673,0.72458 -1.55163,-0.81204 -3.62307,-2.14259 -12.99293,-7.69581 -46.724629,-27.66001 c 4.325173,-2.02188 8.446047,-5.088857 12.493212,-7.627087 1.034821,-0.649032 2.076021,-1.289069 3.123336,-1.917703 0.426019,-0.255499 1.118742,-0.534333 1.365747,-0.990232 0.362789,-0.66952 -0.516717,-2.284519 -0.741113,-2.957642 L 83.911825,82.86606 C 83.595508,81.916549 83.388993,80.671743 82.78743,79.867664 m 39.72844,67.463396 v 0.24988 l -18.98968,11.36885 -5.122212,3.07333 -2.248789,1.1981 -1.499181,-0.74835 -3.498123,-2.09638 -13.617607,-8.16682 -29.234121,-17.52172 -12.743092,-7.65211 -5.621939,-3.31693 c 1.337288,-1.56003 4.311523,-2.55539 6.121666,-3.53673 4.596009,-2.4915 9.170798,-5.02927 13.742547,-7.56489 1.537919,-0.85303 3.077458,-1.70457 4.622484,-2.54485 0.566593,-0.30805 1.324431,-0.93724 1.998942,-0.90965 0.602026,0.0231 1.248673,0.56656 1.749028,0.86315 1.24246,0.73625 2.507131,1.43512 3.74797,2.17409 4.259696,2.53688 8.579978,4.97929 12.868033,7.46808 15.901596,9.22923 31.887684,18.32305 47.724074,27.66298 m 116.68664,-23.86206 v 0.24988 c -2.12636,0.99446 -4.12652,2.45864 -6.12167,3.69548 -3.36194,2.08263 -6.74636,4.13152 -10.11951,6.19789 -10.28442,6.30031 -20.60506,12.54444 -30.85824,18.89348 -4.23147,2.6211 -8.4754,5.23218 -12.7431,7.79328 -1.17311,0.70463 -2.32497,1.44422 -3.49809,2.14884 -0.42853,0.25748 -0.98322,0.73708 -1.49921,0.76332 -0.65088,0.0331 -1.46418,-0.69212 -1.99891,-1.0132 l -4.62248,-2.77347 -13.61761,-8.17058 c -1.88898,-1.13313 -4.82113,-2.24754 -6.24661,-3.92286 l 6.24661,-3.57057 10.99403,-6.37155 30.6084,-17.74324 13.11787,-7.62085 3.62303,-2.10111 1.62413,-0.76583 2.12384,1.06691 4.87234,2.82183 11.11897,6.42589 6.99621,3.99646 m -31.73279,33.85664 V 178.814 c 0,3.52182 0.60345,7.54463 -1.1631,10.74415 -1.34677,2.43868 -3.89165,3.59057 -6.2079,4.90734 -3.8354,2.18132 -7.66206,4.38014 -11.49376,6.56768 l -31.48288,17.99024 -10.4943,5.99676 c -1.75904,1.00445 -3.51187,2.21504 -5.37209,3.01711 v -69.96214 c 7.39847,3.4544 14.47963,7.99693 21.61327,11.976 4.33139,2.4162 8.40916,5.12221 13.61758,4.61875 3.95412,-0.38229 7.19486,-2.94591 10.4943,-4.92607 4.38639,-2.63108 8.77026,-5.27965 13.11788,-7.97316 2.39746,-1.48672 4.82239,-3.23952 7.371,-4.44509 z"
       id="path28" />
  </g>
</svg>
