<svg id="Group_15451" data-name="Group 15451" xmlns="http://www.w3.org/2000/svg" xmlns:xlink="http://www.w3.org/1999/xlink" width="281.529" height="196.574" viewBox="0 0 281.529 196.574">
  <defs>
    <clipPath id="clip-path">
      <rect id="Rectangle_7530" data-name="Rectangle 7530" width="281.529" height="196.574" fill="none"/>
    </clipPath>
    <clipPath id="clip-path-3">
      <rect id="Rectangle_7464" data-name="Rectangle 7464" width="34.798" height="67.86" fill="none"/>
    </clipPath>
  </defs>
  <g id="Group_15450" data-name="Group 15450" clip-path="url(#clip-path)">
    <g id="Group_15449" data-name="Group 15449" transform="translate(0 0)">
      <g id="Group_15448" data-name="Group 15448" clip-path="url(#clip-path)">
        <path id="Path_23395" data-name="Path 23395" d="M264.1,218.677c-6.838,6.631-49.206-1.906-58.211-2.446l-177.977,2.1c-25.365-16.618-47.948-82.318,1.093-108.687C53.722,96.353,17.173,57.2,69.438,43.624c48.544-12.607,38.018,19.863,107.066-2.746,51.837-16.973,72.541,22.2,76.212,34.911,1.868,6.466,3.908,13.164,3.98,19.916.469,43.585,12.434,37.84,19.982,55.339,4.066,9.426,12.941,42.889-12.577,67.633" transform="translate(0 -32.535)" fill="#dde7fe"/>
        <path id="Path_23396" data-name="Path 23396" d="M391.308,1595.765c0-4.727-56.386-8.559-125.942-8.559s-125.942,3.832-125.942,8.559,56.386,8.559,125.942,8.559,125.942-3.832,125.942-8.559" transform="translate(-123.66 -1407.75)" fill="#bdd1f9"/>
        <path id="Path_23397" data-name="Path 23397" d="M947.2,1454.624s1.114-19.836-32.935-16.065c0,0,16.65,31.108,32.935,16.065" transform="translate(-810.891 -1275.487)" fill="#7c9af2"/>
        <path id="Path_23398" data-name="Path 23398" d="M913.717,1438.286l32.7,13.608c-1.005-5.186-6.21-16.543-32.7-13.608" transform="translate(-810.409 -1275.245)" fill="#91b5f8"/>
        <path id="Path_23399" data-name="Path 23399" d="M1330.555,1430.206s4.072-24.683,44.879-10.71c0,0-28.994,33.662-44.879,10.71" transform="translate(-1180.118 -1255.203)" fill="#91b5f8"/>
        <path id="Path_23400" data-name="Path 23400" d="M1375.434,1453.1l-44.879,10.71s11.767,24.188,44.879-10.71" transform="translate(-1180.118 -1288.807)" fill="#7c9af2"/>
        <g id="Group_15447" data-name="Group 15447" transform="translate(85.926 0)" opacity="0.7">
          <g id="Group_15446" data-name="Group 15446">
            <g id="Group_15445" data-name="Group 15445" clip-path="url(#clip-path-3)">
              <path id="Path_23401" data-name="Path 23401" d="M818.777,100.387a.22.22,0,0,0,.188-.283c-9.329-30.262-17.774-51.614-23.779-60.123-.133-.189-.23-.325-.267-.395a.22.22,0,0,0-.387.206,5.238,5.238,0,0,0,.3.441c5.979,8.472,14.4,29.781,23.718,60a.219.219,0,0,0,.231.154" transform="translate(-790.603 -35.007)" fill="#bdd1f9"/>
              <path id="Path_23402" data-name="Path 23402" d="M760.405,3.44c.711.955,4.268,2.691,4.54,2.489s-.372-4.108-1.083-5.063a2.155,2.155,0,1,0-3.457,2.574" transform="translate(-759.978 0.002)" fill="#bdd1f9"/>
              <path id="Path_23403" data-name="Path 23403" d="M823.793,43.388c-.342,1.169.429,5.144.763,5.242s3.127-2.834,3.469-4a2.2,2.2,0,1,0-4.232-1.239" transform="translate(-816.502 -37.076)" fill="#bdd1f9"/>
              <path id="Path_23404" data-name="Path 23404" d="M771.216,83.091c1.216.07,4.915-1.577,4.935-1.924s-3.465-2.409-4.681-2.479a2.2,2.2,0,1,0-.254,4.4" transform="translate(-768.102 -69.789)" fill="#bdd1f9"/>
              <path id="Path_23405" data-name="Path 23405" d="M914.788,215.033c-.782,1.888-.214,8.662.325,8.885s5.731-4.163,6.514-6.051a3.7,3.7,0,0,0-6.838-2.834" transform="translate(-896.944 -188.694)" fill="#bdd1f9"/>
              <path id="Path_23406" data-name="Path 23406" d="M820.71,271.78c2.016.337,8.487-1.742,8.584-2.317s-5.347-4.646-7.363-4.984a3.7,3.7,0,1,0-1.221,7.3" transform="translate(-811.102 -234.53)" fill="#bdd1f9"/>
              <path id="Path_23407" data-name="Path 23407" d="M948.319,284.665c-1.443,2.043-2.589,10.282-2.005,10.694s7.963-3.426,9.405-5.47a4.529,4.529,0,0,0-7.4-5.224" transform="translate(-925.108 -250.779)" fill="#bdd1f9"/>
              <path id="Path_23408" data-name="Path 23408" d="M827.71,355.071c2.5.157,10.112-3.189,10.157-3.9s-7.093-4.983-9.59-5.139a4.529,4.529,0,1,0-.567,9.04" transform="translate(-816.286 -306.899)" fill="#bdd1f9"/>
              <path id="Path_23409" data-name="Path 23409" d="M978.016,371.926c-1.443,2.044-2.589,10.282-2.006,10.694s7.963-3.426,9.405-5.469a4.529,4.529,0,0,0-7.4-5.224" transform="translate(-951.447 -328.174)" fill="#bdd1f9"/>
              <path id="Path_23410" data-name="Path 23410" d="M857.407,442.332c2.5.156,10.112-3.189,10.157-3.9s-7.093-4.983-9.59-5.139a4.529,4.529,0,0,0-.567,9.04" transform="translate(-842.626 -384.294)" fill="#bdd1f9"/>
              <path id="Path_23411" data-name="Path 23411" d="M888.15,529.214c2.457.467,10.431-1.9,10.565-2.6s-6.415-5.83-8.872-6.3a4.529,4.529,0,1,0-1.693,8.9" transform="translate(-870.391 -461.415)" fill="#bdd1f9"/>
              <path id="Path_23412" data-name="Path 23412" d="M852.573,98.342c-.348,1.187.436,5.226.775,5.326s3.177-2.879,3.525-4.067a2.24,2.24,0,0,0-4.3-1.259" transform="translate(-842.027 -85.794)" fill="#bdd1f9"/>
              <path id="Path_23413" data-name="Path 23413" d="M800.576,139.338c1.235.071,4.994-1.6,5.014-1.954s-3.521-2.447-4.756-2.519a2.24,2.24,0,1,0-.258,4.473" transform="translate(-794.113 -119.614)" fill="#bdd1f9"/>
              <path id="Path_23414" data-name="Path 23414" d="M883.971,146.143c-.631,1.641.009,7.451.477,7.631s4.834-3.706,5.465-5.347a3.183,3.183,0,0,0-5.942-2.284" transform="translate(-869.718 -127.809)" fill="#bdd1f9"/>
              <path id="Path_23415" data-name="Path 23415" d="M804.162,202.56c1.755.1,7.095-2.276,7.124-2.777s-5-3.477-6.757-3.578a3.183,3.183,0,1,0-.367,6.355" transform="translate(-796.506 -174.016)" fill="#bdd1f9"/>
            </g>
          </g>
        </g>
        <path id="Path_23416" data-name="Path 23416" d="M519.688,302.1s9.881-35.2-44.849-43.233c0,0,13.24,63.206,44.849,43.233" transform="translate(-421.152 -229.597)" fill="#7c9af2"/>
        <path id="Path_23417" data-name="Path 23417" d="M474.1,258.138,519.6,296.851c.558-9.766-2.911-32.462-45.494-38.713" transform="translate(-420.497 -228.952)" fill="#91b5f8"/>
        <path id="Path_23418" data-name="Path 23418" d="M341.358,480.3s-3.16-41.54-72.894-24.3c0,0,43.2,60.065,72.894,24.3" transform="translate(-238.11 -400.722)" fill="#91b5f8"/>
        <path id="Path_23419" data-name="Path 23419" d="M268.464,488.849l72.894,24.3s-23.043,38.414-72.894-24.3" transform="translate(-238.11 -433.578)" fill="#7c9af2"/>
        <rect id="Rectangle_7465" data-name="Rectangle 7465" width="27.949" height="26.63" transform="translate(131.458 154.123)" fill="#060633"/>
        <path id="Path_23420" data-name="Path 23420" d="M759.142,412.688h-150.5a2.64,2.64,0,0,0-2.64,2.64V519.551a2.64,2.64,0,0,0,2.64,2.64h150.5a2.64,2.64,0,0,0,2.64-2.64V415.328a2.64,2.64,0,0,0-2.64-2.64" transform="translate(-537.486 -366.028)" fill="#0c0c4c"/>
        <rect id="Rectangle_7466" data-name="Rectangle 7466" width="147.685" height="98.355" transform="translate(72.488 49.562)" fill="#89f"/>
        <rect id="Rectangle_7467" data-name="Rectangle 7467" width="47.726" height="6.109" transform="translate(121.569 178.156)" fill="#0c0c4c"/>
        <rect id="Rectangle_7468" data-name="Rectangle 7468" width="109.25" height="74.826" transform="translate(89.028 61.502)" fill="#dde7fe"/>
        <path id="Path_23421" data-name="Path 23421" d="M787.641,568.708s14.3-8.522,39.14-3.553,47.7,4.052,48.192-21.2h21.689v70.971H787.412Z" transform="translate(-698.384 -482.452)" fill="#ef6159"/>
        <path id="Path_23422" data-name="Path 23422" d="M896.662,866.605V882.4H787.412V844.824a42.335,42.335,0,0,1,28.935-2.016c29.872,8.073,15.4,25.752,42.976,31.176,19.052,3.747,25.108-4.68,37.339-7.379" transform="translate(-698.384 -746.07)" fill="#fa7267"/>
        <path id="Path_23423" data-name="Path 23423" d="M867.49,873.173a46.568,46.568,0,0,1-9.009-.943c-13.792-2.713-17.154-8.474-20.712-14.574-3.6-6.177-7.33-12.565-22.281-16.606a42.053,42.053,0,0,0-28.769,2l-.2-.454a42.539,42.539,0,0,1,29.1-2.029c6.773,1.831,11.88,4.328,15.614,7.634a34.411,34.411,0,0,1,6.967,9.2c3.5,6,6.806,11.667,20.378,14.337a39.826,39.826,0,0,0,15.572.306,51.527,51.527,0,0,0,11.126-3.9,54.5,54.5,0,0,1,10.54-3.788l.107.485a54.094,54.094,0,0,0-10.446,3.758c-5.094,2.254-10.318,4.565-17.986,4.565" transform="translate(-697.591 -744.072)" fill="#fff"/>
        <rect id="Rectangle_7469" data-name="Rectangle 7469" width="2.997" height="2.997" transform="translate(106.784 93.798)" fill="#fff"/>
        <rect id="Rectangle_7470" data-name="Rectangle 7470" width="0.497" height="51.312" transform="matrix(0.102, -0.995, 0.995, 0.102, 84.54, 93.085)" fill="#fff"/>
        <path id="Path_23424" data-name="Path 23424" d="M740.333,814.353a.861.861,0,1,1,.861.861.861.861,0,0,1-.861-.861" transform="translate(-656.628 -721.515)" fill="#fff"/>
        <path id="Path_23425" data-name="Path 23425" d="M1191.817,860.49a.861.861,0,1,1,.861.861.861.861,0,0,1-.861-.861" transform="translate(-1057.066 -762.436)" fill="#fff"/>
        <rect id="Rectangle_7471" data-name="Rectangle 7471" width="2.997" height="2.997" transform="translate(175.911 126.877) rotate(-11.915)" fill="#fff"/>
        <rect id="Rectangle_7472" data-name="Rectangle 7472" width="22.803" height="0.328" transform="translate(166.466 130.064) rotate(-11.081)" fill="#fff"/>
        <path id="Path_23426" data-name="Path 23426" d="M1465,1145.167a.861.861,0,1,1,1.02.665.861.861,0,0,1-1.02-.665" transform="translate(-1299.341 -1014.769)" fill="#fff"/>
        <path id="Path_23427" data-name="Path 23427" d="M1662.215,1105.092a.861.861,0,1,1,1.02.665.861.861,0,0,1-1.02-.665" transform="translate(-1474.263 -979.225)" fill="#fff"/>
        <path id="Path_23428" data-name="Path 23428" d="M787.531,440.8H639.474v-4.09H787.531Zm-147.685-.373H787.159v-3.345H639.847Z" transform="translate(-567.173 -387.329)" fill="#0c0c4c"/>
        <path id="Path_23429" data-name="Path 23429" d="M904.518,1067.336H879.036v-9.5h25.482Zm-24.985-.5h24.488v-8.511H879.533Z" transform="translate(-779.649 -938.228)" fill="#fff"/>
        <path id="Path_23430" data-name="Path 23430" d="M873.083,1052.8a.921.921,0,1,1,.921.921.921.921,0,0,1-.921-.921" transform="translate(-774.369 -932.95)" fill="#fff"/>
        <path id="Path_23431" data-name="Path 23431" d="M1094.064,1052.8a.921.921,0,1,1,.921.921.921.921,0,0,1-.921-.921" transform="translate(-970.365 -932.95)" fill="#fff"/>
        <path id="Path_23432" data-name="Path 23432" d="M873.083,1132.47a.921.921,0,1,1,.921.922.921.921,0,0,1-.921-.922" transform="translate(-774.369 -1003.612)" fill="#fff"/>
        <path id="Path_23433" data-name="Path 23433" d="M1094.064,1132.47a.921.921,0,1,1,.921.922.921.921,0,0,1-.921-.922" transform="translate(-970.365 -1003.612)" fill="#fff"/>
        <path id="Path_23434" data-name="Path 23434" d="M1885.931,1265.157a.407.407,0,0,1-.42-.268l-10.661-50.133c-.037-.173.121-.335.354-.363a.426.426,0,0,1,.486.264l10.661,50.133c.037.173-.121.335-.354.362a.539.539,0,0,1-.067,0" transform="translate(-1662.869 -1077.086)" fill="#fa7267"/>
        <path id="Path_23435" data-name="Path 23435" d="M2098.017,1265.734a.413.413,0,0,1-.427-.261l-12-49.964c-.042-.172.112-.337.344-.368a.431.431,0,0,1,.494.256l12,49.964c.042.172-.112.337-.344.368a.5.5,0,0,1-.067,0" transform="translate(-1849.777 -1077.747)" fill="#fa7267"/>
        <path id="Path_23436" data-name="Path 23436" d="M1912.162,1270.766h-23.225c-.347,0-.627-.142-.627-.317s.281-.317.627-.317h23.225c.347,0,.627.142.627.317s-.281.317-.627.317" transform="translate(-1674.81 -1126.526)" fill="#fa7267"/>
        <path id="Path_23437" data-name="Path 23437" d="M1927.5,1350.033h-23.624c-.353,0-.638-.142-.638-.317s.286-.317.638-.317H1927.5c.353,0,.638.142.638.317s-.286.317-.638.317" transform="translate(-1688.049 -1196.831)" fill="#fa7267"/>
        <path id="Path_23438" data-name="Path 23438" d="M1947.361,1435.919h-23.74c-.355,0-.641-.142-.641-.317s.287-.317.641-.317h23.74c.355,0,.641.142.641.317s-.287.317-.641.317" transform="translate(-1705.56 -1273.006)" fill="#fa7267"/>
        <path id="Path_23439" data-name="Path 23439" d="M1968,1529.088h-23.763c-.364,0-.659-.142-.659-.317s.295-.317.659-.317H1968c.364,0,.659.142.659.317s-.295.317-.659.317" transform="translate(-1723.827 -1355.641)" fill="#fa7267"/>
        <rect id="Rectangle_7473" data-name="Rectangle 7473" width="28.695" height="75.077" transform="translate(24.511 86.993)" fill="#abbbff"/>
        <rect id="Rectangle_7474" data-name="Rectangle 7474" width="28.695" height="0.124" transform="translate(24.511 101.773)" fill="#0c0c4c"/>
        <rect id="Rectangle_7475" data-name="Rectangle 7475" width="28.695" height="0.124" transform="translate(24.511 117.262)" fill="#0c0c4c"/>
        <rect id="Rectangle_7476" data-name="Rectangle 7476" width="28.695" height="0.124" transform="translate(24.511 132.751)" fill="#0c0c4c"/>
        <path id="Path_23440" data-name="Path 23440" d="M265.812,812.434c.111-.332-.111-6.031-.111-6.031l4.316,4.261-2.564-.092Z" transform="translate(-235.66 -715.228)" fill="#0c0c4c"/>
        <path id="Path_23441" data-name="Path 23441" d="M380.246,812.434c.111-.332-.111-6.031-.111-6.031l4.316,4.261-2.564-.092Z" transform="translate(-337.156 -715.228)" fill="#fff"/>
        <path id="Path_23442" data-name="Path 23442" d="M256.5,948.756h-.775v-1.383h5.257V948.7h-.775v-.553H256.5Z" transform="translate(-226.815 -840.259)" fill="#0c0c4c"/>
        <rect id="Rectangle_7477" data-name="Rectangle 7477" width="0.775" height="4.371" transform="translate(31.155 107.501)" fill="#0c0c4c"/>
        <rect id="Rectangle_7478" data-name="Rectangle 7478" width="2.047" height="0.775" transform="translate(30.518 111.374)" fill="#0c0c4c"/>
        <rect id="Rectangle_7479" data-name="Rectangle 7479" width="7.652" height="0.775" transform="matrix(0.651, -0.759, 0.759, 0.651, 42.353, 112.128)" fill="#0c0c4c"/>
        <path id="Path_23443" data-name="Path 23443" d="M253.762,1073.865a2.681,2.681,0,1,1,2.681-2.681,2.684,2.684,0,0,1-2.681,2.681m0-4.654a1.973,1.973,0,1,0,1.973,1.973,1.975,1.975,0,0,0-1.973-1.973" transform="translate(-222.693 -947.694)" fill="#0c0c4c"/>
        <path id="Path_23444" data-name="Path 23444" d="M289.832,1107.411a.353.353,0,0,1-.255-.108l-2.9-3a.354.354,0,0,1,.509-.492l2.9,3a.354.354,0,0,1-.255.6" transform="translate(-254.176 -978.912)" fill="#0c0c4c"/>
        <rect id="Rectangle_7480" data-name="Rectangle 7480" width="9.611" height="9.611" transform="translate(36.166 145.441)" fill="#dde7fe"/>
        <path id="Path_23445" data-name="Path 23445" d="M327.924,1294.412H317.857v-10.067h10.067Zm-9.611-.456h9.154V1284.8h-9.154Z" transform="translate(-281.919 -1139.132)" fill="#0c0c4c"/>
        <rect id="Rectangle_7481" data-name="Rectangle 7481" width="9.611" height="9.611" transform="translate(30.416 139.937)" fill="#fa7267"/>
        <rect id="Rectangle_7482" data-name="Rectangle 7482" width="13.591" height="0.863" transform="translate(35.861 154.747) rotate(-45)" fill="#fa7267"/>
        <path id="Path_23446" data-name="Path 23446" d="M372.994,1066.321l.789,2.429h2.554l-2.066,1.5.789,2.429-2.066-1.5-2.066,1.5.789-2.429-2.066-1.5h2.554Z" transform="translate(-327.857 -945.758)" fill="#0c0c4c"/>
        <path id="Path_23447" data-name="Path 23447" d="M895.1,617.218H785.394V541.936H895.1Zm-109.25-.456H894.644v-74.37H785.85Z" transform="translate(-696.594 -480.662)" fill="#0c0c4c"/>
        <path id="Path_23448" data-name="Path 23448" d="M834,836l2.129,2.416s-4.717,3.87-4.952,8.572l-6.856,4.383-4.511-5.122,5.21-6.51A12.333,12.333,0,0,0,834,836" transform="translate(-727.119 -741.481)" fill="#0c0c4c"/>
        <path id="Path_23449" data-name="Path 23449" d="M877.341,892.778a1.383,1.383,0,1,1-.123,1.952,1.383,1.383,0,0,1,.123-1.952" transform="translate(-777.73 -791.531)" fill="#fff"/>
        <rect id="Rectangle_7483" data-name="Rectangle 7483" width="11.826" height="0.527" transform="matrix(0.75, -0.661, 0.661, 0.75, 99.392, 102.933)" fill="#fff"/>
        <rect id="Rectangle_7484" data-name="Rectangle 7484" width="1.716" height="6.828" transform="matrix(0.75, -0.661, 0.661, 0.75, 91.404, 105.905)" fill="#6c7aff"/>
        <path id="Path_23450" data-name="Path 23450" d="M433.145,978.328l-1-1.131a2.66,2.66,0,0,1,.237-3.755L474.1,936.68l4.514,5.123L436.9,978.565a2.66,2.66,0,0,1-3.755-.237" transform="translate(-382.698 -830.775)" fill="#0c0c4c"/>
        <path id="Path_23451" data-name="Path 23451" d="M611.273,1611.006s-.656,4.628-.625,4.68-.247.524-.247.524l-1.151.257-1.079-.442a42.265,42.265,0,0,0,.544-4.911c-.133-.534,2.557-.107,2.557-.107" transform="translate(-539.41 -1428.716)" fill="#f9a58f"/>
        <path id="Path_23452" data-name="Path 23452" d="M607.325,1653.44a3.017,3.017,0,0,0,2.466-.41s4.52,1.481,4.438,2.755c0,0,.205.37-1.726.369s-4.932.039-5.014,0-.451.178-.163-2.713" transform="translate(-538.562 -1466.132)" fill="#060633"/>
        <path id="Path_23453" data-name="Path 23453" d="M464.436,1606.123s-1.37,4.469-1.348,4.525-.326.479-.326.479l-1.177.073-1-.605a42.318,42.318,0,0,0,1.3-4.766c-.048-.549,2.543.293,2.543.293" transform="translate(-408.514 -1424.103)" fill="#f9a58f"/>
        <path id="Path_23454" data-name="Path 23454" d="M457.162,1649.277a3.017,3.017,0,0,0,2.5-.02s4.234,2.169,3.953,3.414c0,0,.145.4-1.763.1s-4.877-.731-4.952-.784-.473.106.262-2.7" transform="translate(-405.086 -1462.786)" fill="#060633"/>
        <path id="Path_23455" data-name="Path 23455" d="M462.979,1281.768l16.836-.575s1.978,12.167-1.5,40.96H473.09s-1.107-29.657-2.057-31.361-4.272,18.546-9.492,30.729l-4.746-1.424s4.272-21.358,4.9-26.9,1.279-11.433,1.279-11.433" transform="translate(-405.148 -1136.336)" fill="#fa7267"/>
        <path id="Path_23456" data-name="Path 23456" d="M571.633,986.168a.222.222,0,0,1-.111-.026.189.189,0,0,1-.067-.276,1.265,1.265,0,0,1,1.605-.393.188.188,0,0,1,.09.269.236.236,0,0,1-.3.1.8.8,0,0,0-1.031.223.238.238,0,0,1-.19.1" transform="translate(-506.814 -873.933)" fill="#060633"/>
        <path id="Path_23457" data-name="Path 23457" d="M521.772,959.3l0,0c-.009-.047-.017-.093-.028-.14a3.817,3.817,0,0,0-5-2.548,3.989,3.989,0,0,0-2.9,4.141,3.36,3.36,0,0,0,.733,1.723,23.165,23.165,0,0,0,1.512,1.9,4.812,4.812,0,0,1,1.267,3.085l.048,1.122c2.677.579,3.673-.809,3.673-.809l-.474-1.79a.438.438,0,0,1,.321-.488h0c3.374-1.052,1.029-3.5.847-6.2" transform="translate(-455.721 -848.276)" fill="#f9a58f"/>
        <path id="Path_23458" data-name="Path 23458" d="M516.492,970.154l-1.666,2.4a3.353,3.353,0,0,0,.644,1.261,23.164,23.164,0,0,0,1.512,1.9,4.729,4.729,0,0,1,.793,1.177h0c.593.065,3.418-1.325,3.458-1.874s-.969-2.265.062-2.451c.97-.175.6-3.222.6-3.222l-2.615-.156Z" transform="translate(-456.618 -859.612)" fill="#060633"/>
        <path id="Path_23459" data-name="Path 23459" d="M569.078,996.823a.569.569,0,0,1,.177-.364,1.1,1.1,0,0,1,1.052-.367c.645.207.242,1.7-.911,1.562,0,0-.366-.118-.318-.832" transform="translate(-504.732 -883.438)" fill="#e58370"/>
        <path id="Path_23460" data-name="Path 23460" d="M507.649,948.868a10.66,10.66,0,0,1,.264-1.278c.053-.212.106-.424.152-.636.032-.149.025-.448.175-.553.191-.134.4.322.415.433a7.2,7.2,0,0,1-.051.8c-.026-.713.771-1.355,1.352-1.734a13.487,13.487,0,0,1,2.062-1.044,1.532,1.532,0,0,1,.5-.148c.625-.036.394.443.25.756,0,.01.483-.1.537-.109a3.261,3.261,0,0,1,2.025.121c.219.089.424.29.233.522a.747.747,0,0,1-.508.235,3.076,3.076,0,0,1,1.261.157c.243.095.6.287.642.557s-.251.492-.485.6a14.036,14.036,0,0,1-1.983.532,8.55,8.55,0,0,0-2.045.946c-.523.333-1,.722-1.527,1.056a12.089,12.089,0,0,1-1.38.745c-.315.148-.844.54-1.125.291a2.681,2.681,0,0,1-.77-2.255" transform="translate(-450.235 -837.893)" fill="#060633"/>
        <path id="Path_23461" data-name="Path 23461" d="M490.318,1083.576s-3.7,4.99-1.232,9.488,4.929,2.834,4.929,2.834Z" transform="translate(-433.036 -961.063)" fill="#4851ec"/>
        <path id="Path_23462" data-name="Path 23462" d="M783.717,1013.61c.326.066.183,1.148.18,1.173.015-.009,1.005-.626,1.282-.863s.887-.539,1.077-.348-1.183,1.209-1.229,1.243c.044-.026.958-.688,1.168-.552s-.9,1.243-.947,1.278a6.07,6.07,0,0,1,.606-.382c.288-.144.452.164.252.39-.241.272-.487.53-.518.551.026-.015.208-.117.42-.232.284-.155.688-.06.037.513a7.614,7.614,0,0,1-2.252,1.325,3.649,3.649,0,0,1-.654.192l-.511-.777-.257-.389s.055-.165.14-.4a11.647,11.647,0,0,1,.657-1.583c.3-.5.219-1.2.55-1.136" transform="translate(-693.912 -898.919)" fill="#f9a58f"/>
        <path id="Path_23463" data-name="Path 23463" d="M504.214,1042.721a15.078,15.078,0,0,1,5.63-1.722,20.424,20.424,0,0,1,4.978-.031c1.988.333,7.264,1.9,9.4,1.854,2.6-.055,9.522-3.929,9.522-3.929l.842,1.746s-3.25,6.214-7.785,7.151a47.739,47.739,0,0,1-8.26.971l1.857,19.191a25.116,25.116,0,0,1-17.856-.54,155.035,155.035,0,0,0,1.043-17.2c-.03-3.719-4.138-4.9.633-7.492" transform="translate(-445.161 -921.432)" fill="#4851ec"/>
        <path id="Path_23464" data-name="Path 23464" d="M771.763,507.655v8.508a2.453,2.453,0,0,1-2.453,2.453H729.75a2.453,2.453,0,0,1-2.453-2.453v-8.508c0-.052,0-.1.006-.155a2.45,2.45,0,0,1,2.447-2.3h39.56a2.45,2.45,0,0,1,2.447,2.3c.005.052.006.1.006.155" transform="translate(-645.066 -448.082)" fill="#abbbff"/>
        <path id="Path_23465" data-name="Path 23465" d="M771.806,507.5H727.352a2.45,2.45,0,0,1,2.447-2.3h39.56a2.45,2.45,0,0,1,2.447,2.3" transform="translate(-645.115 -448.082)" fill="#0c0c4c"/>
        <rect id="Rectangle_7485" data-name="Rectangle 7485" width="0.388" height="4.569" transform="translate(85.127 62.59)"/>
        <rect id="Rectangle_7486" data-name="Rectangle 7486" width="2.78" height="1.293" transform="translate(86.01 63.182)" fill="#0c0c4c"/>
        <rect id="Rectangle_7487" data-name="Rectangle 7487" width="3.66" height="1.293" transform="translate(86.01 65.036)" fill="#0c0c4c"/>
        <rect id="Rectangle_7488" data-name="Rectangle 7488" width="0.388" height="4.569" transform="translate(94.019 62.59)"/>
        <rect id="Rectangle_7489" data-name="Rectangle 7489" width="2.78" height="1.293" transform="translate(92.823 63.182)" fill="#0c0c4c"/>
        <rect id="Rectangle_7490" data-name="Rectangle 7490" width="3.66" height="1.293" transform="translate(92.383 65.036)" fill="#0c0c4c"/>
        <rect id="Rectangle_7491" data-name="Rectangle 7491" width="0.388" height="4.569" transform="translate(102.913 62.59)"/>
        <rect id="Rectangle_7492" data-name="Rectangle 7492" width="2.78" height="1.293" transform="translate(99.635 63.182)" fill="#0c0c4c"/>
        <rect id="Rectangle_7493" data-name="Rectangle 7493" width="3.66" height="1.293" transform="translate(98.756 65.036)" fill="#0c0c4c"/>
        <rect id="Rectangle_7494" data-name="Rectangle 7494" width="4.569" height="0.388" transform="translate(105.365 62.571)"/>
        <rect id="Rectangle_7495" data-name="Rectangle 7495" width="1.293" height="2.78" transform="translate(105.957 63.323)" fill="#0c0c4c"/>
        <rect id="Rectangle_7496" data-name="Rectangle 7496" width="1.293" height="3.66" transform="translate(107.811 63.323)" fill="#0c0c4c"/>
        <rect id="Rectangle_7497" data-name="Rectangle 7497" width="4.569" height="0.388" transform="translate(112.083 64.68)"/>
        <rect id="Rectangle_7498" data-name="Rectangle 7498" width="1.293" height="2.78" transform="translate(112.675 63.484)" fill="#0c0c4c"/>
        <rect id="Rectangle_7499" data-name="Rectangle 7499" width="1.293" height="3.66" transform="translate(114.529 63.044)" fill="#0c0c4c"/>
        <rect id="Rectangle_7500" data-name="Rectangle 7500" width="4.569" height="0.388" transform="translate(118.801 66.805)"/>
        <rect id="Rectangle_7501" data-name="Rectangle 7501" width="1.293" height="2.78" transform="translate(119.426 63.629)" fill="#0c0c4c"/>
        <rect id="Rectangle_7502" data-name="Rectangle 7502" width="1.293" height="3.66" transform="translate(121.279 62.749)" fill="#0c0c4c"/>
        <path id="Path_23466" data-name="Path 23466" d="M1904.558,1277.171s.466,4.6-.473,5.121c-1.7.945-4.837,1.846-4.575,2.658s7.781.843,7.99.1-.634-3,.259-7.411Z" transform="translate(-1684.731 -1132.769)" fill="#f9a58f"/>
        <path id="Path_23467" data-name="Path 23467" d="M1907.424,1329.079a6.646,6.646,0,0,1,.075,1.652c-.209.74-7.727.708-7.99-.1-.195-.6,1.466-1.28,3.041-1.956.373.626,1.167,1.6,4.874.407" transform="translate(-1684.73 -1178.447)" fill="#2f3dbc"/>
        <path id="Path_23468" data-name="Path 23468" d="M2040.087,1275.366s1.242,4.453.406,5.127c-1.515,1.221-4.453,2.643-4.055,3.4s7.811-.494,7.891-1.259-1.136-2.852-1.007-7.347Z" transform="translate(-1806.157 -1131.095)" fill="#f9a58f"/>
        <path id="Path_23469" data-name="Path 23469" d="M2043.969,1325.984a6.644,6.644,0,0,1,.355,1.615c-.08.765-7.494,2.014-7.891,1.259-.295-.56,1.226-1.511,2.664-2.445.474.553,1.422,1.379,4.872-.429" transform="translate(-1806.154 -1176.063)" fill="#2f3dbc"/>
        <path id="Path_23470" data-name="Path 23470" d="M1927.153,908.932a18.492,18.492,0,0,0-2.964,5.369c-.921,2.9,1.523,37.2,1.523,37.2h4.08s2.164-30.551,2.164-30.823c0-1.067,8.035,30.823,8.035,30.823h4.074s-2.2-37.339-7.321-42.571l-4.787.3Z" transform="translate(-1706.449 -806.164)" fill="#4851ec"/>
        <path id="Path_23471" data-name="Path 23471" d="M1900.943,669.489a1.125,1.125,0,0,1-.049.547c-.08.229-.238.426-.3.66a1.122,1.122,0,0,0,.743,1.256,1.99,1.99,0,0,0,1.317-.033c.082-.027.162-.057.241-.09.493-.205.94-.506,1.426-.727q.189-.086.384-.156l.082-.029h0a22.456,22.456,0,0,1,3.023-.616,13.861,13.861,0,0,1,3.587-.553,14.291,14.291,0,0,1,3.965,1.329,12.381,12.381,0,0,0,4.182.813,5.241,5.241,0,0,0,1.726-.2c.041-.013.082-.028.122-.042a2.837,2.837,0,0,0,.328-.145,3.039,3.039,0,0,0,1.3-3.747,3.616,3.616,0,0,0-1.618-1.8c-.64-.357-1.456-.477-1.94-1.075a1.776,1.776,0,0,1-.35-.789c-.147-.735.014-1.593-.178-2.344a3.072,3.072,0,0,0-1.779-1.947c-.35-.15-.739-.241-1.113-.36a3.965,3.965,0,0,1-.532-.206,1.918,1.918,0,0,1-.637-.477c-.622-.729-.415-1.738-.527-2.614a3.812,3.812,0,0,0-.5-1.436,4.6,4.6,0,0,0-1.052-1.224,4.685,4.685,0,0,0-.511-.367,5.443,5.443,0,0,0-.623-.334h0c-.132-.06-.268-.116-.406-.166a6.2,6.2,0,0,0-2.012-.376h0a5.383,5.383,0,0,0-1.877.29,4.065,4.065,0,0,0-1.538.951,3.838,3.838,0,0,0-.952,1.609,10.518,10.518,0,0,1-.7,2.535c-.5.816-1.508,1.3-1.786,2.215-.349,1.151.638,2.387.312,3.545a3.692,3.692,0,0,1-1.545,1.722,2.539,2.539,0,0,0-1.244,1.9c.026.9.914,1.67,1.034,2.489" transform="translate(-1685.097 -578.493)" fill="#4851ec"/>
        <path id="Path_23472" data-name="Path 23472" d="M1904.247,763.84c2.348.087,4.91.731,6.236,3.374.734,1.463-.275,14.679-1.109,15.012-1.3.522-7.992-.25-10.079-.859s-2.174-2.174-2.435-4-.609-3.478-.609-3.478l-.783.609-3.914-3.914s4.61-4.955,7.219-5.737a30.144,30.144,0,0,1,5.474-1.007" transform="translate(-1677.688 -677.477)" fill="#fa7267"/>
        <path id="Path_23473" data-name="Path 23473" d="M1941.995,709.719s-.391-.431-.612-.2c-.564.595.228,1.15.677,1.227Z" transform="translate(-1721.709 -629.238)" fill="#e2816d"/>
        <path id="Path_23474" data-name="Path 23474" d="M1947.715,654.822a3.953,3.953,0,0,1,4.142,4.99,17.081,17.081,0,0,1-1.044,3.49,3.934,3.934,0,0,0-.259,2.87l.29.964c-2.1,1.482-3.269.5-3.269.5l-.345-2.274c-2.5.08-2.866-4.509-3.07-5.851h0c-.009-.05-.019-.1-.027-.151a3.954,3.954,0,0,1,3.579-4.534" transform="translate(-1724.285 -580.772)" fill="#f9a58f"/>
        <path id="Path_23475" data-name="Path 23475" d="M1948.045,656.841a16.867,16.867,0,0,1,1.549,1.374,4.273,4.273,0,0,1,1.28,1.749,5.1,5.1,0,0,0,1.091-2.131,3.714,3.714,0,0,0,.2-1.1,4.13,4.13,0,0,0-.415-1.521,4.314,4.314,0,0,0-1.066-1.725,3.285,3.285,0,0,0-1.21-.591,5.563,5.563,0,0,0-3.122-.05,4.007,4.007,0,0,0-2.415,1.914,7,7,0,0,0-.355,4,4,4,0,0,1,.638-1.6,3.387,3.387,0,0,1,.669-.906,16.618,16.618,0,0,0,1.5-1.152,4.681,4.681,0,0,0,1.657,1.74" transform="translate(-1723.731 -578.856)" fill="#4851ec"/>
        <path id="Path_23476" data-name="Path 23476" d="M2003.024,706.229a.588.588,0,0,1,.262-.322.991.991,0,0,1,1.088-.063c.553.407-.219,1.827-1.27,1.339,0,0-.314-.231-.081-.954" transform="translate(-1776.478 -625.912)" fill="#f9a58f"/>
        <path id="Path_23477" data-name="Path 23477" d="M1954.016,707.9a.345.345,0,1,1,.419.25.345.345,0,0,1-.419-.25" transform="translate(-1733.078 -627.483)" fill="#060633"/>
        <path id="Path_23478" data-name="Path 23478" d="M1982.981,706.771a.345.345,0,1,1,.419.25.345.345,0,0,1-.419-.25" transform="translate(-1758.769 -626.479)" fill="#060633"/>
        <path id="Path_23479" data-name="Path 23479" d="M1963.992,730.325s.271-.242.451-.21a.514.514,0,0,1,.3.234.4.4,0,0,1,.3-.245,4.973,4.973,0,0,1,.828.083s-.466.962-1.119.864a.865.865,0,0,1-.742-.7Z" transform="translate(-1741.936 -647.552)" fill="#ea6868"/>
        <path id="Path_23480" data-name="Path 23480" d="M1963.989,730.039a2.041,2.041,0,0,0,1.415-.531.049.049,0,1,0-.066-.071c-.043.041-1.073.987-1.983.215a.049.049,0,0,0-.063.074,1.288,1.288,0,0,0,.7.313" transform="translate(-1741.3 -646.953)" fill="#240d39"/>
        <path id="Path_23481" data-name="Path 23481" d="M1982.8,700.928a.144.144,0,0,0,.039-.267,1.722,1.722,0,0,0-1.146-.113.143.143,0,0,0-.1.174.147.147,0,0,0,.174.1,1.436,1.436,0,0,1,.94.088.143.143,0,0,0,.1.014" transform="translate(-1757.539 -621.296)" fill="#060633"/>
        <path id="Path_23482" data-name="Path 23482" d="M1951.1,701.178a.144.144,0,0,0-.01-.27,1.7,1.7,0,0,0-1.147.094.143.143,0,1,0,.119.261,1.428,1.428,0,0,1,.941-.082.143.143,0,0,0,.1,0" transform="translate(-1729.403 -621.609)" fill="#060633"/>
        <path id="Path_23483" data-name="Path 23483" d="M1966.252,709.312a.614.614,0,0,1-.632-.456.12.12,0,0,1,.014-.088,1.785,1.785,0,0,0,.158-1.143.121.121,0,0,1,.236-.052,2.028,2.028,0,0,1-.159,1.27c.038.091.167.286.547.209a.121.121,0,0,1,.048.237,1.074,1.074,0,0,1-.213.023" transform="translate(-1743.378 -627.487)" fill="#e2816d"/>
        <path id="Path_23484" data-name="Path 23484" d="M1800.567,829.182s-3.813,4.568-6.922,4.068-8.165-.991-8.165-.991l2.561-1.689s4.459-1.174,6.1-1.5,3.668-2.649,3.668-2.649Z" transform="translate(-1583.606 -732.981)" fill="#f9a58f"/>
        <path id="Path_23485" data-name="Path 23485" d="M1918.187,805.341c.326,2.754-3.5,8.322-6.213,9.965-1.227.744-4.649,1.179-10.187,1.606l-.486-1.707s7.172-2.439,7.717-2.8c2.742-1.816,5.079-7.908,5.079-7.908Z" transform="translate(-1686.333 -713.538)" fill="#f9a58f"/>
        <path id="Path_23486" data-name="Path 23486" d="M1796.5,849.054s-.547,2.11-.853,2.071-.255-1.769-.266-1.743-.362,1.82-.784,1.909-.276-1.9-.276-1.9-.206,1.707-.5,1.752-.275-1.609-.389-1.614-.022,1.419-.383,1.491-.567-1.93-.239-2.185a.532.532,0,0,1,.655.018s.6-.368.921-.159c0,0,.943-.179,1.1.217,0,0,.689-.479,1.01.142" transform="translate(-1589.963 -752.681)" fill="#ed917e"/>
        <path id="Path_23487" data-name="Path 23487" d="M1480.568,749.753v27.611a2.139,2.139,0,0,1-2.139,2.139h-48.871a2.139,2.139,0,0,1-2.139-2.139V749.753a2.139,2.139,0,0,1,2.139-2.139h48.871a2.139,2.139,0,0,1,2.139,2.139" transform="translate(-1266.03 -663.086)" fill="#ccd8ff"/>
        <path id="Path_23488" data-name="Path 23488" d="M1480.568,749.753v1.293h-53.149v-1.293a2.139,2.139,0,0,1,2.139-2.139h48.871a2.139,2.139,0,0,1,2.139,2.139" transform="translate(-1266.03 -663.086)" fill="#0c0c4c"/>
        <rect id="Rectangle_7503" data-name="Rectangle 7503" width="6.312" height="6.312" transform="translate(166.954 93.756)" fill="#dde7fe"/>
        <rect id="Rectangle_7504" data-name="Rectangle 7504" width="3.22" height="3.22" transform="translate(168.499 95.302)" fill="#0c0c4c"/>
        <rect id="Rectangle_7505" data-name="Rectangle 7505" width="8.926" height="0.443" transform="translate(166.797 99.911) rotate(-45.001)" fill="#fa7267"/>
        <rect id="Rectangle_7506" data-name="Rectangle 7506" width="6.312" height="6.311" transform="translate(163.41 90.334)"/>
        <rect id="Rectangle_7507" data-name="Rectangle 7507" width="5.074" height="5.074" transform="translate(165.219 102.44)" fill="#fa7267"/>
        <rect id="Rectangle_7508" data-name="Rectangle 7508" width="5.074" height="5.074" transform="translate(170.246 102.44)" fill="#ef6159"/>
        <rect id="Rectangle_7509" data-name="Rectangle 7509" width="5.074" height="5.074" transform="translate(175.32 102.44)" fill="#e2544d"/>
        <rect id="Rectangle_7510" data-name="Rectangle 7510" width="5.074" height="5.074" transform="translate(180.394 102.44)" fill="#6c7aff"/>
        <rect id="Rectangle_7511" data-name="Rectangle 7511" width="5.074" height="5.074" transform="translate(185.468 102.44)" fill="#566be8"/>
        <rect id="Rectangle_7512" data-name="Rectangle 7512" width="5.074" height="5.074" transform="translate(190.542 102.44)" fill="#2f4ed1"/>
        <rect id="Rectangle_7513" data-name="Rectangle 7513" width="5.074" height="5.074" transform="translate(195.616 102.44)" fill="#1b3da8"/>
        <rect id="Rectangle_7514" data-name="Rectangle 7514" width="5.074" height="5.074" transform="translate(200.691 102.44)" fill="#0c0c4c"/>
        <rect id="Rectangle_7515" data-name="Rectangle 7515" width="5.074" height="5.074" transform="translate(165.219 107.515)" fill="#91b5f8"/>
        <rect id="Rectangle_7516" data-name="Rectangle 7516" width="5.074" height="5.074" transform="translate(170.246 107.515)" fill="#598ee2"/>
        <rect id="Rectangle_7517" data-name="Rectangle 7517" width="5.074" height="5.074" transform="translate(175.32 107.515)" fill="#4179c9"/>
        <rect id="Rectangle_7518" data-name="Rectangle 7518" width="5.074" height="5.074" transform="translate(180.394 107.515)" fill="#4a52a5"/>
        <path id="Path_23489" data-name="Path 23489" d="M1645.191,807.8h-26.579a.664.664,0,1,1,0-1.328h26.579a.664.664,0,0,1,0,1.328" transform="translate(-1435.017 -715.289)" fill="#fa7267"/>
        <path id="Path_23490" data-name="Path 23490" d="M1645.191,837.46h-26.579a.664.664,0,1,1,0-1.328h26.579a.664.664,0,0,1,0,1.328" transform="translate(-1435.017 -741.596)" fill="#2f4ed1"/>
        <path id="Path_23491" data-name="Path 23491" d="M1645.191,867.122h-26.579a.664.664,0,1,1,0-1.328h26.579a.664.664,0,0,1,0,1.328" transform="translate(-1435.017 -767.904)"/>
        <path id="Path_23492" data-name="Path 23492" d="M1587.878,803.708h.8c.421,0,.667.226.667.572a.539.539,0,0,1-.428.544l.485.68h-.372l-.446-.626h-.39v.626h-.316Zm.777.89c.226,0,.369-.118.369-.305s-.139-.3-.372-.3h-.459v.6Z" transform="translate(-1408.347 -712.837)" fill="#0c0c4c"/>
        <path id="Path_23493" data-name="Path 23493" d="M1585.525,834.344a.915.915,0,0,1,.926-.928.97.97,0,0,1,.69.244l-.2.239a.7.7,0,0,0-.5-.192.609.609,0,0,0-.582.639.6.6,0,0,0,.61.641.732.732,0,0,0,.434-.136v-.336h-.459v-.274h.764v.754a1.144,1.144,0,0,1-.749.28.892.892,0,0,1-.931-.928" transform="translate(-1406.26 -739.187)" fill="#0c0c4c"/>
        <path id="Path_23494" data-name="Path 23494" d="M1587.878,865.14h.805a.649.649,0,0,1,.469.159.406.406,0,0,1,.121.3.427.427,0,0,1-.256.4.442.442,0,0,1,.356.441c0,.321-.264.492-.664.492h-.831Zm.741.757c.2,0,.339-.08.339-.249,0-.141-.113-.228-.316-.228h-.454v.477Zm.092.759c.215,0,.346-.085.346-.251,0-.151-.121-.241-.369-.241h-.5v.492Z" transform="translate(-1408.347 -767.324)" fill="#0c0c4c"/>
        <path id="Path_23495" data-name="Path 23495" d="M1853.442,882.121c-.25.315.726,1.2.748,1.225-.021,0-1.417.205-1.858.2s-1.24.193-1.267.518,2.036.2,2.105.191c-.061.01-1.786.294-1.874.584s2.169.26,2.236.26c-.046.005-1.37.155-1.872.289a.475.475,0,0,0-.183.074c-.136.148.049.328.747.417a5.443,5.443,0,0,0,.588.039,7.193,7.193,0,0,0,.842-.039c-.036.007-.284.054-.569.113a6.64,6.64,0,0,0-.915.226c-.15.086-.294.315.755.337a12.44,12.44,0,0,0,3.64-.59,4.4,4.4,0,0,0,.755-.333l-.133-1.116-.066-.56s-.179-.109-.444-.263a14.132,14.132,0,0,0-1.841-.951c-.665-.227-1.14-.94-1.394-.622" transform="translate(-1641.777 -782.313)" fill="#f9a58f"/>
        <path id="Path_23496" data-name="Path 23496" d="M1993.545,792.593l-1.6,4.5,5.976,2.4,1.417-4.313-.739-1.971Z" transform="translate(-1766.727 -702.979)" fill="#fa7267"/>
        <path id="Path_23497" data-name="Path 23497" d="M1998.846,810.367l-5.432-2.184,1.249-3.205.086.034-1.216,3.12,5.268,2.118,1.059-2.134.083.041Z" transform="translate(-1768.031 -713.964)" fill="#0c0c4c"/>
        <path id="Path_23498" data-name="Path 23498" d="M1673.475,367.621v22.026c0,.943-1.074,1.707-2.4,1.707h-54.82c-1.325,0-2.4-.764-2.4-1.707V367.621c0-.943,1.074-1.707,2.4-1.707h54.82c1.326,0,2.4.764,2.4,1.707" transform="translate(-1431.387 -324.542)" fill="#ccd8ff"/>
        <path id="Path_23499" data-name="Path 23499" d="M1673.475,367.621v1.032h-59.619v-1.032c0-.943,1.074-1.707,2.4-1.707h54.82c1.326,0,2.4.764,2.4,1.707" transform="translate(-1431.387 -324.542)" fill="#0c0c4c"/>
        <rect id="Rectangle_7519" data-name="Rectangle 7519" width="5.835" height="5.835" transform="translate(187.413 50.128)"/>
        <rect id="Rectangle_7520" data-name="Rectangle 7520" width="5.835" height="5.834" transform="translate(190.33 53.046)"/>
        <rect id="Rectangle_7521" data-name="Rectangle 7521" width="5.834" height="5.835" transform="translate(201.033 50.128)"/>
        <rect id="Rectangle_7522" data-name="Rectangle 7522" width="5.835" height="5.834" transform="translate(203.951 53.046)" fill="#89f"/>
        <path id="Path_23500" data-name="Path 23500" d="M1807.987,473.293h-6.332v-6.332h6.332Zm-5.834-.5h5.336v-5.336h-5.336Z" transform="translate(-1597.953 -414.164)" fill="#0a0a0a"/>
        <rect id="Rectangle_7523" data-name="Rectangle 7523" width="5.835" height="5.835" transform="translate(214.654 50.128)" fill="#89f"/>
        <path id="Path_23501" data-name="Path 23501" d="M1902.656,447.492h-6.333V441.16h6.333Zm-5.834-.5h5.337v-5.336h-5.337Z" transform="translate(-1681.919 -391.28)" fill="#0a0a0a"/>
        <rect id="Rectangle_7524" data-name="Rectangle 7524" width="5.834" height="5.834" transform="translate(217.572 53.046)" fill="#89f"/>
        <path id="Path_23502" data-name="Path 23502" d="M1928.458,473.293h-6.332v-6.332h6.332Zm-5.834-.5h5.337v-5.336h-5.337Z" transform="translate(-1704.803 -414.164)" fill="#0a0a0a"/>
        <rect id="Rectangle_7525" data-name="Rectangle 7525" width="3.436" height="3.405" transform="translate(217.304 52.795)"/>
        <rect id="Rectangle_7526" data-name="Rectangle 7526" width="5.835" height="5.835" transform="translate(228.275 50.128)"/>
        <rect id="Rectangle_7527" data-name="Rectangle 7527" width="5.835" height="5.834" transform="translate(231.192 53.046)"/>
        <rect id="Rectangle_7528" data-name="Rectangle 7528" width="2.673" height="2.649" transform="translate(231.306 53.173)" fill="#89f"/>
      </g>
    </g>
  </g>
</svg>
