<svg xmlns="http://www.w3.org/2000/svg" xmlns:xlink="http://www.w3.org/1999/xlink" width="1463.753" height="651" viewBox="0 0 1463.753 651">
  <defs>
    <clipPath id="clip-path">
      <rect width="198" height="65" fill="none"/>
    </clipPath>
    <clipPath id="clip-path-2">
      <rect id="Rectangle_7002" data-name="Rectangle 7002" width="670.102" height="549.117" fill="none"/>
    </clipPath>
  </defs>
  <g id="Group_10350" data-name="Group 10350" transform="translate(-228.123 -243)">
    <text id="_15X" data-name="15X" transform="translate(946.123 571)" fill="#f7f9fc" font-size="104" font-family="Montserrat-Bold, Montserrat" font-weight="700" letter-spacing="-0.02em"><tspan x="-85.696" y="0">15X</tspan></text>
    <g id="Group_10346" data-name="Group 10346" transform="translate(228.123 242.745)" opacity="0.549">
      <g id="Ellipse_213" data-name="Ellipse 213" transform="translate(0 0.255)" fill="#fff" stroke="#707070" stroke-width="30" opacity="0.038">
        <circle cx="215" cy="215" r="215" stroke="none"/>
        <circle cx="215" cy="215" r="200" fill="none"/>
      </g>
      <g id="Ellipse_214" data-name="Ellipse 214" transform="translate(34 33.255)" fill="#fff" stroke="#707070" stroke-width="30" opacity="0.038">
        <ellipse cx="181" cy="181.5" rx="181" ry="181.5" stroke="none"/>
        <ellipse cx="181" cy="181.5" rx="166" ry="166.5" fill="none"/>
      </g>
    </g>
    <g id="Repeat_Grid_4" data-name="Repeat Grid 4" transform="translate(928.123 649) rotate(90)" clip-path="url(#clip-path)">
      <g transform="translate(-577 -677)">
        <circle id="Ellipse_217" data-name="Ellipse 217" cx="6.5" cy="6.5" r="6.5" transform="translate(577 677)" fill="#f2efef"/>
      </g>
      <g transform="translate(-544 -677)">
        <circle id="Ellipse_217-2" data-name="Ellipse 217" cx="6.5" cy="6.5" r="6.5" transform="translate(577 677)" fill="#f2efef"/>
      </g>
      <g transform="translate(-511 -677)">
        <circle id="Ellipse_217-3" data-name="Ellipse 217" cx="6.5" cy="6.5" r="6.5" transform="translate(577 677)" fill="#f2efef"/>
      </g>
      <g transform="translate(-478 -677)">
        <circle id="Ellipse_217-4" data-name="Ellipse 217" cx="6.5" cy="6.5" r="6.5" transform="translate(577 677)" fill="#f2efef"/>
      </g>
      <g transform="translate(-445 -677)">
        <circle id="Ellipse_217-5" data-name="Ellipse 217" cx="6.5" cy="6.5" r="6.5" transform="translate(577 677)" fill="#f2efef"/>
      </g>
      <g transform="translate(-412 -677)">
        <circle id="Ellipse_217-6" data-name="Ellipse 217" cx="6.5" cy="6.5" r="6.5" transform="translate(577 677)" fill="#f2efef"/>
      </g>
      <g transform="translate(-577 -652)">
        <circle id="Ellipse_217-7" data-name="Ellipse 217" cx="6.5" cy="6.5" r="6.5" transform="translate(577 677)" fill="#f2efef"/>
      </g>
      <g transform="translate(-544 -652)">
        <circle id="Ellipse_217-8" data-name="Ellipse 217" cx="6.5" cy="6.5" r="6.5" transform="translate(577 677)" fill="#f2efef"/>
      </g>
      <g transform="translate(-511 -652)">
        <circle id="Ellipse_217-9" data-name="Ellipse 217" cx="6.5" cy="6.5" r="6.5" transform="translate(577 677)" fill="#f2efef"/>
      </g>
      <g transform="translate(-478 -652)">
        <circle id="Ellipse_217-10" data-name="Ellipse 217" cx="6.5" cy="6.5" r="6.5" transform="translate(577 677)" fill="#f2efef"/>
      </g>
      <g transform="translate(-445 -652)">
        <circle id="Ellipse_217-11" data-name="Ellipse 217" cx="6.5" cy="6.5" r="6.5" transform="translate(577 677)" fill="#f2efef"/>
      </g>
      <g transform="translate(-412 -652)">
        <circle id="Ellipse_217-12" data-name="Ellipse 217" cx="6.5" cy="6.5" r="6.5" transform="translate(577 677)" fill="#f2efef"/>
      </g>
      <g transform="translate(-577 -627)">
        <circle id="Ellipse_217-13" data-name="Ellipse 217" cx="6.5" cy="6.5" r="6.5" transform="translate(577 677)" fill="#f2efef"/>
      </g>
      <g transform="translate(-544 -627)">
        <circle id="Ellipse_217-14" data-name="Ellipse 217" cx="6.5" cy="6.5" r="6.5" transform="translate(577 677)" fill="#f2efef"/>
      </g>
      <g transform="translate(-511 -627)">
        <circle id="Ellipse_217-15" data-name="Ellipse 217" cx="6.5" cy="6.5" r="6.5" transform="translate(577 677)" fill="#f2efef"/>
      </g>
      <g transform="translate(-478 -627)">
        <circle id="Ellipse_217-16" data-name="Ellipse 217" cx="6.5" cy="6.5" r="6.5" transform="translate(577 677)" fill="#f2efef"/>
      </g>
      <g transform="translate(-445 -627)">
        <circle id="Ellipse_217-17" data-name="Ellipse 217" cx="6.5" cy="6.5" r="6.5" transform="translate(577 677)" fill="#f2efef"/>
      </g>
      <g transform="translate(-412 -627)">
        <circle id="Ellipse_217-18" data-name="Ellipse 217" cx="6.5" cy="6.5" r="6.5" transform="translate(577 677)" fill="#f2efef"/>
      </g>
    </g>
    <text id="Skill" transform="translate(546.123 795)" fill="#f7f9fc" font-size="105" font-family="Montserrat-Bold, Montserrat" font-weight="700" letter-spacing="-0.02em"><tspan x="-111.143" y="0">Skill</tspan></text>
    <g id="Group_10348" data-name="Group 10348" transform="translate(709.061 533.122)">
      <g id="Group_876" data-name="Group 876" transform="translate(26.525)">
        <path id="Polygon_2" data-name="Polygon 2" d="M9.636,1.481a1,1,0,0,1,1.728,0L20.123,16.5a1,1,0,0,1-.864,1.5H1.741a1,1,0,0,1-.864-1.5Z" transform="translate(-0.462 21.878)" fill="#f4f0f0"/>
        <path id="Polygon_6" data-name="Polygon 6" d="M9.636,1.481a1,1,0,0,1,1.728,0L20.123,16.5a1,1,0,0,1-.864,1.5H1.741a1,1,0,0,1-.864-1.5Z" transform="translate(-0.462 -0.122)" fill="#f4f0f0"/>
        <path id="Polygon_3" data-name="Polygon 3" d="M9.649,1.377a1,1,0,0,1,1.7,0l8.707,14.1A1,1,0,0,1,19.207,17H1.793a1,1,0,0,1-.851-1.525Z" transform="translate(-0.462 44.878)" fill="#f4f0f0"/>
        <path id="Polygon_4" data-name="Polygon 4" d="M9.636,1.481a1,1,0,0,1,1.728,0L20.123,16.5a1,1,0,0,1-.864,1.5H1.741a1,1,0,0,1-.864-1.5Z" transform="translate(-0.462 66.878)" fill="#f4f0f0"/>
        <path id="Polygon_7" data-name="Polygon 7" d="M9.649,1.377a1,1,0,0,1,1.7,0l8.707,14.1A1,1,0,0,1,19.207,17H1.793a1,1,0,0,1-.851-1.525Z" transform="translate(-0.462 111.878)" fill="#f4f0f0"/>
        <path id="Polygon_5" data-name="Polygon 5" d="M9.636,1.481a1,1,0,0,1,1.728,0L20.123,16.5a1,1,0,0,1-.864,1.5H1.741a1,1,0,0,1-.864-1.5Z" transform="translate(-0.462 88.878)" fill="#f4f0f0"/>
        <path id="Polygon_8" data-name="Polygon 8" d="M9.636,1.481a1,1,0,0,1,1.728,0L20.123,16.5a1,1,0,0,1-.864,1.5H1.741a1,1,0,0,1-.864-1.5Z" transform="translate(-0.462 133.878)" fill="#f4f0f0"/>
      </g>
      <g id="Group_877" data-name="Group 877" transform="translate(0 39.089)">
        <path id="Polygon_2-2" data-name="Polygon 2" d="M9.138,1.465a1,1,0,0,1,1.724,0l8.252,14.028A1,1,0,0,1,18.252,17H1.748a1,1,0,0,1-.862-1.507Z" transform="translate(0.063 22.788)" fill="#f4f0f0"/>
        <path id="Polygon_6-2" data-name="Polygon 6" d="M9.126,1.573a1,1,0,0,1,1.748,0l8.3,14.941A1,1,0,0,1,18.3,18H1.7a1,1,0,0,1-.874-1.486Z" transform="translate(0.063 -0.212)" fill="#f4f0f0"/>
        <path id="Polygon_3-2" data-name="Polygon 3" d="M9.138,1.465a1,1,0,0,1,1.724,0l8.252,14.028A1,1,0,0,1,18.252,17H1.748a1,1,0,0,1-.862-1.507Z" transform="translate(0.063 44.788)" fill="#f4f0f0"/>
        <path id="Polygon_4-2" data-name="Polygon 4" d="M9.126,1.573a1,1,0,0,1,1.748,0l8.3,14.941A1,1,0,0,1,18.3,18H1.7a1,1,0,0,1-.874-1.486Z" transform="translate(0.063 66.788)" fill="#f4f0f0"/>
        <path id="Polygon_7-2" data-name="Polygon 7" d="M9.138,1.465a1,1,0,0,1,1.724,0l8.252,14.028A1,1,0,0,1,18.252,17H1.748a1,1,0,0,1-.862-1.507Z" transform="translate(0.063 111.788)" fill="#f4f0f0"/>
        <path id="Polygon_5-2" data-name="Polygon 5" d="M9.138,1.465a1,1,0,0,1,1.724,0l8.252,14.028A1,1,0,0,1,18.252,17H1.748a1,1,0,0,1-.862-1.507Z" transform="translate(0.063 89.788)" fill="#f4f0f0"/>
        <path id="Polygon_8-2" data-name="Polygon 8" d="M9.126,1.573a1,1,0,0,1,1.748,0l8.3,14.941A1,1,0,0,1,18.3,18H1.7a1,1,0,0,1-.874-1.486Z" transform="translate(0.063 133.788)" fill="#f4f0f0"/>
      </g>
      <g id="Group_878" data-name="Group 878" transform="translate(53.05 76.084)">
        <path id="Polygon_2-3" data-name="Polygon 2" d="M9.138,1.465a1,1,0,0,1,1.724,0l8.252,14.028A1,1,0,0,1,18.252,17H1.748a1,1,0,0,1-.862-1.507Z" transform="translate(0.013 22.793)" fill="#f4f0f0"/>
        <path id="Polygon_6-3" data-name="Polygon 6" d="M9.126,1.573a1,1,0,0,1,1.748,0l8.3,14.941A1,1,0,0,1,18.3,18H1.7a1,1,0,0,1-.874-1.486Z" transform="translate(0.013 -0.207)" fill="#f4f0f0"/>
        <path id="Polygon_3-3" data-name="Polygon 3" d="M9.138,1.465a1,1,0,0,1,1.724,0l8.252,14.028A1,1,0,0,1,18.252,17H1.748a1,1,0,0,1-.862-1.507Z" transform="translate(0.013 44.793)" fill="#f4f0f0"/>
        <path id="Polygon_4-3" data-name="Polygon 4" d="M9.126,1.573a1,1,0,0,1,1.748,0l8.3,14.941A1,1,0,0,1,18.3,18H1.7a1,1,0,0,1-.874-1.486Z" transform="translate(0.013 66.793)" fill="#f4f0f0"/>
        <path id="Polygon_7-3" data-name="Polygon 7" d="M9.138,1.465a1,1,0,0,1,1.724,0l8.252,14.028A1,1,0,0,1,18.252,17H1.748a1,1,0,0,1-.862-1.507Z" transform="translate(0.013 111.793)" fill="#f4f0f0"/>
        <path id="Polygon_5-3" data-name="Polygon 5" d="M9.138,1.465a1,1,0,0,1,1.724,0l8.252,14.028A1,1,0,0,1,18.252,17H1.748a1,1,0,0,1-.862-1.507Z" transform="translate(0.013 89.793)" fill="#f4f0f0"/>
        <path id="Polygon_8-3" data-name="Polygon 8" d="M9.126,1.573a1,1,0,0,1,1.748,0l8.3,14.941A1,1,0,0,1,18.3,18H1.7a1,1,0,0,1-.874-1.486Z" transform="translate(0.013 133.793)" fill="#f4f0f0"/>
      </g>
    </g>
    <g id="Group_10349" data-name="Group 10349" transform="translate(1021.775 344.883)">
      <g id="Group_10066" data-name="Group 10066" transform="translate(0 0)" clip-path="url(#clip-path-2)">
        <path id="Path_18586" data-name="Path 18586" d="M994.665,711.164a7.435,7.435,0,0,0,1.008,10.411l170.555,141.4v-1.6L996.454,720.627a6.208,6.208,0,0,1-.841-8.686l36.336-44.446a7.419,7.419,0,0,0-5.719-12.112l-67.39-.261-152.5-.591a7.424,7.424,0,0,0-7.269,9.054l26.195,116.482,6.784,30.148v0l14.613,64.976a7.423,7.423,0,0,0,12.987,3.07L894.365,835.8l10.141-12.408a6.187,6.187,0,0,1,8.743-.853L1073.739,955.6h1.921l-161.626-134a7.419,7.419,0,0,0-10.482,1.016l-10.138,12.4-34.722,42.472a6.192,6.192,0,0,1-10.835-2.558l-14.822-65.916-6.511-28.939L800.265,663.311a6.2,6.2,0,0,1,6.041-7.553h.027l151.5.587,68.386.265A6.193,6.193,0,0,1,1031,666.722Z" transform="translate(-496.127 -406.48)" fill="#66192d"/>
        <path id="Path_18587" data-name="Path 18587" d="M1063,855.17v63.706H935.63l-144.5-119.8-.951-.788L746.8,762.324a6.8,6.8,0,0,0-9.615.932l-7.383,9.031-.989,1.205v0l-3.74,4.574-32.751,40.058a6.805,6.805,0,0,1-11.907-2.812L632.828,603.7a6.806,6.806,0,0,1,6.662-8.3l20.018.08h0l18.767.072,22.379.087h.008l8.307.03h0l12.809.049,5.249.019,30.837.121h0l20.063.08h0l81.446.315a6.8,6.8,0,0,1,5.241,11.112l-9.02,11.036-1,1.224L828.3,651.811a6.8,6.8,0,0,0,.925,9.543Z" transform="translate(-392.895 -369.759)" fill="#553e93"/>
        <path id="Path_18588" data-name="Path 18588" d="M1448.607,289.805v85.16l-142.041-119.51a3.559,3.559,0,0,0-5.029.489l-19.93,24.38a3.562,3.562,0,0,1-6.234-1.474l-21.7-96.48a3.562,3.562,0,0,1,3.49-4.339l100.255.387a3.564,3.564,0,0,1,2.747,5.817l-15.985,19.548a3.564,3.564,0,0,0,.485,5Z" transform="translate(-778.505 -110.562)" fill="#786ab5"/>
        <path id="Path_18589" data-name="Path 18589" d="M1137.214,1161.3H1019.787l-96.461-79.975a3.24,3.24,0,0,0-4.582.443l-27.093,33.138a3.247,3.247,0,0,1-5.681-1.342L865.044,1020.5l-6.92-30.773a3.24,3.24,0,0,1,3.172-3.957l.7,0,1.262,0,126.726.489a3.243,3.243,0,0,1,2.5,5.294l-22.2,27.161a3.242,3.242,0,0,0,.443,4.552Z" transform="translate(-532.864 -612.187)" fill="#ff8548"/>
        <path id="Path_18590" data-name="Path 18590" d="M126.577,1053.674a8.845,8.845,0,0,0,1.22,12.62l146.759,117.5h1.963L128.57,1065.335a7.609,7.609,0,0,1-1.054-10.865L142.3,1037a8.841,8.841,0,0,0-6.719-14.553l-96.87-.36-29.829-.11H8.847a8.844,8.844,0,0,0-8.614,10.846l27.423,117.741a8.845,8.845,0,0,0,15.364,3.714l21.257-25.111a7.573,7.573,0,0,1,10.57-1.023l69.5,55.645h1.967l-70.7-56.6a8.8,8.8,0,0,0-12.279,1.186l-21.253,25.107a7.614,7.614,0,0,1-13.23-3.191L1.431,1032.55a7.613,7.613,0,0,1,7.417-9.342h.027l30.11.11h0l96.59.36a7.613,7.613,0,0,1,5.783,12.533Z" transform="translate(0 -634.675)" fill="#66192d"/>
        <path id="Path_18591" data-name="Path 18591" d="M1069.723,398.009s-4.176-9.325-14.742-8.157-9.309,10.516-14.341,9.64-12.076,0-13.585,5.842-8.3,2.629-8.554,7.595,7.8,8.471,17.108,4.09,13.837,3.4,26.919,1.994,14.7-3.163,22.446-2.286,7.56-5.28,4.037-9.369-17.779-3.7-19.289-9.348" transform="translate(-632.509 -242.046)" fill="#c8c1e1"/>
        <path id="Path_18592" data-name="Path 18592" d="M1123.271,10.738s-5.428-12.12-19.162-10.6-12.1,13.668-18.64,12.529-15.7,0-17.658,7.593-10.791,3.417-11.118,9.872,10.137,11.01,22.236,5.316,17.985,4.424,34.99,2.592,19.111-4.111,29.176-2.972,9.826-6.862,5.247-12.178-23.11-4.809-25.071-12.15" transform="translate(-656.226 -0.004)" fill="#c8c1e1"/>
        <path id="Path_18593" data-name="Path 18593" d="M70.577,575.964s9.193-18.668,32.455-16.329,20.493,21.052,31.57,19.3,26.585,0,29.908,11.7,18.277,5.263,18.831,15.2-17.17,16.959-37.662,8.187-30.462,6.814-59.262,3.992S54.048,611.681,37,613.435s-16.642-10.57-8.888-18.757,39.141-7.407,42.464-18.714" transform="translate(-14.27 -347.422)" fill="#c8c1e1"/>
        <path id="Path_18594" data-name="Path 18594" d="M365.663,452.964a15.96,15.96,0,0,1,15.931-7.923c11.418,1.135,10.059,10.214,15.5,9.363s13.049,0,14.681,5.674,8.971,2.554,9.243,7.376-8.428,8.228-18.487,3.972-14.953,3.306-29.09,1.937-15.888-3.072-24.256-2.22-8.169-5.128-4.363-9.1,19.213-3.594,20.844-9.079" transform="translate(-212.575 -276.322)" fill="#c8c1e1"/>
        <path id="Path_18595" data-name="Path 18595" d="M156.416,274.076a19.033,19.033,0,0,1,19-9.449c13.618,1.354,12,12.181,18.482,11.166s15.563,0,17.508,6.767,10.7,3.045,11.024,8.8-10.051,9.813-22.048,4.737-17.833,3.943-34.693,2.31-18.949-3.663-28.929-2.648-9.742-6.116-5.2-10.853,22.914-4.286,24.86-10.829" transform="translate(-79.833 -164.269)" fill="#c8c1e1"/>
        <path id="Path_18596" data-name="Path 18596" d="M714.381,48.346s3.421,7.64,15.583,5.081,28.226,6.334,22.489,14.078,17.67,4.035,16.752,19.116-11.7,27.272-33.733,19.221-33.508-47.674-33.508-47.674Z" transform="translate(-435.935 -30.025)" fill="#66192d"/>
        <path id="Path_18597" data-name="Path 18597" d="M618.709,69.6c-8.778,2.811-25.961,7.66-25.961,7.66-.755-.675.848-29.378.848-29.378l-9.551.443s-9.2,34.992.289,42.046c9.738,7.242,32.789-2.53,32.789-2.53s7.242-20.051,1.586-18.241" transform="translate(-360.219 -29.74)" fill="#ffb27d"/>
        <path id="Path_18598" data-name="Path 18598" d="M610.2,131.829a.2.2,0,0,0,.172-.092c1.4-2.1,1.191-6.494,1.181-6.68a.209.209,0,0,0-.216-.2.205.205,0,0,0-.2.216c0,.044.21,4.442-1.113,6.431a.206.206,0,0,0,.171.32" transform="translate(-378.823 -77.544)" fill="#ef8062"/>
        <path id="Path_18599" data-name="Path 18599" d="M718.625,266.343c-.819,3.346-14.6,6.679-31.2,2.895s-26.958-5.4-28.516-10c0,0,14.879-5.9,31.483-2.114s29.053,5.876,28.234,9.221" transform="translate(-409.198 -158.894)" fill="#66192d"/>
        <path id="Path_18600" data-name="Path 18600" d="M644.959,123.82c-8.433-5.291-6.683-17.583-6.683-17.583a199.422,199.422,0,0,1,24.123-6.185c4.671-.861,6.52-1.152,8.871-1.151,30.178.017,34.372,68.1,34.488,69.4A248.773,248.773,0,0,0,646,161.765c-2.923-24.311-1.318-36.736-1.043-37.944" transform="translate(-396.29 -61.421)" fill="#ff8548"/>
        <path id="Path_18601" data-name="Path 18601" d="M650.254,123.156s-9.012-10.649-11.732-16.433a101.133,101.133,0,0,1,21.335-7.039Z" transform="translate(-396.537 -61.907)" fill="#ff8548"/>
        <path id="Path_18602" data-name="Path 18602" d="M702.833,99.49s25.3-2.941,38.378,5.877L724.885,118.09Z" transform="translate(-436.475 -61.495)" fill="#ff8548"/>
        <path id="Path_18603" data-name="Path 18603" d="M760.562,127.183c1.6,2.161,6.652,1.267,11.3-2s7.114-7.66,5.519-9.821-6.652-1.267-11.3,2-7.114,7.661-5.519,9.821" transform="translate(-472.025 -70.914)" fill="#66192d"/>
        <path id="Path_18604" data-name="Path 18604" d="M805.093,181.991a176.139,176.139,0,0,0-28.412-46.479,52.4,52.4,0,0,0-6.116-6.373c-1.616-1.39-.82-5.785,1.71-8.543,2.374-2.588,6.959-3.7,7.927-3.075,1.647,1.056,3.773,3.4,7.108,7.125,11.59,12.954,19.783,27.574,29.145,52.211Z" transform="translate(-478.017 -72.881)" fill="#ffb27d"/>
        <path id="Path_18605" data-name="Path 18605" d="M874.785,274.514a29.826,29.826,0,0,0-4.246-5.745s-9.208,2.337-9.469,3.226c-.6,2.052-.848,6.33-1.409,8.391-.243.894-.848,3.947.033,4.273.766.283,2.435-1.957,3.1-3.112,2.148,5.625,7.923,12.829,4.319.7l.021-.006c.483,1.191,3.362,8.753,4.775,7.46,1.247-1.141-.662-6.9-1.434-8.871l.055-.028c.967,1.929,3.82,7.493,4.652,6.049,1.045-1.813-1.576-7.733-1.576-7.733s2.142,5.393,3.609,3.437c1-1.334-1.1-5.521-2-7.367a3.291,3.291,0,0,0-.43-.674" transform="translate(-533.603 -166.913)" fill="#ffb27d"/>
        <path id="Path_18606" data-name="Path 18606" d="M692.844,72.918c3.474,1.588,9.583-2.364,12.176-5.313-.009,0-3.328-.6-3.878-1.73a62.631,62.631,0,0,1-2.148-6.4L699,58.395,696.172,48.5l-.7,9.762-.174,2.383-.009.12-.179,2.484,0,.046-.06.828-.119,1.675c-.1,1.362-.519,1.766-2.162,2.1,0,0-2.878,3.667.083,5.019" transform="translate(-429.442 -30.124)" fill="#ffb27d"/>
        <path id="Path_18607" data-name="Path 18607" d="M713.061,568.5s-.108,4.112-3.031,5.272-11.392,2.207-8.227,4.851c1.816,1.517,10.373.537,12.789.537s4.684,1,6.48-.537c1.975-1.694,0-10.122,0-10.122a10.016,10.016,0,0,1-3.96.988,7.975,7.975,0,0,1-4.051-.987" transform="translate(-435.403 -353.056)" fill="#66192d"/>
        <path id="Path_18608" data-name="Path 18608" d="M842.518,568.5s-.108,4.112-3.031,5.272-11.392,2.207-8.227,4.851c1.816,1.517,10.373.537,12.789.537s4.685,1,6.48-.537c1.975-1.693,0-10.122,0-10.122a10.021,10.021,0,0,1-3.96.988,7.973,7.973,0,0,1-4.051-.988" transform="translate(-515.798 -353.055)" fill="#66192d"/>
        <path id="Path_18609" data-name="Path 18609" d="M677.705,270.857a2.436,2.436,0,0,0-2.395,2.471c.069,5.8.718,21.961,5.237,47.816,4.166,23.838,9.085,47.859,11.5,59.375a9.3,9.3,0,0,0,8.816,7.3l2.318.089a7.715,7.715,0,0,0,8.108-8.17l-5.855-77.911s9.712-27.051,3.2-28.714c-9.212-2.352-24.957-2.349-30.925-2.253" transform="translate(-419.383 -168.191)" fill="#ff443c"/>
        <path id="Path_18610" data-name="Path 18610" d="M703.089,270.827,756,382.047c2.039,4.532,22.591,7.083,17.672-4.981L744.321,277.2c-.439-1.209-11.716-3.116-12.891-3.452-6.374-1.823-28.341-2.923-28.341-2.923" transform="translate(-436.634 -168.191)" fill="#ff443c"/>
        <path id="Path_18611" data-name="Path 18611" d="M723.156,330.173a.267.267,0,0,0,.249-.364l-7.08-18.175a28.921,28.921,0,0,0-8.645-12.227,16.163,16.163,0,0,0-4.953-2.846.267.267,0,0,0-.151.512c.084.025,8.429,2.615,13.252,14.756L722.907,330a.267.267,0,0,0,.249.17" transform="translate(-436.197 -184.166)" fill="#020202"/>
        <path id="Path_18612" data-name="Path 18612" d="M620.51,47.568,596.986,43.6a2.206,2.206,0,0,1-1.8-2.542l.428-2.546a2.2,2.2,0,0,1,2.535-1.808l23.524,3.972a2.205,2.205,0,0,1,1.8,2.541l-.428,2.546a2.2,2.2,0,0,1-2.535,1.808" transform="translate(-369.602 -22.773)" fill="#553e93"/>
        <path id="Path_18613" data-name="Path 18613" d="M581.333,40.3l-22.7-3.834a2.885,2.885,0,0,1-2.361-3.325l.956-5.687a2.879,2.879,0,0,1,3.317-2.366l22.7,3.834a2.885,2.885,0,0,1,2.361,3.325l-.956,5.687a2.88,2.88,0,0,1-3.317,2.366" transform="translate(-345.431 -15.554)" fill="#ff443c"/>
        <path id="Path_18614" data-name="Path 18614" d="M510.735,27.373l-36-6.08a2.365,2.365,0,0,1-1.935-2.726l1.662-9.887a2.36,2.36,0,0,1,2.719-1.94l36,6.08a2.365,2.365,0,0,1,1.935,2.726l-1.662,9.887a2.361,2.361,0,0,1-2.719,1.94" transform="translate(-293.596 -4.167)" fill="#786ab5"/>
        <path id="Path_18615" data-name="Path 18615" d="M466.775,18.814l-1.788-.3a1.812,1.812,0,0,1-1.483-2.089l2.259-13.446a1.81,1.81,0,0,1,2.084-1.487l1.788.3a1.813,1.813,0,0,1,1.483,2.09L468.86,17.327a1.81,1.81,0,0,1-2.084,1.487" transform="translate(-287.831 -0.911)" fill="#553e93"/>
        <path id="Path_18616" data-name="Path 18616" d="M597.188,24.9s-2.43-1.033-3.355,1.2c-1.179,2.842.071,7.514.842,5.724a16.793,16.793,0,0,0,.983-3.388s-.878,5.653.507,5.414S598.306,29,598.306,29s-.365,5.4.871,4.753S601,29.883,601,29.883s-.557,4.367.861,3.577,1.154-4.022,1.355-5.416c.189-1.318-.6-1.867-1.878-1.959a3.7,3.7,0,0,0-2.075-.683c-.327.058-.594-.284-.82-.344a8.287,8.287,0,0,0-1.254-.161" transform="translate(-368.483 -15.314)" fill="#ffb27d"/>
        <path id="Path_18617" data-name="Path 18617" d="M701.006,82.235a9.577,9.577,0,0,0,3.888-3.165h-.308l-3.4.681Z" transform="translate(-435.341 -49.106)" fill="#66192d"/>
        <path id="Path_18618" data-name="Path 18618" d="M723.688,48.346s-.629,1.534-.155,4.914c.694,4.945-5.312,6.168-6.572,4.616-.156-.192,1.288-8.253,1.288-8.253l1.979-.789Z" transform="translate(-445.242 -30.025)" fill="#66192d"/>
        <path id="Path_18619" data-name="Path 18619" d="M676.587,32.662c.921-6.189,5.939-10.636,11.208-9.933s8.793,6.291,7.872,12.48-5.939,10.636-11.207,9.933-8.793-6.291-7.872-12.48" transform="translate(-420.085 -14.071)" fill="#ffb27d"/>
        <path id="Path_18620" data-name="Path 18620" d="M683.445,21.989c.214.379-2.145,5.944,8.867,8.818s6.2-10.984-2.031-12.382c-11.888-2.018-14.766,5.4-14.027,8.307s7.192-4.744,7.192-4.744" transform="translate(-419.902 -11.231)" fill="#66192d"/>
        <path id="Path_18621" data-name="Path 18621" d="M716.261,46.38s3.9,5.214,1.609,9.705c0,0,3.07-2.411,3.283-3.436a38.269,38.269,0,0,0,.061-4.847Z" transform="translate(-444.815 -28.805)" fill="#66192d"/>
        <path id="Path_18622" data-name="Path 18622" d="M717.069,53.146a2.449,2.449,0,0,1-3.409-.225,2.77,2.77,0,0,1,4.443-3.036,2.458,2.458,0,0,1-1.034,3.261" transform="translate(-443.014 -30.488)" fill="#ffb27d"/>
        <path id="Path_18623" data-name="Path 18623" d="M699.3,51.571a.212.212,0,0,1-.127-.142.209.209,0,0,1,.16-.252,2.442,2.442,0,0,1,2.72.971.2.2,0,0,1-.051.291.249.249,0,0,1-.306-.049,3.871,3.871,0,0,0-2.259-.809.231.231,0,0,1-.138-.011" transform="translate(-434.202 -31.721)" fill="#080435"/>
        <path id="Path_18624" data-name="Path 18624" d="M680.827,49.831a.221.221,0,0,1-.174-.085.2.2,0,0,1,.047-.291,2.464,2.464,0,0,1,2.906-.089.2.2,0,0,1,.069.288.248.248,0,0,1-.3.066,3.937,3.937,0,0,0-2.413.072.225.225,0,0,1-.132.04" transform="translate(-422.675 -30.391)" fill="#080435"/>
        <path id="Path_18625" data-name="Path 18625" d="M684.291,56.092a.794.794,0,0,1-.4,1.048.843.843,0,0,1-.924-.683.8.8,0,0,1,.4-1.049.844.844,0,0,1,.924.683" transform="translate(-424.109 -34.4)" fill="#080435"/>
        <path id="Path_18626" data-name="Path 18626" d="M686.46,65.778s.394,3,2.716,3.157c2.509.169,3.1-2.446,3.1-2.446a9.931,9.931,0,0,1-5.815-.711" transform="translate(-426.307 -40.851)" fill="#fff"/>
        <path id="Path_18627" data-name="Path 18627" d="M701.809,58.931a.11.11,0,0,0,.055-.205,3.965,3.965,0,0,0-2.806-.433.11.11,0,0,0,.057.212,3.816,3.816,0,0,1,2.639.411.109.109,0,0,0,.055.015" transform="translate(-434.081 -36.147)" fill="#020202"/>
        <path id="Path_18628" data-name="Path 18628" d="M396.281,1105.052H278.851l-137.864-114.3a3.244,3.244,0,0,0-4.582.443l-27.093,33.138a3.243,3.243,0,0,1-5.677-1.338L86,944.578h0l-.273-1.228-9.941-44.2a3.245,3.245,0,0,1,3.176-3.96l128.689.5a3.244,3.244,0,0,1,2.5,5.294l-22.2,27.157a3.237,3.237,0,0,0,.44,4.552Z" transform="translate(-47.013 -555.935)" fill="#ffba41"/>
      </g>
    </g>
  </g>
</svg>
