<svg xmlns="http://www.w3.org/2000/svg" width="794.725" height="749.124" viewBox="0 0 794.725 749.124">
  <defs>
    <style>
      .cls-1, .cls-10, .cls-11, .cls-12, .cls-13, .cls-14, .cls-15, .cls-16, .cls-17, .cls-18, .cls-19, .cls-2, .cls-20, .cls-21, .cls-22, .cls-23, .cls-24, .cls-25, .cls-26, .cls-27, .cls-28, .cls-29, .cls-3, .cls-30, .cls-31, .cls-32, .cls-33, .cls-34, .cls-35, .cls-36, .cls-37, .cls-38, .cls-39, .cls-4, .cls-40, .cls-41, .cls-42, .cls-43, .cls-44, .cls-45, .cls-46, .cls-47, .cls-48, .cls-49, .cls-5, .cls-50, .cls-51, .cls-52, .cls-53, .cls-54, .cls-55, .cls-56, .cls-57, .cls-58, .cls-59, .cls-6, .cls-60, .cls-61, .cls-62, .cls-63, .cls-64, .cls-65, .cls-66, .cls-67, .cls-68, .cls-69, .cls-7, .cls-70, .cls-71, .cls-72, .cls-73, .cls-8, .cls-9 {
        fill: none;
        stroke-width: 0.552px;
      }

      .cls-1 {
        stroke: #293dff;
      }

      .cls-2 {
        stroke: #4051ff;
      }

      .cls-3 {
        stroke: #5764ff;
      }

      .cls-4 {
        stroke: #6e78ff;
      }

      .cls-5 {
        stroke: #848cff;
      }

      .cls-6 {
        stroke: #9b9fff;
      }

      .cls-7 {
        stroke: #b2b3ff;
      }

      .cls-8 {
        stroke: #94a0fd;
      }

      .cls-9 {
        stroke: #778cfc;
      }

      .cls-10 {
        stroke: #5979fa;
      }

      .cls-11 {
        stroke: #3b66f8;
      }

      .cls-12 {
        stroke: #1e52f7;
      }

      .cls-13 {
        stroke: #003ff5;
      }

      .cls-14 {
        stroke: #0843f7;
      }

      .cls-15 {
        stroke: #0f47f8;
      }

      .cls-16 {
        stroke: #174cfa;
      }

      .cls-17 {
        stroke: #1e50fc;
      }

      .cls-18 {
        stroke: #2554fd;
      }

      .cls-19 {
        stroke: #2d58ff;
      }

      .cls-20 {
        stroke: #4167ff;
      }

      .cls-21 {
        stroke: #5576ff;
      }

      .cls-22 {
        stroke: #6a85ff;
      }

      .cls-23 {
        stroke: #7e95ff;
      }

      .cls-24 {
        stroke: #92a4ff;
      }

      .cls-25 {
        stroke: #a6b3ff;
      }

      .cls-26 {
        stroke: #9dafff;
      }

      .cls-27 {
        stroke: #94aaff;
      }

      .cls-28 {
        stroke: #8ba6ff;
      }

      .cls-29 {
        stroke: #81a2ff;
      }

      .cls-30 {
        stroke: #789dff;
      }

      .cls-31 {
        stroke: #6f99ff;
      }

      .cls-32 {
        stroke: #639cfa;
      }

      .cls-33 {
        stroke: #589ff5;
      }

      .cls-34 {
        stroke: #4ca2f1;
      }

      .cls-35 {
        stroke: #40a5ec;
      }

      .cls-36 {
        stroke: #35a8e7;
      }

      .cls-37 {
        stroke: #29abe2;
      }

      .cls-38 {
        stroke: #22a1dc;
      }

      .cls-39 {
        stroke: #1b98d5;
      }

      .cls-40 {
        stroke: #158ecf;
      }

      .cls-41 {
        stroke: #0e84c9;
      }

      .cls-42 {
        stroke: #077bc2;
      }

      .cls-43 {
        stroke: #0071bc;
      }

      .cls-44 {
        stroke: #0866b5;
      }

      .cls-45 {
        stroke: #0f5cae;
      }

      .cls-46 {
        stroke: #1751a7;
      }

      .cls-47 {
        stroke: #1f46a0;
      }

      .cls-48 {
        stroke: #263c99;
      }

      .cls-49 {
        stroke: #2e3192;
      }

      .cls-50 {
        stroke: #2b2c8a;
      }

      .cls-51 {
        stroke: #282783;
      }

      .cls-52 {
        stroke: #25237b;
      }

      .cls-53 {
        stroke: #211e73;
      }

      .cls-54 {
        stroke: #1e196c;
      }

      .cls-55 {
        stroke: #1b1464;
      }

      .cls-56 {
        stroke: #273276;
      }

      .cls-57 {
        stroke: #345088;
      }

      .cls-58 {
        stroke: #406e9a;
      }

      .cls-59 {
        stroke: #4c8cac;
      }

      .cls-60 {
        stroke: #59aabe;
      }

      .cls-61 {
        stroke: #65c8d0;
      }

      .cls-62 {
        stroke: #54d1d8;
      }

      .cls-63 {
        stroke: #43dae0;
      }

      .cls-64 {
        stroke: #33e3e8;
      }

      .cls-65 {
        stroke: #22edef;
      }

      .cls-66 {
        stroke: #11f6f7;
      }

      .cls-67 {
        stroke: aqua;
      }

      .cls-68 {
        stroke: #00d4ff;
      }

      .cls-69 {
        stroke: #0af;
      }

      .cls-70 {
        stroke: #0080ff;
      }

      .cls-71 {
        stroke: #05f;
      }

      .cls-72 {
        stroke: #002bff;
      }

      .cls-73 {
        stroke: blue;
      }
    </style>
  </defs>
  <g id="Group_1" data-name="Group 1" transform="translate(-824.697 -134.662)">
    <g id="Group">
      <g id="Group-2" data-name="Group">
        <path id="Vector" class="cls-1" d="M21.332,89.412l49.533,8.226A25.484,25.484,0,0,0,98.9,63.546L81.262,16.536A25.485,25.485,0,0,0,37.718,9.3L5.83,48.088A25.479,25.479,0,0,0,21.332,89.412Z" transform="matrix(0.966, 0.259, -0.259, 0.966, 1179.503, 495.356)"/>
      </g>
      <g id="Group-3" data-name="Group">
        <path id="Vector-2" data-name="Vector" class="cls-2" d="M22.446,103.135l63.49,6.636a25.85,25.85,0,0,0,27.339-35.455l-26-58.3A25.851,25.851,0,0,0,42.9,10.07L5.409,61.74A25.842,25.842,0,0,0,22.446,103.135Z" transform="matrix(0.966, 0.259, -0.259, 0.966, 1175.188, 487.147)"/>
      </g>
      <g id="Group-4" data-name="Group">
        <path id="Vector-3" data-name="Vector" class="cls-3" d="M23.582,116.9l77.452,5.041a26.243,26.243,0,0,0,26.644-36.824l-34.356-69.6a26.238,26.238,0,0,0-45.211-4.66L5.021,75.415A26.236,26.236,0,0,0,23.582,116.9Z" transform="matrix(0.966, 0.259, -0.259, 0.966, 1170.865, 478.884)"/>
      </g>
      <g id="Group-5" data-name="Group">
        <path id="Vector-4" data-name="Vector" class="cls-4" d="M24.741,130.677l91.409,3.451A26.651,26.651,0,0,0,142.093,95.94L99.378,15.053A26.653,26.653,0,0,0,53.334,11.68L4.64,89.116A26.657,26.657,0,0,0,24.741,130.677Z" transform="matrix(0.966, 0.259, -0.259, 0.966, 1166.513, 470.616)"/>
      </g>
      <g id="Group-6" data-name="Group">
        <path id="Vector-5" data-name="Vector" class="cls-5" d="M25.924,144.483l105.372,1.86a27.092,27.092,0,0,0,25.247-39.557L105.469,14.6a27.09,27.09,0,0,0-46.878-2.087L4.3,102.839A27.087,27.087,0,0,0,25.924,144.483Z" transform="matrix(0.966, 0.259, -0.259, 0.966, 1162.155, 462.305)"/>
      </g>
      <g id="Group-7" data-name="Group">
        <path id="Vector-6" data-name="Vector" class="cls-6" d="M27.13,158.314l119.328.265a27.551,27.551,0,0,0,24.551-40.921L111.578,14.18a27.552,27.552,0,0,0-47.717-.8L3.965,116.587A27.557,27.557,0,0,0,27.13,158.314Z" transform="matrix(0.966, 0.259, -0.259, 0.966, 1157.778, 453.97)"/>
      </g>
      <g id="Group-8" data-name="Group">
        <path id="Vector-7" data-name="Vector" class="cls-7" d="M28.353,172.153l133.291-1.325A28.03,28.03,0,0,0,185.5,128.543L117.709,13.775a28.033,28.033,0,0,0-48.551.48L3.659,130.349A28.032,28.032,0,0,0,28.353,172.153Z" transform="matrix(0.966, 0.259, -0.259, 0.966, 1153.559, 444.977)"/>
      </g>
      <g id="Group-9" data-name="Group">
        <path id="Vector-8" data-name="Vector" class="cls-8" d="M29.652,176.637l135.1-5.587a28.433,28.433,0,0,0,22.84-43.632L115.2,13.213A28.433,28.433,0,0,0,66,15.25L3.285,135.042A28.435,28.435,0,0,0,29.652,176.637Z" transform="matrix(0.966, 0.259, -0.259, 0.966, 1153.513, 442.928)"/>
      </g>
      <g id="Group-10" data-name="Group">
        <path id="Vector-9" data-name="Vector" class="cls-9" d="M30.981,181.147,167.888,171.3a28.863,28.863,0,0,0,21.824-44.979L112.729,12.677a28.864,28.864,0,0,0-49.865,3.589L2.941,139.751A28.866,28.866,0,0,0,30.981,181.147Z" transform="matrix(0.966, 0.259, -0.259, 0.966, 1153.448, 440.849)"/>
      </g>
      <g id="Group-11" data-name="Group">
        <path id="Vector-10" data-name="Vector" class="cls-10" d="M32.332,185.68l138.712-14.111a29.323,29.323,0,0,0,20.814-46.326L110.282,12.169a29.323,29.323,0,0,0-50.527,5.14L2.619,144.494A29.322,29.322,0,0,0,32.332,185.68Z" transform="matrix(0.966, 0.259, -0.259, 0.966, 1153.364, 438.739)"/>
      </g>
      <g id="Group-12" data-name="Group">
        <path id="Vector-11" data-name="Vector" class="cls-11" d="M33.7,190.243,174.228,171.87a29.806,29.806,0,0,0,19.8-47.673l-86.17-112.51a29.8,29.8,0,0,0-51.184,6.691L2.324,149.262A29.8,29.8,0,0,0,33.7,190.243Z" transform="matrix(0.966, 0.259, -0.259, 0.966, 1153.266, 436.595)"/>
      </g>
      <g id="Group-13" data-name="Group">
        <path id="Vector-12" data-name="Vector" class="cls-12" d="M35.109,194.829l142.328-22.636a30.31,30.31,0,0,0,18.782-49.02L105.456,11.226a30.307,30.307,0,0,0-51.841,8.243L2.05,154.046A30.31,30.31,0,0,0,35.109,194.829Z" transform="matrix(0.966, 0.259, -0.259, 0.966, 1153.149, 434.421)"/>
      </g>
      <g id="Group-14" data-name="Group">
        <path id="Vector-13" data-name="Vector" class="cls-13" d="M36.529,199.434l144.139-26.9a30.837,30.837,0,0,0,17.766-50.367L103.073,10.791a30.833,30.833,0,0,0-52.5,9.794L1.8,158.861A30.837,30.837,0,0,0,36.529,199.434Z" transform="matrix(0.966, 0.259, -0.259, 0.966, 1153.016, 432.224)"/>
      </g>
      <g id="Group-15" data-name="Group">
        <path id="Vector-14" data-name="Vector" class="cls-14" d="M38.016,203.588,183.3,171.733A31.279,31.279,0,0,0,199.706,120.1L99.475,10.214a31.277,31.277,0,0,0-52.918,11.6L1.507,163.568A31.279,31.279,0,0,0,38.016,203.588Z" transform="matrix(0.966, 0.259, -0.259, 0.966, 1153.666, 430.218)"/>
      </g>
      <g id="Group-16" data-name="Group">
        <path id="Vector-15" data-name="Vector" class="cls-15" d="M39.534,207.78l146.425-36.819a31.753,31.753,0,0,0,15.055-52.9L95.914,9.668a31.753,31.753,0,0,0-53.337,13.41L1.247,168.3A31.756,31.756,0,0,0,39.534,207.78Z" transform="matrix(0.966, 0.259, -0.259, 0.966, 1154.301, 428.17)"/>
      </g>
      <g id="Group-17" data-name="Group">
        <path id="Vector-16" data-name="Vector" class="cls-16" d="M41.075,212,188.648,170.22c23.889-6.763,31.5-36.852,13.7-54.16L92.37,9.149A32.253,32.253,0,0,0,38.618,24.37L1.015,173.058C-5.069,197.129,17.186,218.766,41.075,212Z" transform="matrix(0.966, 0.259, -0.259, 0.966, 1154.917, 426.084)"/>
      </g>
      <g id="Group-18" data-name="Group">
        <path id="Vector-17" data-name="Vector" class="cls-17" d="M42.643,216.249,191.359,169.5c24.077-7.569,30.928-38.359,12.339-55.424L88.858,8.658C70.269-8.407,40.175,1.05,34.687,25.685L.811,177.846C-4.671,202.48,18.566,223.813,42.643,216.249Z" transform="matrix(0.966, 0.259, -0.259, 0.966, 1155.513, 423.967)"/>
      </g>
      <g id="Group-19" data-name="Group">
        <path id="Vector-18" data-name="Vector" class="cls-18" d="M44.232,220.52l149.859-51.7c24.259-8.37,30.359-39.866,10.981-56.688L85.368,8.192C65.99-8.63,35.663,1.832,30.783,27.024L.633,182.658C-4.253,207.861,19.973,228.89,44.232,220.52Z" transform="matrix(0.966, 0.259, -0.259, 0.966, 1156.094, 421.823)"/>
      </g>
      <g id="Group-20" data-name="Group">
        <path id="Vector-19" data-name="Vector" class="cls-19" d="M45.854,224.814l151.007-56.666c24.446-9.176,29.791-41.368,9.628-57.953L81.911,7.755C61.743-8.83,31.185,2.637,26.906,28.4L.478,187.5C-3.8,213.259,21.413,233.99,45.854,224.814Z" transform="matrix(0.966, 0.259, -0.259, 0.966, 1156.649, 419.648)"/>
      </g>
      <g id="Group-21" data-name="Group">
        <path id="Vector-20" data-name="Vector" class="cls-20" d="M47.512,228.413l151.3-62.259c24.491-10.081,28.891-42.892,7.917-59.062L77.159,7.2C56.186-8.974,25.567,3.624,22.05,29.876L.32,192.036C-3.2,218.276,23.016,238.488,47.512,228.413Z" transform="matrix(0.966, 0.259, -0.259, 0.966, 1158.012, 418.413)"/>
      </g>
      <g id="Group-22" data-name="Group">
        <path id="Vector-21" data-name="Vector" class="cls-21" d="M49.2,232.059,200.79,164.2c24.54-10.987,27.985-44.416,6.205-60.178L72.44,6.674C50.655-9.088,19.981,4.642,17.226,31.391L.194,196.6C-2.567,223.341,24.662,243.04,49.2,232.059Z" transform="matrix(0.966, 0.259, -0.259, 0.966, 1159.352, 417.122)"/>
      </g>
      <g id="Group-23" data-name="Group">
        <path id="Vector-22" data-name="Vector" class="cls-22" d="M50.931,235.727l151.88-73.45c24.59-11.892,27.085-45.939,4.494-61.287L67.753,6.179C45.161-9.169,14.427,5.693,12.433,32.933L.1,201.194C-1.893,228.428,26.341,247.613,50.931,235.727Z" transform="matrix(0.966, 0.259, -0.259, 0.966, 1160.666, 415.803)"/>
      </g>
      <g id="Group-24" data-name="Group">
        <path id="Vector-23" data-name="Vector" class="cls-23" d="M52.69,239.419l152.172-79.042c24.634-12.8,26.18-47.463,2.783-62.4L63.1,5.714C39.705-9.22,8.91,6.774,7.673,34.506L.038,205.813C-1.194,233.545,28.056,252.216,52.69,239.419Z" transform="matrix(0.966, 0.259, -0.259, 0.966, 1161.955, 414.453)"/>
      </g>
      <g id="Group-25" data-name="Group">
        <path id="Vector-24" data-name="Vector" class="cls-24" d="M54.474,243.142l152.465-84.635c24.684-13.7,25.275-48.981,1.071-63.507L58.477,5.281C34.268-9.245,3.417,7.881,2.943,36.109L.005,210.47C-.464,238.687,29.8,256.845,54.474,243.142Z" transform="matrix(0.966, 0.259, -0.259, 0.966, 1163.223, 413.065)"/>
      </g>
      <g id="Group-26" data-name="Group">
        <path id="Vector-25" data-name="Vector" class="cls-25" d="M58.049,246.9l152.757-90.233c24.728-14.608,24.375-50.505-.64-64.616L55.641,4.87C30.626-9.241-.285,9.017,0,37.736L1.763,215.144C2.05,243.859,33.315,261.5,58.049,246.9Z" transform="matrix(0.966, 0.259, -0.259, 0.966, 1163.629, 411.415)"/>
      </g>
      <g id="Group-27" data-name="Group">
        <path id="Vector-26" data-name="Vector" class="cls-26" d="M65.411,249.9l152.36-96.649c24.529-15.53,23.05-51.791-2.667-65.268L55.225,4.368C29.509-9.109-1.148,10.3.033,39.309L7.553,219.577C8.74,248.59,40.882,265.434,65.411,249.9Z" transform="matrix(0.966, 0.259, -0.259, 0.966, 1160.584, 409.689)"/>
      </g>
      <g id="Group-28" data-name="Group">
        <path id="Vector-27" data-name="Vector" class="cls-27" d="M72.806,252.952,224.763,149.888c24.331-16.452,21.725-53.072-4.687-65.919L54.841,3.9C28.429-8.942-1.985,11.623.1,40.917L13.379,224.05C15.461,253.349,48.476,269.4,72.806,252.952Z" transform="matrix(0.966, 0.259, -0.259, 0.966, 1157.522, 407.926)"/>
      </g>
      <g id="Group-29" data-name="Group">
        <path id="Vector-28" data-name="Vector" class="cls-28" d="M80.246,256.028,231.806,146.543c24.132-17.374,20.4-54.359-6.713-66.565L54.5,3.464C27.384-8.743-2.777,12.977.2,42.563L19.241,228.556C22.222,258.142,56.115,273.4,80.246,256.028Z" transform="matrix(0.966, 0.259, -0.259, 0.966, 1154.425, 406.118)"/>
      </g>
      <g id="Group-30" data-name="Group">
        <path id="Vector-29" data-name="Vector" class="cls-29" d="M87.71,259.136l151.156-115.9c23.928-18.3,19.075-55.64-8.734-67.217L54.182,3.061C26.368-8.511-3.544,14.362.342,44.236L25.137,233.094C29.018,262.968,63.783,277.438,87.71,259.136Z" transform="matrix(0.966, 0.259, -0.259, 0.966, 1151.308, 404.27)"/>
      </g>
      <g id="Group-31" data-name="Group">
        <path id="Vector-30" data-name="Vector" class="cls-30" d="M95.216,262.275,245.974,139.954c23.729-19.224,17.75-56.926-10.76-67.863L53.9,2.688C25.393-8.248-4.271,15.778.51,45.939L31.063,237.657C35.849,267.823,71.487,281.493,95.216,262.275Z" transform="matrix(0.966, 0.259, -0.259, 0.966, 1148.163, 402.389)"/>
      </g>
      <g id="Group-32" data-name="Group">
        <path id="Vector-31" data-name="Vector" class="cls-31" d="M102.747,265.443,253.1,136.707c23.53-20.146,16.425-58.207-12.786-68.514L53.65,2.346C24.439-7.956-4.971,17.224.71,47.672L37.015,242.256C42.7,272.709,79.217,285.589,102.747,265.443Z" transform="matrix(0.966, 0.259, -0.259, 0.966, 1145.001, 400.468)"/>
      </g>
      <g id="Group-33" data-name="Group">
        <path id="Vector-32" data-name="Vector" class="cls-32" d="M111,268.234l149.82-137.1c22.884-20.775,14.7-58.538-14.735-67.968L52.438,1.967C23-7.468-5.6,18.5.945,48.712l43.825,198.3C51.317,277.216,88.108,289.009,111,268.234Z" transform="matrix(0.966, 0.259, -0.259, 0.966, 1141.778, 399.581)"/>
      </g>
      <g id="Group-34" data-name="Group">
        <path id="Vector-33" data-name="Vector" class="cls-33" d="M119.284,271.066,268.569,125.6c22.244-21.4,12.974-58.864-16.684-67.427L51.261,1.619C21.6-6.944-6.206,19.816,1.214,49.784L52.553,251.8C59.962,281.771,97.035,292.471,119.284,271.066Z" transform="matrix(0.966, 0.259, -0.259, 0.966, 1138.534, 398.637)"/>
      </g>
      <g id="Group-35" data-name="Group">
        <path id="Vector-34" data-name="Vector" class="cls-34" d="M127.606,273.927,276.356,120.088c21.6-22.034,11.246-59.189-18.633-66.88l-207.6-51.9C20.236-6.385-6.766,21.159,1.515,50.883L60.368,256.624C68.654,286.349,106.009,295.961,127.606,273.927Z" transform="matrix(0.966, 0.259, -0.259, 0.966, 1135.255, 397.659)"/>
      </g>
      <g id="Group-36" data-name="Group">
        <path id="Vector-35" data-name="Vector" class="cls-35" d="M135.964,276.827,284.177,114.618C305.135,91.954,293.7,55.1,263.59,48.279L49.01,1.025C18.9-5.793-7.3,22.54,1.85,52.022L68.217,261.484C77.371,290.966,115.006,299.49,135.964,276.827Z" transform="matrix(0.966, 0.259, -0.259, 0.966, 1131.958, 396.638)"/>
      </g>
      <g id="Group-37" data-name="Group">
        <path id="Vector-36" data-name="Vector" class="cls-36" d="M144.355,279.755,292.033,109.182c20.317-23.293,7.8-59.846-22.536-65.792L47.932.779C17.6-5.167-7.8,23.95,2.219,53.194L76.1,266.378C86.126,295.616,124.038,303.047,144.355,279.755Z" transform="matrix(0.966, 0.259, -0.259, 0.966, 1128.636, 395.58)"/>
      </g>
      <g id="Group-38" data-name="Group">
        <path id="Vector-37" data-name="Vector" class="cls-37" d="M152.773,282.722,299.916,103.779c19.671-23.928,6.067-60.178-24.485-65.251L46.888.566C16.33-4.507-8.26,25.4,2.622,54.4l81.394,216.9C94.9,300.306,133.1,306.65,152.773,282.722Z" transform="matrix(0.966, 0.259, -0.259, 0.966, 1125.299, 394.471)"/>
      </g>
      <g id="Group-39" data-name="Group">
        <path id="Vector-38" data-name="Vector" class="cls-38" d="M162.566,284.087,307.2,95.952c18.931-24.435,4.312-60.2-26.313-64.379L45.639.386C15.015-3.794-8.653,26.748,3.046,55.363L93.66,274.685C105.353,303.295,143.635,308.517,162.566,284.087Z" transform="matrix(0.966, 0.259, -0.259, 0.966, 1121.051, 394.926)"/>
      </g>
      <g id="Group-40" data-name="Group">
        <path id="Vector-39" data-name="Vector" class="cls-39" d="M172.394,285.48,314.512,88.153c18.191-24.943,2.556-60.222-28.14-63.5L44.425.238C13.729-3.041-9.006,28.135,3.5,56.358L103.327,278.1C115.832,306.322,154.2,310.424,172.394,285.48Z" transform="matrix(0.966, 0.259, -0.259, 0.966, 1116.784, 395.342)"/>
      </g>
      <g id="Group-41" data-name="Group">
        <path id="Vector-40" data-name="Vector" class="cls-40" d="M182.258,286.92,321.865,80.4c17.446-25.451.8-60.244-29.967-62.629L43.242.126C12.48-2.259-9.333,29.558,3.989,57.395L113.037,281.559C126.354,309.39,164.812,312.371,182.258,286.92Z" transform="matrix(0.966, 0.259, -0.259, 0.966, 1112.488, 395.701)"/>
      </g>
      <g id="Group-42" data-name="Group">
        <path id="Vector-41" data-name="Vector" class="cls-41" d="M192.152,288.388,329.247,72.676c16.706-25.959-.955-60.266-31.795-61.757L42.094.049C11.26-1.436-9.62,31.01,4.508,58.46L122.771,285.043C136.9,312.493,175.446,314.348,192.152,288.388Z" transform="matrix(0.966, 0.259, -0.259, 0.966, 1108.172, 396.025)"/>
      </g>
      <g id="Group-43" data-name="Group">
        <path id="Vector-42" data-name="Vector" class="cls-42" d="M202.073,289.893l134.583-224.9C352.617,38.521,333.939,4.7,303.039,4.11L40.979.008C10.073-.583-9.879,32.5,5.066,59.562l127.477,229C147.483,315.626,186.112,316.36,202.073,289.893Z" transform="matrix(0.966, 0.259, -0.259, 0.966, 1103.837, 396.312)"/>
      </g>
      <g id="Group-44" data-name="Group">
        <path id="Vector-43" data-name="Vector" class="cls-43" d="M212.038,294.1,344.108,60.009C359.329,33.028,339.637-.307,308.664,0L39.9,2.674c-30.972.309-50,34.031-34.246,60.7L142.348,294.8C158.1,321.461,196.817,321.075,212.038,294.1Z" transform="matrix(0.966, 0.259, -0.259, 0.966, 1099.819, 395.265)"/>
      </g>
      <g id="Group-45" data-name="Group">
        <path id="Vector-44" data-name="Vector" class="cls-43" d="M223.215,302.6,350.438,58.863c14.4-27.35-6.205-60.034-37.095-58.831L38.646,11.725c-30.884,1.2-48.887,35.389-32.4,61.536L153.718,305.31C170.209,331.451,208.816,329.949,223.215,302.6Z" transform="matrix(0.966, 0.259, -0.259, 0.966, 1096.783, 389.139)"/>
      </g>
      <g id="Group-46" data-name="Group">
        <path id="Vector-45" data-name="Vector" class="cls-43" d="M234.42,311.133,356.8,57.752C370.378,30.032,348.857-2,318.056.1L37.43,20.807C6.629,22.9-10.348,57.559,6.872,83.182L165.122,315.854C182.342,341.476,220.839,338.854,234.42,311.133Z" transform="matrix(0.966, 0.259, -0.259, 0.966, 1093.733, 382.972)"/>
      </g>
      <g id="Group-47" data-name="Group">
        <path id="Vector-46" data-name="Vector" class="cls-43" d="M245.656,319.7,363.185,56.672C375.949,28.577,353.512-2.8,322.8.2L36.244,29.929C5.531,32.922-10.419,68.04,7.53,93.143l169.022,233.3C194.505,351.537,232.892,347.794,245.656,319.7Z" transform="matrix(0.966, 0.259, -0.259, 0.966, 1090.662, 376.768)"/>
      </g>
      <g id="Group-48" data-name="Group">
        <path id="Vector-47" data-name="Vector" class="cls-43" d="M256.928,328.3,369.61,55.632C381.551,27.167,358.2-3.557,327.579.335L35.094,39.086C4.469,42.978-10.459,78.561,8.224,103.134l179.8,233.925C206.7,361.633,244.987,356.769,256.928,328.3Z" transform="matrix(0.966, 0.259, -0.259, 0.966, 1087.56, 370.516)"/>
      </g>
      <g id="Group-49" data-name="Group">
        <path id="Vector-48" data-name="Vector" class="cls-43" d="M268.234,336.942,376.074,54.626C387.2,25.785,362.928-4.277,332.392.5L33.977,48.271C3.441,53.058-10.466,89.1,8.951,113.158L199.527,347.707C218.938,371.762,257.11,365.777,268.234,336.942Z" transform="matrix(0.966, 0.259, -0.259, 0.966, 1084.441, 364.223)"/>
      </g>
      <g id="Group-50" data-name="Group">
        <path id="Vector-49" data-name="Vector" class="cls-43" d="M279.571,345.611,382.563,53.65c10.3-29.211-14.879-58.621-45.327-52.94L32.892,57.492C2.445,63.173-10.435,99.688,9.71,123.218L211.062,358.391C231.2,381.921,269.264,374.822,279.571,345.611Z" transform="matrix(0.966, 0.259, -0.259, 0.966, 1081.299, 357.893)"/>
      </g>
      <g id="Group-51" data-name="Group">
        <path id="Vector-50" data-name="Vector" class="cls-44" d="M291.85,354.022,387.355,52.438C396.791,23,370.82-5.6,340.61.945L31.678,69.028c-30.21,6.548-42,43.345-21.222,66.229L223.882,368.762C244.657,391.647,282.42,383.459,291.85,354.022Z" transform="matrix(0.966, 0.259, -0.259, 0.966, 1077.872, 351.845)"/>
      </g>
      <g id="Group-52" data-name="Group">
        <path id="Vector-51" data-name="Vector" class="cls-45" d="M304.166,362.468,392.186,51.261c8.563-29.658-18.2-57.467-48.164-50.047L30.5,80.588C.529,88-10.171,125.075,11.234,147.325L236.74,379.158C258.15,401.4,295.609,392.126,304.166,362.468Z" transform="matrix(0.966, 0.259, -0.259, 0.966, 1074.417, 345.758)"/>
      </g>
      <g id="Group-53" data-name="Group">
        <path id="Vector-52" data-name="Vector" class="cls-46" d="M316.506,370.95l80.539-320.83c7.691-29.885-19.853-56.887-49.578-48.606L29.348,92.184c-29.724,8.281-39.336,45.636-17.3,67.239l237.58,230.166C271.66,411.187,308.816,400.835,316.506,370.95Z" transform="matrix(0.966, 0.259, -0.259, 0.966, 1070.953, 339.632)"/>
      </g>
      <g id="Group-54" data-name="Group">
        <path id="Vector-53" data-name="Vector" class="cls-47" d="M328.891,379.468,401.944,49.01c6.818-30.105-21.515-56.307-51-47.159L28.235,103.81c-29.482,9.148-38.006,46.784-15.343,67.741L262.547,400.044C285.221,421.012,322.073,409.579,328.891,379.468Z" transform="matrix(0.966, 0.259, -0.259, 0.966, 1067.452, 333.454)"/>
      </g>
      <g id="Group-55" data-name="Group">
        <path id="Vector-54" data-name="Vector" class="cls-48" d="M341.307,388.013,406.873,47.932C412.819,17.6,383.7-7.8,354.457,2.219L27.157,115.475C-2.087,125.49-9.518,163.407,13.775,183.724L275.509,410.55C298.812,430.866,335.361,418.345,341.307,388.013Z" transform="matrix(0.966, 0.259, -0.259, 0.966, 1063.927, 327.245)"/>
      </g>
      <g id="Group-56" data-name="Group">
        <path id="Vector-55" data-name="Vector" class="cls-49" d="M353.754,396.592l58.085-349.7C416.913,16.33,387.006-8.26,358,2.622L26.111,127.173c-29,10.882-35.345,49.081-11.417,68.752L288.5,421.077C312.424,440.754,348.68,427.15,353.754,396.592Z" transform="matrix(0.966, 0.259, -0.259, 0.966, 1060.385, 320.999)"/>
      </g>
      <g id="Group-57" data-name="Group">
        <path id="Vector-56" data-name="Vector" class="cls-50" d="M366.743,404.37l47.734-358.73C418.656,15.015,388.114-8.653,359.5,3.046L24.967,141.068c-28.609,11.693-33.832,49.975-9.4,68.906l286.8,220.7C326.8,449.614,362.563,434.994,366.743,404.37Z" transform="matrix(0.966, 0.259, -0.259, 0.966, 1056.953, 314.166)"/>
      </g>
      <g id="Group-58" data-name="Group">
        <path id="Vector-57" data-name="Vector" class="cls-51" d="M379.775,412.182,417.157,44.425c3.279-30.7-27.9-53.431-56.12-40.926L23.86,155c-28.223,12.5-32.325,50.875-7.381,69.066l299.8,216.253C341.211,458.508,376.49,442.878,379.775,412.182Z" transform="matrix(0.966, 0.259, -0.259, 0.966, 1053.495, 307.289)"/>
      </g>
      <g id="Group-59" data-name="Group">
        <path id="Vector-58" data-name="Vector" class="cls-52" d="M392.839,420.026,419.875,43.242C422.26,12.48,390.443-9.333,362.607,3.989L22.785,168.97c-27.836,13.316-30.812,51.775-5.361,69.221l312.786,211.8C355.661,467.44,390.454,450.794,392.839,420.026Z" transform="matrix(0.966, 0.259, -0.259, 0.966, 1050.009, 300.366)"/>
      </g>
      <g id="Group-60" data-name="Group">
        <path id="Vector-59" data-name="Vector" class="cls-53" d="M405.934,427.9l16.684-385.81C424.1,11.26,391.657-9.62,364.207,4.508L21.747,182.965C-5.7,197.093-7.558,235.64,18.4,252.341L344.177,459.694C370.137,476.406,404.443,458.739,405.934,427.9Z" transform="matrix(0.966, 0.259, -0.259, 0.966, 1046.507, 293.408)"/>
      </g>
      <g id="Group-61" data-name="Group">
        <path id="Vector-60" data-name="Vector" class="cls-54" d="M419.07,435.816,425.4,40.979c.591-30.906-32.5-50.858-59.554-35.913L20.744,197c-27.058,14.94-27.8,53.569-1.325,69.536l338.767,202.9C384.659,485.4,418.479,466.722,419.07,435.816Z" transform="matrix(0.966, 0.259, -0.259, 0.966, 1042.968, 286.408)"/>
      </g>
      <g id="Group-62" data-name="Group">
        <path id="Vector-61" data-name="Vector" class="cls-55" d="M432.234,443.76,428.221,39.9c-.309-30.972-34.031-50-60.7-34.246L19.774,211.061c-26.671,15.751-26.285,54.469.69,69.69L372.228,479.2C399.208,494.426,432.543,474.733,432.234,443.76Z" transform="matrix(0.966, 0.259, -0.259, 0.966, 1037.47, 278.847)"/>
      </g>
      <g id="Group-63" data-name="Group">
        <path id="Vector-62" data-name="Vector" class="cls-56" d="M445.425,450.272,428.073,38.646c-1.2-30.884-35.389-48.887-61.536-32.4L18.738,227.085c-26.147,16.485-24.64,55.093,2.705,69.5L386.594,487.367C413.945,501.765,446.629,481.156,445.425,450.272Z" transform="matrix(0.966, 0.259, -0.259, 0.966, 1033.524, 271.254)"/>
      </g>
      <g id="Group-64" data-name="Group">
        <path id="Vector-63" data-name="Vector" class="cls-57" d="M458.657,456.818,427.967,37.43c-2.1-30.8-36.753-47.778-62.375-30.558L17.737,243.143c-25.622,17.22-23,55.717,4.726,69.3L401.008,495.558C428.729,509.14,460.761,487.614,458.657,456.818Z" transform="matrix(0.966, 0.259, -0.259, 0.966, 1029.547, 263.618)"/>
      </g>
      <g id="Group-65" data-name="Group">
        <path id="Vector-64" data-name="Vector" class="cls-58" d="M471.918,463.389,427.889,36.244C424.9,5.531,389.778-10.419,364.674,7.53l-347.9,251.7c-25.1,17.948-21.355,56.341,6.741,69.1L415.45,503.774C443.54,516.539,474.915,494.1,471.918,463.389Z" transform="matrix(0.966, 0.259, -0.259, 0.966, 1025.55, 255.95)"/>
      </g>
      <g id="Group-66" data-name="Group">
        <path id="Vector-65" data-name="Vector" class="cls-59" d="M485.22,470,427.847,35.094C423.955,4.469,388.373-10.459,363.8,8.224L15.84,275.363C-8.734,294.045-3.875,332.322,24.6,344.269L429.923,512.037C458.394,523.974,489.112,500.626,485.22,470Z" transform="matrix(0.966, 0.259, -0.259, 0.966, 1021.523, 248.231)"/>
      </g>
      <g id="Group-67" data-name="Group">
        <path id="Vector-66" data-name="Vector" class="cls-60" d="M498.552,476.647,427.84,33.977c-4.787-30.536-40.832-44.443-64.887-25.026L14.944,291.521C-9.11,310.933-3.126,349.1,25.716,360.229l418.721,160.1C473.272,531.448,503.338,507.183,498.552,476.647Z" transform="matrix(0.966, 0.259, -0.259, 0.966, 1017.476, 240.472)"/>
      </g>
      <g id="Group-68" data-name="Group">
        <path id="Vector-67" data-name="Vector" class="cls-61" d="M511.921,483.325,427.871,32.892c-5.681-30.448-42.2-43.328-65.726-23.182L14.081,307.716c-23.53,20.146-16.425,58.207,12.786,68.514L458.982,528.657C488.193,538.953,517.6,513.772,511.921,483.325Z" transform="matrix(0.966, 0.259, -0.259, 0.966, 1013.401, 232.672)"/>
      </g>
      <g id="Group-69" data-name="Group">
        <path id="Vector-68" data-name="Vector" class="cls-62" d="M524.664,487.863,424.294,31.678c-6.548-30.21-43.344-42-66.229-21.222L13.181,325.472C-9.7,346.247-1.521,384.01,27.917,393.439L473.171,534.609C502.6,544.044,531.212,518.073,524.664,487.863Z" transform="matrix(0.966, 0.259, -0.259, 0.966, 1009.448, 224.685)"/>
      </g>
      <g id="Group-70" data-name="Group">
        <path id="Vector-69" data-name="Vector" class="cls-63" d="M537.453,492.434,420.758,30.5C413.343.529,376.27-10.171,354.021,11.234L12.317,343.265C-9.927,364.67-.657,402.129,29,410.692L487.4,540.6C517.064,549.156,544.867,522.4,537.453,492.434Z" transform="matrix(0.966, 0.259, -0.259, 0.966, 1005.451, 216.66)"/>
      </g>
      <g id="Group-71" data-name="Group">
        <path id="Vector-70" data-name="Vector" class="cls-64" d="M550.264,497.039,417.25,29.348c-8.281-29.724-45.636-39.336-67.239-17.3L11.487,361.087c-21.6,22.034-11.246,59.189,18.633,66.88L501.658,546.617C531.543,554.307,558.546,526.764,550.264,497.039Z" transform="matrix(0.966, 0.259, -0.259, 0.966, 1001.449, 208.591)"/>
      </g>
      <g id="Group-72" data-name="Group">
        <path id="Vector-71" data-name="Vector" class="cls-65" d="M563.115,501.678,413.775,28.235c-9.148-29.482-46.784-38.006-67.741-15.343L10.689,378.943c-20.957,22.663-9.524,59.521,20.587,66.339L515.961,552.669C546.066,559.493,572.268,531.16,563.115,501.678Z" transform="matrix(0.966, 0.259, -0.259, 0.966, 997.41, 200.482)"/>
      </g>
      <g id="Group-73" data-name="Group">
        <path id="Vector-72" data-name="Vector" class="cls-66" d="M576,506.354l-165.66-479.2C400.326-2.087,362.409-9.518,342.092,13.775L9.928,396.841c-20.317,23.293-7.8,59.846,22.536,65.792l497.824,96.13C560.619,564.715,586.015,535.6,576,506.354Z" transform="matrix(0.966, 0.259, -0.259, 0.966, 993.354, 192.327)"/>
      </g>
      <g id="Group-74" data-name="Group">
        <path id="Vector-73" data-name="Vector" class="cls-67" d="M588.918,511.055,406.933,26.111c-10.882-29-49.081-35.345-68.752-11.417L9.2,414.77C-10.474,438.7,3.13,474.948,33.682,480.022l510.969,84.867C575.209,569.962,599.8,540.056,588.918,511.055Z" transform="matrix(0.966, 0.259, -0.259, 0.966, 989.274, 184.142)"/>
      </g>
      <g id="Group-75" data-name="Group">
        <path id="Vector-74" data-name="Vector" class="cls-68" d="M600.45,512.853,399.319,24.967c-11.693-28.609-49.975-33.832-68.906-9.4L8.457,433.694c-18.931,24.435-4.312,60.2,26.313,64.379L557.857,567.83C588.481,572.009,612.144,541.462,600.45,512.853Z" transform="matrix(0.966, 0.259, -0.259, 0.966, 987.235, 176.521)"/>
      </g>
      <g id="Group-76" data-name="Group">
        <path id="Vector-75" data-name="Vector" class="cls-69" d="M612.022,514.683,391.744,23.86c-12.5-28.223-50.875-32.325-69.066-7.381L7.75,452.656c-18.191,24.943-2.556,60.222,28.14,63.5L571.1,570.8C601.792,574.088,624.532,542.906,612.022,514.683Z" transform="matrix(0.966, 0.259, -0.259, 0.966, 985.166, 168.861)"/>
      </g>
      <g id="Group-77" data-name="Group">
        <path id="Vector-76" data-name="Vector" class="cls-70" d="M623.62,516.546,384.2,22.785c-13.316-27.836-51.775-30.812-69.221-5.361L7.075,471.65c-17.446,25.451-.8,60.244,29.967,62.629l547.324,39.535C615.129,576.2,636.936,544.382,623.62,516.546Z" transform="matrix(0.966, 0.259, -0.259, 0.966, 983.087, 161.163)"/>
      </g>
      <g id="Group-78" data-name="Group">
        <path id="Vector-77" data-name="Vector" class="cls-71" d="M635.253,518.444,376.682,21.747C362.555-5.7,324.008-7.558,307.307,18.4L6.435,490.68c-16.706,25.959.955,60.266,31.795,61.757l559.437,24.424C628.507,578.346,649.387,545.894,635.253,518.444Z" transform="matrix(0.966, 0.259, -0.259, 0.966, 980.977, 153.419)"/>
      </g>
      <g id="Group-79" data-name="Group">
        <path id="Vector-78" data-name="Vector" class="cls-72" d="M646.922,520.384,369.205,20.744c-14.94-27.058-53.569-27.8-69.536-1.325L5.826,509.745c-15.961,26.467,2.716,60.294,33.617,60.879L611,579.932C641.909,580.528,661.862,547.442,646.922,520.384Z" transform="matrix(0.966, 0.259, -0.259, 0.966, 978.849, 145.627)"/>
      </g>
      <g id="Group-80" data-name="Group">
        <path id="Vector-79" data-name="Vector" class="cls-73" d="M658.623,522.352,361.759,19.774c-15.751-26.671-54.469-26.285-69.69.69L5.254,528.844C-9.968,555.819,9.725,589.16,40.7,588.851l583.674-5.8C655.354,582.745,674.379,549.023,658.623,522.352Z" transform="matrix(0.966, 0.259, -0.259, 0.966, 977.442, 135)"/>
      </g>
    </g>
  </g>
</svg>
