<svg xmlns="http://www.w3.org/2000/svg" width="124.208" height="155.01" viewBox="0 0 124.208 155.01">
  <g id="Icons" transform="translate(-8.5 -4.5)">
    <path id="Path_20341" data-name="Path 20341" d="M70.6,5A61.6,61.6,0,0,0,25.017,108.032l42.661,49.63a3.85,3.85,0,0,0,5.852,0l42.661-49.63A61.6,61.6,0,0,0,70.6,5Zm39.734,98.027L70.6,149.268l-39.734-46.2a53.9,53.9,0,1,1,79.469,0Z" transform="translate(0)" fill="#2768cc" stroke="#2768cc" stroke-width="1"/>
    <path id="Path_20342" data-name="Path 20342" d="M44.952,14A26.952,26.952,0,1,0,71.9,40.952,26.952,26.952,0,0,0,44.952,14Zm0,46.2A19.251,19.251,0,1,1,64.2,40.952,19.251,19.251,0,0,1,44.952,60.2Z" transform="translate(25.652 25.652)" fill="#2768cc" stroke="#2768cc" stroke-width="1"/>
  </g>
</svg>
