<svg id="Group_15444" data-name="Group 15444" xmlns="http://www.w3.org/2000/svg" xmlns:xlink="http://www.w3.org/1999/xlink" width="291.916" height="165.13" viewBox="0 0 291.916 165.13">
  <defs>
    <clipPath id="clip-path">
      <rect id="Rectangle_7463" data-name="Rectangle 7463" width="291.916" height="165.13" fill="none"/>
    </clipPath>
    <clipPath id="clip-path-3">
      <rect id="Rectangle_7427" data-name="Rectangle 7427" width="45.992" height="34.407" fill="none"/>
    </clipPath>
    <clipPath id="clip-path-4">
      <path id="Path_23301" data-name="Path 23301" d="M320.87,185.689a25.811,25.811,0,0,0-4.423-.277c-2.406.072-10.348,2.8-8.747,3.827s20.081.338,20.081.338v-4.733c-2.6,1.52-4.388,1.183-6.911.845" transform="translate(-307.489 -184.844)" fill="none"/>
    </clipPath>
    <linearGradient id="linear-gradient" x1="-7.665" y1="10.538" x2="-7.64" y2="10.538" gradientUnits="objectBoundingBox">
      <stop offset="0" stop-color="#ffb8a8"/>
      <stop offset="1" stop-color="#ff9696"/>
    </linearGradient>
    <clipPath id="clip-path-6">
      <path id="Path_23311" data-name="Path 23311" d="M427.417,79.128c4.99,4.02-1.593,8.1-5.544,9.287,0,0-.056,9.305,9.217,9.678s14.747-9.941,14.747-9.941c-3.95-.922-6.668-3.375-7.423-6.1-1.186-4.288,1.227-7.659,3.046-10.642,0,0-11.6,3.679-14.044,7.721" transform="translate(-421.873 -71.407)" fill="none"/>
    </clipPath>
    <linearGradient id="linear-gradient-2" x1="-9.569" y1="4.664" x2="-9.546" y2="4.664" gradientUnits="objectBoundingBox">
      <stop offset="0" stop-color="#ffb7a7"/>
      <stop offset="1" stop-color="#ff9595"/>
    </linearGradient>
    <clipPath id="clip-path-8">
      <path id="Path_23313" data-name="Path 23313" d="M413.572,34.63c-3.96,18.847,5.571,26.637,8.716,27.109,3.08.462,10.168-2.28,14.945-10.192a5.331,5.331,0,0,0,6.1-3.263c.961-2.244.472-5.143-2.429-5.338-1.66-.182-2.9,3.072-2.9,3.072-2.7.572-1.752-5.532-1.752-5.532C422.98,35.947,420.9,26.327,420.9,26.327c-6.387,1.088-7.332,8.3-7.332,8.3" transform="translate(-412.624 -26.327)" fill="none"/>
    </clipPath>
    <linearGradient id="linear-gradient-3" x1="-4.878" y1="3.541" x2="-4.865" y2="3.541" xlink:href="#linear-gradient-2"/>
    <clipPath id="clip-path-10">
      <path id="Path_23330" data-name="Path 23330" d="M398.655,220.144c-1.537.421-4.768,2.721-8.441,3.564-7.551,2.233-10.054,3.422-9.732,4.266.225.59,1.665.3,2.7-.07a7.352,7.352,0,0,1,3.014-.615c.053.159-1.372,1.019-2.682,2.176-1.326,1.172-2.537,2.642-2.046,3.181.471.517,1.977-.789,3.35-1.861a6.893,6.893,0,0,1,2.9-1.585c.261.262-4.128,3.863-2.829,4.771.6.419,1.745-1.226,3.261-2.23,2.175-1.439,4.266-1.775,6.871-3.255.858-.488,3.685-.805,5.971-1.022,5.694-.539,4.905-7.6-.411-7.6a7.277,7.277,0,0,0-1.924.277" transform="translate(-380.454 -219.867)" fill="none"/>
    </clipPath>
    <linearGradient id="linear-gradient-4" x1="-6.845" y1="2.14" x2="-6.827" y2="2.14" xlink:href="#linear-gradient"/>
  </defs>
  <g id="Group_15443" data-name="Group 15443" clip-path="url(#clip-path)">
    <rect id="Rectangle_7415" data-name="Rectangle 7415" width="7.556" height="20.799" transform="translate(262.473 129.721)" fill="#c5bbc7"/>
    <rect id="Rectangle_7416" data-name="Rectangle 7416" width="2.699" height="20.799" transform="translate(267.331 129.721)" fill="#9d93a5"/>
    <g id="Group_15426" data-name="Group 15426">
      <g id="Group_15425" data-name="Group 15425" clip-path="url(#clip-path)">
        <path id="Path_23250" data-name="Path 23250" d="M480.024,249.906h7.167a2.337,2.337,0,0,0,2.337-2.337v-9.543H477.687v9.543a2.337,2.337,0,0,0,2.337,2.337" transform="translate(-217.356 -108.306)" fill="#363344"/>
        <path id="Path_23251" data-name="Path 23251" d="M440.3,289.725H380.061a5.246,5.246,0,0,1-5.247-5.246v-5.4a5.247,5.247,0,0,1,5.247-5.247H440.3a5.246,5.246,0,0,1,5.247,5.247v5.4a5.246,5.246,0,0,1-5.247,5.246" transform="translate(-170.547 -124.599)" fill="#403d51"/>
        <path id="Path_23252" data-name="Path 23252" d="M387.8,273.833h-7.742a5.246,5.246,0,0,0-5.247,5.247v5.4a5.246,5.246,0,0,0,5.247,5.247h7.334c.652-5.218.408-15.892.408-15.892" transform="translate(-170.547 -124.599)" fill="#363344"/>
        <path id="Path_23253" data-name="Path 23253" d="M380.061,290.037H440.3a5.247,5.247,0,0,0,5.247-5.247v4.674a5.247,5.247,0,0,1-5.247,5.247H380.061a5.246,5.246,0,0,1-5.247-5.247V284.79a5.246,5.246,0,0,0,5.247,5.247" transform="translate(-170.547 -129.585)" fill="#363344"/>
        <path id="Path_23254" data-name="Path 23254" d="M491.364,132.237c0,25.266-5.582,45.748-26.517,45.748S438.33,157.5,438.33,132.237s5.109-45.748,26.517-45.748,26.517,20.482,26.517,45.748" transform="translate(-199.448 -39.354)" fill="#363344"/>
        <path id="Path_23255" data-name="Path 23255" d="M483,132.237c0,25.266-5.582,45.748-26.517,45.748s-26.517-20.482-26.517-45.748,5.109-45.748,26.517-45.748S483,106.971,483,132.237" transform="translate(-195.643 -39.354)" fill="#403d51"/>
        <rect id="Rectangle_7417" data-name="Rectangle 7417" width="5.626" height="35.711" transform="translate(121.205 129.415)" fill="#ccae96"/>
        <rect id="Rectangle_7418" data-name="Rectangle 7418" width="89.039" height="5.871" transform="translate(0 105.443)" fill="#e8d4c0"/>
        <rect id="Rectangle_7419" data-name="Rectangle 7419" width="128.543" height="5.871" transform="translate(88.06 105.443)" fill="#ccae96"/>
        <rect id="Rectangle_7420" data-name="Rectangle 7420" width="78.031" height="20.303" transform="translate(11.008 110.335)" fill="#e8d4c0"/>
        <rect id="Rectangle_7421" data-name="Rectangle 7421" width="5.626" height="35.711" transform="translate(11.008 129.415)" fill="#e8d4c0"/>
        <rect id="Rectangle_7422" data-name="Rectangle 7422" width="2.813" height="35.711" transform="translate(85.247 129.415)" fill="#e8d4c0"/>
        <rect id="Rectangle_7423" data-name="Rectangle 7423" width="2.813" height="35.711" transform="translate(88.06 129.415)" fill="#ccae96"/>
        <rect id="Rectangle_7424" data-name="Rectangle 7424" width="115.823" height="20.303" transform="translate(88.06 110.335)" fill="#ccae96"/>
        <rect id="Rectangle_7425" data-name="Rectangle 7425" width="78.031" height="3.914" transform="translate(11.008 110.335)" fill="#ccae96"/>
        <rect id="Rectangle_7426" data-name="Rectangle 7426" width="115.823" height="3.914" transform="translate(88.06 110.335)" fill="#ad8e79"/>
        <path id="Path_23256" data-name="Path 23256" d="M215.531,156.548h48.4a1.574,1.574,0,0,0,1.507-1.555L260.177,113a.751.751,0,0,0-.8-.659h-48.4a1.574,1.574,0,0,0-1.507,1.556l5.258,41.988a.751.751,0,0,0,.8.658" transform="translate(-95.309 -51.119)" fill="#c4c5cf"/>
        <path id="Path_23257" data-name="Path 23257" d="M217.474,156.548h48.4a1.574,1.574,0,0,0,1.507-1.555L262.12,113a.751.751,0,0,0-.8-.659h-48.4a1.574,1.574,0,0,0-1.507,1.556l5.257,41.987a.751.751,0,0,0,.8.659" transform="translate(-96.193 -51.119)" fill="#403d51"/>
        <path id="Path_23258" data-name="Path 23258" d="M266.261,150.691l-4.547-35.533h-47.5l4.546,35.533Z" transform="translate(-97.473 -52.399)" fill="#f1edf2"/>
        <path id="Path_23259" data-name="Path 23259" d="M262.1,118.135l-.381-2.978h-47.5l.381,2.978Z" transform="translate(-97.473 -52.399)" fill="#a2a9d3"/>
        <path id="Path_23260" data-name="Path 23260" d="M220.476,191.243h38.172V188.6H220.459Z" transform="translate(-100.313 -85.815)" fill="#c4c5cf"/>
        <path id="Path_23261" data-name="Path 23261" d="M288.254,191.243H337.72a1.008,1.008,0,0,0,1.008-1.007V189.6a1.008,1.008,0,0,0-1.008-1.008H288.254a1.007,1.007,0,0,0-1.007,1.008v.632a1.007,1.007,0,0,0,1.007,1.007" transform="translate(-130.702 -85.815)" fill="#9d9fab"/>
        <path id="Path_23262" data-name="Path 23262" d="M314.832,189.721h21.023a.428.428,0,0,0,.428-.428v-.269a.428.428,0,0,0-.428-.428H314.832a.428.428,0,0,0-.428.428v.269a.428.428,0,0,0,.428.428" transform="translate(-143.059 -85.815)" fill="#403d51"/>
        <path id="Path_23263" data-name="Path 23263" d="M262.3,191.085h6.11a.276.276,0,0,0,.277-.276v-.174a.277.277,0,0,0-.277-.277H262.3a.277.277,0,0,0-.277.277v.174a.276.276,0,0,0,.277.276" transform="translate(-119.226 -86.616)" fill="#403d51"/>
        <path id="Path_23264" data-name="Path 23264" d="M247.184,191.085h6.11a.277.277,0,0,0,.277-.276v-.174a.277.277,0,0,0-.277-.277h-6.11a.277.277,0,0,0-.277.277v.174a.276.276,0,0,0,.277.276" transform="translate(-112.347 -86.616)" fill="#403d51"/>
        <path id="Path_23265" data-name="Path 23265" d="M221.43,190.466a.67.67,0,1,0,.67-.67.671.671,0,0,0-.67.67" transform="translate(-100.755 -86.361)" fill="#403d51"/>
        <path id="Path_23266" data-name="Path 23266" d="M272.985,140.925h-26.28a.158.158,0,0,1-.157-.181l1.045-7.51a.158.158,0,0,1,.157-.137h20.568a.158.158,0,0,1,.135.075l4.666,7.51a.158.158,0,0,1-.134.243m-26.1-.318H272.7l-4.469-7.193H247.89Z" transform="translate(-112.183 -60.562)" fill="#6b6780"/>
        <path id="Path_23267" data-name="Path 23267" d="M243.62,162.261h-9.083a.159.159,0,0,1-.158-.135l-2.234-15.067a.163.163,0,0,1,.038-.127.157.157,0,0,1,.12-.055h9.084a.158.158,0,0,1,.157.136l2.233,15.067a.161.161,0,0,1-.037.127.159.159,0,0,1-.12.054m-8.945-.317h8.761l-2.187-14.749h-8.762Z" transform="translate(-105.63 -66.832)" fill="#6b6780"/>
        <path id="Path_23268" data-name="Path 23268" d="M239.195,140.925h-9a.159.159,0,0,1-.151-.208l2.44-7.51a.158.158,0,0,1,.151-.11h7.6a.157.157,0,0,1,.157.18l-1.045,7.51a.158.158,0,0,1-.158.137m-8.777-.318h8.639l1-7.193h-7.3Z" transform="translate(-104.673 -60.562)" fill="#6b6780"/>
        <path id="Path_23269" data-name="Path 23269" d="M293.245,168.692H280.876a.159.159,0,0,1-.158-.135l-1.092-7.364a.161.161,0,0,1,.037-.127.158.158,0,0,1,.12-.055h12.37a.158.158,0,0,1,.157.136l1.092,7.364a.164.164,0,0,1-.038.127.158.158,0,0,1-.12.055m-12.232-.317h12.048l-1.046-7.046H279.968Z" transform="translate(-127.234 -73.263)" fill="#6b6780"/>
        <path id="Path_23270" data-name="Path 23270" d="M292.259,158.072H278.607a.158.158,0,0,1-.12-.055.161.161,0,0,1-.038-.126l.543-3.9a.158.158,0,0,1,.157-.137h10.684a.158.158,0,0,1,.135.075l2.425,3.9a.159.159,0,0,1-.135.243m-13.47-.318h13.185l-2.227-3.584H279.289Z" transform="translate(-126.699 -70.006)" fill="#6b6780"/>
        <path id="Path_23271" data-name="Path 23271" d="M276.937,168.692h-4.718a.159.159,0,0,1-.157-.135l-1.092-7.364a.161.161,0,0,1,.037-.127.158.158,0,0,1,.12-.055h4.718a.158.158,0,0,1,.157.136l1.092,7.364a.164.164,0,0,1-.038.127.158.158,0,0,1-.12.055m-4.581-.317h4.4l-1.045-7.046h-4.4Z" transform="translate(-123.295 -73.263)" fill="#6b6780"/>
        <path id="Path_23272" data-name="Path 23272" d="M274.706,158.072h-4.673a.159.159,0,0,1-.151-.208l1.268-3.9a.157.157,0,0,1,.151-.11h3.948a.157.157,0,0,1,.157.18l-.543,3.9a.158.158,0,0,1-.157.137m-4.455-.318h4.316l.5-3.584h-3.65Z" transform="translate(-122.798 -70.006)" fill="#6b6780"/>
        <path id="Path_23273" data-name="Path 23273" d="M231.586,168.692h-4.678a.159.159,0,0,1-.158-.135l-1.092-7.364a.161.161,0,0,1,.037-.127.158.158,0,0,1,.12-.055h4.678a.158.158,0,0,1,.157.136l1.092,7.364a.164.164,0,0,1-.038.127.158.158,0,0,1-.12.055m-4.54-.317H231.4l-1.045-7.046H226Z" transform="translate(-102.678 -73.263)" fill="#6b6780"/>
        <path id="Path_23274" data-name="Path 23274" d="M230,158.072h-5.273a.159.159,0,0,1-.151-.208l1.268-3.9a.157.157,0,0,1,.151-.11h3.426a.159.159,0,0,1,.158.135l.579,3.9a.161.161,0,0,1-.037.127.158.158,0,0,1-.12.055m-5.055-.318h4.871l-.531-3.584h-3.175Z" transform="translate(-102.181 -70.006)" fill="#6b6780"/>
        <path id="Path_23275" data-name="Path 23275" d="M266.855,162.261H251.2a.159.159,0,0,1-.158-.136l-2.233-15.066a.163.163,0,0,1,.037-.127.158.158,0,0,1,.12-.055h23.81a.158.158,0,0,1,.157.136l.565,3.8a.162.162,0,0,1-.037.128.159.159,0,0,1-.12.054H265.8l-.5,3.584h.459a.158.158,0,0,1,.157.136l1.092,7.363a.164.164,0,0,1-.037.127.158.158,0,0,1-.12.055m-15.513-.318h15.329l-1.045-7.046h-.5a.157.157,0,0,1-.12-.054.16.16,0,0,1-.038-.126l.543-3.9a.158.158,0,0,1,.158-.137h7.5l-.517-3.484h-23.49Z" transform="translate(-113.214 -66.832)" fill="#6b6780"/>
        <path id="Path_23276" data-name="Path 23276" d="M248.629,131.714h-4.057a.159.159,0,0,1-.157-.136l-.271-1.831a.164.164,0,0,1,.037-.128.16.16,0,0,1,.12-.055h4.056a.158.158,0,0,1,.157.135l.272,1.831a.161.161,0,0,1-.037.127.158.158,0,0,1-.12.055m-3.92-.318h3.736l-.225-1.513h-3.736Z" transform="translate(-111.089 -58.955)" fill="#6b6780"/>
        <path id="Path_23277" data-name="Path 23277" d="M248.259,128.629h-5.115a.159.159,0,0,1-.157-.135l-.222-1.5a.164.164,0,0,1,.037-.127.159.159,0,0,1,.12-.055h5.114a.158.158,0,0,1,.157.136l.223,1.5a.16.16,0,0,1-.037.128.157.157,0,0,1-.12.054m-4.978-.317h4.794l-.176-1.184h-4.794Z" transform="translate(-110.461 -57.701)" fill="#6b6780"/>
        <path id="Path_23278" data-name="Path 23278" d="M257.5,166.815h-2.557a.159.159,0,0,1-.157-.136l-.794-5.351a.163.163,0,0,1,.037-.127.158.158,0,0,1,.12-.055h2.558a.159.159,0,0,1,.157.136l.793,5.351a.164.164,0,0,1-.037.127.158.158,0,0,1-.12.055m-2.421-.318h2.237l-.747-5.033h-2.237Z" transform="translate(-115.571 -73.325)" fill="#6b6780"/>
        <path id="Path_23279" data-name="Path 23279" d="M266,166.815h-2.557a.159.159,0,0,1-.158-.136l-.793-5.351a.163.163,0,0,1,.037-.127.159.159,0,0,1,.12-.055h2.558a.159.159,0,0,1,.157.136l.793,5.351a.161.161,0,0,1-.037.127.158.158,0,0,1-.12.055m-2.42-.318h2.236l-.747-5.033h-2.236Z" transform="translate(-119.438 -73.325)" fill="#6b6780"/>
        <path id="Path_23280" data-name="Path 23280" d="M292.717,170.059h-3.51a.159.159,0,0,1-.158-.135L288.2,164.2a.162.162,0,0,1,.037-.128.159.159,0,0,1,.12-.054h3.51a.159.159,0,0,1,.157.135l.849,5.727a.164.164,0,0,1-.038.127.158.158,0,0,1-.12.054m-3.373-.317h3.189l-.8-5.409h-3.189Z" transform="translate(-131.136 -74.63)" fill="#6b6780"/>
        <path id="Path_23281" data-name="Path 23281" d="M255.635,154.223h-2.557a.159.159,0,0,1-.158-.136l-.619-4.177a.162.162,0,0,1,.037-.127.158.158,0,0,1,.12-.055h2.557a.159.159,0,0,1,.158.135l.619,4.178a.161.161,0,0,1-.037.127.158.158,0,0,1-.12.055m-2.42-.318h2.236l-.573-3.86h-2.236Z" transform="translate(-114.801 -68.129)" fill="#6b6780"/>
        <path id="Path_23282" data-name="Path 23282" d="M243.758,166.815H241.2a.159.159,0,0,1-.158-.136l-.793-5.351a.163.163,0,0,1,.037-.127.158.158,0,0,1,.12-.055h2.557a.159.159,0,0,1,.158.136l.794,5.351a.163.163,0,0,1-.037.127.158.158,0,0,1-.12.055m-2.421-.318h2.237l-.747-5.033h-2.237Z" transform="translate(-109.317 -73.325)" fill="#6b6780"/>
        <path id="Path_23283" data-name="Path 23283" d="M241.89,154.223h-2.558a.159.159,0,0,1-.157-.136l-.62-4.177a.16.16,0,0,1,.037-.127.158.158,0,0,1,.12-.055h2.558a.158.158,0,0,1,.157.135l.62,4.178a.163.163,0,0,1-.037.127.159.159,0,0,1-.12.055m-2.421-.318h2.237l-.573-3.86H238.9Z" transform="translate(-108.546 -68.129)" fill="#6b6780"/>
        <path id="Path_23284" data-name="Path 23284" d="M264.132,154.223h-2.558a.159.159,0,0,1-.158-.136l-.619-4.177a.16.16,0,0,1,.037-.127.158.158,0,0,1,.12-.055h2.557a.159.159,0,0,1,.158.135l.62,4.178a.163.163,0,0,1-.037.127.158.158,0,0,1-.12.055m-2.421-.318h2.237l-.573-3.86h-2.237Z" transform="translate(-118.667 -68.129)" fill="#6b6780"/>
        <path id="Path_23285" data-name="Path 23285" d="M284.88,167.619h-1.9a.158.158,0,0,1-.157-.135l-.488-3.286a.159.159,0,0,1,.157-.182h1.9a.158.158,0,0,1,.157.136l.487,3.285a.162.162,0,0,1-.037.128.159.159,0,0,1-.12.054m-1.764-.317h1.58l-.44-2.968h-1.58Z" transform="translate(-128.466 -74.63)" fill="#6b6780"/>
        <path id="Path_23286" data-name="Path 23286" d="M231.2,167.619h-1.9a.159.159,0,0,1-.158-.135l-.487-3.286a.161.161,0,0,1,.037-.127.158.158,0,0,1,.12-.055h1.9a.159.159,0,0,1,.158.136l.487,3.285a.162.162,0,0,1-.037.128.159.159,0,0,1-.12.054m-1.763-.317h1.579l-.44-2.968h-1.579Z" transform="translate(-104.041 -74.63)" fill="#6b6780"/>
        <path id="Path_23287" data-name="Path 23287" d="M276.466,167.619h-1.9a.159.159,0,0,1-.158-.135l-.487-3.286a.161.161,0,0,1,.037-.127.158.158,0,0,1,.12-.055h1.9a.159.159,0,0,1,.158.136l.487,3.285a.162.162,0,0,1-.037.128.159.159,0,0,1-.12.054M274.7,167.3h1.579l-.44-2.968h-1.579Z" transform="translate(-124.638 -74.63)" fill="#6b6780"/>
        <path id="Path_23288" data-name="Path 23288" d="M299.606,167.619h-1.9a.158.158,0,0,1-.157-.135l-.487-3.286a.161.161,0,0,1,.037-.127.158.158,0,0,1,.12-.055h1.9a.159.159,0,0,1,.158.136l.487,3.285a.162.162,0,0,1-.037.128.159.159,0,0,1-.12.054m-1.763-.317h1.579l-.44-2.968H297.4Z" transform="translate(-135.168 -74.63)" fill="#6b6780"/>
        <path id="Path_23289" data-name="Path 23289" d="M289.267,150.9h-2.69a.159.159,0,0,1-.158-.136l-.549-3.708a.161.161,0,0,1,.037-.127.158.158,0,0,1,.12-.055h2.689a.158.158,0,0,1,.157.136l.55,3.708a.164.164,0,0,1-.037.127.158.158,0,0,1-.12.055m-2.553-.318h2.369l-.5-3.39h-2.369Z" transform="translate(-130.075 -66.832)" fill="#6b6780"/>
        <path id="Path_23290" data-name="Path 23290" d="M284.331,150.9h-2.69a.159.159,0,0,1-.157-.136l-.55-3.708a.161.161,0,0,1,.037-.127.158.158,0,0,1,.12-.055h2.691a.158.158,0,0,1,.157.136l.549,3.708a.163.163,0,0,1-.037.127.159.159,0,0,1-.12.055m-2.553-.318h2.369l-.5-3.39h-2.369Z" transform="translate(-127.829 -66.832)" fill="#6b6780"/>
        <path id="Path_23291" data-name="Path 23291" d="M279.395,150.9h-2.689a.159.159,0,0,1-.158-.136l-.55-3.708a.161.161,0,0,1,.037-.127.158.158,0,0,1,.12-.055h2.689a.158.158,0,0,1,.157.136l.55,3.708a.164.164,0,0,1-.037.127.158.158,0,0,1-.12.055m-2.553-.318h2.369l-.5-3.39H276.34Z" transform="translate(-125.584 -66.832)" fill="#6b6780"/>
        <path id="Path_23292" data-name="Path 23292" d="M274.461,150.9h-2.689a.159.159,0,0,1-.158-.136l-.55-3.708a.161.161,0,0,1,.037-.127.158.158,0,0,1,.12-.055h2.689a.159.159,0,0,1,.158.136l.55,3.708a.164.164,0,0,1-.037.127.158.158,0,0,1-.12.055m-2.553-.318h2.369l-.5-3.39H271.4Z" transform="translate(-123.338 -66.832)" fill="#6b6780"/>
        <path id="Path_23293" data-name="Path 23293" d="M261.8,138.324h-9.613a.159.159,0,1,1,0-.317H261.8a.159.159,0,1,1,0,.317" transform="translate(-114.676 -62.796)" fill="#6b6780"/>
        <path id="Path_23294" data-name="Path 23294" d="M276.147,142.458H262.831a.159.159,0,1,1,0-.317h13.317a.159.159,0,1,1,0,.317" transform="translate(-119.52 -64.677)" fill="#6b6780"/>
        <path id="Path_23295" data-name="Path 23295" d="M276.883,138.324h-2.206a.159.159,0,1,1,0-.317h2.206a.159.159,0,1,1,0,.317" transform="translate(-124.911 -62.796)" fill="#6b6780"/>
        <path id="Path_23296" data-name="Path 23296" d="M291.421,126.291H281.284a.16.16,0,0,1-.158-.137l-.39-2.777a.157.157,0,0,1,.157-.181H291.03a.159.159,0,0,1,.157.136l.391,2.778a.158.158,0,0,1-.157.181m-10-.318h9.816l-.345-2.46h-9.816Z" transform="translate(-127.739 -56.056)" fill="#6b6780"/>
        <path id="Path_23297" data-name="Path 23297" d="M293.388,126.291h-7.782a.16.16,0,0,1-.157-.137l-.39-2.777a.163.163,0,0,1,.037-.127.16.16,0,0,1,.12-.054H293a.159.159,0,0,1,.157.136l.391,2.778a.158.158,0,0,1-.157.181m-7.643-.318h7.46l-.346-2.46H285.4Z" transform="translate(-129.706 -56.056)" fill="#6b6780"/>
        <g id="Group_15424" data-name="Group 15424" transform="translate(117.677 63.322)" opacity="0.2" style="mix-blend-mode: screen;isolation: isolate">
          <g id="Group_15423" data-name="Group 15423">
            <g id="Group_15422" data-name="Group 15422" clip-path="url(#clip-path-3)">
              <path id="Path_23298" data-name="Path 23298" d="M261.919,116.191H215.928l4.558,34.407Z" transform="translate(-215.928 -116.191)" fill="#fff"/>
            </g>
          </g>
        </g>
        <path id="Path_23299" data-name="Path 23299" d="M416.026,81.208c-2.28,4.448-7.175,9.051-6.42,14.425.033.238.389.163.4-.055.318-5.837,4.782-8.973,6.429-14.2a.225.225,0,0,0-.41-.173" transform="translate(-186.343 -36.901)" fill="#b37047"/>
      </g>
    </g>
    <g id="Group_15428" data-name="Group 15428" transform="translate(167.576 100.737)">
      <g id="Group_15427" data-name="Group 15427" clip-path="url(#clip-path-4)">
        <path id="Path_23300" data-name="Path 23300" d="M304.94,189.958l21.682.364V184.54l-21.682-.364Z" transform="translate(-306.329 -184.54)" fill="url(#linear-gradient)"/>
      </g>
    </g>
    <g id="Group_15430" data-name="Group 15430">
      <g id="Group_15429" data-name="Group 15429" clip-path="url(#clip-path)">
        <path id="Path_23302" data-name="Path 23302" d="M307.877,189.238c1.674-.744,5.51-.939,10.507-1,4.975-.057,5.957-1.636,6-2.317a6.466,6.466,0,0,0,3.569-1.081v4.732s-18.48.685-20.08-.338" transform="translate(-140.089 -84.107)" fill="#d37a85"/>
        <path id="Path_23303" data-name="Path 23303" d="M396.147,222.929c1.142,7.338-.652,19.9-9.132,22.342s-39.382,1.956-39.382,1.956a131.671,131.671,0,0,1-.408,14.675H331.407s-2.283-27.476,1.957-34.57c4.541-7.6,27.4-8.561,35.713-13.7,7.52-4.645,27.07,9.3,27.07,9.3" transform="translate(-150.517 -96.776)" fill="#9d9fab"/>
        <path id="Path_23304" data-name="Path 23304" d="M425.944,225.413c1.142,7.338-.652,19.9-9.132,22.342s-41.5,1.956-41.5,1.956a131.621,131.621,0,0,1-.408,14.675H359.084c-.186.364-3.027-27.584,1.957-33.1,3.312-3.666,14.6-4.931,23.478-7.029l2.287-5.038c7.665-4.4,39.138,6.2,39.138,6.2" transform="translate(-162.946 -99.26)" fill="#c4c5cf"/>
        <path id="Path_23305" data-name="Path 23305" d="M413.827,251.5c-17.245,2.2-29.965-1.468-29.965-1.468a71.231,71.231,0,0,1,.611,10.763,49.812,49.812,0,0,1-1.3,8.988h3.131a131.62,131.62,0,0,0,.408-14.675s33.023.489,41.5-1.956,10.273-15,9.132-22.342c0,0-.923-.311-2.49-.8l-5.623.7c.367,3.547,1,18.7-15.41,20.792" transform="translate(-174.352 -104.657)" fill="#9d9fab"/>
        <path id="Path_23306" data-name="Path 23306" d="M435.637,225.423s-3.931-1.324-9.353-2.842l-24.8-4.414a11.011,11.011,0,0,0-4.982,1.059l-2.287,5.038c-4.775,1.128-10.247,2.015-14.8,3.165.758,1.6,3.733.211,6.345-.336,0,0-5.687,4.526-4.709,5.382s2.752-.673,5.687-2.874c0,0-3.3,3.425-2.2,4.158s3.241-1.773,4.526-2.324,4.77-1.162,7.032-2.14c0,0,7.583,1.9,19.447-1.957,0,0,12.9,1.773,20.1-1.889,0-.009,0-.017,0-.026" transform="translate(-172.639 -99.27)" fill="#9d9fab"/>
        <path id="Path_23307" data-name="Path 23307" d="M407.318,61.156s-1.935-1.337-.887-5.4,6.718-11.466,6.619-15.219-8.711-5.693-11.726-10.637-1.524-7.785-1.524-7.785-3.587-.06-1.21-5.566,10.18-11.883,17.48-9.885c0,0,6.773-5.546,16.508-.774,12.475,6.115,13.04,18.4,17.857,22.885s14.57,6.444,17.356,15.3-4.607,11.991-4.607,11.991,6.909,15.775-8.406,24.486S425.831,75.5,425.831,75.5Z" transform="translate(-180.995 -1.799)" fill="#b37047"/>
        <path id="Path_23308" data-name="Path 23308" d="M376.688,105.133c-5.127,2.65-7.084,25.3-14.748,31.493-4.06,3.282-27.07,8.012-27.07,8.012s-2.936,1.956,0,8.806c0,0,26.662,1.732,35.713-5.239,10.214-7.867,14.35-26.886,14.35-26.886Z" transform="translate(-151.778 -47.837)" fill="#363344"/>
        <path id="Path_23309" data-name="Path 23309" d="M455.821,54.67a4.362,4.362,0,0,1,2.493,4.062,7.475,7.475,0,0,1-7.2,7.387s-3.139,4.34-1.662,8.125,5.909,6.279,5.909,6.279l-8.218-.185-4.893-9.972L453.42,53.839Z" transform="translate(-201.231 -24.498)" fill="#985d3f"/>
        <path id="Path_23310" data-name="Path 23310" d="M444.714,37.592s-9.713.1-16.039-4.3c-6.511-4.525-8.325-13.109-8.325-13.109s-6.439.877-9.293,6.074c-4.63,8.434,2.464,17.014,2.464,17.014l25.81,1.485.889-4.581a7.819,7.819,0,0,0,4.494-2.585" transform="translate(-186.324 -9.185)" fill="#985d3f"/>
      </g>
    </g>
    <g id="Group_15432" data-name="Group 15432" transform="translate(229.913 38.916)">
      <g id="Group_15431" data-name="Group 15431" clip-path="url(#clip-path-6)">
        <rect id="Rectangle_7430" data-name="Rectangle 7430" width="24.021" height="27.059" transform="translate(-0.056 0)" fill="url(#linear-gradient-2)"/>
      </g>
    </g>
    <g id="Group_15434" data-name="Group 15434">
      <g id="Group_15433" data-name="Group 15433" clip-path="url(#clip-path)">
        <path id="Path_23312" data-name="Path 23312" d="M432.144,85.321c1.59,2.812,6.97,10.328,16.855,5.1a20.7,20.7,0,0,0,1.468-2.265c-3.95-.922-6.668-3.376-7.423-6.1-1.186-4.288,1.226-7.66,3.045-10.642,0,0-11.6,3.679-14.044,7.721,2.743,2.209,1.989,4.438.1,6.193" transform="translate(-196.588 -32.491)" fill="#d37a85"/>
      </g>
    </g>
    <g id="Group_15436" data-name="Group 15436" transform="translate(224.873 14.348)">
      <g id="Group_15435" data-name="Group 15435" clip-path="url(#clip-path-8)">
        <rect id="Rectangle_7432" data-name="Rectangle 7432" width="44.481" height="43.69" transform="translate(-13.09 32.775) rotate(-72.908)" fill="url(#linear-gradient-3)"/>
      </g>
    </g>
    <g id="Group_15438" data-name="Group 15438">
      <g id="Group_15437" data-name="Group 15437" clip-path="url(#clip-path)">
        <path id="Path_23314" data-name="Path 23314" d="M421.058,74.171a24.565,24.565,0,0,0,10.158-.427s-1.21,4.133-5.12,4.232c-3.442.088-5.038-3.805-5.038-3.805" transform="translate(-191.589 -33.555)" fill="#4b3c59"/>
        <path id="Path_23315" data-name="Path 23315" d="M424.354,75.559A20.7,20.7,0,0,0,431.7,75.1a4.393,4.393,0,0,1-3.968,2.61,3.361,3.361,0,0,1-3.377-2.151" transform="translate(-193.089 -34.172)" fill="#fff4e9"/>
        <path id="Path_23316" data-name="Path 23316" d="M424.213,53.58a6.659,6.659,0,0,0-.841-5.771,5.976,5.976,0,0,1,1.716,2.767,5.9,5.9,0,0,1,.121,3.24,8.07,8.07,0,0,1-3.832,4.626,6.405,6.405,0,0,0,2.939,2.317,7.71,7.71,0,0,1-4.93-2.7c2.2-.965,4.161-2.327,4.827-4.475" transform="translate(-190.828 -21.754)" fill="#d37a85"/>
        <path id="Path_23317" data-name="Path 23317" d="M435.323,44.036c-.207,1.109,1.5.387,4.686,1.584,1.926.723,3.522,2.073,3.843,1.836s-.585-1.451-3.366-2.882c-2.245-1.156-5.011-1.352-5.163-.537" transform="translate(-198.072 -19.812)" fill="#985d3f"/>
        <path id="Path_23318" data-name="Path 23318" d="M418.981,43.588c.118,1.034-1.428.469-3.453,1.161-1.452.5-2.484,1.4-2.786,1.221s.286-1.295,2.1-2.213c1.67-.846,4.068-.814,4.141-.169" transform="translate(-187.771 -19.617)" fill="#985d3f"/>
        <path id="Path_23319" data-name="Path 23319" d="M437.725,53.638a1.5,1.5,0,1,0,1.6-1.706,1.674,1.674,0,0,0-1.6,1.706" transform="translate(-199.17 -23.628)" fill="#4b3c59"/>
        <path id="Path_23320" data-name="Path 23320" d="M442.474,54.865a4.2,4.2,0,0,0-3.455-3.374,1.871,1.871,0,0,0-2.113,1.833,2.429,2.429,0,0,1,2.109-.564,13.665,13.665,0,0,1,3.46,2.105" transform="translate(-198.792 -23.414)" fill="#4b3c59"/>
        <path id="Path_23321" data-name="Path 23321" d="M444.558,53.416s1.377-.7,1.475-.548-1,1.089-1,1.089Z" transform="translate(-202.282 -24.046)" fill="#4b3c59"/>
        <path id="Path_23322" data-name="Path 23322" d="M445.636,54.939a7.609,7.609,0,0,1,1.651-.187c.044.118-1.332.83-1.332.83Z" transform="translate(-202.772 -24.901)" fill="#4b3c59"/>
        <path id="Path_23323" data-name="Path 23323" d="M415.7,52.743c-.071.967.441,1.8,1.144,1.853s1.332-.682,1.4-1.649-.441-1.8-1.144-1.852-1.332.682-1.4,1.649" transform="translate(-189.149 -23.248)" fill="#4b3c59"/>
        <path id="Path_23324" data-name="Path 23324" d="M419.421,53.888a3.258,3.258,0,0,0-2.683-3.21c-1.222-.186-2.191,1.346-2.04,2.113a2.216,2.216,0,0,1,2.031-.892,5.5,5.5,0,0,1,2.693,1.989" transform="translate(-188.688 -23.052)" fill="#4b3c59"/>
        <path id="Path_23325" data-name="Path 23325" d="M415.391,51.7s-1.166-.892-1.279-.761.767,1.223.767,1.223Z" transform="translate(-188.424 -23.172)" fill="#4b3c59"/>
        <path id="Path_23326" data-name="Path 23326" d="M414.05,53.022a6.669,6.669,0,0,0-1.492-.431c-.057.109,1.106,1.016,1.106,1.016Z" transform="translate(-187.72 -23.923)" fill="#4b3c59"/>
        <path id="Path_23327" data-name="Path 23327" d="M463.6,63.362c-.549,1.293-1.67,2.054-2.5,1.7s-1.064-1.689-.515-2.982,1.67-2.054,2.5-1.7,1.064,1.689.516,2.982" transform="translate(-209.439 -27.435)" fill="#d27a84"/>
        <path id="Path_23328" data-name="Path 23328" d="M445.844,171.3c-2.2-16.145-8.28-25.821-8.414-31.944-.156-7.109,2.059-9.961,3.689-18.764.988-5.333,3.813-15.426-.263-17.578-4.74-2.5-6.128-2.173-6.128-2.173s-5.656,8.888-14.544,8.69S411.492,101,411.492,101a30.52,30.52,0,0,0-5.53,2.173s-4.713,11.645-4.543,18.009c.172,6.418,5.633,14.563,5.728,18.171.2,7.5-2.153,15.8-9.247,23.627,6.957,6.715,40.77,12.859,47.944,8.317" transform="translate(-181.052 -45.877)" fill="#403d51"/>
        <path id="Path_23329" data-name="Path 23329" d="M462.92,214.093a97.285,97.285,0,0,0-4.8-19.214l-22.688,18.616c11.269,2.346,23.5,3.125,27.492.6" transform="translate(-198.127 -88.673)" fill="#363344"/>
      </g>
    </g>
    <g id="Group_15440" data-name="Group 15440" transform="translate(207.341 119.824)">
      <g id="Group_15439" data-name="Group 15439" clip-path="url(#clip-path-10)">
        <rect id="Rectangle_7434" data-name="Rectangle 7434" width="29.994" height="23.193" transform="translate(-5.224 1.93) rotate(-21.377)" fill="url(#linear-gradient-4)"/>
      </g>
    </g>
    <g id="Group_15442" data-name="Group 15442">
      <g id="Group_15441" data-name="Group 15441" clip-path="url(#clip-path)">
        <path id="Path_23331" data-name="Path 23331" d="M391.851,232.306c2.174-1.438,4.266-1.775,6.87-3.255a19.473,19.473,0,0,1,5.152-.942l-2.521-7c-1.264.6-3.051,1.644-5.094,2.434,1.5.233,2.167,1.838,1.972,3.443-.2,1.671-4.892,3.751-6.4,4.688s-2.782,2.981-3.239,2.863c.6.419,1.745-1.227,3.262-2.23" transform="translate(-176.815 -100.608)" fill="#d37a85"/>
        <path id="Path_23332" data-name="Path 23332" d="M445.013,104.837c9.881,5.909,9.881,33.551,3.521,48.227-7.341,16.941-20.455,21.247-37.994,23.774a7.773,7.773,0,0,1-3.264-8.364s21.037-9.621,26.582-19.9C438.161,140.6,438.1,122,438.1,122Z" transform="translate(-185.209 -47.703)" fill="#403d51"/>
        <path id="Path_23333" data-name="Path 23333" d="M416.624,7.653c-4-3.3-9.916-1.249-13.5,1.76-3.086,2.589-7.508,8.846-4.94,12.932.188.3.7.112.588-.248-1.276-4.023,1.357-8.655,4.233-11.373,3.687-3.484,8.588-4.809,13.3-2.661.247.113.565-.206.317-.41" transform="translate(-180.829 -2.714)" fill="#b37047"/>
        <path id="Path_23334" data-name="Path 23334" d="M431.239,5.582a12.41,12.41,0,0,1,2.116-3.189,7.154,7.154,0,0,1,1.609-1.116c.565-.286,1.2-.4,1.734-.731a.29.29,0,0,0-.145-.536c-1.325-.142-2.844.958-3.765,1.814a6,6,0,0,0-2.074,3.614.284.284,0,0,0,.525.142" transform="translate(-195.982 0)" fill="#b37047"/>
        <path id="Path_23335" data-name="Path 23335" d="M432.8,5c5.877-4.605,13.03-4.331,18.879.276,4.883,3.846,7.019,9.186,9.182,14.815a.242.242,0,0,0,.466-.129c-2.657-11.476-17.342-26.974-28.9-15.336-.247.249.113.578.374.374" transform="translate(-196.723 -0.226)" fill="#b37047"/>
        <path id="Path_23336" data-name="Path 23336" d="M488.656,43.51c5.5,6.658,26.369,11.707,19.525,23-.229.378.32.824.622.481,3.143-3.566,1.682-8.417-1.394-11.54-5.236-5.316-13.122-6.809-18.51-12.184-.16-.16-.383.075-.244.244" transform="translate(-222.327 -19.663)" fill="#b37047"/>
        <path id="Path_23337" data-name="Path 23337" d="M507.327,119.626c7.817-5.7,11.5-16.33,6.486-25.074-.27-.47-.971-.054-.724.423,4.75,9.2,1.134,17.793-6.019,24.316-.175.16.06.478.258.334" transform="translate(-230.697 -42.929)" fill="#b37047"/>
        <path id="Path_23338" data-name="Path 23338" d="M432.993,13.46c-.574,4.663,2.075,10.742,6.255,13.081a.234.234,0,0,0,.282-.366,24.7,24.7,0,0,1-4.332-5.359,19.718,19.718,0,0,1-1.844-7.356.181.181,0,0,0-.362,0" transform="translate(-196.984 -6.045)" fill="#985d3f"/>
        <path id="Path_23339" data-name="Path 23339" d="M442.579,30.953a19.3,19.3,0,0,0,19.293,6.874c.541-.133.3-.892-.225-.815-7.386,1.094-13.561-.888-18.776-6.285-.143-.148-.426.055-.293.226" transform="translate(-201.366 -13.958)" fill="#985d3f"/>
        <path id="Path_23340" data-name="Path 23340" d="M471.784,22.988a23.612,23.612,0,0,0-4.429-7.461c-1.718-2.065-4.017-4.808-6.766-5.392-.285-.061-.505.359-.21.5,5.282,2.5,8.325,7.614,11.152,12.46.077.132.3.046.252-.106" transform="translate(-209.417 -4.609)" fill="#985d3f"/>
        <path id="Path_23341" data-name="Path 23341" d="M453.1,12.1a15.119,15.119,0,0,0-11.389-3.87.221.221,0,0,0,0,.443,27.968,27.968,0,0,1,5.835,1.1,39.184,39.184,0,0,1,5.283,2.677.225.225,0,0,0,.271-.352" transform="translate(-200.887 -3.719)" fill="#985d3f"/>
        <path id="Path_23342" data-name="Path 23342" d="M401.636,21.973c2.311-5.2,6.243-8.13,11.664-9.556.346-.091.289-.688-.087-.643-5.35.635-10.193,5.059-11.739,10.131-.028.094.122.162.163.069" transform="translate(-182.676 -5.356)" fill="#985d3f"/>
        <path id="Path_23343" data-name="Path 23343" d="M421.788,15.136a8.285,8.285,0,0,0-7.228,3.417c-.1.156.1.379.263.263a20.1,20.1,0,0,1,3.04-2.149,21.15,21.15,0,0,1,3.925-1.137c.18-.048.208-.365,0-.393" transform="translate(-188.621 -6.867)" fill="#985d3f"/>
        <path id="Path_23344" data-name="Path 23344" d="M484.355,42.255a15.745,15.745,0,0,0,5.873,8.168c4.529,3.355,10.415,4.807,11.9,10.982.079.325.639.265.6-.081-.409-3.454-2.775-5.833-5.613-7.648-2.291-1.465-4.811-2.515-6.981-4.171a19.051,19.051,0,0,1-5.583-7.334c-.053-.112-.235-.033-.2.084" transform="translate(-220.388 -19.164)" fill="#985d3f"/>
        <path id="Path_23345" data-name="Path 23345" d="M511.058,75.159c1.634,3.329,3.422,8.074,1.513,11.62a.257.257,0,0,0,.4.31c3.068-2.744.241-9.406-1.572-12.13a.2.2,0,0,0-.342.2" transform="translate(-232.529 -34.065)" fill="#985d3f"/>
        <path id="Path_23346" data-name="Path 23346" d="M496.187,81.8c6.744,6.674,13.732,19.106,6.836,28.23-.19.252.2.506.415.32,3.719-3.243,3.292-10.4,2.29-14.714a24.623,24.623,0,0,0-9.36-14.071c-.138-.1-.3.118-.181.235" transform="translate(-225.755 -37.102)" fill="#985d3f"/>
        <path id="Path_23347" data-name="Path 23347" d="M490.094,68.332a15.282,15.282,0,0,0,4.571,4.926,28.308,28.308,0,0,1,5.518,5.43c.06.081.22.038.179-.075-1.673-4.555-7.34-6.511-10.049-10.408a.127.127,0,0,0-.219.128" transform="translate(-222.994 -31.008)" fill="#985d3f"/>
        <path id="Path_23348" data-name="Path 23348" d="M478.247,51.221c.627,4.114,2.179,9.021,5.281,11.959.195.184.562-.065.388-.3-2.737-3.676-3.77-7.54-5.365-11.744a.158.158,0,0,0-.3.084" transform="translate(-217.61 -23.218)" fill="#985d3f"/>
        <path id="Path_23349" data-name="Path 23349" d="M502.538,124.734a12.651,12.651,0,0,1-4.025,10.224c-.217.187.06.5.293.379,3.364-1.7,4.79-7.247,4.218-10.669-.046-.272-.509-.212-.485.065" transform="translate(-226.797 -56.646)" fill="#985d3f"/>
        <path id="Path_23350" data-name="Path 23350" d="M472.638,66.6c-.305,9.255,10.55,14.376,11.562,23.546a.2.2,0,0,0,.408,0c.169-3.721-1.5-6.749-3.681-9.682-3.415-4.59-6.862-8.079-7.985-13.906-.034-.177-.3-.128-.3.041" transform="translate(-215.056 -30.237)" fill="#985d3f"/>
        <path id="Path_23351" data-name="Path 23351" d="M496.2,103.223a18.553,18.553,0,0,1,1.082,6.337.214.214,0,0,0,.418.057,8.4,8.4,0,0,0-1.174-6.531c-.1-.165-.4-.056-.326.137" transform="translate(-225.773 -46.869)" fill="#985d3f"/>
        <path id="Path_23352" data-name="Path 23352" d="M460.057,80.606c-1.12,3.16-.143,7.665,3.07,9.316a.242.242,0,0,0,.292-.379c-2.436-2.516-3.915-5.236-3.074-8.858a.15.15,0,0,0-.288-.08" transform="translate(-209.131 -36.63)" fill="#985d3f"/>
        <path id="Path_23353" data-name="Path 23353" d="M467.417,93.6c1,1.791,2.374,4.154,4.689,4.3.292.019.3-.382.064-.474a7.347,7.347,0,0,1-2.577-1.53,17.713,17.713,0,0,1-2.007-2.4.1.1,0,0,0-.169.1" transform="translate(-212.676 -42.524)" fill="#985d3f"/>
        <path id="Path_23354" data-name="Path 23354" d="M484.768,107.717c3.711,5.185,7.5,11.94,5.4,18.5-.078.244.308.415.42.177,2.794-5.9-1.479-14.574-5.538-18.9-.138-.147-.406.05-.284.219" transform="translate(-220.564 -48.89)" fill="#985d3f"/>
        <path id="Path_23355" data-name="Path 23355" d="M452.377,122.39c3.234,11.068,1.937,28.174-2.608,38.661-7.341,16.94-20.454,21.246-37.993,23.774a7.933,7.933,0,0,1-2.022-1.94s28.111-1.022,38.059-22.711c7.965-17.367,4.564-37.784,4.564-37.784" transform="translate(-186.445 -55.69)" fill="#363344"/>
        <path id="Path_23356" data-name="Path 23356" d="M418.939,154.435c14.8.367,18.59-8.928,18.59-8.928s-5.382,4.4-18.957,3.791-14.215-11.119-14.215-11.119c.114,4.268,2.567,9.3,4.226,13.252a18.5,18.5,0,0,0,10.356,3" transform="translate(-183.99 -62.874)" fill="#363344"/>
        <rect id="Rectangle_7435" data-name="Rectangle 7435" width="1.06" height="44.642" transform="translate(95.725 50.344)" fill="#9d9fab"/>
        <rect id="Rectangle_7436" data-name="Rectangle 7436" width="1.06" height="44.642" transform="translate(92.178 50.344)" fill="#9d9fab"/>
        <path id="Path_23357" data-name="Path 23357" d="M139.938,120.883h-.28l-.367-2.324h.576Z" transform="translate(-63.38 -53.946)" fill="#c4c5cf"/>
        <path id="Path_23358" data-name="Path 23358" d="M140.829,120.883h-.415l-.072-2.324h.854Z" transform="translate(-63.858 -53.946)" fill="#9d9fab"/>
        <path id="Path_23359" data-name="Path 23359" d="M139.867,118.559h-.576l.081.515h.511Z" transform="translate(-63.38 -53.946)" fill="#9d9fab"/>
        <rect id="Rectangle_7437" data-name="Rectangle 7437" width="1.169" height="2.731" transform="translate(75.177 62.004)" fill="#c4c5cf"/>
        <rect id="Rectangle_7438" data-name="Rectangle 7438" width="1.732" height="2.731" transform="translate(76.339 62.004)" fill="#9d9fab"/>
        <rect id="Rectangle_7439" data-name="Rectangle 7439" width="46.476" height="45.335" transform="translate(24.91 52.444)" fill="#363344"/>
        <rect id="Rectangle_7440" data-name="Rectangle 7440" width="34.612" height="1.06" transform="translate(27.274 55.929)" fill="#c4c5cf"/>
        <rect id="Rectangle_7441" data-name="Rectangle 7441" width="43.908" height="1.06" transform="translate(61.887 55.929)" fill="#9d9fab"/>
        <rect id="Rectangle_7442" data-name="Rectangle 7442" width="34.612" height="1.06" transform="translate(27.274 58.498)" fill="#c4c5cf"/>
        <rect id="Rectangle_7443" data-name="Rectangle 7443" width="43.908" height="1.06" transform="translate(61.887 58.498)" fill="#9d9fab"/>
        <rect id="Rectangle_7444" data-name="Rectangle 7444" width="3.506" height="7.175" transform="translate(72.283 54.951)" fill="#403d51"/>
        <rect id="Rectangle_7445" data-name="Rectangle 7445" width="5.198" height="7.175" transform="translate(75.768 54.951)" fill="#363344"/>
        <rect id="Rectangle_7446" data-name="Rectangle 7446" width="6.299" height="7.175" transform="translate(91.424 54.951)" fill="#363344"/>
        <rect id="Rectangle_7447" data-name="Rectangle 7447" width="1.06" height="44.642" transform="translate(38.241 50.344)" fill="#9d9fab"/>
        <rect id="Rectangle_7448" data-name="Rectangle 7448" width="1.06" height="44.642" transform="translate(34.694 50.344)" fill="#9d9fab"/>
        <rect id="Rectangle_7449" data-name="Rectangle 7449" width="6.299" height="7.175" transform="translate(33.94 54.951)" fill="#363344"/>
        <path id="Path_23360" data-name="Path 23360" d="M125.258,103.686H114.087a.53.53,0,1,1,0-1.06h11.171a.53.53,0,0,1,0,1.06" transform="translate(-51.67 -46.697)" fill="#9d9fab"/>
        <path id="Path_23361" data-name="Path 23361" d="M125.258,108.4H114.087a.53.53,0,1,1,0-1.06h11.171a.53.53,0,0,1,0,1.06" transform="translate(-51.67 -48.841)" fill="#9d9fab"/>
        <path id="Path_23362" data-name="Path 23362" d="M109.68,121.616h-4.856l-.008-2.191h4.856Z" transform="translate(-47.693 -54.34)" fill="#ebe8f2"/>
        <path id="Path_23363" data-name="Path 23363" d="M110.032,117.923h-6.123l-.007-1.8h6.123Z" transform="translate(-47.277 -52.839)" fill="#ebe8f2"/>
        <path id="Path_23364" data-name="Path 23364" d="M111.706,121.616h-2.967l-.005-2.191H111.7Z" transform="translate(-49.476 -54.34)" fill="#c0bccc"/>
        <path id="Path_23365" data-name="Path 23365" d="M112.023,117.923h-3.741l0-1.8h3.741Z" transform="translate(-49.268 -52.839)" fill="#c0bccc"/>
        <path id="Path_23366" data-name="Path 23366" d="M131.873,123.427H107.251l-2.551,8.99h31.46Z" transform="translate(-47.64 -56.162)" fill="#cbc6d6"/>
        <rect id="Rectangle_7450" data-name="Rectangle 7450" width="10.874" height="18.036" transform="translate(47.664 76.256)" fill="#ebe8f2"/>
        <path id="Path_23367" data-name="Path 23367" d="M89.161,123.427l-4.22,8.99H95.709l2.551-8.99Z" transform="translate(-38.65 -56.161)" fill="#ebe8f2"/>
        <rect id="Rectangle_7451" data-name="Rectangle 7451" width="14.808" height="8.815" transform="translate(77.308 85.477)" fill="#cbc6d6"/>
        <path id="Path_23368" data-name="Path 23368" d="M154.561,148.274h-12.79l-1.325,4.671h16.343Z" transform="translate(-63.905 -67.467)" fill="#cbc6d6"/>
        <rect id="Rectangle_7452" data-name="Rectangle 7452" width="5.565" height="8.815" transform="translate(42.099 85.477)" fill="#ebe8f2"/>
        <path id="Path_23369" data-name="Path 23369" d="M78.132,148.274l-2.192,4.671h6.278v-4.671Z" transform="translate(-34.554 -67.467)" fill="#ebe8f2"/>
        <path id="Path_23370" data-name="Path 23370" d="M125.415,149.145l1.325-4.671h9.194l-.017-4.551h-28.5V157.96h18.771v-8.815Z" transform="translate(-48.874 -63.667)" fill="#c0bccc"/>
        <path id="Path_23371" data-name="Path 23371" d="M114.231,163.411H111.17l-.025-6.406h3.062Z" transform="translate(-50.573 -71.44)" fill="#aaa4b5"/>
        <path id="Path_23372" data-name="Path 23372" d="M124.4,163.411h-3.062l-.024-6.406h3.062Z" transform="translate(-55.202 -71.44)" fill="#aaa4b5"/>
        <path id="Path_23373" data-name="Path 23373" d="M155.826,167.3h-4.2l-.026-6.855h4.2Z" transform="translate(-68.98 -73.003)" fill="#aaa4b5"/>
        <path id="Path_23374" data-name="Path 23374" d="M114.174,148.337h-3.062l-.019-5h3.062Z" transform="translate(-50.55 -65.221)" fill="#aaa4b5"/>
        <path id="Path_23375" data-name="Path 23375" d="M97.777,163.411H94.716l-.024-6.406h3.061Z" transform="translate(-43.086 -71.44)" fill="#c0bccc"/>
        <path id="Path_23376" data-name="Path 23376" d="M97.72,148.337H94.658l-.019-5H97.7Z" transform="translate(-43.062 -65.221)" fill="#c0bccc"/>
        <path id="Path_23377" data-name="Path 23377" d="M124.346,148.337h-3.062l-.019-5h3.061Z" transform="translate(-55.178 -65.221)" fill="#aaa4b5"/>
        <path id="Path_23378" data-name="Path 23378" d="M146.867,164.374h-2.275l-.015-3.933h2.275Z" transform="translate(-65.785 -73.003)" fill="#aaa4b5"/>
        <path id="Path_23379" data-name="Path 23379" d="M82.6,164.374H80.327l-.015-3.933h2.275Z" transform="translate(-36.544 -73.003)" fill="#c0bccc"/>
        <path id="Path_23380" data-name="Path 23380" d="M164.5,164.374H162.22l-.015-3.933h2.275Z" transform="translate(-73.806 -73.003)" fill="#aaa4b5"/>
        <path id="Path_23381" data-name="Path 23381" d="M134.1,139.923H136.9l-.026,4.53h-2.794Z" transform="translate(-61.006 -63.667)" fill="#aaa4b5"/>
        <path id="Path_23382" data-name="Path 23382" d="M152.612,139.923h2.794l-.026,4.53h-2.794Z" transform="translate(-69.429 -63.667)" fill="#aaa4b5"/>
        <path id="Path_23383" data-name="Path 23383" d="M146.441,139.923h2.794l-.026,4.53h-2.794Z" transform="translate(-66.622 -63.667)" fill="#aaa4b5"/>
        <path id="Path_23384" data-name="Path 23384" d="M140.271,139.923h2.794l-.026,4.53h-2.794Z" transform="translate(-63.814 -63.667)" fill="#aaa4b5"/>
        <rect id="Rectangle_7453" data-name="Rectangle 7453" width="5.649" height="8.815" transform="translate(71.66 85.477)" fill="#ebe8f2"/>
        <path id="Path_23385" data-name="Path 23385" d="M132.374,148.274l-2.192,4.671h5.594l1.325-4.671Z" transform="translate(-59.235 -67.467)" fill="#ebe8f2"/>
        <path id="Path_23386" data-name="Path 23386" d="M136.794,164.374h-2.275l-.015-3.933h2.275Z" transform="translate(-61.202 -73.003)" fill="#c0bccc"/>
        <rect id="Rectangle_7454" data-name="Rectangle 7454" width="28.506" height="0.673" transform="translate(58.536 76.314) rotate(-0.232)" fill="#aaa4b5"/>
        <rect id="Rectangle_7455" data-name="Rectangle 7455" width="10.874" height="0.73" transform="translate(47.664 76.256)" fill="#c0bccc"/>
        <rect id="Rectangle_7456" data-name="Rectangle 7456" width="14.808" height="0.651" transform="translate(77.308 85.477)" fill="#aaa4b5"/>
        <rect id="Rectangle_7457" data-name="Rectangle 7457" width="5.649" height="0.651" transform="translate(71.66 85.477)" fill="#c0bccc"/>
        <path id="Path_23387" data-name="Path 23387" d="M109.68,120.005h-4.856l-.008-.581h4.856Z" transform="translate(-47.693 -54.34)" fill="#c0bccc"/>
        <path id="Path_23388" data-name="Path 23388" d="M111.706,120.005h-2.967l-.005-.581H111.7Z" transform="translate(-49.476 -54.34)" fill="#aaa4b5"/>
        <rect id="Rectangle_7458" data-name="Rectangle 7458" width="5.565" height="0.743" transform="translate(42.099 85.477)" fill="#c0bccc"/>
        <rect id="Rectangle_7459" data-name="Rectangle 7459" width="22.178" height="7.665" transform="translate(51.98 40.865)" fill="#363344"/>
        <rect id="Rectangle_7460" data-name="Rectangle 7460" width="31.881" height="6.523" transform="translate(27.274 94.272)" fill="#403d51"/>
        <path id="Path_23389" data-name="Path 23389" d="M45.707,80.122v59.6H52.23V87.134H76.365v52.591h6.523v-59.6a5.137,5.137,0,0,0-5.137-5.137H50.844a5.137,5.137,0,0,0-5.137,5.137" transform="translate(-20.797 -34.12)" fill="#403d51"/>
        <rect id="Rectangle_7461" data-name="Rectangle 7461" width="41.666" height="6.523" transform="translate(64.129 94.272)" fill="#363344"/>
        <path id="Path_23390" data-name="Path 23390" d="M113.333,80.122v59.6h6.523V87.134h33.92v52.591H160.3v-59.6a5.137,5.137,0,0,0-5.137-5.137H118.47a5.137,5.137,0,0,0-5.137,5.137" transform="translate(-51.569 -34.12)" fill="#363344"/>
        <path id="Path_23391" data-name="Path 23391" d="M130.6,60.871a.794.794,0,0,1-.792-.755c-.025-.493-.538-12.133,4.753-17.616a8.92,8.92,0,0,1,6.659-2.788h.155a9.431,9.431,0,0,1,6.932,3c5.273,5.533,4.956,16.754,4.94,17.229a.8.8,0,0,1-.794.767h-.027a.794.794,0,0,1-.767-.82c0-.11.31-11.035-4.5-16.082a7.893,7.893,0,0,0-5.8-2.5,7.464,7.464,0,0,0-5.647,2.3c-4.814,4.986-4.317,16.322-4.312,16.436a.794.794,0,0,1-.754.832h-.04" transform="translate(-59.055 -18.07)" fill="#363344"/>
        <path id="Path_23392" data-name="Path 23392" d="M117.731,65.066a.8.8,0,0,1-.792-.749c-.022-.38-.493-9.348,3.173-13.231a5.674,5.674,0,0,1,8.284,0c3.667,3.882,3.2,12.851,3.175,13.231a.795.795,0,0,1-1.586-.091c.005-.086.453-8.666-2.743-12.05a4.087,4.087,0,0,0-5.974,0c-3.2,3.384-2.748,11.964-2.743,12.05a.794.794,0,0,1-.748.838l-.046,0" transform="translate(-53.195 -22.428)" fill="#363344"/>
        <path id="Path_23393" data-name="Path 23393" d="M173.259,136.657a.8.8,0,0,1-.738-.5c-1.46-3.679-1.191-14.463-.931-24.892.116-4.66.225-9.061.173-12.57l-.03-9.672a.794.794,0,0,1,.792-.8h0a.794.794,0,0,1,.794.792l.03,9.662c.053,3.531-.057,7.948-.173,12.625-.244,9.791-.52,20.888.82,24.266a.795.795,0,0,1-.738,1.087" transform="translate(-77.983 -40.144)" fill="#363344"/>
        <path id="Path_23394" data-name="Path 23394" d="M142.893,96.46h-.005a.793.793,0,0,1-.789-.8l.04-6.645a.765.765,0,0,1,.8-.789.793.793,0,0,1,.789.8l-.04,6.645a.8.8,0,0,1-.794.79" transform="translate(-64.658 -40.144)" fill="#363344"/>
      </g>
    </g>
  </g>
</svg>
