<?xml version="1.0" encoding="utf-8"?>
<!-- Generator: Adobe Illustrator 24.2.3, SVG Export Plug-In . SVG Version: 6.00 Build 0)  -->
<svg version="1.1" id="UI__x2F__UX_DESIGN" xmlns="http://www.w3.org/2000/svg" xmlns:xlink="http://www.w3.org/1999/xlink" x="0px"
	 y="0px" viewBox="0 0 3563.94 2376.08" style="enable-background:new 0 0 3563.94 2376.08;" xml:space="preserve">
<style type="text/css">
	.st0{fill:#5B7D99;}
	.st1{fill:#FFFFFF;}
	.st2{fill:#9BA2BD;}
	.st3{fill:#DDDFE6;}
	.st4{fill:#333333;}
	.st5{fill:#585971;}
	.st6{fill:#EBEDF6;}
	.st7{fill:#FDA601;}
	.st8{fill:#444444;}
	.st9{fill:#D5D8EB;}
	.st10{fill:#7E8DA7;}
	.st11{opacity:0.54;fill:#FFFFFF;}
	.st12{fill:#D35050;}
	.st13{fill:#FBAA78;}
	.st14{fill:#A82D2D;}
	.st15{fill:#191919;}
	.st16{fill:#606060;}
	.st17{fill:#120621;}
	.st18{fill:#FF9E26;}
	.st19{fill:none;stroke:#4C4C4C;stroke-width:6;stroke-miterlimit:10;}
	.st20{fill:#EBECED;}
	.st21{fill:#5267D1;}
	.st22{fill:#F2F2F2;}
	.st23{fill:#6F7184;}
	.st24{fill:#5F98F4;}
	.st25{fill:#A0A0A0;}
	.st26{fill:#FCB697;}
	.st27{fill:#D3D5DD;}
	.st28{fill:#BFBFBF;}
	.st29{fill:#727B8E;}
	.st30{fill:none;stroke:#727B8E;stroke-miterlimit:10;}
	.st31{fill:#7BC980;}
	.st32{fill:#4DA34F;}
	.st33{fill:#2F2FA5;}
</style>
<g>
	<rect id="Background" x="0" class="st0" width="3563.94" height="2376.08"/>
</g>
<g id="Font_1_">
	<path class="st1" d="M155.61,113.87h10.57v28.34c0,4.5,0.13,7.41,0.39,8.74c0.45,2.14,1.53,3.86,3.23,5.16
		c1.7,1.3,4.03,1.95,6.98,1.95c3,0,5.26-0.61,6.78-1.84c1.52-1.23,2.44-2.73,2.75-4.52c0.31-1.78,0.46-4.75,0.46-8.89v-28.95h10.57
		v27.48c0,6.28-0.29,10.72-0.86,13.31c-0.57,2.59-1.62,4.78-3.16,6.57c-1.53,1.78-3.59,3.21-6.16,4.27
		c-2.57,1.06-5.93,1.59-10.07,1.59c-5,0-8.79-0.58-11.37-1.73c-2.58-1.15-4.62-2.65-6.12-4.5c-1.5-1.84-2.49-3.78-2.96-5.8
		c-0.69-3-1.04-7.42-1.04-13.28V113.87z"/>
	<path class="st1" d="M208.15,166.19v-52.33h10.57v52.33H208.15z"/>
	<path class="st1" d="M243.67,167.09l12.96-54.11h7.53l-13.1,54.11H243.67z"/>
	<path class="st1" d="M289.64,113.87h10.57v28.34c0,4.5,0.13,7.41,0.39,8.74c0.45,2.14,1.53,3.86,3.23,5.16
		c1.7,1.3,4.03,1.95,6.98,1.95c3,0,5.26-0.61,6.78-1.84c1.52-1.23,2.44-2.73,2.75-4.52c0.31-1.78,0.46-4.75,0.46-8.89v-28.95h10.57
		v27.48c0,6.28-0.29,10.72-0.86,13.31c-0.57,2.59-1.62,4.78-3.16,6.57c-1.53,1.78-3.59,3.21-6.16,4.27
		c-2.57,1.06-5.93,1.59-10.07,1.59c-5,0-8.79-0.58-11.37-1.73c-2.58-1.15-4.62-2.65-6.12-4.5c-1.5-1.84-2.49-3.78-2.96-5.8
		c-0.69-3-1.04-7.42-1.04-13.28V113.87z"/>
	<path class="st1" d="M337.18,166.19l17.88-27.3l-16.2-25.02h12.35l10.49,16.81l10.28-16.81h12.24l-16.28,25.41l17.88,26.91h-12.74
		l-11.6-18.1l-11.64,18.1H337.18z"/>
	<path class="st1" d="M411.53,113.87h19.31c4.35,0,7.67,0.33,9.96,1c3.07,0.9,5.7,2.51,7.89,4.82c2.19,2.31,3.85,5.13,5,8.48
		c1.14,3.34,1.71,7.47,1.71,12.37c0,4.31-0.54,8.02-1.61,11.14c-1.31,3.81-3.18,6.89-5.6,9.24c-1.83,1.78-4.31,3.18-7.42,4.18
		c-2.33,0.74-5.45,1.11-9.35,1.11h-19.88V113.87z M422.1,122.72v34.66h7.89c2.95,0,5.08-0.17,6.39-0.5
		c1.71-0.43,3.13-1.15,4.27-2.18c1.13-1.02,2.05-2.71,2.77-5.05c0.71-2.34,1.07-5.54,1.07-9.58c0-4.05-0.36-7.15-1.07-9.32
		c-0.71-2.16-1.71-3.85-3-5.07c-1.28-1.21-2.92-2.03-4.89-2.46c-1.48-0.33-4.37-0.5-8.67-0.5H422.1z"/>
	<path class="st1" d="M464.36,166.19v-52.33h38.8v8.85h-28.23v11.6h26.27v8.82h-26.27v14.24h29.23v8.82H464.36z"/>
	<path class="st1" d="M510.44,149.17l10.28-1c0.62,3.45,1.87,5.98,3.77,7.6c1.89,1.62,4.44,2.43,7.66,2.43
		c3.4,0,5.97-0.72,7.69-2.16c1.72-1.44,2.59-3.12,2.59-5.05c0-1.24-0.36-2.29-1.09-3.16c-0.73-0.87-1.99-1.62-3.8-2.27
		c-1.24-0.43-4.06-1.19-8.46-2.28c-5.66-1.4-9.64-3.13-11.92-5.18c-3.21-2.88-4.82-6.39-4.82-10.53c0-2.66,0.76-5.16,2.27-7.48
		c1.51-2.32,3.69-4.09,6.53-5.3c2.84-1.21,6.28-1.82,10.3-1.82c6.57,0,11.51,1.44,14.83,4.32c3.32,2.88,5.06,6.72,5.23,11.53
		l-10.57,0.46c-0.45-2.69-1.42-4.62-2.91-5.8c-1.49-1.18-3.72-1.77-6.69-1.77c-3.07,0-5.47,0.63-7.21,1.89
		c-1.12,0.81-1.68,1.89-1.68,3.25c0,1.24,0.52,2.3,1.57,3.18c1.33,1.12,4.57,2.28,9.71,3.5s8.94,2.47,11.4,3.77
		c2.46,1.3,4.39,3.07,5.78,5.32c1.39,2.25,2.09,5.03,2.09,8.33c0,3-0.83,5.81-2.5,8.42c-1.67,2.62-4.02,4.56-7.07,5.84
		c-3.05,1.27-6.84,1.91-11.39,1.91c-6.62,0-11.7-1.53-15.24-4.59C513.24,159.48,511.13,155.02,510.44,149.17z"/>
	<path class="st1" d="M561.55,166.19v-52.33h10.57v52.33H561.55z"/>
	<path class="st1" d="M606.52,146.96v-8.82h22.77v20.84c-2.21,2.14-5.42,4.03-9.62,5.66c-4.2,1.63-8.45,2.44-12.76,2.44
		c-5.47,0-10.24-1.15-14.31-3.44c-4.07-2.3-7.13-5.58-9.17-9.85c-2.05-4.27-3.07-8.92-3.07-13.94c0-5.45,1.14-10.29,3.43-14.53
		c2.28-4.24,5.63-7.48,10.03-9.74c3.36-1.74,7.53-2.61,12.53-2.61c6.5,0,11.57,1.36,15.22,4.09c3.65,2.72,6,6.49,7.05,11.3
		l-10.49,1.96c-0.74-2.57-2.12-4.6-4.16-6.09c-2.03-1.49-4.57-2.23-7.62-2.23c-4.62,0-8.29,1.46-11.01,4.39
		c-2.72,2.93-4.09,7.27-4.09,13.03c0,6.21,1.38,10.87,4.14,13.97c2.76,3.11,6.38,4.66,10.85,4.66c2.21,0,4.43-0.43,6.66-1.3
		c2.22-0.87,4.13-1.92,5.73-3.16v-6.64H606.52z"/>
	<path class="st1" d="M639.15,166.19v-52.33h10.28l21.42,34.94v-34.94h9.82v52.33h-10.6l-21.09-34.12v34.12H639.15z"/>
</g>
<g id="Flor">
	<path class="st1" d="M2218.65,626.37l-107.16-63.69c-118.84-70.63-266.58-71.5-386.25-2.29l-187.21,108.28L457.45,1294.11
		c-133.1,76.8-133.12,268.89-0.03,345.71l899.7,513.1c231.88,133.85,517.48,134.17,749.66,0.84l968.65-557.16
		c172.02-98.78,175.1-345.85,5.6-448.89L2218.65,626.37z"/>
	<g>
		<path class="st2" d="M358.16,1452.23c0.15-2.1,0.34-4.19,0.55-6.29C358.39,1448,358.2,1450.1,358.16,1452.23z"/>
		<path class="st2" d="M3075.42,1596.6l-968.65,557.16c-232.18,133.33-517.78,133.01-749.66-0.84l-899.7-513.1
			c-61.8-35.67-94.89-96.2-99.29-158.5l-0.01,20.84c-0.04,81.38,43.37,156.59,113.85,197.27l837.62,477.27
			c289.75,173.15,580.17,150.43,840.48,0.95l940.56-541.03c71.23-40.9,115.24-116.7,115.45-198.84l0.16-60.89
			C3204.15,1462.82,3160.4,1547.81,3075.42,1596.6z"/>
	</g>
</g>
<g id="Man">
	<g id="Man_2_">
		<ellipse class="st3" cx="2470.43" cy="1715.87" rx="271.05" ry="139.85"/>
		<path class="st4" d="M2266.3,1487.67v195.63c0,0,45.02,20.92,75.56,3.47c1.09-6.55,6.86-196.88,6.86-196.88l2.63,152.5
			c0,0,42.27,29.18,72-1.64c0.64-3.22,0.72-77.53-1.12-138.19c-0.09-3.09,75.93-31.8,75.83-34.81
			c-1.16-37.78-80.44-42.83-80.44-42.83s-14.52-1.11-68.56-8.92C2305.41,1409.71,2266.3,1443.56,2266.3,1487.67z"/>
		<g id="laptop_2_">
			<path class="st5" d="M2285.9,1419.46l61.99,35.84c3.31,1.91,7.39,1.92,10.7,0l92.61-53.48c1.28-0.74,1.98-1.97,2.13-3.25v3.54
				c0,1.47-0.78,2.82-2.05,3.56l-92.68,53.45c-3.31,1.91-7.39,1.91-10.7,0l-62.08-35.83c-0.78-0.45-1.26-1.29-1.26-2.19v-3.68
				C2284.65,1418.23,2285.1,1418.99,2285.9,1419.46z"/>
			<g>
				<path class="st5" d="M2384.19,1352.04l0.51-75.65l-1.56-0.92c-0.96-0.56-2.15-0.57-3.12-0.01l-97.06,56.01
					c-2.01,1.16-3.25,3.3-3.25,5.57v72.86c0,1.19,0.63,2.29,1.66,2.89l2.05,1.19l97.41-56.12
					C2382.91,1356.65,2384.19,1354.44,2384.19,1352.04z"/>
				<path class="st6" d="M2347.89,1455.32l-61.99-35.84c-1.84-1.06-1.84-3.72,0-4.78l96.33-55.63c2.44-1.41,5.46-1.41,7.9,0
					l61.07,35.31c2.87,1.66,2.87,5.8,0,7.45l-92.61,53.48C2355.28,1457.23,2351.2,1457.23,2347.89,1455.32z"/>
				<path class="st4" d="M2386.18,1353.06v-74.25c0-2.11-2.28-3.43-4.11-2.37l-97.13,56.05c-2.01,1.16-3.25,3.3-3.25,5.62v72.85
					c0,2.72,2.95,4.43,5.31,3.07l95.82-55.16C2384.9,1357.67,2386.18,1355.46,2386.18,1353.06z"/>
				<path class="st7" d="M2384.08,1351.89v-69.79c0-2-2.16-3.24-3.89-2.25l-93.71,54.34c-1.9,1.1-3.07,3.13-3.07,5.32v68.46
					c0,2.58,2.79,4.19,5.02,2.91l92.46-53.5C2382.87,1356.26,2384.08,1354.16,2384.08,1351.89z"/>
				<path class="st2" d="M2420.3,1412.01c-4.37-2.54-17.07-9.86-22.09-12.76c-1.29-0.74-2.88-0.74-4.17,0.01l-38.67,22.46
					c-0.68,0.39-0.68,1.37,0,1.76l22.37,13.02c1.15,0.67,2.58,0.67,3.73,0l38.83-22.72
					C2420.98,1413.38,2420.98,1412.41,2420.3,1412.01z"/>
				<path class="st3" d="M2333.43,1430.7c-0.4-0.28-29.38-17.1-29.66-17.11c-0.28,0-11.5,6.53-11.5,6.53l29.73,17.25L2333.43,1430.7
					z"/>
				<path class="st3" d="M2420.99,1379.93c-0.4-0.28-29.38-17.1-29.66-17.11s-11.5,6.53-11.5,6.53l29.73,17.25L2420.99,1379.93z"/>
				<g>
					<path class="st8" d="M2403.55,1384.86l4.24,2.46c0.19,0.11,0.19,0.38,0,0.49l-3.99,2.31c-0.09,0.05-0.2,0.05-0.28,0l-4.24-2.46
						c-0.19-0.11-0.19-0.38,0-0.49l3.99-2.31C2403.35,1384.81,2403.46,1384.81,2403.55,1384.86z"/>
					<path class="st8" d="M2398.45,1387.81l4.24,2.46c0.19,0.11,0.19,0.38,0,0.49l-3.99,2.31c-0.09,0.05-0.2,0.05-0.28,0l-4.24-2.46
						c-0.19-0.11-0.19-0.38,0-0.49l3.99-2.31C2398.25,1387.76,2398.36,1387.76,2398.45,1387.81z"/>
					<path class="st8" d="M2393.73,1390.73l4.24,2.46c0.19,0.11,0.19,0.38,0,0.49l-3.99,2.31c-0.09,0.05-0.2,0.05-0.28,0l-4.24-2.46
						c-0.19-0.11-0.19-0.38,0-0.49l3.99-2.31C2393.53,1390.68,2393.64,1390.68,2393.73,1390.73z"/>
					<path class="st8" d="M2388.66,1393.64l4.29,2.49c0.17,0.1,0.17,0.35,0,0.45l-5.43,3.14c-0.08,0.05-0.18,0.05-0.26,0l-4.29-2.49
						c-0.17-0.1-0.17-0.35,0-0.45l5.43-3.14C2388.48,1393.6,2388.58,1393.6,2388.66,1393.64z"/>
					<path class="st8" d="M2382.34,1397.31l4.23,2.45c0.19,0.11,0.19,0.39,0,0.5l-24.33,14.06c-0.09,0.05-0.2,0.05-0.29,0
						l-4.23-2.45c-0.19-0.11-0.19-0.39,0-0.5l24.33-14.06C2382.14,1397.26,2382.25,1397.26,2382.34,1397.31z"/>
					<path class="st8" d="M2392.64,1384.85l5.28-3.05c0.09-0.05,0.2-0.05,0.28,0l4.24,2.46c0.19,0.11,0.19,0.38,0,0.49l-5.28,3.05
						c-0.09,0.05-0.2,0.05-0.28,0l-4.24-2.46C2392.45,1385.23,2392.45,1384.96,2392.64,1384.85z"/>
					<path class="st8" d="M2380.52,1379.51l6.84-3.94c0.09-0.05,0.2-0.05,0.28,0l4.24,2.46c0.19,0.11,0.19,0.38,0,0.49l-6.84,3.94
						c-0.09,0.05-0.2,0.05-0.28,0l-4.24-2.46C2380.33,1379.89,2380.33,1379.62,2380.52,1379.51z"/>
					<path class="st8" d="M2384.9,1383.17l7.75-4.48c0.09-0.05,0.2-0.05,0.29,0l4.19,2.46c0.19,0.11,0.19,0.38,0,0.49l-7.75,4.48
						c-0.09,0.05-0.2,0.05-0.29,0l-4.19-2.46C2384.71,1383.55,2384.71,1383.28,2384.9,1383.17z"/>
					<path class="st8" d="M2381.38,1378.39l-3.99,2.31c-0.09,0.05-0.2,0.05-0.28,0l-4.24-2.46c-0.19-0.11-0.19-0.38,0-0.49
						l3.99-2.31c0.09-0.05,0.2-0.05,0.28,0l4.24,2.46C2381.56,1378.01,2381.56,1378.29,2381.38,1378.39z"/>
					<path class="st8" d="M2377.96,1374.8l3.99-2.31c0.09-0.05,0.2-0.05,0.28,0l4.24,2.46c0.19,0.11,0.19,0.38,0,0.49l-3.99,2.31
						c-0.09,0.05-0.2,0.05-0.28,0l-4.24-2.46C2377.77,1375.18,2377.77,1374.91,2377.96,1374.8z"/>
					<path class="st8" d="M2376.27,1381.34l-3.99,2.31c-0.09,0.05-0.2,0.05-0.28,0l-4.24-2.46c-0.19-0.11-0.19-0.38,0-0.49
						l3.99-2.31c0.09-0.05,0.2-0.05,0.28,0l4.24,2.46C2376.46,1380.96,2376.46,1381.23,2376.27,1381.34z"/>
					<path class="st8" d="M2371.59,1384.24l-4.04,2.34c-0.08,0.05-0.18,0.05-0.26,0l-4.29-2.49c-0.17-0.1-0.17-0.35,0-0.45
						l4.04-2.34c0.08-0.05,0.18-0.05,0.26,0l4.29,2.49C2371.76,1383.89,2371.76,1384.14,2371.59,1384.24z"/>
					<path class="st8" d="M2366.49,1387.19l-4.04,2.34c-0.08,0.05-0.18,0.05-0.26,0l-4.29-2.49c-0.17-0.1-0.17-0.35,0-0.45
						l4.04-2.34c0.08-0.05,0.18-0.05,0.26,0l4.29,2.49C2366.66,1386.84,2366.66,1387.09,2366.49,1387.19z"/>
					<path class="st8" d="M2361.39,1390.14l-4.04,2.34c-0.08,0.05-0.18,0.05-0.26,0l-4.29-2.49c-0.17-0.1-0.17-0.35,0-0.45
						l4.04-2.34c0.08-0.05,0.18-0.05,0.26,0l4.29,2.49C2361.56,1389.79,2361.56,1390.04,2361.39,1390.14z"/>
					<path class="st8" d="M2356.39,1393.03l-4.04,2.34c-0.08,0.05-0.18,0.05-0.26,0l-4.29-2.49c-0.17-0.1-0.17-0.35,0-0.45
						l4.04-2.34c0.08-0.05,0.18-0.05,0.26,0l4.29,2.49C2356.56,1392.68,2356.56,1392.93,2356.39,1393.03z"/>
					<path class="st8" d="M2351.19,1396.03l-3.98,2.3c-0.09,0.05-0.2,0.05-0.29,0l-4.23-2.45c-0.19-0.11-0.19-0.39,0-0.5l3.98-2.3
						c0.09-0.05,0.2-0.05,0.29,0l4.23,2.45C2351.39,1395.64,2351.39,1395.92,2351.19,1396.03z"/>
					<path class="st8" d="M2346.09,1398.98l-3.98,2.3c-0.09,0.05-0.2,0.05-0.29,0l-4.23-2.45c-0.19-0.11-0.19-0.39,0-0.5l3.98-2.3
						c0.09-0.05,0.2-0.05,0.29,0l4.23,2.45C2346.28,1398.59,2346.28,1398.87,2346.09,1398.98z"/>
					<path class="st8" d="M2340.99,1401.93l-3.98,2.3c-0.09,0.05-0.2,0.05-0.29,0l-4.23-2.45c-0.19-0.11-0.19-0.39,0-0.5l3.98-2.3
						c0.09-0.05,0.2-0.05,0.29,0l4.23,2.45C2341.18,1401.54,2341.18,1401.81,2340.99,1401.93z"/>
					<path class="st8" d="M2335.89,1404.87l-3.98,2.3c-0.09,0.05-0.2,0.05-0.29,0l-4.23-2.45c-0.19-0.11-0.19-0.39,0-0.5l3.98-2.3
						c0.09-0.05,0.2-0.05,0.29,0l4.23,2.45C2336.08,1404.49,2336.08,1404.76,2335.89,1404.87z"/>
					<path class="st8" d="M2326.55,1404.86l4.26,2.47c0.18,0.11,0.18,0.37,0,0.47l-4.01,2.32c-0.08,0.05-0.19,0.05-0.27,0
						l-4.26-2.47c-0.18-0.11-0.18-0.37,0-0.47l4.01-2.32C2326.36,1404.82,2326.47,1404.82,2326.55,1404.86z"/>
					<path class="st8" d="M2321.5,1407.78l4.26,2.47c0.18,0.11,0.18,0.37,0,0.47l-4.01,2.32c-0.08,0.05-0.19,0.05-0.27,0l-4.26-2.47
						c-0.18-0.11-0.18-0.37,0-0.47l4.01-2.32C2321.31,1407.74,2321.42,1407.74,2321.5,1407.78z"/>
					<path class="st8" d="M2379.75,1385.35l-4.24-2.46c-0.19-0.11-0.19-0.38,0-0.49l3.99-2.31c0.09-0.05,0.2-0.05,0.28,0l4.24,2.46
						c0.19,0.11,0.19,0.38,0,0.49l-3.99,2.31C2379.95,1385.4,2379.84,1385.4,2379.75,1385.35z"/>
					<path class="st8" d="M2379.07,1385.85l-3.99,2.31c-0.09,0.05-0.2,0.05-0.28,0l-4.24-2.46c-0.19-0.11-0.19-0.38,0-0.49
						l3.99-2.31c0.09-0.05,0.2-0.05,0.28,0l4.24,2.46C2379.26,1385.47,2379.26,1385.74,2379.07,1385.85z"/>
					<path class="st8" d="M2374.39,1388.75l-4.04,2.34c-0.08,0.05-0.18,0.05-0.26,0l-4.29-2.49c-0.17-0.1-0.17-0.35,0-0.45
						l4.04-2.34c0.08-0.05,0.18-0.05,0.26,0l4.29,2.49C2374.56,1388.4,2374.56,1388.65,2374.39,1388.75z"/>
					<path class="st8" d="M2369.29,1391.7l-4.04,2.34c-0.08,0.05-0.18,0.05-0.26,0l-4.29-2.49c-0.17-0.1-0.17-0.35,0-0.45l4.04-2.34
						c0.08-0.05,0.18-0.05,0.26,0l4.29,2.49C2369.46,1391.35,2369.46,1391.6,2369.29,1391.7z"/>
					<path class="st8" d="M2364.19,1394.64l-4.04,2.34c-0.08,0.05-0.18,0.05-0.26,0l-4.29-2.49c-0.17-0.1-0.17-0.35,0-0.45
						l4.04-2.34c0.08-0.05,0.18-0.05,0.26,0l4.29,2.49C2364.36,1394.3,2364.36,1394.54,2364.19,1394.64z"/>
					<path class="st8" d="M2359.18,1397.53l-4.04,2.34c-0.08,0.05-0.18,0.05-0.26,0l-4.29-2.49c-0.17-0.1-0.17-0.35,0-0.45
						l4.04-2.34c0.08-0.05,0.18-0.05,0.26,0l4.29,2.49C2359.36,1397.19,2359.36,1397.44,2359.18,1397.53z"/>
					<path class="st8" d="M2353.99,1400.54l-3.98,2.3c-0.09,0.05-0.2,0.05-0.29,0l-4.23-2.45c-0.19-0.11-0.19-0.39,0-0.5l3.98-2.3
						c0.09-0.05,0.2-0.05,0.29,0l4.23,2.45C2354.18,1400.15,2354.18,1400.43,2353.99,1400.54z"/>
					<path class="st8" d="M2348.89,1403.48l-3.98,2.3c-0.09,0.05-0.2,0.05-0.29,0l-4.23-2.45c-0.19-0.11-0.19-0.39,0-0.5l3.98-2.3
						c0.09-0.05,0.2-0.05,0.29,0l4.23,2.45C2349.08,1403.1,2349.08,1403.37,2348.89,1403.48z"/>
					<path class="st8" d="M2343.79,1406.43l-3.98,2.3c-0.09,0.05-0.2,0.05-0.29,0l-4.23-2.45c-0.19-0.11-0.19-0.39,0-0.5l3.98-2.3
						c0.09-0.05,0.2-0.05,0.29,0l4.23,2.45C2343.98,1406.05,2343.98,1406.32,2343.79,1406.43z"/>
					<path class="st8" d="M2330.16,1408.74l4.01-2.32c0.08-0.05,0.19-0.05,0.27,0l4.26,2.47c0.18,0.11,0.18,0.37,0,0.47l-4.01,2.32
						c-0.08,0.05-0.19,0.05-0.27,0l-4.26-2.47C2329.98,1409.11,2329.98,1408.85,2330.16,1408.74z"/>
					<path class="st8" d="M2325.06,1411.69l4.01-2.32c0.08-0.05,0.19-0.05,0.27,0l4.26,2.47c0.18,0.11,0.18,0.37,0,0.47l-4.01,2.32
						c-0.08,0.05-0.19,0.05-0.27,0l-4.26-2.47C2324.88,1412.06,2324.88,1411.8,2325.06,1411.69z"/>
					<path class="st8" d="M2324.3,1412.35l4.26,2.47c0.18,0.11,0.18,0.37,0,0.47l-4.01,2.32c-0.08,0.05-0.19,0.05-0.27,0l-4.26-2.47
						c-0.18-0.11-0.18-0.37,0-0.47l4.01-2.32C2324.11,1412.3,2324.21,1412.3,2324.3,1412.35z"/>
					<path class="st8" d="M2314.92,1417.65l4.09-2.37c0.09-0.05,0.19-0.05,0.28,0l4.27,2.52c0.18,0.11,0.18,0.37,0,0.47l-0.41,0.24
						c-0.18,0.1-0.18,0.36,0,0.47l4.31,2.58c0.18,0.11,0.18,0.37,0,0.47l-2.73,1.58c-0.08,0.05-0.19,0.05-0.27,0l-9.52-5.49
						C2314.73,1418.01,2314.73,1417.75,2314.92,1417.65z"/>
					<path class="st8" d="M2383.87,1389l-4.19-2.46c-0.19-0.11-0.19-0.38,0-0.49l3.99-2.31c0.09-0.05,0.2-0.05,0.29,0l4.19,2.46
						c0.19,0.11,0.19,0.38,0,0.49l-3.99,2.31C2384.07,1389.05,2383.96,1389.05,2383.87,1389z"/>
					<path class="st8" d="M2378.77,1391.95l-4.19-2.46c-0.19-0.11-0.19-0.38,0-0.49l3.99-2.31c0.09-0.05,0.2-0.05,0.29,0l4.19,2.46
						c0.19,0.11,0.19,0.38,0,0.49l-3.99,2.31C2378.97,1392,2378.86,1392,2378.77,1391.95z"/>
					<path class="st8" d="M2369.83,1391.94l4.04-2.34c0.08-0.05,0.18-0.05,0.26,0l4.24,2.49c0.17,0.1,0.17,0.35,0,0.45l-4.04,2.34
						c-0.08,0.05-0.18,0.05-0.26,0l-4.24-2.49C2369.66,1392.29,2369.66,1392.04,2369.83,1391.94z"/>
					<path class="st8" d="M2364.73,1394.89l4.04-2.34c0.08-0.05,0.18-0.05,0.26,0l4.24,2.49c0.17,0.1,0.17,0.35,0,0.45l-4.04,2.34
						c-0.08,0.05-0.18,0.05-0.26,0l-4.24-2.49C2364.56,1395.23,2364.56,1394.99,2364.73,1394.89z"/>
					<path class="st8" d="M2359.63,1397.84l4.04-2.34c0.08-0.05,0.18-0.05,0.26,0l4.24,2.49c0.17,0.1,0.17,0.35,0,0.45l-4.04,2.34
						c-0.08,0.05-0.18,0.05-0.26,0l-4.24-2.49C2359.45,1398.18,2359.46,1397.94,2359.63,1397.84z"/>
					<path class="st8" d="M2354.63,1400.73l4.04-2.34c0.08-0.05,0.18-0.05,0.26,0l4.24,2.49c0.17,0.1,0.17,0.35,0,0.45l-4.04,2.34
						c-0.08,0.05-0.18,0.05-0.26,0l-4.24-2.49C2354.45,1401.07,2354.45,1400.83,2354.63,1400.73z"/>
					<path class="st8" d="M2349.52,1403.68l3.98-2.3c0.09-0.05,0.2-0.05,0.29,0l4.18,2.45c0.19,0.11,0.19,0.39,0,0.5l-3.98,2.3
						c-0.09,0.05-0.2,0.05-0.29,0l-4.18-2.45C2349.33,1404.06,2349.33,1403.79,2349.52,1403.68z"/>
					<path class="st8" d="M2344.42,1406.63l3.98-2.3c0.09-0.05,0.2-0.05,0.29,0l4.18,2.45c0.19,0.11,0.19,0.39,0,0.5l-3.98,2.3
						c-0.09,0.05-0.2,0.05-0.29,0l-4.18-2.45C2344.23,1407.01,2344.23,1406.74,2344.42,1406.63z"/>
					<path class="st8" d="M2339.32,1409.57l3.98-2.3c0.09-0.05,0.2-0.05,0.29,0l4.18,2.45c0.19,0.11,0.19,0.39,0,0.5l-3.98,2.3
						c-0.09,0.05-0.2,0.05-0.29,0l-4.18-2.45C2339.13,1409.96,2339.13,1409.69,2339.32,1409.57z"/>
					<path class="st8" d="M2334.2,1412.54l4.01-2.32c0.09-0.05,0.19-0.05,0.27,0l4.21,2.47c0.18,0.11,0.18,0.37,0,0.47l-4.01,2.32
						c-0.09,0.05-0.19,0.05-0.27,0l-4.21-2.47C2334.01,1412.9,2334.01,1412.64,2334.2,1412.54z"/>
					<path class="st8" d="M2329.1,1415.54l4.01-2.32c0.08-0.05,0.19-0.05,0.27,0l4.21,2.47c0.18,0.11,0.18,0.37,0,0.47l-4.01,2.32
						c-0.08,0.05-0.19,0.05-0.27,0l-4.21-2.47C2328.91,1415.91,2328.91,1415.65,2329.1,1415.54z"/>
					<path class="st8" d="M2324.04,1418.46l4.01-2.32c0.09-0.05,0.19-0.05,0.27,0l4.21,2.47c0.18,0.11,0.18,0.37,0,0.47l-4.01,2.32
						c-0.09,0.05-0.19,0.05-0.27,0l-4.21-2.47C2323.86,1418.83,2323.86,1418.57,2324.04,1418.46z"/>
					<path class="st8" d="M2396.15,1388.39l-3.99,2.31c-0.09,0.05-0.2,0.05-0.28,0l-4.24-2.46c-0.19-0.11-0.19-0.38,0-0.49
						l3.99-2.31c0.09-0.05,0.2-0.05,0.28,0l4.24,2.46C2396.34,1388,2396.34,1388.28,2396.15,1388.39z"/>
					<path class="st8" d="M2382.86,1390.69l3.99-2.31c0.09-0.05,0.2-0.05,0.28,0l4.24,2.46c0.19,0.11,0.19,0.38,0,0.49l-3.99,2.31
						c-0.09,0.05-0.2,0.05-0.28,0l-4.24-2.46C2382.68,1391.07,2382.68,1390.8,2382.86,1390.69z"/>
					<path class="st8" d="M2377.78,1393.63l4.04-2.34c0.08-0.05,0.18-0.05,0.26,0l4.29,2.49c0.17,0.1,0.17,0.35,0,0.45l-4.04,2.34
						c-0.08,0.05-0.18,0.05-0.26,0l-4.29-2.49C2377.6,1393.98,2377.6,1393.73,2377.78,1393.63z"/>
					<path class="st8" d="M2372.68,1396.58l4.04-2.34c0.08-0.05,0.18-0.05,0.26,0l4.29,2.49c0.17,0.1,0.17,0.35,0,0.45l-4.04,2.34
						c-0.08,0.05-0.18,0.05-0.26,0l-4.29-2.49C2372.5,1396.93,2372.5,1396.68,2372.68,1396.58z"/>
					<path class="st8" d="M2367.58,1399.53l4.04-2.34c0.08-0.05,0.18-0.05,0.26,0l4.29,2.49c0.17,0.1,0.17,0.35,0,0.45l-4.04,2.34
						c-0.08,0.05-0.18,0.05-0.26,0l-4.29-2.49C2367.4,1399.88,2367.4,1399.63,2367.58,1399.53z"/>
					<path class="st8" d="M2362.57,1402.42l4.04-2.34c0.08-0.05,0.18-0.05,0.26,0l4.29,2.49c0.17,0.1,0.17,0.35,0,0.45l-4.04,2.34
						c-0.08,0.05-0.18,0.05-0.26,0l-4.29-2.49C2362.4,1402.77,2362.4,1402.52,2362.57,1402.42z"/>
					<path class="st8" d="M2357.47,1405.37l3.98-2.3c0.09-0.05,0.2-0.05,0.29,0l4.23,2.45c0.19,0.11,0.19,0.39,0,0.5l-3.98,2.3
						c-0.09,0.05-0.2,0.05-0.29,0l-4.23-2.45C2357.28,1405.76,2357.28,1405.48,2357.47,1405.37z"/>
					<path class="st8" d="M2352.37,1408.2l3.98-2.3c0.09-0.05,0.2-0.05,0.29,0l4.23,2.45c0.19,0.11,0.19,0.39,0,0.5l-3.98,2.3
						c-0.09,0.05-0.2,0.05-0.29,0l-4.23-2.45C2352.18,1408.59,2352.18,1408.31,2352.37,1408.2z"/>
					<path class="st8" d="M2347.27,1411.15l3.98-2.3c0.09-0.05,0.2-0.05,0.29,0l4.23,2.45c0.19,0.11,0.19,0.39,0,0.5l-3.98,2.3
						c-0.09,0.05-0.2,0.05-0.29,0l-4.23-2.45C2347.08,1411.54,2347.08,1411.26,2347.27,1411.15z"/>
					<path class="st8" d="M2342.14,1414.17l4.01-2.32c0.08-0.05,0.19-0.05,0.27,0l4.26,2.47c0.18,0.11,0.18,0.37,0,0.47l-4.01,2.32
						c-0.08,0.05-0.19,0.05-0.27,0l-4.26-2.47C2341.96,1414.54,2341.96,1414.27,2342.14,1414.17z"/>
					<path class="st8" d="M2337.04,1417.12l4.01-2.32c0.08-0.05,0.19-0.05,0.27,0l4.26,2.47c0.18,0.11,0.18,0.37,0,0.47l-4.01,2.32
						c-0.08,0.05-0.19,0.05-0.27,0l-4.26-2.47C2336.86,1417.48,2336.86,1417.22,2337.04,1417.12z"/>
					<path class="st8" d="M2347.72,1420.09l1.86,1.08c0.18,0.11,0.18,0.37,0,0.47l-4.01,2.32c-0.08,0.05-0.19,0.05-0.27,0
						l-1.86-1.08c-0.18-0.11-0.18-0.37,0-0.47l4.01-2.32C2347.53,1420.04,2347.63,1420.04,2347.72,1420.09z"/>
					<path class="st8" d="M2339.42,1427.51l-4.01,2.32c-0.08,0.05-0.19,0.05-0.27,0l-1.86-1.08c-0.18-0.11-0.18-0.37,0-0.47
						l4.01-2.32c0.08-0.05,0.19-0.05,0.27,0l1.86,1.08C2339.6,1427.14,2339.6,1427.4,2339.42,1427.51z"/>
					<path class="st8" d="M2335.99,1423.99l4-2.31c0.08-0.05,0.19-0.05,0.27,0l2.27,1.26l2,1.16c0.18,0.11,0.18,0.37,0,0.47
						l-4.01,2.32c-0.08,0.05-0.19,0.05-0.27,0l-2.27-1.31l-1.98-1.1C2335.8,1424.36,2335.8,1424.09,2335.99,1423.99z"/>
					<path class="st8" d="M2350.41,1415.75l4.26,2.47c0.18,0.11,0.18,0.37,0,0.47l-4.01,2.32c-0.08,0.05-0.19,0.05-0.27,0
						l-4.26-2.47c-0.18-0.11-0.18-0.37,0-0.47l4.01-2.32C2350.22,1415.7,2350.33,1415.7,2350.41,1415.75z"/>
					<path class="st8" d="M2356.86,1411.98l4.23,2.45c0.19,0.11,0.19,0.39,0,0.5l-5.32,3.07c-0.09,0.05-0.2,0.05-0.29,0l-4.23-2.45
						c-0.19-0.11-0.19-0.39,0-0.5l5.32-3.07C2356.66,1411.92,2356.77,1411.92,2356.86,1411.98z"/>
					<path class="st8" d="M2340.54,1420.66l-10.45,6.04c-0.08,0.05-0.19,0.05-0.27,0l-4.26-2.47c-0.18-0.11-0.18-0.37,0-0.47
						l10.45-6.04c0.08-0.05,0.19-0.05,0.27,0l4.26,2.47C2340.72,1420.3,2340.72,1420.56,2340.54,1420.66z"/>
					<path class="st8" d="M2320.66,1413.68l-6.54,3.78c-0.08,0.05-0.19,0.05-0.27,0l-4.26-2.47c-0.18-0.11-0.18-0.37,0-0.47
						l6.54-3.78c0.08-0.05,0.19-0.05,0.27,0l4.26,2.47C2320.84,1413.31,2320.84,1413.57,2320.66,1413.68z"/>
					<path class="st8" d="M2374.52,1372.68l3.99-2.3c0.09-0.05,0.19-0.05,0.28,0l2.6,1.48c0.19,0.11,0.19,0.38,0,0.49l-3.99,2.3
						c-0.09,0.05-0.19,0.05-0.28,0l-2.6-1.48C2374.33,1373.06,2374.33,1372.79,2374.52,1372.68z"/>
					<path class="st8" d="M2308.51,1410.98l2.63,1.5c0.18,0.1,0.18,0.37,0,0.47l-2.42,1.4c-0.08,0.05-0.19,0.05-0.27,0l-2.63-1.5
						c-0.18-0.1-0.18-0.37,0-0.47l2.42-1.4C2308.33,1410.93,2308.43,1410.93,2308.51,1410.98z"/>
					<path class="st8" d="M2311.95,1412.32l-2.6-1.48c-0.19-0.11-0.19-0.39,0-0.5l64.04-37.02c0.09-0.05,0.2-0.05,0.29,0l2.6,1.48
						c0.19,0.11,0.19,0.39,0,0.5l-64.04,37.02C2312.15,1412.37,2312.04,1412.37,2311.95,1412.32z"/>
				</g>
				<path class="st2" d="M2413.35,1423.71l-1.25-0.66c-0.67-0.36-1.48-0.34-2.14,0.04l-14.29,8.25c-0.5,0.29-0.49,1.02,0.02,1.29
					l1.15,0.61L2413.35,1423.71z"/>
				<path class="st3" d="M2294.35,1426.03L2294.35,1426.03c0,0.47-0.51,0.76-0.91,0.53l-3.2-1.85c-0.22-0.13-0.36-0.37-0.36-0.62
					l0,0c0-0.47,0.5-0.76,0.91-0.53l3.17,1.8C2294.2,1425.5,2294.35,1425.76,2294.35,1426.03z"/>
				<path class="st3" d="M2301.65,1430.27L2301.65,1430.27c0,0.47-0.51,0.76-0.91,0.53l-3.2-1.85c-0.22-0.13-0.36-0.37-0.36-0.62
					l0,0c0-0.47,0.5-0.76,0.91-0.53l3.17,1.8C2301.5,1429.74,2301.65,1429.99,2301.65,1430.27z"/>
			</g>
			<path class="st5" d="M2373.5,1352.4l0.11-56.39l-0.9-0.48c-0.72-0.42-1.61-0.42-2.33-0.01l-72.53,41.6
				c-1.5,0.86-2.43,2.45-2.43,4.14v53.2c0,0.88,0.47,1.7,1.24,2.14l1.53,0.81l72.8-41.33
				C2372.54,1355.19,2373.5,1354.18,2373.5,1352.4z"/>
			<path class="st1" d="M2375.14,1351.96v-54.03c0-1.55-1.67-2.51-3.01-1.74l-72.55,42.07c-1.47,0.85-2.38,2.42-2.38,4.12v53.01
				c0,2,2.16,3.25,3.89,2.25l71.59-41.42C2374.2,1355.34,2375.14,1353.72,2375.14,1351.96z"/>
			<path class="st9" d="M2263.96,1425.67"/>
			<g>
				<path class="st10" d="M2279.76,1428.71C2279.76,1428.71,2279.76,1428.71,2279.76,1428.71
					C2279.76,1428.71,2279.76,1428.71,2279.76,1428.71z"/>
			</g>
			<path class="st3" d="M2366.43,1307.82v0.31c0,0.45-0.24,0.86-0.62,1.08l-55.59,32.21c-0.83,0.48-1.87-0.12-1.87-1.08v-0.31
				c0-0.45,0.24-0.86,0.62-1.08l55.59-32.21C2365.39,1306.26,2366.43,1306.86,2366.43,1307.82z"/>
			<path class="st3" d="M2356.49,1321.51v0.19c0,0.27-0.14,0.51-0.37,0.65l-33.3,19.3c-0.5,0.29-1.12-0.07-1.12-0.65v-0.19
				c0-0.27,0.14-0.51,0.37-0.65l33.3-19.3C2355.87,1320.58,2356.49,1320.94,2356.49,1321.51z"/>
			<path class="st3" d="M2340.87,1343.88v0.19c0,0.27-0.14,0.51-0.37,0.65l-33.3,19.3c-0.5,0.29-1.12-0.07-1.12-0.65v-0.19
				c0-0.27,0.14-0.51,0.37-0.65l33.3-19.3C2340.24,1342.95,2340.87,1343.31,2340.87,1343.88z"/>
			<path class="st3" d="M2356.63,1330.46v0.19c0,0.27-0.14,0.51-0.37,0.65l-33.3,19.3c-0.5,0.29-1.12-0.07-1.12-0.65v-0.19
				c0-0.27,0.14-0.51,0.37-0.65l33.3-19.3C2356.01,1329.53,2356.63,1329.89,2356.63,1330.46z"/>
			<path class="st3" d="M2320.49,1342.32v0.19c0,0.27-0.14,0.51-0.37,0.65l-12.92,7.44c-0.5,0.29-1.12-0.07-1.12-0.65v-0.19
				c0-0.27,0.14-0.51,0.37-0.65l12.92-7.44C2319.86,1341.39,2320.49,1341.75,2320.49,1342.32z"/>
			<path class="st3" d="M2340.09,1335.58v0.19c0,0.27-0.14,0.51-0.37,0.65l-12.92,7.44c-0.5,0.29-1.12-0.07-1.12-0.65v-0.19
				c0-0.27,0.14-0.51,0.37-0.65l12.92-7.44C2339.46,1334.64,2340.09,1335,2340.09,1335.58z"/>
			<path class="st3" d="M2320.49,1350.99v0.19c0,0.27-0.14,0.51-0.37,0.65l-12.92,7.44c-0.5,0.29-1.12-0.07-1.12-0.65v-0.19
				c0-0.27,0.14-0.51,0.37-0.65l12.92-7.44C2319.86,1350.05,2320.49,1350.41,2320.49,1350.99z"/>
			<path class="st3" d="M2356.63,1334.79v0.19c0,0.27-0.14,0.51-0.37,0.65l-12.92,7.44c-0.5,0.29-1.12-0.07-1.12-0.65v-0.19
				c0-0.27,0.14-0.51,0.37-0.65l12.92-7.44C2356.01,1333.86,2356.63,1334.22,2356.63,1334.79z"/>
			<path class="st3" d="M2324.25,1344.67v0.19c0,0.27-0.14,0.51-0.37,0.65l-16.68,9.64c-0.5,0.29-1.12-0.07-1.12-0.65v-0.19
				c0-0.27,0.14-0.51,0.37-0.65l16.68-9.64C2323.63,1343.73,2324.25,1344.09,2324.25,1344.67z"/>
			<path class="st3" d="M2356.63,1325.92v0.19c0,0.27-0.14,0.51-0.51,0.79l-12.92,7.44c-0.36,0.15-0.98-0.21-0.98-0.79v-0.19
				c0-0.27,0.14-0.51,0.37-0.65l12.92-7.44C2356.01,1324.98,2356.63,1325.34,2356.63,1325.92z"/>
			<path class="st3" d="M2340.09,1366.68v0.19c0,0.27-0.14,0.51-0.37,0.65l-12.92,7.44c-0.5,0.29-1.12-0.07-1.12-0.65v-0.19
				c0-0.27,0.14-0.51,0.37-0.65l12.92-7.44C2339.46,1365.74,2340.09,1366.1,2340.09,1366.68z"/>
			<path class="st3" d="M2324.25,1375.77v0.19c0,0.27-0.14,0.51-0.37,0.65l-16.68,9.64c-0.5,0.29-1.12-0.07-1.12-0.65v-0.19
				c0-0.27,0.14-0.51,0.37-0.65l16.68-9.64C2323.63,1374.83,2324.25,1375.19,2324.25,1375.77z"/>
			<path class="st3" d="M2356.63,1357.02v0.19c0,0.27-0.14,0.51-0.51,0.79l-12.92,7.44c-0.36,0.15-0.98-0.21-0.98-0.79v-0.19
				c0-0.27,0.14-0.51,0.37-0.65l12.92-7.44C2356.01,1356.09,2356.63,1356.45,2356.63,1357.02z"/>
			<path class="st3" d="M2356.49,1339.2v0.19c0,0.27-0.14,0.51-0.37,0.65l-33.3,19.3c-0.5,0.29-1.12-0.07-1.12-0.65v-0.19
				c0-0.27,0.14-0.51,0.37-0.65l33.3-19.3C2355.87,1338.26,2356.49,1338.62,2356.49,1339.2z"/>
			<path class="st3" d="M2340.87,1361.57v0.19c0,0.27-0.14,0.51-0.37,0.65l-33.3,19.3c-0.5,0.29-1.12-0.07-1.12-0.65v-0.19
				c0-0.27,0.14-0.51,0.37-0.65l33.3-19.3C2340.24,1360.63,2340.87,1360.99,2340.87,1361.57z"/>
			<path class="st3" d="M2356.63,1348.14v0.19c0,0.27-0.14,0.51-0.37,0.65l-33.3,19.3c-0.5,0.29-1.12-0.07-1.12-0.65v-0.19
				c0-0.27,0.14-0.51,0.37-0.65l33.3-19.3C2356.01,1347.21,2356.63,1347.57,2356.63,1348.14z"/>
			<path class="st3" d="M2320.49,1360v0.19c0,0.27-0.14,0.51-0.37,0.65l-12.92,7.44c-0.5,0.29-1.12-0.07-1.12-0.65v-0.19
				c0-0.27,0.14-0.51,0.37-0.65l12.92-7.44C2319.86,1359.07,2320.49,1359.43,2320.49,1360z"/>
			<path class="st3" d="M2340.09,1353.26v0.19c0,0.27-0.14,0.51-0.37,0.65l-12.92,7.44c-0.5,0.29-1.12-0.07-1.12-0.65v-0.19
				c0-0.27,0.14-0.51,0.37-0.65l12.92-7.44C2339.46,1352.32,2340.09,1352.68,2340.09,1353.26z"/>
			<path class="st3" d="M2320.49,1368.67v0.19c0,0.27-0.14,0.51-0.37,0.65l-12.92,7.44c-0.5,0.29-1.12-0.07-1.12-0.65v-0.19
				c0-0.27,0.14-0.51,0.37-0.65l12.92-7.44C2319.86,1367.73,2320.49,1368.09,2320.49,1368.67z"/>
			<path class="st3" d="M2356.63,1352.48v0.19c0,0.27-0.14,0.51-0.37,0.65l-12.92,7.44c-0.5,0.29-1.12-0.07-1.12-0.65v-0.19
				c0-0.27,0.14-0.51,0.37-0.65l12.92-7.44C2356.01,1351.54,2356.63,1351.9,2356.63,1352.48z"/>
			<path class="st3" d="M2324.25,1362.35v0.19c0,0.27-0.14,0.51-0.37,0.65l-16.68,9.64c-0.5,0.29-1.12-0.07-1.12-0.65v-0.19
				c0-0.27,0.14-0.51,0.37-0.65l16.68-9.64C2323.63,1361.41,2324.25,1361.77,2324.25,1362.35z"/>
			<path class="st3" d="M2356.63,1343.6v0.19c0,0.27-0.14,0.51-0.51,0.79l-12.92,7.44c-0.36,0.15-0.98-0.21-0.98-0.79v-0.19
				c0-0.27,0.14-0.51,0.37-0.65l12.92-7.44C2356.01,1342.66,2356.63,1343.02,2356.63,1343.6z"/>
			<polygon class="st3" points="2360.11,1355.86 2366.43,1352.24 2366.43,1314.67 2360.11,1318.3 			"/>
			<g>
				<polygon class="st11" points="2297.93,1327.56 2300.21,1326.24 2368.48,1364.58 2366.2,1365.9 				"/>
				<path class="st11" d="M2380.9,1357.39l-7.89,4.57l-68.28-38.34l9.26-5.37l68.12,38.25
					C2381.74,1356.84,2381.34,1357.14,2380.9,1357.39z"/>
				<polygon class="st11" points="2293.41,1330.18 2361.67,1368.52 2359.09,1370.01 2290.83,1331.68 				"/>
			</g>
		</g>
		<path class="st12" d="M2425.34,1380.04c89.8-106.64,44.11-123.32,44.11-123.32c-38.41-36.57-89.14,68.81-89.14,68.81l-23.09,38.92
			l-61.49-11.31l-9.96,23.9c0,0,63.03,55.52,91.15,39.62C2405.29,1400.62,2429.65,1375.47,2425.34,1380.04z"/>
		<path class="st12" d="M2431.67,1493.69c17.16,5.79,35.55,8.1,47.74,8.67c6.77,0.32,16.59,0.35,24.05-0.36
			c56.48-5.42,73.13-19.67,70.56-55.13c-2.71-37.41,5.42-120.91,5.42-120.91c21.18-149.08-59.99-113.21-59.99-113.21
			c-0.24-0.59-4.78,2.06-10,5.36c-9.38,5.92-19.95,9.68-30.95,11.06c-14.37,1.79-35.31,8.96-52.86,28.89
			c-76.84,87.22-5.94,107.28-6.58,119.84c-0.65,12.82,0.34,20.18,0.68,36.6c0.06,3.12,0.71,11.23-1.51,32.85
			c0,0-2.75,23.26-0.05,34.39C2419.53,1487.31,2426.22,1491.85,2431.67,1493.69z"/>
		<path class="st13" d="M2444.29,1134.47c-1.68,0.62-11.71,89.02,29.78,79.09c0,0-0.1,10.41-3.62,17.02c0,0,29.44,10.59,47.2-4.02
			c3.13-2.58,4.33-6.84,3.04-10.68c-1.24-3.7-3.06-9.02-5.27-15.19C2509.58,1184.33,2524.05,1105.02,2444.29,1134.47z"/>
		<path class="st1" d="M2468.5,1231.07l4.06-6.11c0,0,33.58,9.17,46.72-12.22c0,0,10.56,14.51-15.84,20.47
			C2477.9,1238.39,2468.5,1231.07,2468.5,1231.07z"/>
		<path class="st14" d="M2425.71,1379.6c0.24-0.21,0.13-0.09-0.37,0.44C2425.46,1379.9,2425.58,1379.75,2425.71,1379.6
			c-0.55,0.5-2.99,2.83-6.83,6.25c0.23,14.12,1.09,31.42,0.94,38.47c35.03-24.8,57.75-69.12,54.13-116.74
			C2466.39,1325.15,2451.81,1348.55,2425.71,1379.6z"/>
		<g>
			<path class="st4" d="M2557.51,1213.51c0.01,0,0.01,0.01,0.02,0.01C2557.52,1213.52,2557.51,1213.52,2557.51,1213.51
				C2557.51,1213.51,2557.51,1213.51,2557.51,1213.51z"/>
			<path class="st12" d="M2601.9,1356.68l-1.6-36.74c-0.79-62.89-22.43-90.82-36.92-102.33c14.78,12.7,25.42,42.45,16.06,108.34
				c0,0-7.55,51.76-6.94,89.31l23.48-36.61C2600.17,1372.11,2602.24,1364.44,2601.9,1356.68z"/>
		</g>
		<path class="st14" d="M2582.18,1298.83L2582.18,1298.83c-0.56,8.28-1.51,17.29-2.9,27.12c0,0-5.1,34.96-6.58,68.25c0,0,0,0,0,0
			C2588.64,1364.27,2582.18,1298.83,2582.18,1298.83z"/>
		<path class="st15" d="M2572.15,1469.28c-4.96,15.85-19.06,24.85-47.08,29.86c-2.19-5.32-5.83-22.6-5.83-22.6
			s-2.89,17.45-1.76,23.81c-4.37,0.62-9.03,1.17-14.01,1.65c-7.47,0.72-17.29,0.68-24.05,0.36c-12.19-0.57-30.57-2.88-47.74-8.67
			c-3.92-1.32-8.49-4.05-11.25-7.56c0,6.55,0,26.36,0,26.36S2554.24,1537.47,2572.15,1469.28L2572.15,1469.28z"/>
		<g>
			<path class="st15" d="M2351.36,1642.4l-0.62-39l-4.72-1.26c0,0-0.92-0.03-2.54-0.2c-0.29,20.62-0.57,38.98-0.82,53.3
				c5.41,1.99,11.27,4.12,17.52,6.45v6.14c0,0,43.28,24.86,63.29-5.47v-29.39c0,4.66-0.04,7.37-0.12,7.77
				C2393.63,1671.58,2351.36,1642.4,2351.36,1642.4z"/>
			<path class="st15" d="M2423.44,1622.81c0.02,4.02,0.04,7.44,0.04,10.18v-10.17L2423.44,1622.81z"/>
		</g>
		<path class="st15" d="M2341.87,1682.12c-30.55,17.46-75.56-3.47-75.56-3.47v-36.44l-1.13-0.3c0,0-7.29-0.23-17.17-3.29
			c-11.5-3.56-23.86,3.08-26.71,14.78c-0.06,0.26-0.56,7.89-0.61,8.15c-3.94,19.13,19.57,25.31,58.66,39.91v6.14
			c0,0,43.28,24.86,63.29-5.47v-39.56l-0.18-0.05C2342.21,1674.13,2342.02,1681.23,2341.87,1682.12z"/>
		<g>
			<path class="st16" d="M2279.34,1701.47c-34.49-12.89-56.85-19.22-58.92-33.67c-2.33,17.89,20.94,24.13,58.92,38.32V1701.47z"/>
			<path class="st16" d="M2279.34,1707.61v4.65c0,0,43.28,24.86,63.29-5.47v-4.65C2322.62,1732.47,2279.34,1707.61,2279.34,1707.61z
				"/>
		</g>
		<path class="st16" d="M2360.15,1667.71v4.65c0,0,43.28,24.86,63.29-5.47v-4.65C2403.44,1692.57,2360.15,1667.71,2360.15,1667.71z"
			/>
		<path class="st16" d="M2342.59,1659.75c5.42,2,11.29,4.13,17.57,6.47v-4.65c-6.24-2.33-12.09-4.45-17.48-6.44
			C2342.64,1656.72,2342.61,1658.26,2342.59,1659.75z"/>
		<rect x="2316.39" y="1504.81" class="st1" width="1.2" height="176.18"/>
		<polygon class="st1" points="2400.31,1650.35 2393.98,1519.76 2395.18,1519.73 2401.51,1650.32 		"/>
		<path class="st13" d="M2294.21,1356.78L2294.21,1356.78l-5.61-10.17c-1.07-1.95-3.91-2-4.98-0.05c-1.1,2,0.06,4.45,0.51,6.86
			c-4.35,0.17-4.43-1.36-4.43-7.99c0-2.25-14.17,2.47-15.66,4.16c-3.53,4-5.2,14.13,5.9,20.43c9.32,5.29,12.56,3.23,12.56,3.23
			l4.28,1.78L2294.21,1356.78z"/>
		<path class="st13" d="M2279.7,1345.42c0-2.25-13.16,0.89-15.66,4.16c-3.24,4.24-5.2,14.13,5.9,20.43"/>
		<path class="st17" d="M2454.11,1091.57c-16.74-3.62-49.08,28.6,0.44,47.36c0,0-2.67,34.92,6.98,36.63
			c2.96,0.53,2.67-34.32,18.13,8.85c15.46,43.16,33.76,17.35,36.82,12.27c0.89-1.48,24.85-17.36,15.16-32.55
			c7,0,24.52-24.11,1.5-34.61c8.12-6.54,9.76-28.76-13.05-26.8c0,0-8.64-24.61-30.67-11.15
			C2489.41,1091.57,2473.49,1070.15,2454.11,1091.57z"/>
	</g>
	<g id="Chair">
		<path class="st18" d="M2697.56,1494.44c-0.59-2.53-28.8-101.87-28.8-101.87s-25.2-59.39-94.67-36.35s-86.03,86.75-86.03,86.75
			s-39.06,98.99-103.22,58.67s-51.56,49.67-51.56,49.67l103.67,60.47c0,0,60.47,29.52,122.38,4.32
			c61.91-25.2,119.14-64.43,119.14-64.43S2705.84,1530.07,2697.56,1494.44z"/>
		<g>
			<path class="st5" d="M2380.07,1594.44l18.67,10.89l-36.4,117.76c-1.72,5.56-7.61,8.67-13.17,6.95l0,0
				c-5.56-1.72-8.67-7.61-6.95-13.17L2380.07,1594.44z"/>
		</g>
		<path class="st5" d="M2545,1636.85l27.92,192.14c0.84,5.75-3.15,11.1-8.91,11.93l0,0c-5.75,0.84-11.1-3.15-11.93-8.91
			l-27.76-191.03C2531.08,1640.15,2538,1638.81,2545,1636.85z"/>
		<path class="st5" d="M2670.79,1572.6l55.66,158.02c1.93,5.48-0.95,11.5-6.43,13.43l0,0c-5.48,1.93-11.5-0.95-13.43-6.43
			l-54.08-153.55C2660.11,1579.45,2666.34,1575.48,2670.79,1572.6z"/>
		<path class="st5" d="M2559.34,1616.1c61.91-25.2,119.14-64.43,119.14-64.43s16.75-13.23,20.07-36.06
			c4.56,32.44-20.07,51.89-20.07,51.89s-57.23,39.23-119.14,64.43c-61.91,25.2-122.38-4.32-122.38-4.32l-101.88-59.43
			c0,0-0.38-2.63-1.79-16.88l103.67,60.47C2436.95,1611.78,2497.43,1641.3,2559.34,1616.1z"/>
	</g>
	<polyline class="st19" points="2156.87,1207.68 2283.63,1133.81 2283.63,1311.85 	"/>
</g>
<g id="Smarphond">
	
		<ellipse transform="matrix(0.4217 -0.9068 0.9068 0.4217 -185.1718 2542.8857)" class="st20" cx="1900.85" cy="1416.6" rx="80.57" ry="243.38"/>
	<path class="st4" d="M1734.29,1184.21l320.31,185.48c30.02,17.54,67.76-4.11,67.76-38.89V369.93c0-37.01-19.65-71.24-51.6-89.91
		L1756.79,98.25c-32.26-18.85-72.8,4.42-72.8,41.78v956.53C1683.99,1132.64,1703.14,1166.01,1734.29,1184.21z"/>
	<path class="st5" d="M2122.35,1330.52V369.65c0-37.01-19.65-71.24-51.6-89.91L1753.74,96.55c-9.88-5.77-24.29-7.46-39.32-1.76
		c38.47-19.66,75.16-23.59,107.29-4.82l291.08,168.2c31.96,18.67,51.6,52.9,51.6,89.91v970.89c0,8.35-4.54,16.04-11.85,20.08
		l-50.52,29.13C2114,1360.34,2122.35,1346.88,2122.35,1330.52z"/>
	<path class="st18" d="M1769.08,140.6l49.05,28.32v19.03c0,7.45,3.98,14.34,10.43,18.06l139.2,80.29
		c8.74,5.04,19.65-1.26,19.67-11.34l0.01-8.3l59.86,34.56c27.56,16.1,44.5,45.62,44.5,77.53v923.24c0,29.98-18.61,42.77-44.5,27.65
		l-290.13-168.43c-26.86-15.69-43.37-44.46-43.37-75.57v-924.3C1713.79,134.71,1736.37,121.24,1769.08,140.6z"/>
	<g>
		<polygon class="st11" points="2090.86,571.17 2091.25,586.14 1713.53,822.67 1713.16,807.67 		"/>
		<path class="st11" d="M1715.56,904.31l-1.29-51.89l377.75-236.52l1.57,60.89l-376.83,235.98
			C1716.03,910.04,1715.62,907.2,1715.56,904.31z"/>
		<polygon class="st11" points="2090.09,541.41 1712.42,777.92 1712,760.94 2089.66,524.47 		"/>
	</g>
</g>
<g id="Landing_Pack">
	<path class="st6" d="M2214.14,891.86V356.85c0-15.3,16.57-24.87,29.82-17.22l718.38,416.59c14.58,8.41,23.56,23.96,23.56,40.79
		v524.87c0,19.77-21.39,32.13-38.52,22.27l-708.85-410.12C2223.44,925.36,2214.14,909.27,2214.14,891.86z"/>
	<g>
		<path class="st8" d="M2226.14,338.6L2226.14,338.6c0.06-0.02,0.11-0.05,0.17-0.07L2226.14,338.6z"/>
		<path class="st8" d="M2972.35,750.97l-719.46-417.2c-4.12-2.39-9.12-2.7-13.5-0.83l-13.04,5.56c5.4-2.27,11.82-2.22,17.61,1.12
			l718.38,416.59c14.58,8.41,23.56,23.96,23.56,40.79v524.87c0,9.79-5.25,17.77-12.63,22.12l0,0l14.17-7.75
			c5.22-2.85,8.47-8.33,8.47-14.28V791.76C2995.91,774.93,2986.93,759.38,2972.35,750.97z"/>
	</g>
	<path class="st18" d="M2781.45,859.33l0,0.32c0,21.98,11.73,42.29,30.76,53.28l37.04,21.38c41.25,23.81,92.76-6.28,92.27-53.91v0
		c-0.22-21.61-11.77-41.52-30.41-52.44l-37.04-21.71C2833.06,782.23,2781.45,811.8,2781.45,859.33z"/>
	<path class="st12" d="M2812.21,912.94l22.35,12.9l14.69,8.48c18.3,10.56,38.61,10.51,55.51,3.04c-4.43-25.62-16.27-48.93-43.5-55.1
		c0,0-17.1,14.2-23.18-3.7c-0.21-0.61-20.81-1.99-32.5,29.95C2807.68,910.12,2809.89,911.6,2812.21,912.94z"/>
	<g>
		<path class="st17" d="M2860.71,870.55c-0.15-1.75,2.3-0.02,4.14-2.55c-0.42,0.61-1.78,2.77-1.68,5.17
			c0.06,1.41-0.95,1.75-1.92,1.76C2861.03,873.4,2860.81,871.7,2860.71,870.55z"/>
		<path class="st13" d="M2828.91,852.29c0,0-2.03,35.18,8.89,32.18c0,0,2.14,1.28,1.07,4.93c-1.07,3.64,17.34,4.52,21.84-5.76
			c0,0,0.22-10.51,0.01-13.08s5.14,2.36,6-9.64C2866.71,860.92,2856.91,828.39,2828.91,852.29z"/>
		<path class="st17" d="M2862.07,839.64c3.23,0.74,5.94,3.03,7.04,6.16c0.7,1.99,0.8,4.38-0.69,6.98c-3,5.24-1.71,8.14-1.71,8.14
			s-2.47-3.5-4.84-0.67c-0.39,0.46-0.68,1-0.86,1.58c-0.8,2.53-3.64,5.38-5.65,3.37c-0.61-0.61,2.57-13.06-2.78-13.28
			c-5.35-0.21-25.48,8.35-26.98-6.21c-1.5-14.56,7.93-18.44,9.64-12.21L2862.07,839.64z"/>
		<path class="st1" d="M2860.73,882.18c-0.02,0.89-0.03,1.46-0.03,1.46c-4.5,10.28-22.91,9.4-21.84,5.76
			c1.07-3.64-1.07-4.93-1.07-4.93c-1.43,0.39-2.64,0.12-3.66-0.63c-2.71,4.82-3.89,11.42,8.56,12.94
			c20.91,2.2,22.16-13.57,22.16-13.57l-3.6-0.94L2860.73,882.18z"/>
	</g>
	<path class="st4" d="M2245.32,851.21V404.25c0-12.79,13.84-20.78,24.91-14.39l19.66,11.63c12.18,7.03,19.68,20.02,19.68,34.08
		v438.49c0,16.51-17.87,26.84-32.18,18.61l-11.7-6.21C2253.09,879.19,2245.32,865.75,2245.32,851.21z"/>
	<path class="st4" d="M2334.3,456.06c25.18,13.6,50.36,27.2,75.54,40.8c4.55,2.46,8.62-4.48,4.06-6.94
		c-25.18-13.6-50.36-27.2-75.54-40.8C2333.8,446.66,2329.74,453.6,2334.3,456.06L2334.3,456.06z"/>
	<path class="st4" d="M2327.65,676.22c16.92,9.14,33.84,18.28,50.77,27.42c2.28,1.23,4.31-2.24,2.03-3.47
		c-16.92-9.14-33.84-18.28-50.77-27.42C2327.4,671.52,2325.37,674.99,2327.65,676.22L2327.65,676.22z"/>
	<path class="st4" d="M2327.65,729.45c16.92,9.14,33.84,18.28,50.77,27.42c2.28,1.23,4.31-2.24,2.03-3.47
		c-16.92-9.14-33.84-18.28-50.77-27.42C2327.4,724.75,2325.37,728.22,2327.65,729.45L2327.65,729.45z"/>
	<path class="st4" d="M2327.65,790.01c16.92,9.14,33.84,18.28,50.77,27.42c2.28,1.23,4.31-2.24,2.03-3.47
		c-16.92-9.14-33.84-18.28-50.77-27.42C2327.4,785.31,2325.37,788.78,2327.65,790.01L2327.65,790.01z"/>
	<path class="st4" d="M2327.65,849.99c16.92,9.14,33.84,18.28,50.77,27.42c2.28,1.23,4.31-2.24,2.03-3.47
		c-16.92-9.14-33.84-18.28-50.77-27.42C2327.4,845.29,2325.37,848.76,2327.65,849.99L2327.65,849.99z"/>
	<path class="st4" d="M2327.65,909.98c16.92,9.14,33.84,18.28,50.77,27.42c2.28,1.23,4.31-2.24,2.03-3.47
		c-16.92-9.14-33.84-18.28-50.77-27.42C2327.4,905.27,2325.37,908.74,2327.65,909.98L2327.65,909.98z"/>
	<path class="st4" d="M2401.78,972.85c16.92,9.14,33.84,18.28,50.77,27.42c2.28,1.23,4.31-2.24,2.03-3.47
		c-16.92-9.14-33.84-18.28-50.77-27.42C2401.54,968.15,2399.5,971.62,2401.78,972.85L2401.78,972.85z"/>
	<path class="st4" d="M2498.76,1030.97c16.92,9.14,33.84,18.28,50.77,27.42c2.28,1.23,4.31-2.24,2.03-3.47
		c-16.92-9.14-33.84-18.28-50.77-27.42C2498.51,1026.27,2496.48,1029.73,2498.76,1030.97L2498.76,1030.97z"/>
	<path class="st4" d="M2601.3,1087.14c16.92,9.14,33.84,18.28,50.77,27.42c2.28,1.23,4.31-2.24,2.03-3.47
		c-16.92-9.14-33.84-18.28-50.77-27.42C2601.05,1082.44,2599.02,1085.91,2601.3,1087.14L2601.3,1087.14z"/>
	<path class="st4" d="M2793.58,948.62c25.18,13.6,50.36,27.2,75.54,40.8c2.28,1.23,4.31-2.24,2.03-3.47
		c-25.18-13.6-50.36-27.2-75.54-40.8C2793.34,943.92,2791.3,947.39,2793.58,948.62L2793.58,948.62z"/>
	<path class="st4" d="M2792.29,999.4c25.18,13.6,50.36,27.2,75.54,40.8c2.28,1.23,4.31-2.24,2.03-3.47
		c-25.18-13.6-50.36-27.2-75.54-40.8C2792.04,994.7,2790.01,998.17,2792.29,999.4L2792.29,999.4z"/>
	<path class="st4" d="M2793.58,1050.18c25.18,13.6,50.36,27.2,75.54,40.8c2.28,1.23,4.31-2.24,2.03-3.47
		c-25.18-13.6-50.36-27.2-75.54-40.8C2793.34,1045.48,2791.3,1048.95,2793.58,1050.18L2793.58,1050.18z"/>
	<path class="st14" d="M2340.74,522.52v-9.66c0-8.52,9.22-13.85,16.6-9.59l391.14,232c8.11,4.68,13.11,13.34,13.11,22.71v4.02
		c0,11-11.9,17.89-21.44,12.4L2354.32,546C2345.92,541.16,2340.74,532.21,2340.74,522.52z"/>
	<path class="st4" d="M2781.45,1106.98v77.4c0,4.62,2.46,8.88,6.46,11.19l112.32,64.87c4.09,2.36,9.2-0.59,9.2-5.31v-81.28
		c0-4.03-2.15-7.75-5.63-9.76l-110.56-63.91C2788,1097.15,2781.45,1100.93,2781.45,1106.98z"/>
	<polygon class="st21" points="2395.17,636.76 2395.17,643.28 2435.72,666.32 2435.71,660.25 	"/>
	<polygon class="st14" points="2535.43,718.62 2535.43,725.14 2575.98,748.18 2575.97,742.11 	"/>
	<polygon class="st18" points="2672.12,800.91 2672.12,807.44 2712.67,830.47 2712.66,824.41 	"/>
	<polygon class="st21" points="2342.9,596.17 2342.9,635.14 2376.13,654.25 2376.12,615.74 	"/>
	<path class="st22" d="M2260.83,486.04v18.22c0,3.19,1.7,6.13,4.47,7.72l15.4,8.86c5.94,3.42,13.36-0.87,13.36-7.73l-0.01-18.01
		c0-3.15-1.67-6.07-4.39-7.68l-15.4-9.07C2268.32,474.86,2260.83,479.15,2260.83,486.04z"/>
	<path class="st22" d="M2260.83,560.16v18.22c0,3.19,1.7,6.13,4.47,7.72l15.4,8.86c5.94,3.42,13.36-0.87,13.36-7.73l-0.01-18.01
		c0-3.15-1.67-6.07-4.39-7.68l-15.4-9.07C2268.32,548.99,2260.83,553.27,2260.83,560.16z"/>
	<path class="st22" d="M2260.83,638v18.22c0,3.19,1.7,6.13,4.47,7.72l15.4,8.86c5.94,3.42,13.36-0.87,13.36-7.73l-0.01-18.01
		c0-3.15-1.67-6.07-4.39-7.68l-15.4-9.07C2268.32,626.82,2260.83,631.11,2260.83,638z"/>
	<polygon class="st14" points="2483.16,678.43 2483.16,717.39 2516.39,736.51 2516.38,698 	"/>
	<polygon class="st18" points="2619.85,757.61 2619.85,796.58 2653.08,815.69 2653.07,777.18 	"/>
	<path class="st4" d="M2594.51,874.24v7.19c0,2.58,1.38,4.96,3.61,6.24l18.82,10.83c4.8,2.76,10.8-0.71,10.8-6.25l0-6.93
		c0-2.55-1.35-4.91-3.55-6.2l-18.81-11.08C2600.57,865.21,2594.51,868.67,2594.51,874.24z"/>
	<path class="st14" d="M2382.65,936.34c3.24-8.31,7.55-16.2,12.79-23.42c4.47-6.16,10.15-12.82,18.1-14.09
		c7.58-1.21,15.14,2.73,20.59,7.7c6.17,5.62,10.2,13.12,14.37,20.23c4.11,7.01,8.58,13.73,14.47,19.39
		c5.53,5.32,11.98,9.74,19.02,12.81c14.41,6.28,30.95,6.67,45.43,0.38c13.52-5.88,22.07-17.56,30.92-28.78
		c8.35-10.59,18.17-21.37,32.49-22.58c16.07-1.35,30.83,7.81,39.82,20.64c4.49,6.42,7.79,13.6,10.13,21.05
		c2.69,8.57,4.11,17.46,5.89,26.25c3.09,15.35,7.91,31.43,20.43,41.83c5.6,4.65,12.32,7.62,19.64,8.03
		c8.56,0.47,16.86-2.51,24.41-6.26c3.93-1.96,7.73-4.18,11.49-6.43c2.22-1.33,0.2-4.81-2.03-3.47
		c-13.95,8.35-31.13,17.59-46.84,8.02c-13.84-8.42-19.41-24.8-22.61-39.78c-1.92-9.01-3.28-18.16-5.84-27.02
		c-2.17-7.55-5.24-14.93-9.44-21.58c-8.42-13.37-21.66-23.45-37.66-25.19c-7.38-0.8-14.84,0.52-21.45,3.92
		c-5.98,3.07-11.03,7.72-15.47,12.72c-9.07,10.21-16.2,22.72-27.64,30.6c-13.31,9.16-30.74,10.87-45.88,5.63
		c-7.21-2.49-13.91-6.5-19.65-11.51c-6.23-5.45-10.99-11.97-15.19-19.06c-7.92-13.33-16.75-29.5-33.9-31.58
		c-7.84-0.95-14.86,2.52-20.31,7.95c-5.94,5.91-10.67,13.33-14.57,20.69c-2.03,3.83-3.81,7.8-5.38,11.84
		C2377.83,937.69,2381.72,938.73,2382.65,936.34L2382.65,936.34z"/>
	<path class="st18" d="M2388.76,847.18c19.28-6.96,26.97-27.2,34.56-44.42c4.09-9.27,8.73-18.47,16.27-25.44
		c6.54-6.04,15.31-10.16,24.37-8.66c8.98,1.49,16.72,7.61,21.66,15.08c5.66,8.58,7.76,19.01,8.38,29.12
		c0.7,11.48-0.13,23.07-1.1,34.51c-1,11.73-2.34,23.44-3.26,35.18c-1.7,21.61-1.89,43.75,3.92,64.81
		c5.12,18.59,15.18,35.53,30.68,47.26c14.76,11.17,33.29,15.79,51.41,11.31c18.96-4.7,34.98-17.56,48.36-31.27
		c7.72-7.91,14.94-16.34,21.73-25.06c6.47-8.31,12.58-16.91,19.46-24.9c12.76-14.81,29.87-28.28,50.45-27.87
		c4.63,0.09,9.13,1.03,13.43,2.76c2.4,0.96,3.44-2.92,1.07-3.88c-18.54-7.44-39.38,0.34-54.01,12.42
		c-16.38,13.51-27.48,32.19-41.04,48.27c-13.05,15.48-27.63,30.85-45.89,40.14c-8.61,4.38-18.09,7.15-27.8,7.17
		c-9.07,0.02-17.98-2.43-25.97-6.69c-16.73-8.92-28.78-24.6-35.25-42.21c-7.46-20.28-8.32-42.26-7.09-63.63
		c1.36-23.76,5.33-47.4,5.18-71.24c-0.12-19.31-4.7-40.88-22.77-51.29c-7.88-4.54-17.29-5.62-25.85-2.35
		c-8.49,3.25-15.36,9.67-20.5,17.04c-11.67,16.72-14.65,38.81-30.12,52.99c-3.29,3.02-7.09,5.46-11.3,6.98
		C2385.28,844.17,2386.32,848.06,2388.76,847.18L2388.76,847.18z"/>
</g>
<g id="Landing_Pack_1_">
	<path class="st6" d="M532.71,750.25v536.52c0,17.51,19.03,28.39,34.12,19.51l838.51-493.49c16.61-9.78,26.81-27.62,26.81-46.89
		V231.7c0-15.42-16.69-25.05-30.04-17.33L561.5,700.36C543.68,710.66,532.71,729.67,532.71,750.25z"/>
	<path class="st8" d="M532.71,1286.76V750.25c0-20.58,10.97-39.59,28.78-49.89l840.62-485.98c4.84-2.8,10.11-3.3,14.87-2.1
		l-12.16-4.11c-10.51-3.93-22.22-2.95-31.93,2.66L543.79,689.73c-17.81,10.3-28.78,29.31-28.78,49.89v540.92
		c0,17.51,29.39,26.03,29.39,26.03C537.61,1302.81,532.71,1295.64,532.71,1286.76z"/>
	<path class="st5" d="M1347.85,654.15c-23.13,13.23-46.26,26.45-69.39,39.68c-23.13,13.23-46.26,26.45-69.39,39.68
		c-13.1,7.49-26.19,14.98-39.29,22.47c-3.49,1.99-4.99,7.04-2.75,10.5c2.27,3.52,6.77,4.89,10.5,2.75
		c23.13-13.23,46.26-26.45,69.39-39.68c23.13-13.23,46.26-26.45,69.39-39.68c13.1-7.49,26.19-14.98,39.29-22.47
		c3.49-1.99,4.99-7.04,2.75-10.5C1356.08,653.38,1351.58,652.02,1347.85,654.15L1347.85,654.15z"/>
	<path class="st5" d="M1347.85,705.24c-23.13,13.23-46.26,26.45-69.39,39.68c-23.13,13.23-46.26,26.45-69.39,39.68
		c-13.1,7.49-26.19,14.98-39.29,22.47c-3.49,1.99-4.99,7.04-2.75,10.5c2.27,3.52,6.77,4.89,10.5,2.75
		c23.13-13.23,46.26-26.45,69.39-39.68c23.13-13.23,46.26-26.45,69.39-39.68c13.1-7.49,26.19-14.98,39.29-22.47
		c3.49-1.99,4.99-7.04,2.75-10.5C1356.08,704.48,1351.58,703.11,1347.85,705.24L1347.85,705.24z"/>
	<path class="st5" d="M1347.85,760.01c-23.13,13.23-46.26,26.45-69.39,39.68c-23.13,13.23-46.26,26.45-69.39,39.68
		c-13.1,7.49-26.19,14.98-39.29,22.47c-3.49,1.99-4.99,7.04-2.75,10.5c2.27,3.52,6.77,4.89,10.5,2.75
		c23.13-13.23,46.26-26.45,69.39-39.68c23.13-13.23,46.26-26.45,69.39-39.68c13.1-7.49,26.19-14.98,39.29-22.47
		c3.49-1.99,4.99-7.04,2.75-10.5C1356.08,759.25,1351.58,757.88,1347.85,760.01L1347.85,760.01z"/>
	<path class="st4" d="M638.75,733.85c-16.92,9.14-33.84,18.28-50.77,27.42c-2.28,1.23-0.25,4.7,2.03,3.47
		c16.92-9.14,33.84-18.28,50.77-27.42C643.05,736.09,641.03,732.62,638.75,733.85L638.75,733.85z"/>
	<path class="st4" d="M638.75,789.44c-16.92,9.14-33.84,18.28-50.77,27.42c-2.28,1.23-0.25,4.7,2.03,3.47
		c16.92-9.14,33.84-18.28,50.77-27.42C643.05,791.68,641.03,788.21,638.75,789.44L638.75,789.44z"/>
	<path class="st4" d="M638.75,844.99c-16.92,9.14-33.84,18.28-50.77,27.42c-2.28,1.23-0.25,4.7,2.03,3.47
		c16.92-9.14,33.84-18.28,50.77-27.42C643.05,847.23,641.03,843.76,638.75,844.99L638.75,844.99z"/>
	<path class="st4" d="M638.75,902.99c-16.92,9.14-33.84,18.28-50.77,27.42c-2.28,1.23-0.25,4.7,2.03,3.47
		c16.92-9.14,33.84-18.28,50.77-27.42C643.05,905.23,641.03,901.76,638.75,902.99L638.75,902.99z"/>
	<path class="st4" d="M638.75,963.55c-16.92,9.14-33.84,18.28-50.77,27.42c-2.28,1.23-0.25,4.7,2.03,3.47
		c16.92-9.14,33.84-18.28,50.77-27.42C643.05,965.79,641.03,962.32,638.75,963.55L638.75,963.55z"/>
	<path class="st18" d="M887.92,947.21v117.03c0,20.41-10.88,39.28-28.54,49.51l-228.87,132.5c-18.44,10.67-41.51-2.63-41.51-23.93
		l0.01-114.86c0-21.52,11.46-41.42,30.07-52.22l227.31-131.95C864.81,912.59,887.92,925.89,887.92,947.21z"/>
	<g>
		<g>
			<path class="st18" d="M965.23,871.41c17.28-27.45,40.8-47.13,64.35-56.33l2.06,96.54h79.51c0.31-1.08,0.6-2.15,0.88-3.23
				c-3.78,14.46-10.11,29.25-19.03,43.43c-32.72,51.98-87.84,76.12-123.13,53.92C934.59,983.54,932.51,923.4,965.23,871.41z"/>
		</g>
		<path class="st4" d="M1031.65,911.62l-2.06-96.54c21.05-8.22,42.12-8.07,58.77,2.41c26.37,16.6,34.19,54.39,22.8,94.13H1031.65z"
			/>
		<path class="st14" d="M1031.65,911.62l-88.46,49.93c-4.28-26.73,2.96-59.82,22.05-90.14c17.28-27.45,40.8-47.13,64.35-56.33
			L1031.65,911.62z"/>
	</g>
	<path class="st14" d="M684.33,937.41c-1.43-21.45-0.17-43.03,3.99-64.12c3.87-19.66,9.81-39.47,19.12-57.27
		c14.71-28.11,42.14-57.07,77-49.34c31.1,6.9,52.7,34.41,83.18,43.15c36.67,10.51,71.29-13.67,89.38-44.17
		c9.98-16.82,16.18-35.61,21.38-54.37c5.14-18.55,9.45-37.33,14.57-55.89c9.82-35.62,23.25-74.04,52.15-98.85
		c13.43-11.53,30.99-19.66,49.02-16.87c16.46,2.54,30.49,12.58,44.23,21.29c14.07,8.92,28.96,17.25,45.96,18.21
		c17.64,0.99,34.95-5.88,49.03-16.12c32.41-23.56,45.74-61.66,61.78-96.69c15.96-34.86,38.31-65.76,67.93-90.3
		c7.12-5.9,14.61-11.34,22.37-16.37c3.93-2.55,0.27-8.88-3.69-6.31c-31.67,20.54-58.55,48.18-78.01,80.54
		c-10.48,17.44-18.18,36.25-26.45,54.79c-7.99,17.92-16.66,36.21-29.56,51.19c-11.94,13.86-27.45,25.58-45.39,30.17
		c-17.3,4.42-33.66,0.04-48.88-8.51c-14.47-8.13-27.67-18.54-43.14-24.82c-16.58-6.73-34.11-6.13-50.32,1.42
		c-34.22,15.93-53.56,53.37-65.45,87.3c-12.79,36.5-18.32,75.22-31.97,111.42c-6.94,18.42-16.72,36.32-31.65,49.48
		c-13.61,12-31.51,19.99-49.9,18.59c-16.19-1.24-30.65-9.95-43.92-18.63c-13.18-8.62-26.06-18.04-40.89-23.69
		c-15.23-5.81-31.76-6-46.84,0.38c-15.24,6.45-27.48,18.27-37.15,31.46c-10.76,14.68-18.09,31.44-23.65,48.7
		c-6.59,20.44-10.51,41.76-11.73,63.2c-0.59,10.35-0.51,20.72,0.18,31.07C677.33,942.08,684.64,942.11,684.33,937.41L684.33,937.41z
		"/>
</g>
<g id="Landing_Pack_2_">
	<path class="st6" d="M1620.64,168.54l49.05,28.32v19.03c0,7.45,3.98,14.34,10.43,18.06l139.2,80.29
		c8.74,5.04,19.65-1.26,19.67-11.34l0.01-8.3l59.86,34.56c27.56,16.1,44.5,45.62,44.5,77.53v923.24c0,29.98-18.61,42.77-44.5,27.65
		l-290.13-168.43c-26.86-15.69-43.37-44.46-43.37-75.57v-924.3C1565.36,162.66,1587.93,149.19,1620.64,168.54z"/>
	<path class="st1" d="M1603.39,395.26c0.12,63.73-0.12,205.23-0.2,247.14c-0.01,7.53,3.98,14.49,10.48,18.29l230.66,132.4
		c11.3,6.59,25.5-1.56,25.5-14.65V530.87c0-9.4-5.03-18.09-13.2-22.76l-225.35-129.05C1618.85,371.94,1603.37,380.93,1603.39,395.26
		z"/>
	<path class="st23" d="M1597.12,741.04c0.12,63.73-0.12,205.23-0.2,247.14c-0.01,7.53,3.98,14.49,10.48,18.29l97.52,57.24
		c11.3,6.59,25.5-1.56,25.5-14.65V801.49c0-9.4-5.03-18.09-13.2-22.76l-92.21-53.89C1612.58,717.72,1597.09,726.71,1597.12,741.04z"
		/>
	<path class="st24" d="M1748.58,821.8c0.12,63.73-0.12,205.23-0.2,247.14c-0.01,7.53,3.98,14.49,10.48,18.29l97.52,57.24
		c11.3,6.59,25.5-1.56,25.5-14.65V882.25c0-9.4-5.03-18.09-13.2-22.76l-92.21-53.89C1764.04,798.48,1748.55,807.47,1748.58,821.8z"
		/>
	<path class="st14" d="M1694.2,874.2c-16.78-27.71-45.78-40.84-64.79-29.33c-19,11.51-20.81,43.3-4.04,71
		c16.78,27.71,45.78,40.84,64.79,29.33C1709.17,933.69,1710.98,901.91,1694.2,874.2z M1681.36,930.65
		c-12.85,7.78-32.92-1.86-44.83-21.52c-11.91-19.67-11.15-41.92,1.7-49.7c12.85-7.78,32.92,1.86,44.83,21.52
		S1694.2,922.87,1681.36,930.65z"/>
	<path class="st18" d="M1659.72,859.31c8.54,3.72,17.07,11.29,23.33,21.64c6.71,11.09,9.4,22.99,8.16,32.66l13.7,8.08
		c2.47-14.05-1.01-31.46-10.72-47.49c-9.08-15-21.76-25.73-34.48-30.59V859.31z"/>
	<path class="st5" d="M1599.3,252.28c23.13,13.23,46.26,26.45,69.39,39.68c23.13,13.23,46.26,26.45,69.39,39.68
		c13.1,7.49,26.19,14.98,39.29,22.47c3.49,1.99,8.55,0.93,10.5-2.75c1.93-3.65,0.97-8.37-2.75-10.5
		c-23.13-13.23-46.26-26.45-69.39-39.68c-23.13-13.23-46.26-26.45-69.39-39.68c-13.1-7.49-26.19-14.98-39.29-22.47
		c-3.49-1.99-8.55-0.93-10.5,2.75C1594.62,245.43,1595.58,250.15,1599.3,252.28L1599.3,252.28z"/>
	<path class="st5" d="M1599.3,309.41c23.13,13.23,46.26,26.45,69.39,39.68c23.13,13.23,46.26,26.45,69.39,39.68
		c13.1,7.49,26.19,14.98,39.29,22.47c3.49,1.99,8.55,0.93,10.5-2.75c1.93-3.65,0.97-8.37-2.75-10.5
		c-23.13-13.23-46.26-26.45-69.39-39.68c-23.13-13.23-46.26-26.45-69.39-39.68c-13.1-7.49-26.19-14.98-39.29-22.47
		c-3.49-1.99-8.55-0.93-10.5,2.75C1594.62,302.56,1595.58,307.28,1599.3,309.41L1599.3,309.41z"/>
	
		<rect x="1736.09" y="341.52" transform="matrix(0.5056 -0.8627 0.8627 0.5056 430.472 1743.3802)" class="st25" width="0.83" height="309.09"/>
	
		<rect x="1736.09" y="385.09" transform="matrix(0.5056 -0.8627 0.8627 0.5056 392.8838 1764.9183)" class="st25" width="0.83" height="309.09"/>
	
		<rect x="1736.09" y="431.91" transform="matrix(0.5056 -0.8627 0.8627 0.5056 352.4867 1788.0659)" class="st25" width="0.83" height="309.09"/>
	
		<rect x="1736.09" y="477.23" transform="matrix(0.5056 -0.8627 0.8627 0.5056 313.3889 1810.4691)" class="st25" width="0.83" height="309.09"/>
	
		<rect x="1736.09" y="521.92" transform="matrix(0.5056 -0.8627 0.8627 0.5056 274.8295 1832.5637)" class="st25" width="0.83" height="309.09"/>
	<path class="st18" d="M1607.46,522.96c4.32-5.8,8.82-11.91,14.95-15.94c5.72-3.76,13.19-5.84,19.69-2.81
		c13.49,6.27,14.89,23.93,16.56,36.78c1.81,13.97,3.28,28.14,7.59,41.61c4.27,13.32,11.56,25.53,22.55,34.37
		c5.32,4.28,11.87,9.01,18.87,9.59c6.88,0.57,13.51-3.76,18.14-8.47c9.07-9.23,12.76-22.23,15.66-34.48
		c1.61-6.8,3.14-13.66,5.59-20.22c2.33-6.23,5.75-13.02,11.17-17.13c2.53-1.92,5.75-3.35,8.95-2.47c2.5,0.69,4.25,2.67,5.55,4.81
		c3.07,5.07,4.33,11.01,7.46,16.07c3.57,5.79,8.82,10.95,15,13.9c6.88,3.29,13.67,2.65,20.46-0.49c6.66-3.08,12.7-7.1,19.67-9.54
		c6.71-2.35,13.84-3.75,20.97-3.04c3.42,0.34,6.82,1.26,9.94,2.7c2.9,1.34,5.45-2.97,2.52-4.32c-13.53-6.23-28.57-3.3-41.66,2.63
		c-6.65,3.01-13.05,8.28-20.42,9.29c-7.28,1-14.1-3.87-18.72-9.03c-4.41-4.92-6.33-10.86-8.93-16.79
		c-2.21-5.05-5.65-10.14-11.46-11.22c-6.96-1.3-13.28,3.36-17.35,8.56c-4.4,5.62-7.29,12.17-9.42,18.94
		c-4.07,12.91-5.44,26.76-11.83,38.87c-2.96,5.61-6.99,10.75-12.5,14.02c-3.38,2.01-7.13,3.06-10.99,1.95
		c-3.52-1.02-6.78-3.13-9.78-5.18c-11.93-8.17-19.96-20.39-24.42-34c-4.48-13.69-5.94-28.1-7.8-42.31
		c-1.81-13.82-3.67-30.06-16.45-38.37c-5.86-3.81-13.09-4.34-19.65-2.16c-6.99,2.33-12.68,7.13-17.42,12.65
		c-2.4,2.8-4.61,5.76-6.81,8.71C1601.22,523.02,1605.56,525.52,1607.46,522.96L1607.46,522.96z"/>
	<path class="st14" d="M1606.68,592.21c17.22-17.62,37-37.96,63.11-39.76c10.68-0.74,22.01,1.45,30.64,8.09
		c9.83,7.57,13.33,19.6,14.96,31.39c1.72,12.43,1.94,25.14,6.26,37.06c4.18,11.53,11.25,22.13,20.89,29.79
		c10,7.95,22.51,12.58,35.32,12.65c11.75,0.07,22.63-4.1,32.23-10.67c8.82-6.04,16.51-13.5,24.57-20.47
		c7.7-6.66,16.05-13.21,25.9-16.29c2.34-0.73,4.75-1.29,7.19-1.59c3.15-0.38,3.19-5.39,0-5c-21.85,2.66-36.66,20.2-52.72,33.39
		c-8.45,6.94-17.88,13.01-28.81,14.96c-12.75,2.28-26.27-1.08-36.97-8.23c-10.4-6.94-18.21-17.61-22.55-29.27
		c-4.47-12-4.71-24.8-6.44-37.35c-1.65-12-5.24-24.2-14.6-32.52c-8.3-7.37-19.34-10.78-30.31-11.09
		c-26.28-0.74-47.49,16.6-65.1,34.15c-2.39,2.38-4.75,4.79-7.1,7.2C1600.89,590.98,1604.42,594.52,1606.68,592.21L1606.68,592.21z"
		/>
	<path class="st1" d="M1757.97,921.43c0,20.89,0,41.78,0,62.67c0,3.29,5.12,3.3,5.12,0c0-20.89,0-41.78,0-62.67
		C1763.09,918.14,1757.97,918.13,1757.97,921.43L1757.97,921.43z"/>
	<path class="st1" d="M1779.41,923.15c0,24,0,47.99,0,71.99c0,5.43,0,10.86,0,16.29c0,3.29,5.12,3.3,5.12,0c0-24,0-47.99,0-71.99
		c0-5.43,0-10.86,0-16.29C1784.53,919.85,1779.41,919.85,1779.41,923.15L1779.41,923.15z"/>
	<path class="st1" d="M1799.68,956.45c0,16.34,0,32.67,0,49.01c0,3.29,5.12,3.3,5.12,0c0-16.34,0-32.67,0-49.01
		C1804.8,953.15,1799.68,953.15,1799.68,956.45L1799.68,956.45z"/>
	<path class="st1" d="M1821.13,982.07c0,10.08,0,20.15,0,30.23c0,3.29,5.12,3.3,5.12,0c0-10.08,0-20.15,0-30.23
		C1826.24,978.77,1821.13,978.77,1821.13,982.07L1821.13,982.07z"/>
	<path class="st1" d="M1841.66,974.39c0,20.04,0,40.07,0,60.11c0,4.84,0,9.68,0,14.51c0,3.29,5.12,3.3,5.12,0
		c0-20.04,0-40.07,0-60.11c0-4.84,0-9.68,0-14.51C1846.77,971.1,1841.66,971.09,1841.66,974.39L1841.66,974.39z"/>
	<path class="st1" d="M1863.1,1017.08c0,3.05,0,6.09,0,9.14c0,3.29,5.12,3.3,5.12,0c0,0,0-0.01,0-0.01c0-3.29-5.12-3.3-5.12,0
		c0,3.05,0,6.09,0,9.14c0,3.29,5.12,3.3,5.12,0c0-3.05,0-6.09,0-9.14c0-3.29-5.12-3.3-5.12,0c0,0,0,0.01,0,0.01
		c0,3.29,5.12,3.3,5.12,0c0-3.05,0-6.09,0-9.14C1868.22,1013.79,1863.1,1013.78,1863.1,1017.08L1863.1,1017.08z"/>
	
		<ellipse transform="matrix(0.866 -0.5 0.5 0.866 -342.248 1007.6381)" class="st18" cx="1709.15" cy="1142.46" rx="26.06" ry="45.83"/>
	<path class="st1" d="M1708.06,1122.23c0,13.48,0,26.97,0,40.46c0,1.41,2.19,1.41,2.19,0c0-13.49,0-26.97,0-40.46
		C1710.25,1120.82,1708.06,1120.82,1708.06,1122.23L1708.06,1122.23z"/>
	<path class="st1" d="M1690.69,1137.67c12.11,3.9,24.23,7.8,36.34,11.7c1.35,0.43,1.92-1.68,0.58-2.11
		c-12.11-3.9-24.23-7.8-36.34-11.7C1689.93,1135.12,1689.35,1137.24,1690.69,1137.67L1690.69,1137.67z"/>
	<polygon class="st1" points="1611.16,1105.04 1611.16,1113.56 1617.05,1116.99 1617.05,1108.55 	"/>
	<polygon class="st1" points="1619.75,1101.64 1619.75,1118.51 1625.64,1121.94 1625.64,1105.14 	"/>
	<polygon class="st1" points="1628.14,1098.15 1628.14,1123.38 1634.03,1126.81 1634.03,1101.66 	"/>
	<polygon class="st1" points="1636.34,1094.57 1636.34,1128.15 1642.23,1131.58 1642.23,1098.07 	"/>
	<polygon class="st1" points="1644.67,1090.97 1644.67,1132.9 1650.56,1136.33 1650.56,1094.48 	"/>
	<path class="st1" d="M1775.25,1161.8v31.17c0,2.8,1.5,5.38,3.94,6.77l27.16,15.45c5.19,2.95,11.64-0.8,11.64-6.77v-30.93
		c0-2.78-1.48-5.35-3.89-6.74l-27.16-15.69C1781.74,1152.06,1775.25,1155.81,1775.25,1161.8z"/>
	<path class="st23" d="M1629.36,406.76c27.59,15.75,55.18,31.5,82.76,47.25c27.47,15.68,54.93,31.36,82.4,47.04
		c15.54,8.87,31.08,17.74,46.62,26.62c2.8,1.6,5.32-2.72,2.52-4.32c-27.59-15.75-55.18-31.5-82.76-47.25
		c-27.47-15.68-54.93-31.36-82.4-47.04c-15.54-8.87-31.08-17.74-46.62-26.62C1629.08,400.84,1626.56,405.16,1629.36,406.76
		L1629.36,406.76z"/>
	<path class="st23" d="M1629.36,650.61c27.59,15.75,55.18,31.5,82.76,47.25c27.47,15.68,54.93,31.36,82.4,47.04
		c15.54,8.87,31.08,17.74,46.62,26.62c2.8,1.6,5.32-2.72,2.52-4.32c-27.59-15.75-55.18-31.5-82.76-47.25
		c-27.47-15.68-54.93-31.36-82.4-47.04c-15.54-8.87-31.08-17.74-46.62-26.62C1629.08,644.7,1626.56,649.02,1629.36,650.61
		L1629.36,650.61z"/>
	<g id="Chat_Icon_2_">
		<path class="st3" d="M1486.33,652.91l133.47,77.34c4.47,2.59,7.22,7.37,7.22,12.53l-0.01,91.99c0,11.16-12.1,18.13-21.76,12.53
			l-95.49-55.46c-27.88,2.6-37.59,4.03-37.59,4.03l8.58-20.87l-8.94-5.14c-4.47-2.59-7.21-7.36-7.21-12.53v-91.89
			C1464.59,654.28,1476.68,647.32,1486.33,652.91z"/>
		<g>
			<path class="st4" d="M1627.01,834.78l0.01-91.99c0-5.17-2.75-9.94-7.22-12.53l-133.47-77.34c-3.3-1.91-6.88-2.36-10.17-1.67
				c4.39-4.29,11.38-5.7,17.43-2.2l133.47,77.34c4.47,2.59,7.22,7.37,7.22,12.53l-0.01,91.99c0,9.18-11.36,18.44-20.77,18.34
				C1620.67,848.74,1627.01,842.86,1627.01,834.78z"/>
		</g>
		<path class="st4" d="M1489.09,727.43v1.11c0,1.59,0.85,3.05,2.22,3.85l76.89,44.26c2.97,1.72,6.68-0.42,6.68-3.85v-1.11
			c0-1.59-0.85-3.05-2.22-3.85l-76.89-44.26C1492.81,721.86,1489.09,724,1489.09,727.43z"/>
		<path class="st4" d="M1489.09,702.3v1.11c0,1.59,0.85,3.05,2.22,3.85l99.29,57.36c2.97,1.72,6.68-0.42,6.68-3.85v-1.11
			c0-1.59-0.85-3.05-2.22-3.85l-99.29-57.36C1492.81,696.73,1489.09,698.88,1489.09,702.3z"/>
	</g>
</g>
<g id="Chat_Icon_3_">
	<path class="st3" d="M2399.45,1015.75l-133.47,77.34c-4.47,2.59-7.22,7.37-7.22,12.53l0.01,91.99c0,11.16,12.1,18.13,21.76,12.53
		l95.49-55.46c27.88,2.6,37.59,4.03,37.59,4.03l-8.58-20.87l8.94-5.14c4.47-2.59,7.21-7.36,7.21-12.53v-91.89
		C2421.2,1017.13,2409.11,1010.16,2399.45,1015.75z"/>
	<g>
		<path class="st4" d="M2258.77,1197.62l-0.01-91.99c0-5.17,2.75-9.94,7.22-12.53l133.47-77.34c3.3-1.91,6.88-2.36,10.17-1.67
			c-4.39-4.29-11.39-5.7-17.43-2.2l-133.47,77.34c-4.47,2.59-7.22,7.37-7.22,12.53l0.01,91.99c0,9.18,11.36,18.44,20.77,18.34
			C2265.12,1211.58,2258.77,1205.7,2258.77,1197.62z"/>
	</g>
	<path class="st4" d="M2396.69,1090.27v1.11c0,1.59-0.85,3.05-2.22,3.85l-76.89,44.26c-2.97,1.72-6.68-0.42-6.68-3.85v-1.11
		c0-1.59,0.85-3.05,2.22-3.85l76.89-44.26C2392.98,1084.7,2396.69,1086.84,2396.69,1090.27z"/>
	<path class="st4" d="M2396.69,1065.14v1.11c0,1.59-0.85,3.05-2.22,3.85l-99.29,57.36c-2.97,1.72-6.68-0.42-6.68-3.85v-1.11
		c0-1.59,0.85-3.05,2.22-3.85l99.29-57.36C2392.98,1059.58,2396.69,1061.72,2396.69,1065.14z"/>
</g>
<g id="Landing_Pack_3_">
	<path class="st6" d="M1599.21,1263.75l-0.04,454.75c0,9.42,5.02,18.12,13.18,22.83l530.08,305.99c5.35,3.09,12.02-0.81,11.96-6.99
		l-4.78-464.1c-0.09-8.33-4.53-16-11.72-20.21l-518.52-303.84C1610.45,1246.96,1599.21,1253.4,1599.21,1263.75z"/>
	<path class="st5" d="M1943.93,1931.39c2.08-13.02,4-24.69,5.12-33.92c6.65-54.4,76.25-154.95,76.25-154.95
		s-54.67,18.65-76.92-18.57c-70.11,79.87-77.02,129.69-81.16,147.74c-0.59,2.59-0.79,7.85-0.8,14.95L1943.93,1931.39z"/>
	<path class="st1" d="M2029.32,1980.68c-0.32-20.6,0.88-37.34,7.12-44l2.36,49.48l65.81,37.99l-3.14-165.9
		c0,0-1.72-85.84-84.58-118.67c0,0-66.97,104.79-78.05,158.46c-1.76,8.51-3.34,17.81-4.71,27.69L2029.32,1980.68z"/>
	<path class="st1" d="M1874.1,1891.08c0.45-11.57,0.9-19.54,1.53-22.27c4.14-18.05,2.89-64.78,73.01-144.66
		c-84.96-32.59-107.2,79.97-113.24,144.58L1874.1,1891.08z"/>
	<path class="st8" d="M1909.59,1718.36c-7,9.52-13.12,19.66-18.21,30.32c-5.11,10.69-10.52,22.47-11.03,34.48
		c-0.14,3.23,4.88,3.22,5.02,0c0.26-6.12,2.13-11.98,4.26-17.68c1.98-5.27,4.21-10.45,6.68-15.51
		c4.97-10.21,10.89-19.94,17.62-29.09C1915.84,1718.29,1911.48,1715.78,1909.59,1718.36L1909.59,1718.36z"/>
	<path class="st3" d="M1948.64,1724.15l-45.11,6.78v22.19l-27.9,19.28c0,0-13.12,52.76-1.46,117.42
		C1874.18,1889.82,1865.35,1818.22,1948.64,1724.15z"/>
	<path class="st17" d="M1943.45,1643.44c-1.17-1.7-0.84-57.36-0.84-57.36l-12.59-9.85c-0.07-0.44-0.32-0.75-0.76-0.59
		c0,0-6.83,1.04-13.58,8.77c-2.01,1.93-3.82,4.01-5.35,6.15c-4.92,6.9-8.49,13.9-10.55,22.09c-2.14,8.53-2.92,17.39-2.71,26.17
		c0.22,9.42,1.61,18.78,3.57,27.99c2.03,9.51,4.7,18.86,7.43,28.19c0.07,0.23,0.13,0.46,0.2,0.69c-0.06,1.91-0.19,3.82-0.4,5.7
		c-1.41,12.86-6.95,23.85,13.35,28.57c4.48,1.04,12.67,1.28,17.21,0.57c5.37-0.83,10.09-6.61,12.62-8.61
		C1961.72,1713.54,1944.63,1645.15,1943.45,1643.44z M1903.25,1670.53c-2.12-9.1-3.74-18.34-4.28-27.68
		c-0.5-8.63-0.09-17.35,1.61-25.83c1.2-5.98,3.46-11.29,6.3-16.5c-3.26,9.77-5.18,23.33-3.96,42.15c0.99,15.23,4.87,31.3,5.37,46.83
		C1906.48,1683.21,1904.74,1676.9,1903.25,1670.53z"/>
	<g>
		<path class="st26" d="M2020.69,1743.89c0.6-0.46,0.92-0.72,0.92-0.72c-12.26-14.74-7.33-69.89-7.33-69.89
			c37.03-18.33,2.22-44.78,2.22-44.78c-32.42-98.78-85.64-46.62-85.64-46.62c-34.99,126.78,20.65,123.91,20.65,123.91
			s5.16,10.9-2.87,18.36C1948.64,1724.15,1963.93,1757.92,2020.69,1743.89z"/>
	</g>
	<path class="st3" d="M2016.89,1739.58l14.44,32.05c0,0-30.07,20.32-30.07,22.67s-3.91,39.08-3.91,39.08l-61.61,81.59
		C1935.74,1914.97,1935.74,1867.38,2016.89,1739.58z"/>
	<path class="st17" d="M2086.61,1680.37c-6.07-8.09-10.73-17.14-13.8-26.77c-3.29-10.31-5.1-21.06-7.22-31.65
		c-0.46-2.28-0.91-4.56-1.37-6.85c-0.56-3.98-1.32-7.78-2.28-11.39c-0.01-0.07-0.03-0.13-0.04-0.2c-0.02-0.08-0.04-0.15-0.07-0.22
		c-20.69-76.44-126.78-68.99-132.51-27.35c-0.65,4.7-0.42,9.73,0.64,14.8c1.86,10.94,6.47,21.3,13.02,30.27
		c7.52,10.3,17.47,18.93,28.78,24.84c7.26,3.79,15.3,6.43,23.57,6.1c1.1-0.04,1.11-1.77,0-1.72c-7.18,0.29-14.21-1.74-20.64-4.83
		c-5.78-2.78-11.21-6.32-16.15-10.4c-8.34-6.88-15.38-15.37-20.33-24.99c11.84,17.61,37.09,37.83,69.68,32.74
		c0,0,20.37-0.17,8.61,19.5c-1.13,1.16-5.73,7.96-10.9,7.46c0,0,10.33,22.57-5.36,48.05c-10.83,17.58,8.97,41.89,37.77,38.45
		c27.82-3.33,48.66-30.86,42.79-58.25c-1.68-7.83-6-17.39-8.69-30.74c-2.49-12.39-6.09-25.07-6.76-37.7
		c0.48,2.39,0.97,4.78,1.46,7.17c2.14,10.35,4.79,20.57,9.46,30.1c2.49,5.08,5.47,9.91,8.86,14.43
		C2085.78,1682.11,2087.27,1681.26,2086.61,1680.37z"/>
	<path class="st27" d="M2006.23,1813.7c-17.4,1.73-28.62,32.15-25.07,67.94c0.19,1.88,0.42,3.73,0.67,5.56
		c0.02,0.35,0.1,0.65,0.21,0.98c1.41,4.22,5,6.95,8.79,8.95c4.15,2.19,8.77,3.33,13.47,3.04c2.71-0.17,2.22-4.36-0.48-4.19
		c-3.78,0.24-7.45-0.77-10.8-2.46c-3.03-1.53-6.03-3.45-7.16-6.8c-0.02-0.07-0.07-0.31-0.07-0.31s-0.3-3.17-0.5-5.18
		c-3.24-32.63,6.39-60.31,21.5-61.81c15.12-1.5,30,23.74,33.23,56.37c1.77,17.79-0.29,34.1-4.98,45.51c-0.01,0-0.01,0-0.02,0
		c-0.32-0.16-0.72-0.23-1.05-0.37c-0.81-0.36-1.53-0.86-2.21-1.41c-1.41-1.12-2.7-2.41-3.91-3.74c-2.51-2.77-4.71-5.84-6.5-9.13
		c-1.5-2.76-6.1-0.95-4.58,1.85c2.63,4.85,5.88,9.23,9.86,13.06c2.47,2.38,8.89,7.36,11.76,3.27c0.01,0,0.01,0,0.02,0
		c0.01-0.02,0.01-0.04,0.02-0.06c0.1-0.14,0.19-0.3,0.28-0.46c0.18-0.33,0.27-0.66,0.29-0.96c4.87-12.41,6.98-29.47,5.15-47.97
		C2040.61,1839.59,2023.63,1811.97,2006.23,1813.7z"/>
	<path class="st8" d="M2044.17,1875.39c-2.77-27.89-13.69-50.82-26.61-58.77c0.07-0.2,0.12-0.42,0.14-0.65
		c0.52-5.39,3.65-9.75,6.29-14.3c2.97-5.11,5.69-10.43,7.58-16.04c3.48-10.36,3.65-22.51-2.89-31.74c-1.85-2.61-6.21-0.11-4.33,2.53
		c6.44,9.08,5.29,20.62,1.43,30.49c-2.05,5.24-4.86,10.16-7.76,14.97c-2.42,4.02-4.4,7.97-5.14,12.55c-2.19-0.7-4.42-0.97-6.65-0.74
		c-11.9,1.18-20.92,15.8-24.28,36.38l3.92,2.26c2.86-18.67,10.62-31.89,20.93-32.92c15.12-1.5,29.99,23.74,33.23,56.37
		c0.27,2.75,0.45,5.46,0.55,8.13l4.22,2.44C2044.74,1882.78,2044.54,1879.12,2044.17,1875.39z"/>
	<g>
		<path class="st5" d="M2143.15,2058.69l0.02,0.01c0.05,0.02,0.1,0.04,0.15,0.06C2143.26,2058.74,2143.21,2058.71,2143.15,2058.69z"
			/>
		<path class="st5" d="M2159.81,1581.61c-0.09-8.33-4.53-16-11.72-20.21l-518.52-303.84c-6.29-3.69-18.45,0.26-25.09,6.53
			c4.07-3.08,9.85-3.85,14.88-0.9l518.52,303.84c7.18,4.21,11.63,11.88,11.72,20.21l4.78,464.1c0.06,5.77-5.77,9.56-10.9,7.5
			c8.09,3.53,20.43-1.67,21.1-13.13L2159.81,1581.61z"/>
	</g>
	<polygon class="st12" points="1634.85,1394.15 1634.85,1655.62 1825.6,1769.9 1825.6,1506.02 	"/>
	<path class="st4" d="M1779.34,1558.58c-25-41.28-68.22-60.85-96.53-43.7c-28.32,17.15-31.01,64.51-6.01,105.79
		c25,41.28,68.22,60.85,96.53,43.7C1801.65,1647.23,1804.34,1599.86,1779.34,1558.58z M1760.2,1642.69
		c-19.14,11.59-49.05-2.77-66.79-32.07c-17.74-29.3-16.61-62.46,2.54-74.05s49.05,2.77,66.79,32.07
		C1780.48,1597.94,1779.34,1631.1,1760.2,1642.69z"/>
	<path class="st18" d="M1727.96,1536.4c12.73,5.54,25.43,16.82,34.77,32.24c10,16.52,14,34.26,12.16,48.67l20.42,12.04
		c3.69-20.93-1.5-46.87-15.97-70.77c-13.54-22.36-32.42-38.34-51.38-45.58V1536.4z"/>
</g>
<g id="plant_2_">
	<ellipse class="st28" cx="1017.88" cy="1596.6" rx="68.81" ry="35.51"/>
	<g id="plant">
		<path class="st5" d="M1016.61,1416.75c-35.34,0-64.47-12.33-68.6-28.24c-0.35-0.44-0.5-0.68-0.5-0.68l34.18,218.72
			c0,0,11.97,10.44,34.71,10.44c22.5,0,34.16-10.44,34.16-10.44l34.57-217.75C1080.75,1404.57,1051.74,1416.75,1016.61,1416.75z"/>
		<g>
			<path class="st6" d="M1016.68,1512.88c20.02,0,38.05-3.96,50.67-10.29l3.61-22.75c-12.66,7.38-32.17,12.12-54.07,12.12
				c-22.31,0-42.15-4.92-54.79-12.55l3.6,23.03C978.35,1508.86,996.5,1512.88,1016.68,1512.88z"/>
			<path class="st6" d="M1016.68,1528.23c-18.84,0-35.91-3.51-48.38-9.19l1.73,11.07c12.32,5.29,28.78,8.52,46.86,8.52
				c17.68,0,33.81-3.09,46.03-8.17l1.79-11.27C1052.29,1524.78,1035.35,1528.23,1016.68,1528.23z"/>
		</g>
		<ellipse class="st29" cx="1016.61" cy="1386.24" rx="69.1" ry="32.12"/>
		<ellipse class="st6" cx="1017.6" cy="1385.13" rx="57.52" ry="25.25"/>
		<path class="st30" d="M1066.95,1340.37"/>
		<path class="st31" d="M1066.07,1340.37c0,0,35.42,27.39,96.63-11.05c55.68-34.96,101.07,27.72,101.07,27.72
			s-65.31-117.72-161.43-69.14C1102.33,1287.91,1067.68,1304.74,1066.07,1340.37z"/>
		<path class="st31" d="M987.86,1368.14c0,0-39.64,20.82-93.24-27.65c-48.76-44.1-104.35,9.75-104.35,9.75
			s84.76-104.59,170.99-40.06C961.25,1310.18,992.46,1332.77,987.86,1368.14z"/>
		<path class="st31" d="M1031.23,1325.51c0,0,40.67-1.14,70.4-67.02c17.4-38.57,82.04-49.39,82.04-49.39s-88.87-47.85-142.7,42.14
			C1040.96,1251.25,1017.6,1294.56,1031.23,1325.51z"/>
		<path class="st31" d="M992.76,1312.65c0,0-40.55,3.34-77.35-58.86c-21.55-36.42-86.98-40.05-86.98-40.05s83.05-57.35,146.48,26.16
			C974.91,1239.91,1002.89,1280.39,992.76,1312.65z"/>
		<path class="st31" d="M1015.2,1299.01c0,0,44.76-40.57,15.84-106.81c-28.29-64.79-17.84-108.53-17.84-108.53
			s-20.97,7.35-33.9,96.87c-3.96,27.44-3.98,54.48,5.82,80.42C990.66,1275.65,1004.97,1291.51,1015.2,1299.01z"/>
		<path class="st32" d="M1032.53,1409.72c5.51-34.14,27.22-64.94,56.65-82.86c8.27-5.03,17.12-9.01,26.4-11.77
			c1.9-0.56,1.09-3.54-0.82-2.98c-33.89,10.07-62.33,36.17-76.65,68.34c-4.04,9.09-6.96,18.62-8.55,28.45
			C1029.24,1410.84,1032.21,1411.68,1032.53,1409.72L1032.53,1409.72z"/>
		<path class="st32" d="M1004.78,1409.92c-5.26-32.55-25.87-61.88-53.99-78.88c-7.92-4.79-16.44-8.56-25.31-11.2
			c-1.91-0.57-2.72,2.41-0.82,2.98c30.89,9.18,56.59,32.76,69.55,62.14c3.63,8.22,6.16,16.91,7.6,25.78
			C1002.12,1412.7,1005.09,1411.87,1004.78,1409.92L1004.78,1409.92z"/>
		<path class="st32" d="M1027.81,1410.33c-2.49-28.93-1.18-58.12,5.62-86.41c6.1-25.42,16.33-49.81,31.34-71.28
			c8.25-11.81,17.92-22.58,28.83-31.99c1.51-1.3-0.68-3.47-2.18-2.18c-19.52,16.82-34.94,38.07-45.91,61.34
			c-11.86,25.18-18.65,52.67-21.03,80.35c-1.43,16.7-1.19,33.49,0.24,50.17C1024.89,1412.29,1027.98,1412.31,1027.81,1410.33
			L1027.81,1410.33z"/>
		<path class="st32" d="M1009.25,1410.38c1.08-12.5,1.5-25.08,0.05-37.56c-1.31-11.29-4.07-22.3-7.25-33.19
			c-3.72-12.74-7.69-25.39-13.06-37.55c-5.2-11.78-11.5-23.08-18.9-33.62c-8.36-11.91-18.09-22.82-29.11-32.32
			c-1.5-1.29-3.69,0.88-2.18,2.18c19.35,16.67,34.56,37.65,45.43,60.71c5.6,11.88,9.69,24.25,13.48,36.81
			c3.31,10.99,6.4,22.09,8.05,33.47c1.97,13.61,1.58,27.41,0.41,41.07C1006,1412.36,1009.08,1412.35,1009.25,1410.38
			L1009.25,1410.38z"/>
		<path class="st32" d="M1007.56,1213.85c6.29,50.79,8.5,102.06,6.54,153.2c-0.55,14.44-1.44,28.87-2.65,43.28
			c-0.17,1.98,2.92,1.97,3.09,0c4.27-51,4.45-102.32,0.47-153.34c-1.12-14.41-2.58-28.8-4.36-43.14
			C1010.41,1211.9,1007.32,1211.88,1007.56,1213.85L1007.56,1213.85z"/>
	</g>
</g>
<g id="Man_1_">
	<ellipse class="st3" cx="1449.9" cy="1683.89" rx="140.87" ry="72.69"/>
	<path class="st21" d="M1512.84,1146.67c-92.57-109.93-45.47-127.12-45.47-127.12c39.59-37.69,91.88,70.93,91.88,70.93l20.26,34.15
		l56.36-48.84l20.19,18.69c0,0-64.34,106.32-93.32,89.93C1533.5,1167.88,1508.39,1141.95,1512.84,1146.67z"/>
	<path class="st4" d="M1517.89,1248.01v451.87c0,0-46.41,21.57-77.89,3.57c-1.12-6.75-4.92-354.21-4.92-354.21l-4.87,308.47
		c0,0-43.58,30.08-74.22-1.69c-1.12-5.62,5.9-441.92,5.9-441.92S1390.82,1267.91,1517.89,1248.01z"/>
	<path class="st21" d="M1506.31,1263.81c-17.69,5.97-36.64,8.35-49.21,8.94c-6.97,0.33-17.1,0.36-24.8-0.37
		c-58.22-5.59-75.39-20.28-72.73-56.83c2.8-38.57-5.59-124.64-5.59-124.64c-21.83-153.67,61.84-116.69,61.84-116.69
		c0.25-0.61,4.92,2.12,10.31,5.52c9.67,6.1,20.56,9.98,31.91,11.4c14.81,1.85,36.4,9.24,54.49,29.78
		c79.21,89.9,6.13,110.59,6.78,123.53c0.67,13.21-0.35,20.8-0.7,37.73c-0.07,3.22-0.73,11.57,1.55,33.86c0,0,2.84,23.98,0.05,35.45
		C1518.83,1257.24,1511.93,1261.92,1506.31,1263.81z"/>
	<rect x="1490.88" y="1326.94" class="st1" width="1.23" height="357.48"/>
	
		<rect x="1249.48" y="1493.29" transform="matrix(0.0205 -0.9998 0.9998 0.0205 -114.0829 2871.363)" class="st1" width="317.88" height="1.23"/>
	<path class="st13" d="M1493.13,893.53c1.73,0.64,12.07,91.77-30.7,81.53c0,0,0.1,10.74,3.73,17.54c0,0-30.35,10.91-48.65-4.15
		c-3.23-2.66-4.47-7.05-3.14-11.01c1.28-3.82,3.15-9.29,5.43-15.66C1425.83,944.93,1410.91,863.17,1493.13,893.53z"/>
	<path class="st13" d="M1653.1,1091.73l-15.02-13.35l6.73-17.37c1.01-2.6,3.32-4.48,6.08-4.93l12.34-2.03l21.02-22.26
		c0,0,4.97,0.46,2.69,3.6c-2.28,3.15-17.16,22.92-17.16,22.92s12.83,14.23,4.82,21.67c-4.01,3.73-8.01,5.35-10.43,6.03
		c-1.76,0.5-3.41,1.35-4.84,2.49L1653.1,1091.73z"/>
	<path class="st1" d="M1468.18,993.11l-4.18-6.29c0,0-34.61,9.45-48.16-12.6c0,0-10.89,14.96,16.32,21.1
		C1458.48,1000.65,1468.18,993.11,1468.18,993.11z"/>
	<path class="st33" d="M1512.46,1146.21c-0.25-0.22-0.13-0.09,0.38,0.46C1512.71,1146.51,1512.59,1146.36,1512.46,1146.21
		c0.57,0.51,3.08,2.92,7.04,6.44c-0.24,14.55-1.13,32.38-0.97,39.66c-36.11-25.57-59.53-71.25-55.8-120.34
		C1470.52,1090.08,1485.55,1114.2,1512.46,1146.21z"/>
	<g>
		<path class="st4" d="M1376.6,975.01c-0.01,0-0.01,0.01-0.02,0.01C1376.59,975.01,1376.59,975.01,1376.6,975.01
			C1376.6,975.01,1376.6,975.01,1376.6,975.01z"/>
		<path class="st21" d="M1330.84,1122.58l1.65-37.87c0.82-64.83,23.12-93.62,38.05-105.49c-15.24,13.09-26.2,43.76-16.55,111.68
			c0,0,7.79,53.35,7.16,92.06l-24.2-37.74C1332.62,1138.49,1330.49,1130.58,1330.84,1122.58z"/>
	</g>
	<path class="st33" d="M1351,1062.95L1351,1062.95c0.58,8.54,1.56,17.83,2.99,27.95c0,0,5.26,36.03,6.78,70.36c0,0,0,0,0,0
		C1344.33,1130.41,1351,1062.95,1351,1062.95z"/>
	<path class="st15" d="M1417.87,1270.68c4.51,0.64,9.31,1.21,14.44,1.7c7.7,0.74,17.82,0.7,24.8,0.37
		c12.57-0.59,31.52-2.97,49.21-8.94c4.04-1.36,8.76-4.17,11.6-7.79c0,6.75,0,19.73,0,19.73s-137.95,33.18-156.41-37.11l0,0
		c5.11,16.34,19.65,25.61,48.53,30.78L1417.87,1270.68z"/>
	<g>
		<path class="st15" d="M1430.21,1657.71l0.63-40.2l4.86-1.3c0,0,0.95-0.03,2.62-0.21c0.3,21.26,0.59,40.18,0.85,54.95
			c-5.58,2.06-11.61,4.24-18.06,6.65v6.33c0,0-44.62,25.62-65.24-5.63v-30.29c0,4.81,0.04,7.6,0.12,8.01
			C1386.64,1687.79,1430.21,1657.71,1430.21,1657.71z"/>
		<path class="st15" d="M1355.91,1637.52c-0.03,4.14-0.04,7.67-0.04,10.49v-10.48L1355.91,1637.52z"/>
	</g>
	<path class="st15" d="M1440,1698.66c31.49,17.99,77.89-3.57,77.89-3.57v-37.57l1.16-0.31c0,0,7.52-0.24,17.7-3.39
		c11.86-3.67,24.6,3.18,27.53,15.24c0.07,0.27,0.57,8.13,0.63,8.4c4.06,19.72-20.17,26.09-60.46,41.14v6.33
		c0,0-44.62,25.62-65.24-5.63v-40.77l0.19-0.05C1439.64,1690.42,1439.85,1697.74,1440,1698.66z"/>
	<g>
		<path class="st16" d="M1504.45,1718.6c35.56-13.29,58.6-19.81,60.74-34.71c2.4,18.44-21.59,24.87-60.74,39.5V1718.6z"/>
		<path class="st16" d="M1504.45,1724.93v4.79c0,0-44.62,25.62-65.24-5.63v-4.79C1459.84,1750.56,1504.45,1724.93,1504.45,1724.93z"
			/>
	</g>
	<path class="st16" d="M1421.15,1683.8v4.79c0,0-44.62,25.62-65.24-5.63v-4.79C1376.53,1709.43,1421.15,1683.8,1421.15,1683.8z"/>
	<path class="st16" d="M1439.26,1675.6c-5.59,2.06-11.64,4.25-18.11,6.67v-4.79c6.44-2.4,12.46-4.59,18.02-6.64
		C1439.2,1672.47,1439.23,1674.06,1439.26,1675.6z"/>
	<path class="st17" d="M1472,939.83c-3.03,0.54-2.74-35.12-18.56,9.05c-15.83,44.18-40.2,18.08-37.68,12.56
		c2.52-5.52-12.08-24.09-12.06-26.27c0.02-2.17-32.82-31.37,0.46-72.28c14.52-17.85,73.33-16.01,82.05-26.39s43.61,46.62-7.07,65.83
		C1479.14,902.34,1481.87,938.08,1472,939.83z"/>
</g>
</svg>
