<svg xmlns="http://www.w3.org/2000/svg" xmlns:xlink="http://www.w3.org/1999/xlink" width="300" height="300" viewBox="0 0 300 300">
  <defs>
    <clipPath id="clip-path">
      <circle id="Ellipse_220" data-name="Ellipse 220" cx="139" cy="139" r="139" transform="translate(1527 1224)" fill="#fff" stroke="#707070" stroke-width="1" opacity="0.52"/>
    </clipPath>
    <linearGradient id="linear-gradient" x1="1.146" y1="0.074" x2="0.185" y2="1.069" gradientUnits="objectBoundingBox">
      <stop offset="0.004" stop-color="#eb6c92"/>
      <stop offset="1" stop-color="#af4161"/>
    </linearGradient>
    <linearGradient id="linear-gradient-2" x1="1.075" y1="0.136" x2="-3.589" y2="2.474" xlink:href="#linear-gradient"/>
    <linearGradient id="linear-gradient-3" y1="0.5" x2="1" y2="0.5" gradientUnits="objectBoundingBox">
      <stop offset="0" stop-color="#9346e2"/>
      <stop offset="1" stop-color="#5e1e9f"/>
    </linearGradient>
    <linearGradient id="linear-gradient-4" x1="0" y1="0.5" x2="1" y2="0.5" xlink:href="#linear-gradient-3"/>
    <linearGradient id="linear-gradient-5" x1="0.001" y1="0.501" x2="0.999" y2="0.501" gradientUnits="objectBoundingBox">
      <stop offset="0" stop-color="#facc47"/>
      <stop offset="0.996" stop-color="#b68924"/>
    </linearGradient>
    <linearGradient id="linear-gradient-6" x1="0" y1="0.5" x2="0.998" y2="0.5" xlink:href="#linear-gradient-5"/>
    <linearGradient id="linear-gradient-7" x1="-0.001" y1="0.499" x2="1.002" y2="0.499" xlink:href="#linear-gradient-5"/>
    <linearGradient id="linear-gradient-8" x1="0.002" y1="0.5" x2="1" y2="0.5" xlink:href="#linear-gradient-5"/>
    <linearGradient id="linear-gradient-9" x1="-0.674" y1="2.576" x2="0.7" y2="0.102" gradientUnits="objectBoundingBox">
      <stop offset="0" stop-color="#602bca"/>
      <stop offset="0.287" stop-color="#5f2ac7"/>
      <stop offset="0.517" stop-color="#5a28bd"/>
      <stop offset="0.726" stop-color="#5324ac"/>
      <stop offset="0.923" stop-color="#491f94"/>
      <stop offset="1" stop-color="#441c89"/>
    </linearGradient>
    <linearGradient id="linear-gradient-10" x1="0" y1="0.5" x2="1" y2="0.5" xlink:href="#linear-gradient-9"/>
    <linearGradient id="linear-gradient-11" x1="0.17" y1="1.044" x2="0.815" y2="-0.013" xlink:href="#linear-gradient-9"/>
    <linearGradient id="linear-gradient-12" x1="0.135" y1="1.048" x2="0.453" y2="0.631" gradientUnits="objectBoundingBox">
      <stop offset="0" stop-color="#eec9bf"/>
      <stop offset="0.277" stop-color="#eec6bc"/>
      <stop offset="0.498" stop-color="#efbcb2"/>
      <stop offset="0.7" stop-color="#f1aca1"/>
      <stop offset="0.89" stop-color="#f39589"/>
      <stop offset="1" stop-color="#f48478"/>
    </linearGradient>
    <linearGradient id="linear-gradient-13" x1="-8.324" y1="0.949" x2="-8.742" y2="0.723" gradientUnits="objectBoundingBox">
      <stop offset="0" stop-color="#ff627b"/>
      <stop offset="1" stop-color="#ffae5a"/>
    </linearGradient>
    <linearGradient id="linear-gradient-14" x1="0.196" y1="1.26" x2="0.841" y2="-0.288" xlink:href="#linear-gradient-9"/>
    <linearGradient id="linear-gradient-15" x1="-31.357" y1="0.564" x2="-30.382" y2="0.564" xlink:href="#linear-gradient-12"/>
    <linearGradient id="linear-gradient-16" x1="0.699" y1="1.042" x2="0.297" y2="-0.057" xlink:href="#linear-gradient-12"/>
    <linearGradient id="linear-gradient-17" x1="1.364" y1="2.547" x2="-0.49" y2="-1.874" xlink:href="#linear-gradient-12"/>
    <linearGradient id="linear-gradient-18" x1="-0.186" y1="1.829" x2="0.519" y2="0.455" xlink:href="#linear-gradient-12"/>
    <linearGradient id="linear-gradient-19" x1="0.099" y1="1.096" x2="1.078" y2="-0.567" xlink:href="#linear-gradient-12"/>
    <linearGradient id="linear-gradient-20" x1="-0.639" y1="3.562" x2="0.922" y2="-0.84" xlink:href="#linear-gradient-9"/>
    <linearGradient id="linear-gradient-21" x1="0" y1="0.5" x2="1.09" y2="0.5" xlink:href="#linear-gradient-5"/>
    <linearGradient id="linear-gradient-22" x1="-0.002" y1="0.502" x2="0.995" y2="0.502" xlink:href="#linear-gradient-5"/>
  </defs>
  <g id="Group_885" data-name="Group 885" transform="translate(-1511 -1231)">
    <g id="Ellipse_225" data-name="Ellipse 225" transform="translate(1511 1231)" fill="rgba(255,255,255,0)" stroke="#554570" stroke-width="4">
      <circle cx="150" cy="150" r="150" stroke="none"/>
      <circle cx="150" cy="150" r="148" fill="none"/>
    </g>
    <g id="Mask_Group_10" data-name="Mask Group 10" transform="translate(-5 18)" clip-path="url(#clip-path)">
      <g id="Career_progression" data-name="Career progression" transform="translate(1511.855 1202.751)">
        <rect id="Rectangle_223" data-name="Rectangle 223" width="308.683" height="298.805" transform="translate(-0.197 0.2)" fill="#fff"/>
        <g id="Group_310" data-name="Group 310" transform="translate(23.192 18.779)">
          <path id="Path_2225" data-name="Path 2225" d="M403.391,217.448c-16.21,74.1-54.331,87.288-121.345,87.288-67.039,0-111.424-29.531-122.521-78.391-5.42-23.88,9.23-45.485,33.6-62.411a142.223,142.223,0,0,1,99.842-23.676c23.676,3.145,46.15,10.713,60.289,28.355,10.662,13.3,12.579,29.275,13.346,45.613,5.165-19.662,2.889-40.653-10.994-56.479-18.179-20.735-48.655-27.715-77.9-26.846,1.432-.256,2.889-.511,4.321-.767C379.638,113.924,413.72,170.352,403.391,217.448Z" transform="translate(-141.321 -113.494)" fill="#f4e6f8"/>
          <g id="Group_286" data-name="Group 286" transform="translate(5.419)">
            <path id="Path_2226" data-name="Path 2226" d="M651.388,92.564l4.628-2.045a5.21,5.21,0,0,1,2.915-.384l5.011.793a1.978,1.978,0,0,0,2.122-2.761l-2.045-4.628a5.209,5.209,0,0,1-.384-2.915l.793-5.011a1.978,1.978,0,0,0-2.761-2.122l-4.628,2.045a5.21,5.21,0,0,1-2.915.384l-5.011-.793a1.978,1.978,0,0,0-2.122,2.761l2.045,4.628a5.211,5.211,0,0,1,.383,2.915l-.793,5.011A1.987,1.987,0,0,0,651.388,92.564Z" transform="translate(-510.278 -73.315)" fill="#e9cff1"/>
            <path id="Path_2227" data-name="Path 2227" d="M780.077,273.271l-2.148,7.543-7.415,2.506a1.154,1.154,0,0,0-.281,2.045l6.494,4.372.077,7.824a1.158,1.158,0,0,0,1.866.895l6.162-4.832,7.466,2.352a1.156,1.156,0,0,0,1.432-1.508l-2.685-7.364,4.525-6.392a1.142,1.142,0,0,0-.971-1.815l-7.824.281-4.679-6.29A1.151,1.151,0,0,0,780.077,273.271Z" transform="translate(-601.766 -221.526)" fill="#ce92dd"/>
            <path id="Path_2228" data-name="Path 2228" d="M305.534,492.682l-3.937,2.506-4.3-1.815a.678.678,0,0,0-.92.818l1.176,4.5-3.068,3.528a.672.672,0,0,0,.486,1.125l4.653.281,2.4,3.989a.685.685,0,0,0,1.227-.1l1.713-4.346,4.551-1.048a.688.688,0,0,0,.281-1.2l-3.605-2.966.409-4.653A.706.706,0,0,0,305.534,492.682Z" transform="translate(-247.903 -385.378)" fill="#fff"/>
            <path id="Path_2229" data-name="Path 2229" d="M244.007,111.445l.358,3.656-2.812,2.352a.549.549,0,0,0,.23.946l3.579.793,1.381,3.4a.548.548,0,0,0,.972.077l1.866-3.145,3.656-.256a.536.536,0,0,0,.358-.895l-2.429-2.736.895-3.554a.536.536,0,0,0-.741-.614l-3.349,1.457-3.094-1.943A.542.542,0,0,0,244.007,111.445Z" transform="translate(-208.492 -101.273)" fill="#e9cff1"/>
            <path id="Path_2230" data-name="Path 2230" d="M1021.137,345.034l-3.3,2.915-4.27-1.074a.643.643,0,0,0-.741.895l1.739,4.04-2.352,3.733a.655.655,0,0,0,.614,1l4.372-.409,2.813,3.375a.643.643,0,0,0,1.125-.281l.971-4.3,4.091-1.636a.64.64,0,0,0,.1-1.151l-3.784-2.25-.307-4.4A.653.653,0,0,0,1021.137,345.034Z" transform="translate(-782.179 -275.443)" fill="#fff"/>
            <path id="Path_2231" data-name="Path 2231" d="M119.444,405.707l5.114-2.761a5.929,5.929,0,0,1,3.3-.69l5.778.435a2.273,2.273,0,0,0,2.173-3.349l-2.761-5.114a5.929,5.929,0,0,1-.69-3.3l.435-5.778a2.273,2.273,0,0,0-3.349-2.173l-5.114,2.761a5.929,5.929,0,0,1-3.3.69l-5.778-.435a2.273,2.273,0,0,0-2.173,3.349l2.761,5.114a5.929,5.929,0,0,1,.69,3.3l-.435,5.778A2.273,2.273,0,0,0,119.444,405.707Z" transform="translate(-112.795 -303.593)" fill="#ce92dd"/>
            <path id="Path_2232" data-name="Path 2232" d="M458.054,249.606l2.148-1.151a2.369,2.369,0,0,1,1.381-.281l2.429.179a.964.964,0,0,0,.92-1.406l-1.151-2.148a2.607,2.607,0,0,1-.307-1.381l.179-2.429a.964.964,0,0,0-1.406-.92L460.1,241.22a2.369,2.369,0,0,1-1.381.281l-2.429-.179a.964.964,0,0,0-.92,1.406l1.151,2.148a2.369,2.369,0,0,1,.281,1.381l-.179,2.429A.979.979,0,0,0,458.054,249.606Z" transform="translate(-367.696 -197.349)" fill="#fff"/>
            <path id="Path_2233" data-name="Path 2233" d="M893.258,523.956l1.713-.92a2.035,2.035,0,0,1,1.1-.23l1.943.153a.766.766,0,0,0,.742-1.125l-.92-1.713a2.035,2.035,0,0,1-.23-1.1l.153-1.943a.766.766,0,0,0-1.125-.742l-1.713.92a2.036,2.036,0,0,1-1.1.23l-1.943-.153a.766.766,0,0,0-.741,1.125l.92,1.713a2.035,2.035,0,0,1,.23,1.1l-.153,1.943A.766.766,0,0,0,893.258,523.956Z" transform="translate(-692.065 -402.998)" fill="#e9cff1"/>
          </g>
          <g id="Group_288" data-name="Group 288" transform="translate(29.25 49.705)">
            <path id="Path_2234" data-name="Path 2234" d="M825.224,601.5l-.1.128L796,639.294c36.025-5.19,60.238-20.505,74.658-59.394l-7.542.051-40.474.256,7.824,14.522-2.557,3.3Z" transform="translate(-645.15 -500.082)" fill="#e9cff1"/>
            <g id="Group_287" data-name="Group 287">
              <path id="Path_2235" data-name="Path 2235" d="M206.179,358.48c-.051.026-.128.051-.179.077,11.659,19.355,30.451,33.8,55.2,42.212l7.005-18.486a3.668,3.668,0,0,0-2.122-4.73l-16.568-6.264.486-1.253-3.5-1.33.844-2.25a2.383,2.383,0,0,0-1.381-3.068l-.384-.153c.767-2.122-.1-5.241,1.969-8.437.2.077.435.153.639.23,0,0,.895-1.278,1.969-2.633a17.709,17.709,0,0,0,1.841.665l13.4-13.551,13.244-13.4s.128-.051.358-.128h.026c.026,0,.051-.026.077-.026a.089.089,0,0,0,.051-.026c.026,0,.051-.026.077-.026s.051-.026.077-.026a.094.094,0,0,1,.077-.026c.026,0,.026-.026.051-.026.077-.026.128-.051.2-.077.026,0,.051-.026.077-.026s.077-.026.1-.026c.026-.026.077-.026.128-.051.026-.026.051-.026.1-.051.026-.026.077-.026.128-.051.026-.026.077-.026.1-.051.051-.026.128-.051.179-.077a.094.094,0,0,1,.077-.026c.077-.026.128-.051.2-.077.051-.026.077-.026.128-.051s.077-.026.128-.051.1-.026.153-.051.1-.026.128-.051c.051-.026.1-.026.128-.051a1.241,1.241,0,0,1,.179-.077c.077-.026.128-.051.2-.077a1.766,1.766,0,0,0,.2-.077l.153-.077.153-.077.153-.077c.051-.026.128-.051.179-.077l.153-.077c.051-.026.128-.051.179-.077l.153-.077a1.777,1.777,0,0,1,.332-.128.364.364,0,0,1,.153-.051.907.907,0,0,0,.23-.1l.153-.077a.515.515,0,0,0,.2-.1,1.245,1.245,0,0,1,.179-.077.514.514,0,0,0,.2-.1,1.248,1.248,0,0,1,.179-.077c.1-.051.2-.1.332-.153a.363.363,0,0,1,.153-.051c-.051.256-.077.537-.128.793v.051c-.026.256-.077.511-.1.793v.077c-.026.256-.077.511-.1.767v.077c-.026.256-.077.511-.1.767v.051c-.153,1.1-.256,2.173-.384,3.222V330c-.026.23-.051.486-.077.716a.324.324,0,0,1-.026.153,4.989,4.989,0,0,0-.051.588.435.435,0,0,1-.026.179c-.026.179-.026.358-.051.537a.563.563,0,0,1-.026.2c-.026.179-.026.332-.051.511a.563.563,0,0,1-.026.2,3.426,3.426,0,0,0-.026.511.435.435,0,0,1-.026.179c0,.179-.026.358-.026.537v.153c-.026.46-.051.869-.077,1.3v.1c0,.179-.026.332-.026.511v3.247c0,.153.026.281.026.409.026.332.026.69.026,1.048-.179,11.275-14.344,35.462-14.344,35.462a1.158,1.158,0,0,1,.2.026h0a.324.324,0,0,1,.153.026h0c.051,0,.128.026.2.026h0c.077,0,.153.026.23.026h.026c.179.026.358.051.563.077h.026c.2.026.46.051.716.077h.051c.256.026.537.051.818.077h.051a2.2,2.2,0,0,0,.409.026h.051a3.5,3.5,0,0,1,.486.051h.026c.153,0,.307.026.46.026h.077c1.2.077,2.557.153,3.989.179.026.1.026.23.051.332a1.974,1.974,0,0,1,.051.383.094.094,0,0,0,.026.077l.077.384v.026c.051.281.128.537.179.793h0a10.584,10.584,0,0,0,2.327,4.449A7.173,7.173,0,0,0,285,385.888c.2.026.384.077.588.1-3.094,5.881-5.932,10.969-7.159,12.273-.767.844-2.455,3.068-4.577,6.008a169.292,169.292,0,0,0,23.88,3.912C303,401.919,311.723,390,316.4,383.536c6.392-1,11.02-1.713,10.994-.972a.305.305,0,0,1-.1.2c-2.148,2.634-1.611,11.863-1.381,14.165s-1.534,8.974-1.534,8.974c.153.179.332.358.511.537a1.181,1.181,0,0,1,.179.179,3.94,3.94,0,0,0,.332.307c.077.077.153.128.23.2.1.077.179.153.281.23l.026.026c-.1.588-.23,1.151-.332,1.662,4.116-.077,8.1-.2,11.991-.409,1.227-3.17,5.472-14.062,9.358-21.6,4.551-8.923,3.886-15.775.511-18.025-6.366-4.244-17.13-6.75-27.332-8.309,0,0,2.045-3.017,3.682-6.06h.23c1.151.153,1.432-1.483,3.554-2.838,1.432-.92,1.662-2.2,2.378-3.3a1.916,1.916,0,0,0,1,.051c1.253.972,2.557,1.3,3.528.793h0c.077-.026.153-.077.23-.1,1.125-.486,2.224-.946,3.247-1.381.511-.23,1-.435,1.457-.639.895-.384,1.713-.767,2.531-1.125.358-.153.69-.307,1.023-.46,7.747-3.5,11.326-5.727,12.017-7.8a1.35,1.35,0,0,0,.077-.307,2.586,2.586,0,0,0-.2-1.56c0-.026-.026-.051-.026-.077a1.036,1.036,0,0,0-.128-.23,1.057,1.057,0,0,0-.179-.281.745.745,0,0,0-.051-.23h0a.906.906,0,0,0-.1-.23.194.194,0,0,1-.051-.1c-.153-.256-.307-.511-.46-.741s-.281-.46-.435-.69c-.026-.051-.051-.077-.077-.128-9.2-14.625-17.616-21.912-22.806-24.162a23.63,23.63,0,0,0-4.6-3.094,4.8,4.8,0,0,0,.1-.511l-1.866-2.838c.026-.128.077-.23.1-.358,3.682-.179,6.827-1.713,6.954-4.423a17.618,17.618,0,0,0-1.739-7.952c-.051.026-.077.026-.128.051a50.789,50.789,0,0,1-1.381-5.369,26.312,26.312,0,0,0-.665-3.528.545.545,0,0,0,.435-.511.57.57,0,0,0-.511-.614h-.23c-.2-.741-.435-1.483-.665-2.122a5.024,5.024,0,0,0-.383-.844,16.278,16.278,0,0,1,1.611,2.761,25.2,25.2,0,0,1-1-5.6c-.051-2.506-2.506-10.278-12.579-4.116-4.935,3.017-12.861.716-12.145,7.747s-1.892,6.775,1.176,10.329c2.864,3.273,3.528,10.764,7.364,8.949a18.368,18.368,0,0,1-.511,2.045l-1.994,1.585H307.2c-2.608.153-5.957-.128-9.179.1a3.972,3.972,0,0,0-1.636-.051c-4.372.793-19.764,6.7-30.017,12.63a5.559,5.559,0,0,0-1.585,1.406L253.812,329.2c-.972,1.2-1.994,2.557-3.043,4.014l-10.125,13.346s.256.2.69.537l-1.739,2.812s.153.179.435.46c-3.452,4.96-4.832,5.216-6.622,8.31a2.39,2.39,0,0,0-2.71,1.483l-.844,2.25-2.4-.895-.665.1-.358.946L214.591,358.1C212.827,357.431,207.56,357.048,206.179,358.48Zm124-24.238a27.3,27.3,0,0,0,1.713-3.81.025.025,0,0,0,.026.026c.69.972,1.457,1.892,2.045,2.582s1,1.125,1,1.125c-2.736,1.227-5.293,2.454-6.264,2.94C329.134,336.236,329.62,335.29,330.183,334.242Zm-1.534,2.991Zm-3.81-61.388s.23.281.537.716a4.8,4.8,0,0,0-.639-.614Zm-91.788,88.643,10.227,3.861-.2.537-10.227-3.861Z" transform="translate(-206 -267.719)" fill="#e9cff1"/>
            </g>
          </g>
          <g id="Group_291" data-name="Group 291" transform="translate(59.068 138.497)">
            <path id="Path_2236" data-name="Path 2236" d="M360.184,869.307S355.1,873.04,353,875.673c-2.3,2.889-4.628,5.446-6.034,7.338-1.381,1.892-13.014,5.088-8.131-3.835C344.051,869.614,350.392,860,350.392,860Z" transform="translate(-333.805 -797.359)" fill="#aa8ae0"/>
            <path id="Path_2237" data-name="Path 2237" d="M421.719,634.406s-20.659,29.07-25.338,32.829c-3.784,3.068-26.565,25.772-26.667,25.9h0a29.792,29.792,0,0,0-5.881-4.116h0c-3.784-2.761-6.034-3.222-6.034-3.222s19.483-28.636,22.755-32.19,18.23-34.184,18.23-34.184l22.6-4.423Z" transform="translate(-348.807 -615)" fill="#3e1c7a"/>
            <g id="Group_290" data-name="Group 290" transform="translate(0 74.407)">
              <path id="Path_2238" data-name="Path 2238" d="M340.057,935.672l-2.582,1.713c-6.469-4.244-9.971-15.6-12.784-20.224s-1.943-6.545-1.918-6.545c2.812-1.815,4.858-3.247,6.315-4.321a1.422,1.422,0,0,1,1.969.281,7.683,7.683,0,0,1,1.739,5.369c-.256,2.582,3.043,4.577,5.088,5.548a1.265,1.265,0,0,1,.69,1.483,11.081,11.081,0,0,0,.077,5.983C341.745,935.186,340.057,935.672,340.057,935.672Z" transform="translate(-322.627 -906.018)" fill="#3e1c7a"/>
              <g id="Group_289" data-name="Group 289" transform="translate(0.011 2.859)">
                <path id="Path_2239" data-name="Path 2239" d="M327.255,923.873c2.557,4.551,5.471,15.187,12.835,20.147l-2.582,1.713c-6.469-4.244-9.971-15.6-12.784-20.224s-1.918-6.545-1.918-6.545c.92-.588,1.815-1.33,2.685-1.764C325.388,917.89,325.209,920.242,327.255,923.873Z" transform="translate(-322.671 -917.2)" fill="#321266"/>
              </g>
            </g>
          </g>
          <g id="Group_296" data-name="Group 296" transform="translate(0 126.224)">
            <g id="Group_294" data-name="Group 294" transform="translate(8.616)">
              <g id="Group_292" data-name="Group 292" transform="translate(0 14.65)">
                <path id="Path_2240" data-name="Path 2240" d="M355,661.3l-2.173,1.534-1.1.767-7.44,5.267L313.1,690.955l1.841,34.516-14.395-5.446-53.922-20.48-5.114,3.042L139.03,763.823H125.3l64.763-50.368,33.6-26.1,5.446-4.244h12.912l10.559,3.3,33.059,10.3,13.934,4.346.614.2-.92-5.881L295.939,674l30.349-38.633.1-.128,2.761-3.528,5.829-7.415,18.153,33.519Z" transform="translate(-125.3 -624.3)" fill="#b63760"/>
              </g>
              <g id="Group_293" data-name="Group 293" transform="translate(187.309)">
                <path id="Path_2241" data-name="Path 2241" d="M924.99,567l-52.8.307H857.9l50.88,66.86Z" transform="translate(-857.9 -567)" fill="#b63760"/>
              </g>
            </g>
            <g id="Group_295" data-name="Group 295">
              <path id="Path_2242" data-name="Path 2242" d="M315.139,661.3l-41.19,29.659.23,4.423.307,5.676.972,18.971.256,4.551.026.895-49.371-19.048-9.946-3.835-7.875-3.042-77.982,47.377-27.843,16.9H91.6l72.536-52.056,35.718-25.644,4.168-3.017,10.687,3.4,46.533,14.753-.69-4.551-.716-4.526L257.049,674l38.275-49.525.153-.179,5.446,10.253.383.69L315.164,661.3Z" transform="translate(-91.6 -609.65)" fill="url(#linear-gradient)"/>
              <path id="Path_2243" data-name="Path 2243" d="M909.982,567l-52.082.307,35.948,66.86Z" transform="translate(-661.974 -567)" fill="url(#linear-gradient-2)"/>
            </g>
            <path id="Path_2244" data-name="Path 2244" d="M806.615,919.591H820.7L818.862,885.1H804.8Z" transform="translate(-622.451 -803.769)" fill="#a8385a"/>
            <path id="Path_2245" data-name="Path 2245" d="M998.5,634.166h14.932L1029.642,567h-15.008Z" transform="translate(-766.626 -567)" fill="#b63760"/>
          </g>
          <g id="Group_300" data-name="Group 300" transform="translate(5.079 136.196)">
            <path id="Path_2246" data-name="Path 2246" d="M180.45,665.855l-47.224-20.608a3.668,3.668,0,0,1-2.122-4.73l8.079-33.136c.716-1.892,6.775-1.509,8.667-.793l51.493,19.483a3.668,3.668,0,0,1,2.122,4.73l-12.042,31.806C188.708,664.474,182.342,666.571,180.45,665.855Z" transform="translate(-125.905 -606.001)" fill="#49176e"/>
            <path id="Path_2247" data-name="Path 2247" d="M165.32,669.445l-51.493-19.483a3.668,3.668,0,0,1-2.122-4.73l12.042-31.806a3.668,3.668,0,0,1,4.73-2.122l51.493,19.483a3.668,3.668,0,0,1,2.122,4.73L170.05,667.3A3.681,3.681,0,0,1,165.32,669.445Z" transform="translate(-111.465 -609.77)" fill="url(#linear-gradient-3)"/>
            <path id="Path_2248" data-name="Path 2248" d="M190.436,654.252,136.82,633.977a2.546,2.546,0,0,1-1.483-3.273l6.136-16.184a2.546,2.546,0,0,1,3.273-1.483l53.616,20.275a2.546,2.546,0,0,1,1.483,3.273l-6.162,16.21A2.494,2.494,0,0,1,190.436,654.252Z" transform="translate(-129.115 -611.12)" fill="#3e1c7a"/>
            <path id="Path_2249" data-name="Path 2249" d="M189.436,650.452,135.82,630.177a2.546,2.546,0,0,1-1.483-3.273l6.136-16.184a2.546,2.546,0,0,1,3.273-1.483l53.616,20.275a2.546,2.546,0,0,1,1.483,3.273l-6.136,16.184A2.525,2.525,0,0,1,189.436,650.452Z" transform="translate(-128.371 -608.291)" fill="url(#linear-gradient-4)"/>
            <g id="Group_297" data-name="Group 297" transform="translate(20.233 23.624)">
              <path id="Path_2250" data-name="Path 2250" d="M193.9,704.511l-.767.128-2.531-1.381,1.074-4.73.767-.128,3.3,1.253Z" transform="translate(-190.6 -698.4)" fill="#b6871e"/>
              <path id="Path_2251" data-name="Path 2251" d="M286.5,739.511l-.767.128-2.531-1.355,1.074-4.73.767-.153,3.3,1.253Z" transform="translate(-259.524 -724.451)" fill="#b6871e"/>
            </g>
            <g id="Group_298" data-name="Group 298" transform="translate(19.466 23.752)">
              <path id="Path_2252" data-name="Path 2252" d="M190.9,705.011l-3.3-1.253,1.841-4.858,3.3,1.253Z" transform="translate(-187.6 -698.9)" fill="url(#linear-gradient-5)"/>
              <path id="Path_2253" data-name="Path 2253" d="M283.5,740.085l-3.3-1.227L282.041,734l3.3,1.227Z" transform="translate(-256.524 -725.026)" fill="url(#linear-gradient-6)"/>
            </g>
            <path id="Path_2254" data-name="Path 2254" d="M250.908,625.356l-.665.1-5.216-2.327L244.9,621.8l.665-.1,5.881,2.224Z" transform="translate(-210.784 -617.686)" fill="#b6871e"/>
            <path id="Path_2255" data-name="Path 2255" d="M316.108,649.982l-.665.1-5.216-2.327L310.1,646.4l.665-.1,5.881,2.25Z" transform="translate(-259.314 -635.997)" fill="#b6871e"/>
            <g id="Group_299" data-name="Group 299" transform="translate(36.034 0.196)">
              <path id="Path_2256" data-name="Path 2256" d="M270.809,618.871l-1.764-.665,1.125-2.966a1.429,1.429,0,0,0-.844-1.841l-12.2-4.628a1.487,1.487,0,0,0-1.1.026,1.334,1.334,0,0,0-.741.793l-1.125,2.966-1.764-.665,1.125-2.966a3.367,3.367,0,0,1,1.739-1.866,3.4,3.4,0,0,1,2.557-.077l12.2,4.628a3.35,3.35,0,0,1,1.943,4.3Z" transform="translate(-252.4 -606.769)" fill="#3e1c7a"/>
            </g>
            <path id="Path_2257" data-name="Path 2257" d="M248.681,625.756l-5.881-2.224.537-1.432,5.881,2.224Z" transform="translate(-209.221 -617.984)" fill="url(#linear-gradient-7)"/>
            <path id="Path_2258" data-name="Path 2258" d="M313.806,650.382l-5.906-2.224.563-1.457,5.881,2.224Z" transform="translate(-257.676 -636.294)" fill="url(#linear-gradient-8)"/>
          </g>
          <g id="Group_309" data-name="Group 309" transform="translate(44.462 46.56)">
            <path id="Path_2259" data-name="Path 2259" d="M628.708,414.2c4.551.051,15.162,7.364,26.923,26.616,1.509,2.454-7.926,8.642-13.04,4.832C628.836,435.446,620.475,414.123,628.708,414.2Z" transform="translate(-533.417 -373.603)" fill="url(#linear-gradient-9)"/>
            <g id="Group_303" data-name="Group 303" transform="translate(45.879 90.445)">
              <path id="Path_2260" data-name="Path 2260" d="M629.62,790.259s-4.219,8.386-.384,12.247c3.733,3.733-1.969,12.094-6.878,8.821-4.883-3.247-8.028-9.792-7.875-11.275.128-1.483,3.656-4.679,4.014-6.162s1.253-6.29,1.253-6.29S630.106,787.677,629.62,790.259Z" transform="translate(-571.132 -741.979)" fill="#aa8ae0"/>
              <g id="Group_302" data-name="Group 302" transform="translate(40.975 55.811)">
                <path id="Path_2261" data-name="Path 2261" d="M634.552,844.008l-.869,2.966c-7.67.92-17.642-5.523-22.781-7.261-5.114-1.739-5.7-3.758-5.7-3.784,1-3.2,1.636-5.625,2.045-7.389a1.409,1.409,0,0,1,1.687-1.048,7.792,7.792,0,0,1,4.781,2.991c1.457,2.148,5.267,1.534,7.466.972a1.291,1.291,0,0,1,1.483.69,11.119,11.119,0,0,0,3.912,4.526C635.523,842.551,634.552,844.008,634.552,844.008Z" transform="translate(-605.2 -827.455)" fill="#3e1c7a"/>
                <g id="Group_301" data-name="Group 301" transform="translate(0 5.381)">
                  <path id="Path_2262" data-name="Path 2262" d="M611.771,852.514c4.883,1.841,13.96,8.1,22.781,7.159l-.869,2.966c-7.67.92-17.642-5.523-22.781-7.261s-5.7-3.784-5.7-3.784c.332-1.048.537-2.173.92-3.094C606.478,849.139,607.859,851.057,611.771,852.514Z" transform="translate(-605.2 -848.5)" fill="#321266"/>
                </g>
              </g>
              <path id="Path_2263" data-name="Path 2263" d="M465.295,609.277c10.662.972,37.431,2.864,49.218,10.713,3.375,2.25,4.04,9.1-.511,18.025-4.577,8.923-9.69,22.5-9.69,22.5a12.343,12.343,0,0,1-12.835-3.605s1.739-6.673,1.534-8.974c-.23-2.3-.767-11.531,1.381-14.164s-29.4,5.369-42.289,3.094C440.469,634.82,442.437,607.206,465.295,609.277Z" transform="translate(-445.081 -609.167)" fill="url(#linear-gradient-10)"/>
              <path id="Path_2264" data-name="Path 2264" d="M446.77,645.6c-.844,4.832,2.352,11.633,7.594,12.452,13.883,2.2,49.039-3.733,46.661-1.048s-3.222,9.23-3.017,11.557-3.094,18.128-3.094,18.128a4.253,4.253,0,0,0,.358.332,12.683,12.683,0,0,1-3.912-2.966s1.739-6.673,1.534-8.974c-.23-2.3-.767-11.531,1.381-14.165s-29.454,5.5-42.315,3.094C445.185,662.73,443.012,652.375,446.77,645.6Z" transform="translate(-444.939 -636.285)" fill="#3e1c7a"/>
            </g>
            <path id="Path_2265" data-name="Path 2265" d="M445.642,630.229c4.321.23,10.048-.077,12.656-2.761,8.923-9.255,11.787-17.872,28.866-15.7-8.693-1.33-16.977-1.969-21.86-2.4C448.966,607.857,443.315,621.536,445.642,630.229Z" transform="translate(-399.211 -518.784)" fill="#3e1c7a"/>
            <path id="Path_2266" data-name="Path 2266" d="M472.847,417.9c-4.346,7.875-4.3,11.02-4.5,15.341-.128,3.094-5.7,11.275-5.7,11.275-17.079-2.2-20.71,4.372-29.659,13.628-4.474,4.653-20.787,2.173-20.787,2.173s15.085-25.772,14.318-36.511c-.562-7.8,3.273-34.977,7.594-37.482,4.321-2.531,11.1-1.508,15.571-1.764,4.321-.23,11.02,2.429,12.63,2.991,6.136,2.1,7.031,2.25,12.324,6.7C478.19,397.215,477.219,410.025,472.847,417.9Z" transform="translate(-374.692 -351.53)" fill="url(#linear-gradient-11)"/>
            <path id="Path_2267" data-name="Path 2267" d="M436.973,446.349,431.783,443l-2.685.818c-1.739,8.77-2.787,19.125-2.48,23.471C427.385,478.053,412.3,503.8,412.3,503.8s2.122.332,5.037.511h0c7.773-12.042,12.17-28.61,12.963-39.221A40.6,40.6,0,0,1,436.973,446.349Z" transform="translate(-374.767 -395.04)" fill="#3e1c7a"/>
            <path id="Path_2268" data-name="Path 2268" d="M563.012,392.031s-4.474,12.912,1.994,35.59c0,0,14.344-26.616,12.707-33.392C574.824,382.315,563.012,392.031,563.012,392.031Z" transform="translate(-485.823 -354.323)" fill="#fceeec"/>
            <path id="Path_2269" data-name="Path 2269" d="M297.383,463.481c-4.96,1.227-11.659,8.463-19.636,22.423-8,14.011-8.9,10.329-12.247,17.846a2.82,2.82,0,0,0,2.659,1.815,2.088,2.088,0,0,0,2.608,1.688c2.173-.537.511,2.173,5.625.639s1.176-6.469,5.088-11.378,16.9-17.207,18.843-20.02C302.292,473.657,301.755,462.382,297.383,463.481Z" transform="translate(-265.5 -410.228)" fill="url(#linear-gradient-12)"/>
            <path id="Path_2270" data-name="Path 2270" d="M400.695,391.094c-3.119-3.656-2.736-7.747-15.98-2.071-6.6,2.812-19.559,7.594-23.931,13.3-4.065,5.267-9.358,11.429-8.949,13.372.946,4.7,4.168,12.247,5.8,10.815,7.159-6.187,17.207-14.829,18.69-15.468,5.446-2.327,11.378-5.114,11.378-5.114S406.064,397.409,400.695,391.094Z" transform="translate(-329.744 -352.773)" fill="url(#linear-gradient-13)"/>
            <path id="Path_2271" data-name="Path 2271" d="M295,561.811a20.721,20.721,0,0,0,8.591,5.139,46.413,46.413,0,0,1,4.551-5.548l-10-4.6Z" transform="translate(-287.457 -479.744)" fill="#fceeec"/>
            <path id="Path_2272" data-name="Path 2272" d="M299.2,430.176s5.65,4.781,11.326,6.52l26.642-26.948s16.67-6.366,23.88-12.017-1.79-14.011-6.29-13.193c-4.372.767-19.764,6.7-30.017,12.63a5.558,5.558,0,0,0-1.585,1.406Z" transform="translate(-290.584 -351.483)" fill="url(#linear-gradient-14)"/>
            <path id="Path_2273" data-name="Path 2273" d="M569.015,333.8s-.358,7.466-1.56,11.378c-1.074,3.579-2.173,9.128,8.054,9.128,7.747,0,7.21-13.142,7.21-13.142Z" transform="translate(-489.755 -313.76)" fill="url(#linear-gradient-15)"/>
            <path id="Path_2274" data-name="Path 2274" d="M576.557,284.715a35.262,35.262,0,0,1,1.636,6.776c.2,1.994,2.557,8,2.122,10.38s-1.1,5.7-7.517,5.727c-6.417,0-9.665-2.429-12.221-6.648-2.582-4.219-3.963-9.025-3.682-10.406s.869-7.21,7.542-8.719C570.6,280.42,575.355,281.289,576.557,284.715Z" transform="translate(-482.365 -274.595)" fill="url(#linear-gradient-16)"/>
            <path id="Path_2275" data-name="Path 2275" d="M559.771,331.434l3.119,3.2a4.048,4.048,0,0,0,3.094,1.227,36.564,36.564,0,0,0,12.6-2.761,18.01,18.01,0,0,1,1.739,7.952c-.2,4.193-7.7,5.574-13.091,3.452s-8.488-4.091-10.2-7.645A16.9,16.9,0,0,1,555.4,329.9Z" transform="translate(-481.278 -310.857)" fill="#331d60"/>
            <path id="Path_2276" data-name="Path 2276" d="M625.9,326.3a16.38,16.38,0,0,0,2.608,2.685,2.04,2.04,0,0,1-1.79,1.151Z" transform="translate(-533.754 -308.177)" fill="#ed9d8d"/>
            <g id="Group_304" data-name="Group 304" transform="translate(82.791 14.489)">
              <path id="Path_2277" data-name="Path 2277" d="M589.948,314.163a.535.535,0,0,1-.486-.077.347.347,0,0,1,.026-.588,7.925,7.925,0,0,1,4.014-1.406c.307-.026.563.128.563.358s-.256.435-.562.486a6.231,6.231,0,0,0-3.247,1.1A1.568,1.568,0,0,1,589.948,314.163Z" transform="translate(-589.312 -312.089)" fill="#39147e"/>
            </g>
            <g id="Group_305" data-name="Group 305" transform="translate(91.964 12.25)">
              <path id="Path_2278" data-name="Path 2278" d="M625.88,305.343a.616.616,0,0,1-.46-.1.539.539,0,0,1-.128-.767,3.241,3.241,0,0,1,3.017-1.125.565.565,0,1,1-.1,1.125,2.11,2.11,0,0,0-1.994.665A.569.569,0,0,1,625.88,305.343Z" transform="translate(-625.186 -303.332)" fill="#39147e"/>
            </g>
            <g id="Group_306" data-name="Group 306" transform="translate(88.618 24.08)">
              <path id="Path_2279" data-name="Path 2279" d="M618.515,349.6a15.94,15.94,0,0,0,.256,2.736c-.179.077-.384.153-.588.23-2.608,1-4.091.767-4.909.256a2.283,2.283,0,0,1-.869-1.023,2.535,2.535,0,0,1-.2-.741,16.269,16.269,0,0,0,5.446-1.125C618.157,349.753,618.515,349.6,618.515,349.6Z" transform="translate(-612.174 -349.6)" fill="#341355"/>
              <path id="Path_2280" data-name="Path 2280" d="M618.057,350.3l-.23,1.381a9.791,9.791,0,0,1-5.523.639,2.534,2.534,0,0,1-.2-.741A20.071,20.071,0,0,0,618.057,350.3Z" transform="translate(-612.1 -350.121)" fill="#fff"/>
              <path id="Path_2281" data-name="Path 2281" d="M621.309,360.058c-2.608,1-4.091.767-4.909.256a10.729,10.729,0,0,1,3.068-.639A3.237,3.237,0,0,1,621.309,360.058Z" transform="translate(-615.301 -357.092)" fill="#e9537f"/>
            </g>
            <g id="Group_307" data-name="Group 307" transform="translate(84.958 17.519)">
              <path id="Path_2282" data-name="Path 2282" d="M598.53,326.331a2.093,2.093,0,0,1,1.2-.69,1.739,1.739,0,0,1,.511-.051,1.3,1.3,0,0,0,.026-.767,1.243,1.243,0,0,0-1.585-.818,1.277,1.277,0,0,0-.844,1.585A1.31,1.31,0,0,0,598.53,326.331Z" transform="translate(-597.785 -323.938)" fill="#39147e"/>
            </g>
            <g id="Group_308" data-name="Group 308" transform="translate(92.986 14.681)">
              <path id="Path_2283" data-name="Path 2283" d="M629.93,315.231a2.093,2.093,0,0,1,1.2-.69,1.741,1.741,0,0,1,.511-.051,1.3,1.3,0,0,0,.026-.767,1.243,1.243,0,0,0-1.585-.818,1.277,1.277,0,0,0-.844,1.585A1.232,1.232,0,0,0,629.93,315.231Z" transform="translate(-629.185 -312.838)" fill="#39147e"/>
            </g>
            <path id="Path_2284" data-name="Path 2284" d="M548.976,257.741c10.1-6.162,12.528,1.611,12.579,4.116a24.854,24.854,0,0,0,1,5.6,20.712,20.712,0,0,0-2.582-4.065s-3.273,3.375-7.312,2.506c-4.6-.972-6.469,1.125-5.83,4.321,1.79,8.846-1.508,7.185-1.866,6.7-.332-.511-3.937-1.457-2.966,1.79.767,2.557,4.5,3.426,4.4,5.42-4.781,3.758-5.318-4.73-8.412-8.31-3.094-3.554-.486-3.324-1.176-10.329S544.016,260.784,548.976,257.741Z" transform="translate(-467.16 -255.419)" fill="#331d60"/>
            <path id="Path_2285" data-name="Path 2285" d="M558.639,336.4c-.588-.46-3.349-1.023-3.247.92a5.493,5.493,0,0,0,3.733,5.114C561.835,343.279,559.892,337.4,558.639,336.4Z" transform="translate(-481.271 -315.364)" fill="url(#linear-gradient-17)"/>
            <ellipse id="Ellipse_66" data-name="Ellipse 66" cx="6.827" cy="3.631" rx="6.827" ry="3.631" transform="translate(99.158 67.875) rotate(62.141)" fill="#3e1c7a"/>
            <ellipse id="Ellipse_67" data-name="Ellipse 67" cx="4.756" cy="2.531" rx="4.756" ry="2.531" transform="translate(96.891 71.103) rotate(62.141)" fill="#ffe0e3"/>
            <path id="Path_2286" data-name="Path 2286" d="M631.3,513.287c5.855-2.25,14.062-9.025,17.335-10.048,3.273-1,13.858,2.889,11.505,6.724-2.659,4.372-9.614,6.9-25.312,10.329Z" transform="translate(-537.773 -439.759)" fill="url(#linear-gradient-18)"/>
            <path id="Path_2287" data-name="Path 2287" d="M589.866,542.108c-5.395-.511-5.932,2.148-8.591,1.381s-2.582,1.278-1.457,1.918a5.949,5.949,0,0,0,3.758.511,36.042,36.042,0,0,0-3.707,3.3s-4.372-1.1-4.577.511c-.2,1.585.409,1.994,2.582,2.148s1.432,1.151,2.838.767a3.56,3.56,0,0,0,2.506,1.79,2.638,2.638,0,0,0,.537,1.713c.588.486,3.068-.665,4.219-.511s1.432-1.483,3.554-2.838,1.636-3.554,3.912-4.73C597.69,546.915,595.261,542.62,589.866,542.108Z" transform="translate(-496.058 -468.759)" fill="url(#linear-gradient-19)"/>
            <path id="Path_2288" data-name="Path 2288" d="M641.291,532.955c-1.125-2.1-2.864-3.4-4.091-3.145h0l5.037-2.71,5.165,9.435-6.29,1.892.153-.077C642.518,537.685,642.518,535.282,641.291,532.955Z" transform="translate(-542.165 -457.637)" fill="#fceeec"/>
            <path id="Path_2289" data-name="Path 2289" d="M648.06,521.276c1.764-.946,1.79-4.4.026-7.721-1.662-3.145-4.321-5.062-6.085-4.449.46-.23,11.352-5.625,14.574-6.111,3.3-.486,10.329,1.585,11.863,4.935C669.971,511.254,664.934,514.117,648.06,521.276Z" transform="translate(-545.737 -439.643)" fill="url(#linear-gradient-20)"/>
            <path id="Path_2290" data-name="Path 2290" d="M538.133,384.5a5.67,5.67,0,0,0-1.432,1.151,4.468,4.468,0,0,0-.307.358,3.439,3.439,0,0,0-.281.358,14.855,14.855,0,0,0-.972,1.56c-.128.281-.281.537-.409.818l-.332.844c-.1.281-.2.588-.281.869l-.153.435c-.051.153-.077.307-.128.435l-.23.895c-.077.307-.1.588-.179.895-.051.307-.128.588-.153.895-.077.614-.153,1.2-.23,1.815l-.128,1.841-.1-.358,1.969,2.48c.665.818,1.33,1.662,1.969,2.506l.256.332-.2.358-2.276,3.989-2.3,3.963.026-.537c.716,1.662,1.381,3.349,2.071,5.037s1.355,3.375,2.02,5.062,1.3,3.375,1.943,5.088c.639,1.687,1.278,3.4,1.866,5.114-.818-1.636-1.585-3.273-2.352-4.909s-1.534-3.3-2.276-4.935c-.741-1.662-1.483-3.3-2.224-4.96-.716-1.662-1.457-3.324-2.173-4.986L531,410.63l.153-.256,2.276-3.989,2.327-3.963.051.665-1.918-2.531-1.918-2.531-.128-.179.026-.179.2-1.866c.1-.614.2-1.253.307-1.866q.192-.92.46-1.841l.281-.895.153-.46.179-.435a13.921,13.921,0,0,1,1.79-3.324c.179-.256.409-.486.614-.741a4.082,4.082,0,0,1,.332-.332l.332-.332A4.684,4.684,0,0,1,538.133,384.5Z" transform="translate(-463.118 -351.497)" fill="#3e1c7a"/>
            <path id="Path_2291" data-name="Path 2291" d="M590.048,405.3a23.646,23.646,0,0,1,1.227,2.71,26.156,26.156,0,0,1,.895,2.838,23.209,23.209,0,0,1,.511,2.966,15.167,15.167,0,0,1-.051,3.043l-.026.153-.128.128c-.767.716-1.534,1.432-2.327,2.148l-2.327,2.148.2-.537.588,3.656.281,1.841.281,1.841.051.281-.179.2-3.349,4.04-1.687,2.02-1.687,2.02c-.562.665-1.125,1.355-1.687,2.02l-1.687,1.994c-1.151,1.33-2.276,2.659-3.452,3.989.972-1.457,1.969-2.889,2.991-4.321.511-.716,1.023-1.432,1.534-2.122.511-.716,1.048-1.406,1.56-2.122l1.585-2.1,1.611-2.071c1.074-1.381,2.173-2.761,3.273-4.116l-.128.486-.281-1.841-.281-1.841L586.8,421.1l-.051-.332.256-.2,2.4-2.071c.793-.69,1.611-1.381,2.4-2.071l-.153.281a15,15,0,0,0,.2-2.838,22.116,22.116,0,0,0-.281-2.889,27.277,27.277,0,0,0-.639-2.864c-.128-.486-.256-.946-.409-1.406C590.38,406.22,590.227,405.76,590.048,405.3Z" transform="translate(-496.24 -366.979)" fill="#3e1c7a"/>
            <path id="Path_2292" data-name="Path 2292" d="M588.9,408.317s3.5,1.1,5.267.179-.793-2.224-.793-2.224l-1.534-.767-.869-.2Z" transform="translate(-506.214 -366.979)" fill="#b7b3b8"/>
            <path id="Path_2293" data-name="Path 2293" d="M514.854,425.7a28.257,28.257,0,0,1,.051,5.881,24.9,24.9,0,0,1-1.227,5.855l-.128.358-.153.358-.307.716a1.245,1.245,0,0,0-.077.179l-.1.2-.23.409a8.051,8.051,0,0,1-.562.741,10.261,10.261,0,0,1-2.685,2.045c-.92.511-1.815.92-2.71,1.33-.869.384-1.739.767-2.557,1.176q-1.227.575-2.378,1.227c-.767.435-1.483.921-2.173,1.406a18.339,18.339,0,0,0-3.554,3.477A23.654,23.654,0,0,0,492,460.191l-5.932,3.605-.665-5.625a33.965,33.965,0,0,1,2.685-5.7,26.568,26.568,0,0,1,3.886-5.088,22.47,22.47,0,0,1,5.088-3.861,25.4,25.4,0,0,1,2.787-1.355c.946-.409,1.892-.741,2.812-1.048,1.866-.639,3.707-1.1,5.293-1.739a7.027,7.027,0,0,0,1.994-1.125c.128-.1.23-.23.358-.332l.128-.179.077-.1c.025-.026.051-.1.077-.128l.332-.563.153-.281.153-.307a21.345,21.345,0,0,0,1.739-5.088c.2-.895.332-1.815.46-2.71a25.4,25.4,0,0,0,.179-2.736Z" transform="translate(-429.177 -382.163)" fill="url(#linear-gradient-21)"/>
            <path id="Path_2294" data-name="Path 2294" d="M590.1,407.242v1.585a1.668,1.668,0,0,0,.256.92l.153.256a1.831,1.831,0,0,0,1.457.92h.1a1.823,1.823,0,0,0,1.56-.639l.588-.69a1.813,1.813,0,0,0,.435-1.457l-.281-1.969a1.846,1.846,0,0,0-1.636-1.585.5.5,0,0,1-.179-.026,1.837,1.837,0,0,0-1.943,1.1l-.358.869A1.513,1.513,0,0,0,590.1,407.242Z" transform="translate(-507.107 -366.415)" fill="url(#linear-gradient-22)"/>
            <path id="Path_2295" data-name="Path 2295" d="M558.335,378.3l-3.835,3.043s2.02,6.878,8.77,8.9l2.761-5.42C565.98,384.845,558.54,384.769,558.335,378.3Z" transform="translate(-480.609 -346.882)" fill="#ffe0e3"/>
            <path id="Path_2296" data-name="Path 2296" d="M606.093,391.6l1.969,2.966a7.15,7.15,0,0,1-6.545,5.932l-1.918-5.753C599.548,394.745,604.815,397.4,606.093,391.6Z" transform="translate(-514.177 -356.782)" fill="#ffe0e3"/>
            <path id="Path_2297" data-name="Path 2297" d="M376.71,472.23a2.355,2.355,0,0,1,.128-.23s-5.753,1.892-10.611.69L343.6,501.838l26.642-26.948C370.216,474.889,372.952,473.841,376.71,472.23Z" transform="translate(-323.632 -416.625)" fill="#3e1c7a"/>
            <path id="Path_2298" data-name="Path 2298" d="M656.2,500.2a73.926,73.926,0,0,0,12.912.972,32.309,32.309,0,0,0-9.895,2.736C659.243,503.907,657.606,502.143,656.2,500.2Z" transform="translate(-556.307 -437.615)" fill="#3e1c7a"/>
            <path id="Path_2299" data-name="Path 2299" d="M665.7,523.267c16.875-7.159,21.912-10.023,20.378-13.346-.1-.2-.2-.383-.332-.588a1.4,1.4,0,0,0-.153-.46c-.69-1.125-1.381-2.224-2.045-3.273.051.1,2.48,4.449-1.406,7.236-3.631,2.633-14.727,9.358-16.261,10.3a1.085,1.085,0,0,1-.179.128Z" transform="translate(-563.378 -441.634)" fill="#3e1c7a"/>
          </g>
        </g>
      </g>
    </g>
  </g>
</svg>
