<svg xmlns="http://www.w3.org/2000/svg" xmlns:xlink="http://www.w3.org/1999/xlink" width="300" height="300" viewBox="0 0 300 300">
  <defs>
    <clipPath id="clip-path">
      <circle id="Ellipse_219" data-name="Ellipse 219" cx="139" cy="139" r="139" transform="translate(1095 1242)" fill="#fff" stroke="#707070" stroke-width="1" opacity="0.52"/>
    </clipPath>
    <clipPath id="clip-path-2">
      <path id="Path_1552" data-name="Path 1552" d="M1266.388,228.271c20.864-6.648,43.9-6.75,62.98,1.162,14.944,6.193,30.376,17.783,41.511,39.016,29.69,56.623,13.866,107.309-50.32,137.53s-148.24,43.992-171.47-2.095c-8.837-17.53-13.559-37.75-4.065-56,8.022-15.417,22.534-25.48,36.059-35.675,13.675-10.307,24.906-21.943,31.53-38.047C1221.8,251.821,1242.7,235.823,1266.388,228.271Z" transform="translate(-1139.803 -223.384)" fill="none"/>
    </clipPath>
  </defs>
  <g id="Group_884" data-name="Group 884" transform="translate(-1060 -1231)">
    <g id="Ellipse_224" data-name="Ellipse 224" transform="translate(1060 1231)" fill="rgba(255,255,255,0)" stroke="#554570" stroke-width="4">
      <circle cx="150" cy="150" r="150" stroke="none"/>
      <circle cx="150" cy="150" r="148" fill="none"/>
    </g>
    <g id="Mask_Group_9" data-name="Mask Group 9" transform="translate(-24)" clip-path="url(#clip-path)">
      <g id="return_on_investment" data-name="return on investment" transform="translate(987.022 1217.712)">
        <rect id="Rectangle_158" data-name="Rectangle 158" width="478" height="319" transform="translate(-0.022 0.288)" fill="#fff"/>
        <path id="Path_1548" data-name="Path 1548" d="M1266.388,228.271c20.864-6.648,43.9-6.75,62.98,1.162,14.944,6.193,30.376,17.783,41.511,39.016,29.69,56.623,13.866,107.309-50.32,137.53s-148.24,43.992-171.47-2.095c-8.837-17.53-13.559-37.75-4.065-56,8.022-15.417,22.534-25.48,36.059-35.675,13.675-10.307,24.906-21.943,31.53-38.047C1221.8,251.821,1242.7,235.823,1266.388,228.271Z" transform="translate(-1023.118 -200.415)" fill="#d3ebff"/>
        <path id="Path_1549" data-name="Path 1549" d="M1370.9,522.411a.205.205,0,0,0-.011-.021q-.563-1.074-1.142-2.112c-.118-.213-.237-.419-.356-.63-.278-.492-.557-.981-.84-1.463-.132-.225-.266-.446-.4-.668q-.42-.7-.846-1.391-.188-.307-.379-.6-.463-.734-.935-1.451c-.1-.154-.2-.307-.307-.462q-.571-.856-1.151-1.687c-.037-.052-.073-.1-.109-.159q-2.026-2.892-4.174-5.483h0a57.185,57.185,0,0,0-4.265,75.931,36.619,36.619,0,0,0-12.026,4.091,73.213,73.213,0,0,0-91.924,11.935,67.73,67.73,0,0,0-68.394-27.73,45.263,45.263,0,0,0-2.722-4.193l-.033.025c-2.424,1.826-4.879,3.648-7.32,5.5l-.14.1-1.034.788-.256.194-.935.716-.347.267q-.451.348-.9.7l-.366.284-.862.68-.4.317c-.277.221-.552.443-.828.664-.141.114-.283.226-.423.339-.27.218-.538.438-.806.657l-.439.358c-.267.22-.532.441-.8.663-.143.12-.289.239-.432.36q-.391.328-.778.661c-.147.126-.3.25-.444.377q-.375.323-.75.652l-.456.4c-.246.217-.49.436-.733.654-.152.137-.307.272-.458.409q-.362.328-.716.66c-.151.14-.307.278-.456.419-.239.223-.475.449-.716.674-.148.14-.3.279-.443.42-.234.225-.465.452-.7.68-.148.144-.3.287-.443.433-.227.225-.451.454-.675.682-.147.149-.3.3-.443.448-.224.23-.444.463-.665.7-.144.151-.29.3-.432.453-.217.231-.429.465-.642.7-.144.156-.289.307-.433.47-.214.238-.423.481-.635.716-.137.156-.276.307-.409.469-.211.245-.417.492-.625.74-.133.159-.268.315-.4.474-.2.252-.409.511-.614.76-.128.159-.258.316-.384.477-.2.255-.4.511-.594.772-.125.164-.252.324-.374.489-.194.259-.383.523-.573.784-.122.168-.246.332-.366.5-.188.264-.37.534-.554.8-.118.171-.237.34-.353.511-.187.278-.368.561-.551.844-.107.166-.218.328-.323.5-.186.292-.365.591-.546.888-.1.161-.2.318-.3.481-.181.307-.357.614-.533.92-.09.159-.184.314-.273.474-.23.409-.455.833-.676,1.254-.03.057-.062.115-.093.172h0c-9.494,18.249-4.771,38.469,4.065,56,23.23,46.087,107.288,32.319,171.47,2.095,58.117-27.362,76.583-71.5,57.518-121.637-2.222-5.479-4.4-10.367-6.412-14.358C1371.426,523.434,1371.169,522.923,1370.9,522.411Z" transform="translate(-1023.138 -454.377)" fill="#bfd9ff"/>
        <g id="Group_191" data-name="Group 191" transform="translate(116.686 22.969)" clip-path="url(#clip-path-2)">
          <path id="Path_1550" data-name="Path 1550" d="M1703.418,704.661c-11.475.52-20.742,5.5-21.935,11.455a28.7,28.7,0,0,0-4.9-.194c-10.023.454-17.928,5.874-17.646,12.1s8.64,10.913,18.669,10.458c9.113-.409,16.466-4.926,17.522-10.422a40.024,40.024,0,0,0,9.382.649c12.487-.566,22.367-6.408,22.065-13.048S1715.9,704.094,1703.418,704.661Z" transform="translate(-1605.834 -655.397)" fill="#fff"/>
          <path id="Path_1551" data-name="Path 1551" d="M2733.349,225.284a15.988,15.988,0,0,0,8.656-5.911,14.518,14.518,0,0,0,21.5-10.07,9.97,9.97,0,1,0-9.029-16.081,14.49,14.49,0,0,0-4.521-.978c-.046-.237-.091-.475-.156-.716a9.974,9.974,0,0,0-19.59,2.212,16.07,16.07,0,1,0,3.144,31.538Z" transform="translate(-2552.152 -188.182)" fill="#fff"/>
        </g>
        <ellipse id="Ellipse_18" data-name="Ellipse 18" cx="5.751" cy="3.629" rx="5.751" ry="3.629" transform="translate(149.473 99.071) rotate(-62.96)" fill="#7e3d33"/>
        <path id="Path_1553" data-name="Path 1553" d="M1429.128,932.2s-1.473,5.811-5.488,4.392c2.944,1.927,10.023,2.632,12.242-2.941S1429.128,932.2,1429.128,932.2Z" transform="translate(-1277.925 -835.414)" fill="#7e3d33"/>
        <path id="Path_1554" data-name="Path 1554" d="M1809.93,832.62l-.557,1.406a4.07,4.07,0,0,1-4.269,2.6c-.1-.014-.2-.032-.3-.052l-.485-.1a10.5,10.5,0,0,0-6.727.806h0a7.254,7.254,0,0,0-4.017,5.367h0a8.449,8.449,0,0,0,4.544,8.911h0a16.124,16.124,0,0,0,12.231.92l9.256-3.013-.079-9.178Z" transform="translate(-1609.924 -747.34)" fill="#d37327"/>
        <path id="Path_1555" data-name="Path 1555" d="M2482.21,886.76l18.33,2.581h5.321l25.6.5-1.607,3.313-26.8,2.61h-8.533l-9.838-.5Z" transform="translate(-2228.227 -795.943)" fill="#a10000"/>
        <path id="Path_1556" data-name="Path 1556" d="M2908.789,1693.062l-.669,2.276,1.874,3.477,5.354-1.071,11.243-4.015-.2-.495a3.012,3.012,0,0,0-2.584-1.83l-12.069-.754-3.614,2.894" transform="translate(-2610.576 -1517.614)" fill="#000031"/>
        <path id="Path_1557" data-name="Path 1557" d="M2490.751,1812.448l-1.18,2.058,1.012,3.82,5.457.2,11.864-1.291-.089-.53a3.014,3.014,0,0,0-2.089-2.381l-11.557-3.539-4.193,1.975" transform="translate(-2234.835 -1625.466)" fill="#000031"/>
        <path id="Path_1558" data-name="Path 1558" d="M2403.75,1178.53l3.332,22.773v6a8.94,8.94,0,0,0,.126,1.5l5.028,29.768h3.478l6.034-2.966-.678-3.386-3.835-31.931,1.781-16.654,2.864-.4,18.471,10.841.7,3.323a19.864,19.864,0,0,0,2.088,5.562l12.595,22.569,5.183-.789a3.7,3.7,0,0,0,1.744-.76l1.5-1.2-15.494-39.016L2421.2,1168.51Z" transform="translate(-2157.792 -1048.877)" fill="#2c3152"/>
        <path id="Path_1559" data-name="Path 1559" d="M2412.658,1279.807c-7.04-17.263,2.087-19.544-.875-22.085s-3.463-13.388-3.876-18.34,9.248-9.1,9.511-9.638l-6.884-1.295-6.775,3.886,3.332,22.773v6a8.94,8.94,0,0,0,.126,1.5l5.028,29.768h3.478l1.463-.716Z" transform="translate(-2157.801 -1102.686)" fill="#000031"/>
        <path id="Path_1560" data-name="Path 1560" d="M2592.553,1325.388c-1.854-3.021-7.831-12.742-12.369-19.944-5.438-8.629,6.412-15.393-.818-13.385s-16.6-9.5-21.951-11.377-4.692,3.282-4.692,3.282l2.864-.4,18.471,10.842.706,3.323a19.839,19.839,0,0,0,2.089,5.562l12.6,22.571Z" transform="translate(-2291.504 -1149.207)" fill="#000031"/>
        <path id="Path_1561" data-name="Path 1561" d="M2040.13,969.91l11.544,6.726h16.664l-1.2,1.857s-15.861,3.162-16.364,3.012-10.256-2.741-10.256-2.741Z" transform="translate(-1831.362 -870.589)" fill="#403b63"/>
        <path id="Path_1562" data-name="Path 1562" d="M1859.447,1209.4l-.444.543a15.278,15.278,0,0,0-3.068,6.258h0a11.758,11.758,0,0,0,0,5.27l.409,1.781a18.541,18.541,0,0,0,4.091,8.015l1.579,1.819a4.879,4.879,0,0,1,.728,1.111l4.379,9.2a4.836,4.836,0,0,1,.37,1.1l.535,2.576a13.963,13.963,0,0,0,1.553,4.1l14.764,25.788h3.111l4.718-4.116-.06-.013a9.376,9.376,0,0,1-7.045-6.292l-5.681-17.5a27.431,27.431,0,0,0-3.776-7.484l-.425-.6a4.574,4.574,0,0,1-.886-1.962l-2.705-14.235.609.818a32.909,32.909,0,0,0,3.409,3.913l10.637,10.426.775,2.066a15.182,15.182,0,0,0,1.96,3.63l15.436,21.107,1,1.405,3.413-1.706,1.2-4.317-1.709-1.023a7.565,7.565,0,0,1-2.791-2.944l-13.166-24.847-19.621-23.892Z" transform="translate(-1665.737 -1085.585)" fill="#2c3152"/>
        <path id="Path_1563" data-name="Path 1563" d="M1545.52,1519.508l3.91,6.286a12.452,12.452,0,0,1,1.755,4.842l.033.235a45.082,45.082,0,0,0,1.636,7.262l.142.454a45.144,45.144,0,0,0,2.659,6.6l7.216,14.475.6,3.815h3.815l9.638-3.213-6.846-2.433a6.444,6.444,0,0,1-3.84-3.717l-3.452-8.805a37.982,37.982,0,0,1-.811-3.989l-.656-4.419a38.253,38.253,0,0,0-2.506-9.038h0a19.644,19.644,0,0,1-1.349-5.085l-1.014-8.08Z" transform="translate(-1387.339 -1359.66)" fill="#ffae74"/>
        <path id="Path_1564" data-name="Path 1564" d="M1557.7,1528.7c-.094-.467-.174-.938-.233-1.411l-.758-6.046c-.558-.628-1.071-1.158-1.432-1.519l-9.757,4.3,1.863,2.995C1550.421,1527.776,1554.944,1528.772,1557.7,1528.7Z" transform="translate(-1387.339 -1364.166)" fill="#ff905c"/>
        <path id="Path_1565" data-name="Path 1565" d="M1687.76,1438.189l9.589,8.3a3.2,3.2,0,0,1,1.055,1.841l.27,1.458a21.861,21.861,0,0,0,2.826,7.4h0a21.863,21.863,0,0,0,1.574,2.25l6.6,8.291a18.949,18.949,0,0,1,2.573,4.3l2.813,6.516,4.7-.17,8.04-3.645-4.451-.769a7.269,7.269,0,0,1-5.305-4l-12.544-25.978a5.592,5.592,0,0,0-.453-.773l-9.07-12.946Z" transform="translate(-1515.031 -1283.856)" fill="#ffae74"/>
        <path id="Path_1566" data-name="Path 1566" d="M1687.76,1438.208l5.005,4.331c1.55-1.644,4.548-5.114,5.808-8.577l-2.582-3.682Z" transform="translate(-1515.031 -1283.874)" fill="#ff905c"/>
        <path id="Path_1567" data-name="Path 1567" d="M1456.268,1276.7l-.273.417a11.189,11.189,0,0,0-1.835,6.137v2.368a11.192,11.192,0,0,0,3.513,8.142h0l6.325,12.949.569.094a14.775,14.775,0,0,0,9.373-1.565h0a16.1,16.1,0,0,0,4.1-3.145l2.352-2.5a34.131,34.131,0,0,1,8.9-6.78l2.013-1.064-4.675-1.994a15.026,15.026,0,0,1-3.923-2.444l-12.5-10.777Z" transform="translate(-1305.323 -1145.858)" fill="#d6101b"/>
        <ellipse id="Ellipse_19" data-name="Ellipse 19" cx="102.69" cy="6.787" rx="102.69" ry="6.787" transform="translate(136.947 282.805)" fill="#d3ebff"/>
        <rect id="Rectangle_159" data-name="Rectangle 159" width="27.596" height="81.732" rx="13.798" transform="translate(165.159 206.836)" fill="#ffb300"/>
        <rect id="Rectangle_160" data-name="Rectangle 160" width="27.596" height="94.631" rx="13.798" transform="translate(207.633 193.937)" fill="#ec9a00"/>
        <rect id="Rectangle_161" data-name="Rectangle 161" width="27.596" height="98.696" rx="13.798" transform="translate(250.106 189.87)" fill="#ffb300"/>
        <rect id="Rectangle_162" data-name="Rectangle 162" width="27.596" height="109.137" rx="13.798" transform="translate(292.579 179.431)" fill="#ec9a00"/>
        <rect id="Rectangle_163" data-name="Rectangle 163" width="27.596" height="74.423" rx="13.798" transform="translate(165.159 214.144)" fill="#ffc427"/>
        <rect id="Rectangle_164" data-name="Rectangle 164" width="27.596" height="86.169" rx="13.798" transform="translate(207.633 202.398)" fill="#ffb300"/>
        <rect id="Rectangle_165" data-name="Rectangle 165" width="27.596" height="89.872" rx="13.798" transform="translate(250.106 198.696)" fill="#ffc427"/>
        <rect id="Rectangle_166" data-name="Rectangle 166" width="27.596" height="99.378" rx="13.798" transform="translate(292.579 189.189)" fill="#ffb300"/>
        <path id="Path_1568" data-name="Path 1568" d="M1483.2,1025.544l-.74.409a8.819,8.819,0,0,0-2.841,2.53h0a8.8,8.8,0,0,0-1.534,3.6h0a28.482,28.482,0,0,0-.45,5.046l-.187,3.35a19.523,19.523,0,0,1-2.315,8.182c-.424.785-.716,1.4-.614,1.432a15.228,15.228,0,0,1,1.586,1.874,7.093,7.093,0,0,0,6.218,2.7h0a7.094,7.094,0,0,0,4.7-2.4l1.54-1.767h0a6.965,6.965,0,0,1,.54-5.012l1.669-3.222,1-.4a5.017,5.017,0,0,0,2.374-1.973h0a5.011,5.011,0,0,0,.7-3.555l-1.469-8.326V1024.8l-2.811-.5A11.123,11.123,0,0,0,1483.2,1025.544Z" transform="translate(-1323.582 -919.259)" fill="#ffb300"/>
        <path id="Path_1569" data-name="Path 1569" d="M1585.255,1184.718c1.472,4.314,2.557,8.232,2.557,8.232a6.965,6.965,0,0,1,.54-5.011l1.669-3.222S1583.782,1180.4,1585.255,1184.718Z" transform="translate(-1422.808 -1061.706)" fill="#ec9a00"/>
        <path id="Path_1570" data-name="Path 1570" d="M1651.219,1030.77l8.525,4.871a6.305,6.305,0,0,0,4.129.75h0a7.569,7.569,0,0,1,3.025.126L1676.92,1039l-.8,1.556-11.148.8a7.8,7.8,0,0,1-4.193-.885h0a9.453,9.453,0,0,0-2.352-.868l-6.471-1.459-.737-1.145a5.744,5.744,0,0,1,0-6.226Z" transform="translate(-1481.401 -925.224)" fill="#ec9a00"/>
        <path id="Path_1571" data-name="Path 1571" d="M1710.195,1946.485l-.845,2.284,1.506,3.011h3.513l10.575-5.753a.806.806,0,0,0-.29-1.509l-5.364-.638Z" transform="translate(-1534.413 -1744.944)" fill="#000031"/>
        <path id="Path_1572" data-name="Path 1572" d="M1945.861,1852.694l-.2.628a2.836,2.836,0,0,0,.614,2.783h0a2.187,2.187,0,0,0,2.713.409l6.025-3.518,5.534-2.639a.626.626,0,0,0-.224-1.188l-8.038-.579Z" transform="translate(-1746.43 -1659.4)" fill="#000031"/>
        <path id="Path_1573" data-name="Path 1573" d="M1893.686,934.379l3.128,6.443a10.033,10.033,0,0,1,1.005,4.379h0a10.033,10.033,0,0,1-1.977,5.98l-2.942,3.963,2.526,2.749a4.844,4.844,0,0,0,3.568,1.568h3.966a4.845,4.845,0,0,0,4.6-3.312h0v-7.063a2.634,2.634,0,0,1,.627-1.706l.92-1.083a8.721,8.721,0,0,0,2.058-5.069h0a9.185,9.185,0,0,0-1.645-5.89l-.248-.353a4.557,4.557,0,0,1-1.152-2.625l-.159-1.709-5.66-4.47-6.057,3.609a3.2,3.2,0,0,0-2.369,1.455h0a3.2,3.2,0,0,0-.187,3.135Z" transform="translate(-1699.19 -831.331)" fill="#686d95"/>
        <path id="Path_1574" data-name="Path 1574" d="M2304.16,1022.553l3.313-.251,5.019-1.506-1-1.806-7.328,1.806Z" transform="translate(-2068.388 -914.649)" fill="#fff"/>
        <path id="Path_1575" data-name="Path 1575" d="M2302.86,1021.35v-2l7.527-1.856,1.134,2.039-5.206,1.559Zm.265-1.8v1.51l3.156-.238,4.848-1.454-.875-1.575Z" transform="translate(-2067.221 -913.302)"/>
        <path id="Path_1576" data-name="Path 1576" d="M2131.36,1821.357l1.31,3.446h2.911l9.135-5.632a.716.716,0,0,0-.1-1.277l-1.805-.737a4.7,4.7,0,0,0-3.994.2Z" transform="translate(-1913.261 -1630.866)" fill="#a10000"/>
        <path id="Path_1577" data-name="Path 1577" d="M2279.014,876.476l-6.71,4.874a6.756,6.756,0,0,0-2.357,7.842h0l11.444,19.118.1,3.11a20.117,20.117,0,0,0,.95,5.468l.8,2.485,7.012-1a9.078,9.078,0,0,0,4.894-2.335l9.162-8.507-2.476-2.6a12.736,12.736,0,0,1-3.355-6.809l-3.266-20.834-10.441-1.874Z" transform="translate(-2037.286 -785.754)" fill="#d6101b"/>
        <path id="Path_1578" data-name="Path 1578" d="M2326.32,1018.029s2.711,8.694,10.607,7.671,4.015-3.085,10.975,4.172a5.75,5.75,0,0,0,7.385,1.148l-2.46-2.576a12.74,12.74,0,0,1-3.356-6.809l-.715-4.566-11.737-4.07Z" transform="translate(-2088.281 -909.272)" fill="#a10000"/>
        <path id="Path_1579" data-name="Path 1579" d="M2270.566,936.411h0a4.144,4.144,0,0,1,4.26-1.628l4.595,1.017,20.4,7.292,5.4-1.872,21.581-7.63,1.606,3.715-22.419,11.387a18.219,18.219,0,0,1-6.517,1.891l-2.088.2a12.429,12.429,0,0,1-3.661-.194l-16.277-3.318a8.3,8.3,0,0,1-6.082-4.382l-1.115-2.148A4.143,4.143,0,0,1,2270.566,936.411Z" transform="translate(-2037.525 -837.984)" fill="#ef403b"/>
        <path id="Path_1580" data-name="Path 1580" d="M2948.01,895.728l2.229-1.6a4.116,4.116,0,0,1,2.4-.775h6.505l-1.606,4.819-9.542.9Z" transform="translate(-2646.378 -801.859)" fill="#ff905c"/>
        <path id="Path_1581" data-name="Path 1581" d="M1179.849,940.4a.53.53,0,0,1-.358-.92l32.33-29.722a111.014,111.014,0,0,1,54.634-27.394l27.81-5.238,71.773-13.422a184.632,184.632,0,0,1,20.619-2.659l21.038-1.513a.53.53,0,0,1,.077,1.056l-21.04,1.514a183.725,183.725,0,0,0-20.5,2.645l-71.772,13.423-27.81,5.24a109.947,109.947,0,0,0-54.114,27.132l-32.331,29.718A.534.534,0,0,1,1179.849,940.4Z" transform="translate(-1058.591 -771.501)" fill="#fff"/>
        <path id="Path_1582" data-name="Path 1582" d="M1521.154,1052.7h0a3.171,3.171,0,0,0,.046,3.756h0a11.544,11.544,0,0,0,4.258,3.467l12.437,5.9a9.489,9.489,0,0,0,4.073.921h0a9.5,9.5,0,0,0,4.71-1.25l11.26-6.433V1056.8l-13.6,2.708a7.13,7.13,0,0,0-1.611.526l-1.036.482a2.855,2.855,0,0,1-2.864-.269l-10.065-7.214a8.845,8.845,0,0,0-1.323-.783l-.109-.052a8.3,8.3,0,0,0-3.6-.818h0A3.171,3.171,0,0,0,1521.154,1052.7Z" transform="translate(-1364.932 -943.726)" fill="#ec9a00"/>
        <path id="Path_1583" data-name="Path 1583" d="M1886,1094.685s3.313-1.1,3.614-1.1,6.5.327,6.5.327h0a9.019,9.019,0,0,1-4.662,2.475l-.2.04-.668.511a3.16,3.16,0,0,1-2.793.525l-1.784-.511Z" transform="translate(-1692.996 -981.61)" fill="#ffae74"/>
        <path id="Path_1584" data-name="Path 1584" d="M1897.554,968.49h0a2.384,2.384,0,0,0-.014,2.557l1.368,2.189a11.3,11.3,0,0,0,3.892,3.773l11.39,7.049a4.759,4.759,0,0,0,2.911.693h0a23.934,23.934,0,0,0,11.262-3.96l5.523-3.7v-3.211l-15.3,5.3-10.164-7.411a26.492,26.492,0,0,0-8.129-4.262h0A2.388,2.388,0,0,0,1897.554,968.49Z" transform="translate(-1703.027 -868.331)" fill="#403b63"/>
        <path id="Path_1585" data-name="Path 1585" d="M2252.14,1017.386l2.7-1.234a3.206,3.206,0,0,1,1.7-.269l7.516.871-1.625,1.218a2.5,2.5,0,0,1-1.248.487l-1.96.2-2.04,1.2a5.433,5.433,0,0,1-2.75.747h-1.894Z" transform="translate(-2021.688 -911.84)" fill="#ffae74"/>
        <path id="Path_1586" data-name="Path 1586" d="M2011.66,1304.065v-2.581a4.408,4.408,0,0,1,1.552-3.357l.455-.387Z" transform="translate(-1805.803 -1164.889)" fill="#000031"/>
        <path id="Path_1587" data-name="Path 1587" d="M2176.538,1532.887c-5.538-2.569-16.671-23.728-16.671-23.728L2155,1507.79l.775,2.066a15.2,15.2,0,0,0,1.96,3.63l15.435,21.107,1,1.405,2.188-1.093C2176.417,1534.306,2176.478,1533.639,2176.538,1532.887Z" transform="translate(-1934.484 -1353.456)" fill="#000031"/>
        <path id="Path_1588" data-name="Path 1588" d="M1976.037,1552.405c-1.711-.855-3.742-1.739-5.177-2.5.026.093.056.185.076.281l.535,2.576a13.95,13.95,0,0,0,1.553,4.1l5.625,9.819C1976.909,1559.293,1977.829,1553.3,1976.037,1552.405Z" transform="translate(-1769.176 -1391.259)" fill="#000031"/>
        <path id="Path_1589" data-name="Path 1589" d="M2341.1,1702.237a4.529,4.529,0,0,0-.965,4.012c.068.271.142.451.218.451a2.513,2.513,0,0,1,.749.448,4.075,4.075,0,0,0,3.4.673h0a4.054,4.054,0,0,0,2.535-1.917l5.282-9.2a.722.722,0,0,0-.461-1.063h0a6.028,6.028,0,0,0-5.042,1.09l-3.049,2.343Z" transform="translate(-2100.565 -1521.949)" fill="#d6101b"/>
        <path id="Path_1590" data-name="Path 1590" d="M2008.268,1137.436c-1.039-.445-4.477-1.733-2.9,1.468,1.841,3.747,2.789,6.327,2.789,6.327v-7.063a2.633,2.633,0,0,1,.113-.731Z" transform="translate(-1799.788 -1020.411)" fill="#403b63"/>
        <path id="Path_1591" data-name="Path 1591" d="M1492.892,1440.783c-.67-3.477-4.341-1.369-4.341-1.369h0l6.324,12.949.569.094a14.786,14.786,0,0,0,2.183.184C1493.845,1449.76,1493.465,1443.782,1492.892,1440.783Z" transform="translate(-1336.196 -1291.505)" fill="#a10000"/>
        <path id="Path_1592" data-name="Path 1592" d="M2980.34,890.4v-2.58a3.522,3.522,0,0,1,2.478-3.357h0a3.515,3.515,0,0,1,1.355-.144l4.387.392a1.29,1.29,0,0,1,.85,2.148l-2.841,3.2Z" transform="translate(-2675.41 -793.738)" fill="#ffae74"/>
        <path id="Path_1593" data-name="Path 1593" d="M2957.3,613.714,2946,605.04l15.668,1.377-4.293,2.62Z" transform="translate(-2644.583 -543.037)" fill="#d6101b"/>
        <path id="Path_1594" data-name="Path 1594" d="M2336.38,829.387l5.04-8.387,5.031,3.757.9,5.689a1.385,1.385,0,0,1-2.136,1.366l-1.618-1.079a11.457,11.457,0,0,0-6.546-1.407Z" transform="translate(-2097.312 -736.909)" fill="#ff905c"/>
        <path id="Path_1595" data-name="Path 1595" d="M2401.641,861.673l.206-2.211,2.6-2.394-7.589-1.288Z" transform="translate(-2151.607 -768.132)" fill="#ff7434"/>
        <path id="Path_1596" data-name="Path 1596" d="M2370.907,752.879l1.012.449a2.873,2.873,0,0,0,2.17.068l1.432-.533a2.88,2.88,0,0,0,1.811-2.083l.193-.885a4.61,4.61,0,0,0-.1-2.367l-2.659-8.449-9.094,3.375,2.977,8.018A4.249,4.249,0,0,0,2370.907,752.879Z" transform="translate(-2123.606 -663.367)" fill="#ffae74"/>
        <path id="Path_1597" data-name="Path 1597" d="M2326.571,705.4c-.118-.177.345-5.1.345-5.1s7.97-1.33,9.044-4.994a1.063,1.063,0,0,0-.979-1.351,2.876,2.876,0,0,0-1.011.171c.292-1.22-1.228-3.363-5.259-2.115s-10.366,3.523-6.876,6.567c-1.359.14-3.521,1.247-2.768,3.9s4.538,6.015,6.012,4.771S2326.571,705.4,2326.571,705.4Z" transform="translate(-2081.631 -620.778)" fill="#7e3d33"/>
        <path id="Path_1598" data-name="Path 1598" d="M2402.64,737.448a21.852,21.852,0,0,0,2.527-.151,16.99,16.99,0,0,0,2.466-.443,7.686,7.686,0,0,0,2.271-.954,3.807,3.807,0,0,0,1.527-1.9,3.38,3.38,0,0,1-1.33,2.173,6.861,6.861,0,0,1-2.352,1.1,11.807,11.807,0,0,1-2.551.362A10.61,10.61,0,0,1,2402.64,737.448Z" transform="translate(-2156.795 -658.807)" fill="#7e3d33"/>
        <path id="Path_1599" data-name="Path 1599" d="M2450.813,799.809a.106.106,0,0,1,.014-.211l1.26-.046-1.52-2.755a.109.109,0,0,1,.042-.145.1.1,0,0,1,.082-.011.1.1,0,0,1,.063.052l1.688,3.059-1.607.058Z" transform="translate(-2199.81 -715.038)" fill="#612033"/>
        <ellipse id="Ellipse_20" data-name="Ellipse 20" cx="0.54" cy="0.824" rx="0.54" ry="0.824" transform="translate(247.535 82.044) rotate(-24.99)" fill="#612033"/>
        <ellipse id="Ellipse_21" data-name="Ellipse 21" cx="0.304" cy="0.88" rx="0.304" ry="0.88" transform="translate(251.942 80.744) rotate(-24.99)" fill="#612033"/>
        <path id="Path_1600" data-name="Path 1600" d="M2407.941,781.717a.447.447,0,0,1-.073-.018.426.426,0,0,1-.258-.545,1.705,1.705,0,0,1,.91-1.031,2.3,2.3,0,0,1,1.686.041.426.426,0,0,1,.225.559.43.43,0,0,1-.557.226,1.475,1.475,0,0,0-1.016-.043.852.852,0,0,0-.447.536A.425.425,0,0,1,2407.941,781.717Z" transform="translate(-2161.235 -700.08)" fill="#612033"/>
        <path id="Path_1601" data-name="Path 1601" d="M2448.754,769.027h-.007a.426.426,0,0,1-.341-.5,1.2,1.2,0,0,1,.7-1,1.581,1.581,0,0,1,1.356.274.426.426,0,0,1-.5.689c-.143-.1-.418-.223-.541-.173-.073.03-.137.166-.174.364A.427.427,0,0,1,2448.754,769.027Z" transform="translate(-2197.874 -688.845)" fill="#612033"/>
        <ellipse id="Ellipse_22" data-name="Ellipse 22" cx="1.97" cy="2.652" rx="1.97" ry="2.652" transform="matrix(0.812, -0.584, 0.584, 0.812, 240.374, 84.197)" fill="#ffae74"/>
        <ellipse id="Ellipse_23" data-name="Ellipse 23" cx="0.806" cy="1.085" rx="0.806" ry="1.085" transform="matrix(0.812, -0.584, 0.584, 0.812, 242.332, 85.147)" fill="#ff7434"/>
        <path id="Path_1602" data-name="Path 1602" d="M2364.26,817a1.381,1.381,0,0,1,.5-1.069.818.818,0,0,1,.682-.113,1.7,1.7,0,0,1,.559.307,2.352,2.352,0,0,1,.716.959,1.8,1.8,0,0,1,.084,1.158,3.011,3.011,0,0,0-.383-1.013,2.925,2.925,0,0,0-.684-.774c-.264-.224-.544-.369-.8-.242A1.939,1.939,0,0,0,2364.26,817Z" transform="translate(-2122.341 -732.227)" fill="#ff7434"/>
        <path id="Path_1603" data-name="Path 1603" d="M2039.133,802.759s1.728-1.343,3.291.851,1.868,6.229-2.343,6.4C2037.272,804.109,2039.133,802.759,2039.133,802.759Z" transform="translate(-1829.924 -720.168)" fill="#d37327"/>
        <path id="Path_1604" data-name="Path 1604" d="M1954.91,897.006l2.669-5.226,4.648,3.989-1.682,4.74h0a16.056,16.056,0,0,0-5.421-3.419Z" transform="translate(-1754.858 -800.45)" fill="#ff905c"/>
        <path id="Path_1605" data-name="Path 1605" d="M1985.173,902.741l-2.725-2.338-1.977-.853s.222,5.709,3.424,6.793Z" transform="translate(-1777.804 -807.425)" fill="#ff7434"/>
        <path id="Path_1606" data-name="Path 1606" d="M1986.892,835.291l.471,1.036a4.612,4.612,0,0,0,2.687,2.449h0a2.471,2.471,0,0,0,2.4-.441h0a4.422,4.422,0,0,0,1.528-2.717l1-6.531-5.114-1.905-2.976,4.743Z" transform="translate(-1783.567 -742.457)" fill="#ffae74"/>
        <path id="Path_1607" data-name="Path 1607" d="M1950.774,798.275s4.478.307,4.611-4.031c1.862.984,5.407,1.56,5.851-.524s-2.393-5.358-8.377-4.652-6.527,8.773-2.4,11.212" transform="translate(-1748.463 -708.156)" fill="#d37327"/>
        <ellipse id="Ellipse_24" data-name="Ellipse 24" cx="1.718" cy="2.314" rx="1.718" ry="2.314" transform="translate(200.35 88.388) rotate(-6.08)" fill="#ffae74"/>
        <ellipse id="Ellipse_25" data-name="Ellipse 25" cx="0.649" cy="0.874" rx="0.649" ry="0.874" transform="translate(201.533 89.897) rotate(-8.04)" fill="#ff7434"/>
        <path id="Path_1608" data-name="Path 1608" d="M1967.84,868.7a1.122,1.122,0,0,1,.76-.575.661.661,0,0,1,.529.176,1.355,1.355,0,0,1,.283.43,1.894,1.894,0,0,1,.149.952,1.444,1.444,0,0,1-.374.858,2.411,2.411,0,0,0,.1-.866,2.353,2.353,0,0,0-.2-.809c-.1-.259-.25-.467-.482-.474A1.528,1.528,0,0,0,1967.84,868.7Z" transform="translate(-1766.466 -779.208)" fill="#ff7434"/>
        <ellipse id="Ellipse_26" data-name="Ellipse 26" cx="0.762" cy="0.499" rx="0.762" ry="0.499" transform="translate(206.793 90.32) rotate(-84)" fill="#612033"/>
        <ellipse id="Ellipse_27" data-name="Ellipse 27" cx="0.814" cy="0.281" rx="0.814" ry="0.281" transform="translate(210.248 90.998) rotate(-84)" fill="#612033"/>
        <path id="Path_1609" data-name="Path 1609" d="M2039.91,872.83c-.051.238-.1.472-.134.708a5.454,5.454,0,0,0-.05.707,5.3,5.3,0,0,0,.046.7l.108.716v.014a1.2,1.2,0,0,1-.322.849,1.113,1.113,0,0,1-.369.257,3.753,3.753,0,0,1-.409.131c.119-.078.253-.141.365-.217a1.218,1.218,0,0,0,.284-.28,1.1,1.1,0,0,0,.2-.727v.013c-.042-.239-.088-.471-.122-.716a3.686,3.686,0,0,1-.019-.745A3.447,3.447,0,0,1,2039.91,872.83Z" transform="translate(-1830.15 -783.438)" fill="#612033"/>
        <path id="Path_1610" data-name="Path 1610" d="M2020.14,855.6a1.6,1.6,0,0,1,.556-.463,1.211,1.211,0,0,1,.733-.131,1.228,1.228,0,0,1,.665.336,2.9,2.9,0,0,1,.24.275c.06.1.123.2.176.316-.086-.085-.162-.176-.241-.261a3,3,0,0,0-.262-.227,1.339,1.339,0,0,0-.6-.266,1.307,1.307,0,0,0-.655.082,2.6,2.6,0,0,0-.61.339Z" transform="translate(-1813.416 -767.423)" fill="#612033"/>
        <path id="Path_1611" data-name="Path 1611" d="M2055.67,864.34a.5.5,0,0,1,.089-.238.424.424,0,0,1,.212-.173.3.3,0,0,1,.29.052.382.382,0,0,1,.136.221,1.359,1.359,0,0,0-.2-.1.237.237,0,0,0-.166,0A1.605,1.605,0,0,0,2055.67,864.34Z" transform="translate(-1845.312 -775.432)" fill="#612033"/>
        <path id="Path_1612" data-name="Path 1612" d="M2027.16,868.1s.461,0,.727.021l-.55.173Z" transform="translate(-1819.718 -779.192)" fill="#612033"/>
        <path id="Path_1613" data-name="Path 1613" d="M2059.47,873.86s.433.159.676.267l-.576-.025Z" transform="translate(-1848.724 -784.362)" fill="#612033"/>
        <path id="Path_1614" data-name="Path 1614" d="M1619.916,874.508s1.37-1.707,3.4.065,3.26,5.625-.8,6.772C1618.417,876.252,1619.916,874.508,1619.916,874.508Z" transform="translate(-1453.886 -784.28)" fill="#7e3d33"/>
        <path id="Path_1615" data-name="Path 1615" d="M1566.8,984.523l1.386-5.7,5.445,2.8-.539,5h0a16.061,16.061,0,0,0-6.062-2.071Z" transform="translate(-1406.443 -878.587)" fill="#ff905c"/>
        <path id="Path_1616" data-name="Path 1616" d="M1586.943,988.515l-3.193-1.643-2.12-.372s1.534,5.5,4.909,5.815Z" transform="translate(-1419.756 -885.482)" fill="#ff7434"/>
        <path id="Path_1617" data-name="Path 1617" d="M1582.651,916.449l.7.9a4.61,4.61,0,0,0,3.181,1.759h0a2.469,2.469,0,0,0,2.231-.985h0a4.418,4.418,0,0,0,.857-3l-.537-6.587-5.415-.669-1.8,5.3Z" transform="translate(-1419.971 -814.894)" fill="#ffae74"/>
        <path id="Path_1618" data-name="Path 1618" d="M1540.023,878.629s4.427-.741,3.552-4.989c2.038.526,5.625.264,5.569-1.864s-3.568-4.659-9.226-2.579-4.317,10.048.264,11.462" transform="translate(-1378.96 -779.479)" fill="#7e3d33"/>
        <ellipse id="Ellipse_28" data-name="Ellipse 28" cx="1.718" cy="2.314" rx="1.718" ry="2.314" transform="matrix(0.943, -0.333, 0.333, 0.943, 158.756, 97.906)" fill="#ffae74"/>
        <ellipse id="Ellipse_29" data-name="Ellipse 29" cx="0.649" cy="0.874" rx="0.649" ry="0.874" transform="translate(160.573 98.308) rotate(-21.695)" fill="#ff7434"/>
        <path id="Path_1619" data-name="Path 1619" d="M1563.37,957.557a1.112,1.112,0,0,1,.607-.735.658.658,0,0,1,.555.049,1.346,1.346,0,0,1,.374.353,1.9,1.9,0,0,1,.366.891,1.449,1.449,0,0,1-.166.92,2.421,2.421,0,0,0-.1-.867,2.359,2.359,0,0,0-.38-.741c-.162-.227-.351-.4-.578-.349A1.554,1.554,0,0,0,1563.37,957.557Z" transform="translate(-1403.363 -858.803)" fill="#ff7434"/>
        <ellipse id="Ellipse_30" data-name="Ellipse 30" cx="0.499" cy="0.762" rx="0.499" ry="0.762" transform="matrix(0.992, -0.129, 0.129, 0.992, 165.278, 96.784)" fill="#612033"/>
        <ellipse id="Ellipse_31" data-name="Ellipse 31" cx="0.281" cy="0.814" rx="0.281" ry="0.814" transform="matrix(0.992, -0.129, 0.129, 0.992, 168.782, 96.539)" fill="#612033"/>
        <path id="Path_1620" data-name="Path 1620" d="M1641.474,944.44a6.553,6.553,0,0,0,.034.716,5.455,5.455,0,0,0,.115.7,5.219,5.219,0,0,0,.2.671l.27.668v.008h0a1.193,1.193,0,0,1-.117.9,1.124,1.124,0,0,1-.3.335,3.989,3.989,0,0,1-.37.223c.1-.1.213-.2.307-.3a1.225,1.225,0,0,0,.213-.339,1.1,1.1,0,0,0,.032-.756v.013c-.1-.223-.2-.437-.285-.67a3.731,3.731,0,0,1-.19-.716A3.452,3.452,0,0,1,1641.474,944.44Z" transform="translate(-1473.332 -847.724)" fill="#612033"/>
        <path id="Path_1621" data-name="Path 1621" d="M1611.26,932a1.608,1.608,0,0,1,.434-.579,1.178,1.178,0,0,1,1.408-.126,2.829,2.829,0,0,1,.3.213c.084.089.168.175.244.266-.1-.062-.2-.134-.3-.2a2.851,2.851,0,0,0-.307-.161,1.33,1.33,0,0,0-.648-.119,1.3,1.3,0,0,0-.614.231A2.579,2.579,0,0,0,1611.26,932Z" transform="translate(-1446.355 -835.762)" fill="#612033"/>
        <path id="Path_1622" data-name="Path 1622" d="M1647.453,933.945a.5.5,0,0,1,.032-.252.429.429,0,0,1,.167-.218.3.3,0,0,1,.294-.016.385.385,0,0,1,.183.184,1.3,1.3,0,0,0-.222-.055.241.241,0,0,0-.161.036A1.622,1.622,0,0,0,1647.453,933.945Z" transform="translate(-1478.843 -837.838)" fill="#612033"/>
        <path id="Path_1623" data-name="Path 1623" d="M1619.76,943.788s.449-.1.716-.148l-.495.3Z" transform="translate(-1453.986 -847.006)" fill="#612033"/>
        <path id="Path_1624" data-name="Path 1624" d="M1652.88,943.4s.458.053.716.1l-.566.109Z" transform="translate(-1483.719 -846.79)" fill="#612033"/>
        <path id="Path_1625" data-name="Path 1625" d="M2823.91,918.939l3.117-1.425a3.706,3.706,0,0,1,1.967-.307l8.681,1.006-1.877,1.4a2.88,2.88,0,0,1-1.441.562l-2.264.226-2.352,1.383a6.283,6.283,0,0,1-3.177.862h-2.188Z" transform="translate(-2534.979 -823.253)" fill="#ffae74"/>
        <path id="Path_1626" data-name="Path 1626" d="M1447.481,780.954a.562.562,0,0,1-.1-.009.53.53,0,0,1-.421-.62l.833-4.4a56.525,56.525,0,0,1,30.842-40.336l7.128-3.461a56.188,56.188,0,0,1,22-5.616l46.587-2.222a161.787,161.787,0,0,0,51.708-10.944q1.687-.665,3.446-1.347c15.573-6.064,34.953-13.61,42.069-29.363a34.634,34.634,0,0,0-.583-29.852l-1.228-2.462a47.978,47.978,0,0,0-28.557-24.26l-15.929-4.945a.53.53,0,1,1,.314-1.012l15.929,4.945a49.037,49.037,0,0,1,29.186,24.791l1.227,2.463a35.684,35.684,0,0,1,.6,30.761c-7.293,16.147-26.9,23.78-42.649,29.914q-1.755.682-3.442,1.346a162.778,162.778,0,0,1-52.071,11.018l-46.558,2.224a55.155,55.155,0,0,0-21.58,5.51l-7.128,3.462a55.467,55.467,0,0,0-30.263,39.581l-.833,4.4A.531.531,0,0,1,1447.481,780.954Z" transform="translate(-1298.848 -556.539)" fill="#d6101b"/>
        <path id="Path_1627" data-name="Path 1627" d="M1443.022,776.981a1.04,1.04,0,0,1-1.023-1.234l.834-4.4a57.026,57.026,0,0,1,31.119-40.7l7.128-3.462a56.713,56.713,0,0,1,22.194-5.667c43.122-2.059,46.325-2.212,46.583-2.224h0a161.257,161.257,0,0,0,51.548-10.91q1.584-.626,3.237-1.266l.211-.082c15.487-6.034,34.758-13.534,41.787-29.1a34.117,34.117,0,0,0-.575-29.412l-1.227-2.463a47.461,47.461,0,0,0-28.25-24l-15.932-4.946a1.042,1.042,0,0,1-.174-1.918,1.031,1.031,0,0,1,.794-.071l15.927,4.944a49.557,49.557,0,0,1,29.5,25.058l1.227,2.463a36.2,36.2,0,0,1,.614,31.194c-7.38,16.338-27.092,24.014-42.931,30.18-1.227.479-2.336.91-3.44,1.345a163.334,163.334,0,0,1-52.234,11.053l-46.559,2.221a54.654,54.654,0,0,0-21.386,5.46l-7.128,3.462a54.948,54.948,0,0,0-29.984,39.214l-.833,4.4A1.042,1.042,0,0,1,1443.022,776.981Zm106.872-56.661-46.569,2.224a55.715,55.715,0,0,0-21.8,5.565l-7.128,3.462a56.012,56.012,0,0,0-30.562,39.971l-.833,4.4a.018.018,0,0,0,0,.015.018.018,0,0,0,.013.008h0a.022.022,0,0,0,.018-.015l.833-4.4a55.972,55.972,0,0,1,30.542-39.944l7.128-3.461a55.676,55.676,0,0,1,21.785-5.562l46.56-2.23a162.352,162.352,0,0,0,51.908-10.982c1.1-.436,2.213-.868,3.444-1.347,15.665-6.1,35.161-13.69,42.369-29.648a35.172,35.172,0,0,0-.593-30.321l-1.227-2.463a48.527,48.527,0,0,0-28.884-24.538l-15.93-4.945a.015.015,0,0,0-.013,0,.02.02,0,0,0-.009.011.017.017,0,0,0,0,.014.018.018,0,0,0,.011.009l15.929,4.945a48.49,48.49,0,0,1,28.862,24.519l1.228,2.463a35.139,35.139,0,0,1,.592,30.289c-7.2,15.943-26.694,23.532-42.348,29.629l-.213.083c-1.1.428-2.177.848-3.232,1.264a162.235,162.235,0,0,1-51.872,10.98Z" transform="translate(-1294.39 -552.055)" fill="#d6101b"/>
        <rect id="Rectangle_167" data-name="Rectangle 167" width="4.743" height="26.341" rx="2.371" transform="translate(167.986 236.159)" fill="#ffe079"/>
        <rect id="Rectangle_168" data-name="Rectangle 168" width="4.743" height="26.341" rx="2.371" transform="translate(211.778 221.477)" fill="#ffc427"/>
        <rect id="Rectangle_169" data-name="Rectangle 169" width="4.743" height="26.341" rx="2.371" transform="translate(295.172 195.511)" fill="#ffc427"/>
        <rect id="Rectangle_170" data-name="Rectangle 170" width="4.743" height="26.341" rx="2.371" transform="translate(254.371 208.307)" fill="#ffe079"/>
        <circle id="Ellipse_32" data-name="Ellipse 32" cx="2.592" cy="2.592" r="2.592" transform="translate(346.501 85.383)" fill="#fff"/>
      </g>
    </g>
  </g>
</svg>
